<?xml version="1.0" encoding="UTF-8" standalone="no"?>
<svg xmlns:xlink="http://www.w3.org/1999/xlink" height="72.0px" width="104.0px" xmlns="http://www.w3.org/2000/svg">
  <g transform="matrix(1.0, 0.0, 0.0, 1.0, 0.0, 0.0)">
    <path d="M103.0 68.0 L103.0 69.0 103.0 70.0 103.0 71.0 103.0 72.0 102.0 72.0 102.0 71.0 101.75 70.25 Q101.5 70.0 101.0 70.0 L100.75 69.25 99.0 68.0 98.75 67.25 Q98.5 67.0 98.0 67.0 L97.0 67.0 Q97.0 67.5 97.25 67.75 L98.0 68.0 97.95 69.0 Q97.7 70.65 96.0 69.0 L95.8 68.1 95.0 67.0 94.8 66.1 94.0 65.0 94.75 64.75 95.0 64.0 95.5 64.0 95.0 63.0 94.0 63.0 93.0 63.0 93.0 64.0 92.0 64.0 92.0 63.0 92.0 62.0 92.75 61.75 93.0 61.0 93.75 60.75 94.0 60.0 93.75 59.25 93.0 59.0 92.0 59.0 92.0 60.0 91.0 60.0 90.0 60.0 90.0 61.0 90.0 62.0 90.0 63.0 89.5 63.0 Q89.65 60.9 88.0 61.0 L87.0 61.0 86.85 60.05 86.0 58.0 86.0 57.0 85.75 56.25 85.0 56.0 84.0 56.0 Q83.5 56.0 83.4 55.8 82.7 54.3 81.0 54.0 L80.75 53.25 Q80.5 53.0 80.0 53.0 L79.0 53.0 78.75 52.25 78.0 52.0 77.75 51.25 Q77.5 51.0 77.0 51.0 L76.75 50.25 76.0 50.0 76.0 51.0 75.0 51.0 Q73.05 50.95 72.0 50.0 L71.75 49.25 Q71.5 49.0 71.0 49.0 L70.0 49.0 69.0 49.0 68.0 49.0 67.0 49.0 66.0 49.0 65.0 49.0 64.0 49.0 63.75 48.25 63.0 48.0 62.0 48.0 61.05 47.85 59.0 47.0 58.75 46.25 58.0 46.0 57.0 46.0 56.0 46.0 55.0 46.0 54.0 46.0 53.0 46.0 Q53.0 46.5 53.25 46.75 L54.0 47.0 53.95 48.0 Q53.7 49.7 52.0 50.0 L51.75 49.25 51.0 49.0 51.0 50.0 50.5 50.1 Q50.15 51.65 48.0 51.0 L47.0 51.0 47.0 52.0 46.0 52.0 45.0 52.0 44.75 51.25 Q44.5 51.0 44.0 51.0 L44.0 50.0 44.0 49.0 44.75 48.75 45.0 48.0 45.0 47.0 45.75 46.75 46.0 46.0 47.0 46.0 48.0 46.0 48.5 46.0 48.0 45.0 47.75 44.25 Q47.5 44.0 47.0 44.0 L46.0 44.0 46.0 45.0 45.0 45.0 44.0 45.0 44.0 46.0 44.0 47.0 43.0 47.0 43.0 48.0 42.0 48.0 42.0 49.0 41.0 49.0 41.0 50.0 40.8 50.6 Q40.0 51.0 39.0 51.0 L38.0 51.0 38.0 52.0 38.0 53.0 38.8 54.1 39.0 55.0 38.0 55.0 38.0 56.0 37.0 56.0 37.0 57.0 36.0 57.0 35.0 57.0 35.0 58.0 34.0 58.0 33.0 58.0 33.0 59.0 32.0 59.0 31.0 59.0 31.0 60.0 30.8 60.9 30.0 62.0 29.75 61.25 Q29.5 61.0 29.0 61.0 L29.0 62.0 28.4 62.2 Q27.7 63.7 26.0 64.0 L25.0 64.0 25.0 65.0 24.0 65.0 23.0 65.0 23.0 66.0 22.0 66.0 21.0 66.0 21.0 67.0 20.0 67.0 19.0 67.0 18.0 67.0 16.0 67.0 16.0 68.0 15.0 68.0 14.0 68.0 14.0 67.0 14.75 66.75 15.0 66.0 15.75 65.75 16.0 65.0 Q17.45 63.8 20.15 64.4 20.5 64.5 21.0 64.0 L22.0 63.0 22.75 62.75 23.0 62.0 24.0 62.0 24.75 61.75 25.0 61.0 25.75 60.75 26.0 60.0 26.75 59.75 27.0 59.0 27.75 58.75 28.0 58.0 28.0 57.0 28.6 56.8 Q29.7 54.3 28.0 54.0 L27.0 54.0 27.0 55.0 26.0 55.0 25.75 54.25 25.0 54.0 25.0 55.0 25.0 55.5 Q24.5 55.5 24.0 55.0 L23.75 54.25 Q23.5 54.0 23.0 54.0 L22.0 54.0 21.0 54.0 20.75 53.25 Q20.5 53.0 20.0 53.0 L20.0 54.0 19.0 54.0 18.0 54.0 18.0 55.0 17.15 54.8 Q15.3 53.7 16.0 50.0 L15.75 49.25 14.0 48.0 14.0 49.0 14.0 50.0 13.0 50.0 12.0 50.0 11.0 50.0 10.0 50.0 9.75 49.25 9.0 49.0 8.75 48.25 Q8.5 48.0 8.0 48.0 L7.0 48.0 7.0 47.0 7.75 46.75 8.0 46.0 7.75 45.25 7.0 45.0 6.0 45.0 6.0 44.0 6.0 43.0 6.0 42.0 6.0 41.0 6.75 40.75 7.0 40.0 7.75 39.75 8.0 39.0 8.75 38.75 9.0 38.0 9.0 37.0 10.0 37.0 11.0 37.0 12.0 37.0 13.0 37.0 13.75 36.75 14.0 36.0 14.75 35.75 15.0 35.0 16.0 35.0 Q16.5 35.5 17.0 35.5 L17.0 35.0 18.0 35.0 18.75 34.75 19.0 34.0 19.5 34.0 19.0 33.0 19.0 32.5 Q16.9 32.65 17.0 31.0 L18.8 30.6 Q19.0 30.5 19.0 30.0 L18.75 29.25 18.0 29.0 17.0 29.0 17.0 30.0 16.0 30.0 15.0 30.0 15.0 31.0 14.0 31.0 12.0 31.0 11.0 31.0 10.0 31.0 9.0 31.0 9.0 32.0 8.0 32.0 7.0 32.0 6.75 31.25 6.0 31.0 5.0 31.05 Q3.4 31.15 4.0 29.0 L3.75 28.25 3.0 28.0 2.75 27.25 Q2.5 27.0 2.0 27.0 L1.0 27.0 0.25 26.75 0.0 26.0 1.0 26.0 1.75 25.75 2.0 25.0 2.0 24.0 3.0 24.0 4.0 24.0 4.75 23.75 5.0 23.0 6.0 23.0 7.0 23.0 8.0 23.0 9.8 22.6 Q10.0 22.5 10.0 22.0 L11.0 22.0 11.0 23.0 11.0 24.0 Q12.75 25.7 16.85 24.55 L17.0 24.0 16.75 23.25 16.0 23.0 15.75 22.25 15.0 22.0 15.0 21.0 15.95 20.85 Q18.3 20.05 15.0 20.0 L14.0 20.0 13.05 20.1 Q10.9 20.65 11.0 19.0 L10.75 18.25 10.0 18.0 9.75 17.25 9.0 17.0 8.75 16.25 Q8.5 16.0 8.0 16.0 L8.0 17.0 7.1 16.8 6.0 16.0 5.75 15.25 Q5.5 15.0 5.0 15.0 L4.0 15.0 4.0 14.0 4.75 13.75 5.0 13.0 5.0 12.0 6.0 12.0 7.0 12.0 8.0 12.0 9.8 11.6 Q10.0 11.5 10.0 11.0 11.7 10.7 12.4 9.2 12.5 9.0 13.0 9.0 L13.75 8.75 14.0 8.0 14.0 7.0 14.75 6.75 15.0 6.0 15.75 5.75 16.0 5.0 17.0 5.0 Q17.5 5.5 18.0 5.5 L18.0 5.0 20.05 4.15 21.0 4.0 21.75 3.75 22.0 3.0 23.0 3.0 24.0 3.0 26.0 3.0 27.0 3.0 27.75 2.75 28.0 2.0 28.75 1.75 29.0 1.0 29.75 0.75 30.0 0.0 31.0 0.0 32.0 0.0 Q32.0 0.5 32.25 0.75 L33.0 1.0 34.0 1.0 35.1 1.8 36.0 2.0 36.25 2.75 37.0 3.0 38.0 3.0 40.0 3.0 41.0 3.0 42.0 3.0 43.0 3.0 Q43.0 3.5 43.25 3.75 L44.0 4.0 45.0 4.0 Q45.3 5.7 47.8 4.6 L48.0 4.0 49.0 4.0 50.0 4.0 51.0 4.0 Q51.5 4.5 52.0 4.5 L52.0 4.0 53.0 4.0 Q53.0 4.5 53.25 4.75 L54.0 5.0 55.0 5.0 56.0 5.0 Q56.0 5.5 56.25 5.75 L57.0 6.0 59.0 6.0 60.0 6.0 61.0 6.0 Q61.0 6.5 61.25 6.75 L62.0 7.0 63.0 7.0 63.75 6.75 64.0 6.0 68.0 6.0 69.0 6.0 69.25 6.75 70.0 7.0 71.0 7.0 Q71.0 7.5 71.25 7.75 L72.0 8.0 72.25 8.75 73.0 9.0 73.0 10.0 73.0 11.0 73.0 12.0 73.0 13.0 73.0 14.0 73.0 15.0 73.0 16.0 73.0 17.0 73.0 18.0 73.0 19.0 73.0 20.0 73.0 21.0 73.0 22.0 73.0 23.0 73.0 24.0 73.0 25.0 73.0 26.0 73.0 27.0 73.0 28.0 73.0 29.0 73.0 30.0 73.0 31.0 73.0 32.0 73.0 33.0 73.0 34.0 73.0 35.0 73.0 36.0 73.0 37.0 73.0 38.0 73.0 39.0 73.0 40.0 73.0 41.0 73.0 42.0 73.0 43.0 73.0 44.0 73.0 45.0 73.0 46.0 73.0 47.0 Q73.0 47.5 73.25 47.75 L74.0 48.0 Q74.0 48.5 74.25 48.75 L75.0 49.0 75.75 48.75 76.0 48.0 77.0 48.0 78.0 48.0 78.0 49.0 78.25 49.75 79.0 50.0 80.0 50.0 Q80.0 50.5 80.25 50.75 L81.0 51.0 81.25 51.75 82.0 52.0 Q82.3 53.7 84.8 52.6 85.0 52.5 85.0 52.0 L85.75 51.75 86.0 51.0 86.75 50.75 87.0 50.0 88.0 50.0 Q88.0 50.5 88.25 50.75 L89.0 51.0 Q89.0 51.5 89.25 51.75 L90.0 52.0 90.25 52.75 91.0 53.0 Q91.0 53.5 91.25 53.75 L92.0 54.0 Q92.0 54.5 92.25 54.75 L93.0 55.0 94.0 55.0 94.0 56.0 Q94.0 56.5 94.25 56.75 L95.0 57.0 95.0 58.0 Q95.0 58.5 95.25 58.75 L96.0 59.0 96.25 59.75 97.0 60.0 97.0 61.0 Q97.0 61.5 97.25 61.75 L98.0 62.0 Q98.0 62.5 98.25 62.75 L99.0 63.0 100.0 63.0 102.15 64.75 103.0 65.0 Q103.0 65.5 103.25 65.75 L104.0 66.0 104.0 67.0 104.0 68.0 103.0 68.0 M49.0 49.0 L49.0 49.5 Q51.25 49.5 49.0 49.0 M19.0 49.5 Q21.25 49.5 19.0 49.0 L19.0 49.5 M22.0 52.0 L22.0 52.5 Q24.25 52.5 22.0 52.0 M30.0 54.0 L30.0 54.5 Q32.25 54.5 30.0 54.0 M34.0 56.5 Q36.25 56.5 34.0 56.0 L34.0 56.5 M21.0 38.0 L21.0 38.5 Q23.25 38.5 21.0 38.0 M21.0 44.0 L21.0 44.5 Q23.25 44.5 21.0 44.0 M24.0 35.5 Q26.25 35.5 24.0 35.0 L24.0 35.5 M21.0 32.0 L21.0 32.5 Q23.25 32.5 21.0 32.0 M21.0 25.0 L21.0 25.5 Q23.25 25.5 21.0 25.0 M24.0 29.0 L24.0 29.5 Q26.25 29.5 24.0 29.0 M17.0 45.0 L17.0 45.5 Q19.25 45.5 17.0 45.0 M11.0 46.5 Q13.25 46.5 11.0 46.0 L11.0 46.5 M11.0 42.0 L11.0 42.5 Q13.25 42.5 11.0 42.0 M13.0 41.0 L13.0 41.5 Q15.25 41.5 13.0 41.0 M16.0 40.5 Q18.25 40.5 16.0 40.0 L16.0 40.5 M19.0 39.0 L19.0 39.5 Q21.25 39.5 19.0 39.0 M10.0 29.0 L10.0 29.5 Q12.25 29.5 10.0 29.0 M6.0 28.5 Q8.25 28.5 6.0 28.0 L6.0 28.5 M14.0 29.0 L14.0 29.5 Q16.25 29.5 14.0 29.0 M19.0 26.0 L19.0 26.5 Q21.25 26.5 19.0 26.0 M20.0 20.0 L20.0 20.5 Q22.25 20.5 20.0 20.0 M20.0 22.0 L19.0 22.0 Q19.0 22.5 19.25 22.75 L20.0 23.0 20.5 23.0 20.0 22.0 M13.0 14.0 L13.0 14.5 Q15.25 14.5 13.0 14.0 M15.0 13.0 L15.0 13.5 Q17.25 13.5 15.0 13.0 M16.0 18.0 L16.0 18.5 Q18.25 18.5 16.0 18.0 M10.0 16.0 L10.0 16.5 Q12.25 16.5 10.0 16.0 M18.0 10.0 L18.0 10.5 Q20.25 10.5 18.0 10.0 M20.0 9.0 L20.0 9.5 Q22.25 9.5 20.0 9.0 M26.0 12.5 Q28.25 12.5 26.0 12.0 L26.0 12.5 M24.0 22.5 Q26.25 22.5 24.0 22.0 L24.0 22.5 M30.0 6.0 L30.0 6.5 Q32.25 6.5 30.0 6.0 M25.0 7.0 L25.0 7.5 Q27.25 7.5 25.0 7.0 M22.0 8.0 L22.0 8.5 Q24.25 8.5 22.0 8.0 M34.0 6.5 Q36.25 6.5 34.0 6.0 L34.0 6.5 M39.0 7.5 Q41.25 7.5 39.0 7.0 L39.0 7.5 M32.0 11.5 Q34.25 11.5 32.0 11.0 L32.0 11.5 M35.0 10.0 L35.0 10.5 Q37.25 10.5 35.0 10.0 M60.0 46.0 L60.0 46.5 Q62.25 46.5 60.0 46.0 M49.0 44.5 Q51.25 44.5 49.0 44.0 L49.0 44.5 M57.0 14.5 Q59.25 14.5 57.0 14.0 L57.0 14.5 M52.0 13.5 Q54.25 13.5 52.0 13.0 L52.0 13.5 M49.0 14.0 L49.0 14.5 Q51.25 14.5 49.0 14.0 M47.0 9.0 L47.0 9.5 Q49.25 9.5 47.0 9.0 M43.0 9.5 Q45.25 9.5 43.0 9.0 L43.0 9.5 M56.0 10.5 Q58.25 10.5 56.0 10.0 L56.0 10.5 M51.0 9.5 Q53.25 9.5 51.0 9.0 L51.0 9.5 M69.0 12.0 L69.0 12.5 Q71.25 12.5 69.0 12.0 M65.0 11.0 L65.0 11.5 Q67.25 11.5 65.0 11.0 M61.0 11.5 Q63.25 11.5 61.0 11.0 L61.0 11.5 M96.0 65.0 L96.0 65.5 Q98.25 65.5 96.0 65.0 M89.75 56.25 Q89.5 56.0 89.0 56.0 L88.0 56.0 87.0 56.0 87.25 56.75 88.0 57.0 89.0 57.0 89.0 58.0 89.0 59.0 Q89.5 59.5 90.0 59.5 L90.0 59.0 90.0 58.0 90.0 57.0 89.75 56.25" fill="#8cadd6" fill-rule="evenodd" stroke="none"/>
  </g>
</svg>
