<?xml version="1.0" encoding="UTF-8" standalone="no"?>
<svg xmlns:xlink="http://www.w3.org/1999/xlink" height="14.0px" width="20.0px" xmlns="http://www.w3.org/2000/svg">
  <g transform="matrix(1.0, 0.0, 0.0, 1.0, 0.0, 0.0)">
    <path d="M16.0 6.0 L17.1 6.8 18.0 7.0 19.0 7.0 20.0 7.0 20.0 8.0 20.0 9.0 20.0 10.0 19.0 10.0 18.0 10.0 18.0 11.0 17.0 11.0 16.0 11.0 15.0 11.0 14.75 10.25 Q14.5 10.0 14.0 10.0 L14.0 11.0 13.0 11.0 12.0 11.0 11.0 11.0 10.0 11.0 9.0 11.0 8.0 11.0 7.0 11.0 7.0 12.0 7.0 13.0 7.0 14.0 6.0 14.0 5.0 14.0 4.0 14.0 3.0 14.0 2.0 14.0 1.0 14.0 0.75 13.25 0.0 13.0 0.0 12.0 0.0 11.0 0.0 10.0 0.0 9.0 0.75 8.75 1.0 8.0 1.75 7.75 2.0 7.0 2.8 5.9 3.0 5.0 5.85 4.55 6.0 4.0 6.0 3.0 7.0 3.0 8.0 3.0 8.75 2.75 9.0 2.0 9.0 1.0 10.0 1.0 11.0 1.0 11.75 0.75 12.0 0.0 13.0 0.0 14.8 0.4 15.0 1.0 Q15.0 2.0 15.4 2.8 15.5 3.0 16.0 3.0 16.0 3.5 16.25 3.75 L17.0 4.0 17.0 5.0 16.75 5.75 16.0 6.0 M7.0 7.0 L7.0 7.5 Q9.25 7.5 7.0 7.0 M5.0 8.0 L5.0 8.5 Q7.25 8.5 5.0 8.0 M10.0 5.0 L10.0 5.5 Q12.25 5.5 10.0 5.0 M12.0 4.5 Q14.25 4.5 12.0 4.0 L12.0 4.5" fill="#8cadd6" fill-rule="evenodd" stroke="none"/>
  </g>
</svg>
