<?xml version="1.0" encoding="UTF-8" standalone="no"?>
<svg xmlns:xlink="http://www.w3.org/1999/xlink" height="30.0px" width="26.0px" xmlns="http://www.w3.org/2000/svg">
  <g transform="matrix(1.0, 0.0, 0.0, 1.0, 0.0, 0.0)">
    <path d="M21.0 17.0 L21.25 17.75 22.0 18.0 Q22.0 18.5 22.25 18.75 L23.0 19.0 23.8 20.1 24.0 21.0 24.25 21.75 25.0 22.0 Q25.0 22.5 25.25 22.75 L26.0 23.0 26.0 24.0 25.0 24.0 25.0 25.0 25.8 26.1 26.0 27.0 25.0 27.0 25.0 28.0 24.0 28.0 23.0 28.0 21.0 28.0 20.0 28.0 19.0 28.0 18.0 28.0 17.75 27.25 Q17.5 27.0 17.0 27.0 L17.0 28.0 16.0 28.0 16.0 29.0 15.0 29.0 14.75 28.25 Q14.5 28.0 14.0 28.0 L13.0 28.0 13.0 29.0 12.0 29.0 12.0 30.0 11.0 30.0 10.75 29.25 10.0 29.0 9.0 29.0 9.0 28.0 10.0 28.0 10.75 27.75 11.0 27.0 12.0 27.0 13.0 27.0 13.5 27.0 13.0 26.0 12.0 26.0 11.75 25.25 Q11.5 25.0 11.0 25.0 L10.0 25.0 8.0 25.0 8.0 24.0 9.0 24.0 9.75 23.75 10.0 23.0 10.0 22.0 10.5 22.0 10.0 21.0 10.0 20.0 11.0 20.0 Q12.0 20.0 12.8 19.6 13.0 19.5 13.0 19.0 L13.75 18.75 14.0 18.0 14.5 18.0 14.0 17.0 13.75 16.25 13.0 16.0 12.0 16.0 11.75 15.25 Q11.5 15.0 11.0 15.0 L10.75 14.25 10.0 14.0 9.75 13.25 9.0 13.0 9.1 12.05 Q9.65 9.9 8.0 10.0 L7.0 10.0 7.0 9.0 6.75 8.25 6.0 8.0 6.0 7.0 6.0 6.0 6.5 6.0 6.0 5.0 6.0 4.0 6.0 3.0 6.75 2.75 7.0 2.0 7.75 1.75 8.0 1.0 8.75 0.75 9.0 0.0 10.0 0.0 11.0 0.0 12.8 0.4 Q13.0 0.5 13.0 1.0 L12.0 1.0 12.0 2.0 12.0 3.0 12.25 3.75 13.0 4.0 13.75 3.75 14.0 3.0 15.0 3.0 16.0 3.0 Q16.0 3.5 16.25 3.75 L17.0 4.0 17.0 5.0 16.75 5.75 16.0 6.0 16.0 7.0 15.0 7.0 15.25 7.75 16.0 8.0 Q16.0 8.5 16.25 8.75 L17.0 9.0 Q17.0 9.5 17.25 9.75 L18.0 10.0 Q18.0 11.5 18.45 12.85 L19.0 13.0 Q19.3 15.2 20.75 16.3 L21.0 17.0 M22.0 26.0 L22.0 26.5 Q24.25 26.5 22.0 26.0 M17.0 19.0 L17.0 19.5 Q19.25 19.5 17.0 19.0 M20.0 22.0 L20.0 22.5 Q22.25 22.5 20.0 22.0 M14.0 24.5 Q16.25 24.5 14.0 24.0 L14.0 24.5 M14.0 14.5 Q16.25 14.5 14.0 14.0 L14.0 14.5 M6.0 13.0 L6.25 13.75 7.0 14.0 6.95 15.0 Q6.7 16.7 5.0 17.0 L4.0 17.0 3.75 16.25 3.0 16.0 2.0 16.0 1.0 16.0 0.0 16.0 0.0 15.0 0.75 14.75 1.0 14.0 1.0 13.0 2.0 13.0 3.0 13.0 4.0 13.0 5.0 13.0 6.0 13.0 M10.0 5.0 L10.0 5.5 Q12.25 5.5 10.0 5.0 M11.0 10.5 Q13.25 10.5 11.0 10.0 L11.0 10.5" fill="#8cadd6" fill-rule="evenodd" stroke="none"/>
  </g>
</svg>
