<?xml version="1.0" encoding="UTF-8" standalone="no"?>
<svg xmlns:xlink="http://www.w3.org/1999/xlink" height="10.0px" width="10.25px" xmlns="http://www.w3.org/2000/svg">
  <g transform="matrix(1.0, 0.0, 0.0, 1.0, 0.0, 0.0)">
    <path d="M9.0 1.0 L9.0 2.0 9.25 2.75 10.0 3.0 10.1 3.95 Q10.65 6.15 9.0 6.0 L8.0 6.0 8.0 7.0 7.05 7.15 5.0 8.0 4.0 8.0 4.0 9.0 3.0 9.0 2.0 9.0 2.0 10.0 1.0 10.0 0.75 9.25 0.0 9.0 0.0 8.0 0.0 7.0 0.0 6.0 0.0 5.0 0.0 4.0 0.0 3.0 0.0 2.0 0.0 1.0 0.0 0.0 1.0 0.0 Q1.5 0.5 2.0 0.5 L2.0 0.0 3.0 0.0 4.0 0.0 Q4.0 0.5 4.25 0.75 L5.0 1.0 5.75 0.75 6.0 0.0 7.0 0.0 Q7.0 0.5 7.25 0.75 L8.0 1.0 9.0 1.0" fill="#bdd6bd" fill-rule="evenodd" stroke="none"/>
  </g>
</svg>
