<?xml version="1.0" encoding="UTF-8" standalone="no"?>
<svg xmlns:xlink="http://www.w3.org/1999/xlink" height="11.0px" width="25.0px" xmlns="http://www.w3.org/2000/svg">
  <g transform="matrix(1.0, 0.0, 0.0, 1.0, 0.0, 0.0)">
    <path d="M24.0 3.0 L25.0 3.0 24.75 3.75 24.0 4.0 24.0 5.0 23.0 5.0 22.0 5.0 Q22.0 5.5 22.25 5.75 L23.0 6.0 23.0 7.0 22.0 7.0 21.0 7.0 21.0 8.0 20.0 8.0 19.0 8.0 19.0 9.0 18.0 9.0 17.0 9.0 16.0 9.0 16.0 10.0 15.0 10.0 14.0 10.0 14.0 11.0 13.0 11.0 12.0 11.0 9.0 11.0 8.8 10.1 8.0 9.0 7.75 8.25 7.0 8.0 7.0 9.0 7.0 10.0 6.1 9.8 Q5.5 9.5 5.0 9.0 L4.0 9.0 4.0 8.0 4.75 7.75 5.0 7.0 4.75 6.25 4.0 6.0 4.0 7.0 3.0 7.0 3.0 6.0 3.0 5.0 3.75 4.75 4.0 4.0 4.0 3.0 5.0 3.0 Q5.5 3.5 6.0 3.5 L6.0 3.0 7.0 3.0 7.75 2.75 8.0 2.0 8.0 1.0 9.1 1.8 10.0 2.0 10.75 1.75 11.0 1.0 12.0 1.0 13.0 1.0 Q13.0 1.5 13.25 1.75 L14.0 2.0 14.75 1.75 15.0 1.0 16.0 1.0 17.0 1.0 17.75 0.75 18.0 0.0 19.0 0.0 20.0 0.0 21.0 0.0 21.25 0.75 22.0 1.0 22.0 2.0 23.1 2.8 24.0 3.0 M9.0 3.0 L9.0 3.5 Q11.25 3.5 9.0 3.0 M10.0 5.0 L10.0 5.5 Q12.25 5.5 10.0 5.0 M6.0 4.5 Q8.25 4.5 6.0 4.0 L6.0 4.5 M20.0 6.0 L20.0 6.5 Q22.25 6.5 20.0 6.0 M18.0 7.0 L18.0 7.5 Q20.25 7.5 18.0 7.0 M13.0 9.0 L13.0 9.5 Q15.25 9.5 13.0 9.0 M12.0 7.0 L12.0 7.5 Q14.25 7.5 12.0 7.0 M15.0 7.0 L15.0 7.5 Q17.25 7.5 15.0 7.0 M14.0 3.0 L14.0 3.5 Q16.25 3.5 14.0 3.0 M13.0 5.0 L13.0 5.5 Q15.25 5.5 13.0 5.0 M11.0 2.0 L11.0 2.5 Q13.25 2.5 11.0 2.0 M20.0 3.0 L20.0 3.5 Q22.25 3.5 20.0 3.0 M18.0 4.5 Q20.25 4.5 18.0 4.0 L18.0 4.5 M16.0 5.0 L16.0 5.5 Q18.25 5.5 16.0 5.0 M16.0 2.5 Q18.25 2.5 16.0 2.0 L16.0 2.5 M18.0 1.0 L18.0 1.5 Q20.25 1.5 18.0 1.0 M3.0 2.0 L2.0 2.0 0.0 2.0 0.0 1.0 1.0 1.0 2.0 1.0 3.0 1.0 4.0 1.0 4.0 2.0 3.0 2.0 M8.0 6.0 L8.0 6.5 Q10.25 6.5 8.0 6.0 M10.0 8.0 L10.0 8.5 Q12.25 8.5 10.0 8.0" fill="#ffdea5" fill-rule="evenodd" stroke="none"/>
  </g>
</svg>
