<?xml version="1.0" encoding="UTF-8" standalone="no"?>
<svg xmlns:xlink="http://www.w3.org/1999/xlink" height="23.0px" width="32.0px" xmlns="http://www.w3.org/2000/svg">
  <g transform="matrix(1.0, 0.0, 0.0, 1.0, 0.0, 0.0)">
    <path d="M31.0 6.0 L30.0 6.0 30.0 7.0 29.0 7.0 28.0 7.0 28.0 8.0 27.1 8.2 26.0 9.0 25.0 9.0 25.0 10.0 24.75 10.75 24.0 11.0 23.0 11.0 Q23.0 11.5 23.25 11.75 L24.0 12.0 23.75 12.75 23.0 13.0 Q22.4 15.15 23.9 15.45 L24.0 16.0 23.0 16.0 23.0 17.0 22.0 17.0 22.0 18.0 21.0 18.0 21.0 19.0 20.0 19.0 19.0 19.0 19.0 20.0 18.9 20.5 13.0 21.0 12.0 21.0 11.0 21.0 11.0 22.0 10.0 22.0 9.1 22.2 8.0 23.0 8.0 22.0 7.75 21.25 7.0 21.0 6.75 20.25 6.0 20.0 5.0 20.0 4.0 20.0 4.0 19.0 4.75 18.75 5.0 18.0 5.0 17.0 5.0 16.0 5.0 15.0 4.8 14.1 4.0 13.0 4.75 12.75 5.0 12.0 Q6.65 12.15 6.1 9.95 L6.0 9.0 6.0 8.0 7.0 8.0 7.6 7.8 Q8.65 5.9 7.0 6.0 L6.75 5.25 6.0 5.0 5.0 5.0 4.75 4.25 4.0 4.0 4.0 5.0 3.0 5.0 2.0 5.0 1.75 4.25 1.0 4.0 0.75 3.25 0.0 3.0 0.0 2.0 0.75 1.75 1.0 1.0 1.75 0.75 2.0 0.0 3.0 0.0 Q3.5 0.5 4.0 0.5 L4.0 0.0 Q6.95 1.55 12.0 1.05 L13.0 1.0 Q12.9 2.65 14.8 1.6 L15.0 1.0 16.0 1.0 Q16.0 1.5 16.25 1.75 L17.0 2.0 18.0 2.0 19.0 2.0 20.0 2.0 21.0 2.0 21.25 2.75 22.0 3.0 23.0 3.0 Q24.45 4.2 27.15 3.65 28.0 3.5 29.0 4.0 29.0 4.5 29.25 4.75 L30.0 5.0 31.0 5.0 32.0 5.0 32.0 6.0 31.0 6.0" fill="#deb5d6" fill-rule="evenodd" stroke="none"/>
  </g>
</svg>
