<?xml version="1.0" encoding="UTF-8" standalone="no"?>
<svg xmlns:xlink="http://www.w3.org/1999/xlink" height="16.0px" width="9.0px" xmlns="http://www.w3.org/2000/svg">
  <g transform="matrix(1.0, 0.0, 0.0, 1.0, 0.0, 0.0)">
    <path d="M8.0 3.0 L7.0 3.0 7.0 4.0 7.0 6.0 7.0 7.0 6.0 7.0 6.0 8.0 6.8 9.1 7.0 10.0 6.0 10.0 Q6.0 11.0 6.4 11.8 6.5 12.0 7.0 12.0 L7.0 13.0 6.0 13.0 6.0 14.0 6.0 15.0 5.0 15.0 5.0 16.0 4.0 16.0 3.75 15.25 3.0 15.0 3.0 14.0 3.0 13.0 2.75 12.25 Q2.5 12.0 2.0 12.0 L1.75 11.25 1.0 11.0 Q0.5 11.0 0.4 10.8 0.0 10.0 0.0 9.0 2.45 7.45 2.05 3.0 L2.0 2.0 2.5 2.0 2.0 1.0 2.0 0.0 3.0 0.0 4.0 0.0 Q4.0 0.5 4.25 0.75 L5.0 1.0 6.0 1.0 7.0 1.0 8.0 1.0 9.0 1.0 9.0 2.0 8.0 2.0 8.0 3.0 M5.0 6.5 Q7.25 6.5 5.0 6.0 L5.0 6.5" fill="#8cadd6" fill-rule="evenodd" stroke="none"/>
  </g>
</svg>
