<?xml version="1.0" encoding="UTF-8" standalone="no"?>
<svg xmlns:xlink="http://www.w3.org/1999/xlink" height="31.0px" width="30.0px" xmlns="http://www.w3.org/2000/svg">
  <g transform="matrix(1.0, 0.0, 0.0, 1.0, 0.0, 0.0)">
    <path d="M29.0 18.0 L29.8 19.1 30.0 20.0 29.0 20.0 28.0 20.0 28.0 21.0 28.0 22.0 27.0 22.0 27.25 22.75 28.0 23.0 28.0 24.0 28.0 25.0 27.0 25.0 27.0 26.0 26.0 26.0 26.0 25.0 26.0 24.0 25.8 23.1 25.0 22.0 24.75 21.25 24.0 21.0 23.0 21.0 22.75 20.25 22.0 20.0 Q22.0 19.5 21.8 19.4 L20.0 19.0 19.45 18.85 Q18.7 16.8 16.0 17.0 L15.75 16.25 15.0 16.0 15.0 15.0 14.75 14.25 Q14.5 14.0 14.0 14.0 L13.05 13.85 11.0 13.0 11.0 12.0 11.5 12.0 11.0 11.0 10.0 11.0 10.0 10.0 10.5 10.0 10.0 9.0 9.75 8.25 9.0 8.0 9.0 9.0 8.0 9.0 7.85 8.45 5.0 8.0 5.0 9.0 4.0 9.0 3.0 9.0 2.75 8.25 Q2.5 8.0 2.0 8.0 L1.0 8.0 0.0 8.0 0.0 7.0 0.75 6.75 1.0 6.0 1.0 5.0 1.75 4.75 2.0 4.0 2.0 3.0 3.0 3.0 3.75 2.75 4.0 2.0 5.0 2.0 Q5.0 2.5 5.25 2.75 L6.0 3.0 6.75 2.75 7.0 2.0 8.0 2.0 9.0 2.0 9.75 1.75 10.0 1.0 Q12.75 1.2 14.15 0.25 L15.0 0.0 Q15.5 0.5 16.1 0.8 L17.0 1.0 Q17.0 1.5 17.25 1.75 L18.0 2.0 18.0 3.0 18.0 4.0 17.0 4.0 16.0 4.0 16.0 5.0 16.0 6.0 15.0 6.0 15.0 7.0 15.25 7.75 16.0 8.0 Q17.05 9.5 18.8 10.4 19.0 10.5 19.0 11.0 19.0 11.5 19.25 11.75 L20.0 12.0 Q21.0 15.0 24.05 15.85 L25.0 16.0 Q24.9 17.65 26.8 16.6 L27.0 16.0 28.0 16.0 28.0 17.0 Q28.0 17.5 28.25 17.75 L29.0 18.0 M16.0 28.0 L22.95 28.5 23.0 29.0 23.0 30.0 23.0 31.0 22.0 31.0 21.0 31.0 20.8 30.4 19.0 30.0 18.0 30.0 17.75 29.25 Q17.5 29.0 17.0 29.0 L16.0 29.0 16.0 28.0" fill="#bdd6bd" fill-rule="evenodd" stroke="none"/>
  </g>
</svg>
