<?xml version="1.0" encoding="UTF-8" standalone="no"?>
<svg xmlns:xlink="http://www.w3.org/1999/xlink" height="27.0px" width="32.0px" xmlns="http://www.w3.org/2000/svg">
  <g transform="matrix(1.0, 0.0, 0.0, 1.0, 0.0, 0.0)">
    <path d="M31.0 10.0 L30.0 10.0 29.0 10.0 29.0 11.0 28.0 11.0 Q28.0 11.5 28.25 11.75 L29.0 12.0 29.0 13.0 28.0 13.0 28.0 14.0 Q28.0 14.5 28.25 14.75 L29.0 15.0 29.0 16.0 29.0 17.0 29.0 18.0 28.0 18.0 28.0 19.0 Q28.0 19.5 28.25 19.75 L29.0 20.0 29.0 21.0 Q29.0 21.5 29.25 21.75 L30.0 22.0 30.0 23.0 29.0 23.0 29.0 24.0 28.0 24.0 27.0 24.0 26.75 23.25 Q26.5 23.0 26.0 23.0 L25.0 23.0 24.0 23.0 23.0 23.0 23.0 24.0 22.0 24.0 20.0 24.0 19.0 24.0 19.0 25.0 19.0 26.0 19.0 27.0 18.0 27.0 17.0 27.0 16.0 27.0 14.15 26.65 Q11.45 27.2 10.0 26.0 L9.75 25.25 9.0 25.0 9.0 26.0 8.25 25.75 Q8.0 25.5 8.0 25.0 L7.75 24.25 7.0 24.0 7.0 23.0 Q8.5 22.0 8.9 20.0 L9.0 19.0 8.75 18.25 Q8.5 18.0 8.0 18.0 L8.0 17.0 8.75 16.75 9.0 16.0 8.75 15.25 Q8.5 15.0 8.0 15.0 L7.75 14.25 7.0 14.0 6.75 13.25 6.0 13.0 6.0 12.0 6.5 12.0 6.0 11.0 5.75 10.25 Q5.5 10.0 5.0 10.0 L4.0 10.0 3.75 9.25 3.0 9.0 2.0 9.0 1.1 8.8 0.0 8.0 0.0 7.0 1.0 7.0 2.0 7.0 Q2.0 7.5 2.25 7.75 L3.0 8.0 4.0 8.0 4.75 7.75 5.0 7.0 5.75 6.75 6.0 6.0 6.75 5.75 7.0 5.0 8.0 5.0 Q8.5 5.5 9.0 5.5 L9.0 5.0 9.0 4.0 Q12.2 4.2 13.35 2.2 13.5 2.0 14.0 2.0 L15.0 2.0 15.75 1.75 16.0 1.0 16.0 0.0 17.0 0.0 Q16.9 1.65 19.05 1.1 L20.0 1.0 21.0 1.0 21.25 1.75 22.0 2.0 Q22.0 2.5 22.25 2.75 L23.0 3.0 24.0 3.0 25.0 3.0 25.0 4.0 Q25.0 4.5 25.25 4.75 L26.0 5.0 27.0 5.0 28.0 5.0 29.0 5.0 Q28.9 6.65 31.05 6.1 L32.0 6.0 32.0 7.0 31.0 7.0 Q31.0 7.5 31.25 7.75 L32.0 8.0 32.0 9.0 32.0 10.0 31.0 10.0" fill="#ffffce" fill-rule="evenodd" stroke="none"/>
  </g>
</svg>
