<?xml version="1.0" encoding="UTF-8" standalone="no"?>
<svg xmlns:xlink="http://www.w3.org/1999/xlink" height="53.0px" width="61.0px" xmlns="http://www.w3.org/2000/svg">
  <g transform="matrix(1.0, 0.0, 0.0, 1.0, 0.0, 0.0)">
    <path d="M61.0 2.0 L60.0 2.0 60.0 3.0 59.0 3.0 58.0 3.0 56.0 3.0 56.0 4.0 55.0 4.0 55.0 5.0 54.0 5.0 54.0 7.0 54.0 8.0 53.0 8.0 51.0 8.0 50.0 8.0 49.0 8.0 48.0 8.0 48.0 9.0 47.0 9.0 46.8 8.4 45.0 8.0 44.75 7.25 Q44.5 7.0 44.0 7.0 L43.75 6.25 43.0 6.0 42.0 6.0 41.8 5.1 41.0 4.0 43.0 4.0 44.0 4.0 Q45.45 5.9 47.5 3.5 L48.1 3.65 Q49.65 4.15 49.0 2.0 50.05 1.05 51.85 0.55 L52.0 0.0 53.0 0.0 53.0 1.0 53.0 2.0 Q53.5 2.5 54.0 2.5 L54.0 2.0 54.0 1.0 55.0 1.0 55.75 0.75 56.0 0.0 57.0 0.0 57.25 0.75 58.0 1.0 59.0 1.0 60.0 1.0 61.0 1.0 61.0 2.0 M35.0 9.0 L34.0 9.0 34.0 8.0 34.0 7.0 34.75 6.75 35.0 6.0 36.0 6.0 Q36.3 7.7 39.0 7.1 L40.0 7.0 40.0 8.0 39.0 8.0 39.0 9.0 39.0 10.0 38.0 10.0 37.0 10.0 Q37.0 9.5 36.8 9.4 L35.0 9.0 M27.0 18.0 L26.0 18.0 26.0 19.0 26.0 20.0 25.0 20.0 24.0 20.0 Q23.5 20.0 23.4 19.8 23.0 19.0 23.0 18.0 L23.75 17.75 24.0 17.0 25.0 17.0 26.8 17.4 27.0 18.0 M21.0 21.0 L22.0 21.0 Q23.7 21.3 23.1 24.0 L23.0 25.0 22.0 25.0 22.0 26.0 21.0 26.0 Q21.0 27.0 21.4 27.8 21.5 28.0 22.0 28.0 L22.0 29.0 21.0 29.0 19.0 29.0 19.0 30.0 18.0 30.0 18.0 31.0 17.0 31.0 17.0 32.0 17.0 33.0 16.0 33.0 Q16.0 34.0 16.4 34.8 L17.0 35.0 17.0 36.0 Q17.0 36.5 17.25 36.75 L18.0 37.0 19.0 37.0 20.0 37.0 20.0 38.0 20.0 40.0 20.0 41.0 19.0 41.0 19.0 42.0 18.0 42.0 18.0 44.0 18.0 45.0 18.0 46.0 17.0 46.0 16.0 46.0 16.0 47.0 16.0 48.0 16.0 49.0 15.0 49.0 14.75 48.25 Q14.5 48.0 14.0 48.0 L13.8 47.4 12.0 47.0 12.25 47.75 13.0 48.0 13.0 49.0 Q13.0 49.5 12.8 49.6 12.0 50.0 11.0 50.0 L10.0 50.0 10.0 51.0 9.85 51.55 Q8.05 52.05 7.0 53.0 L6.0 53.0 5.0 53.0 4.0 53.0 3.0 53.0 2.75 52.25 Q2.5 52.0 2.0 52.0 L1.25 51.75 Q1.0 51.5 1.0 51.0 L1.75 50.75 Q4.65 47.85 1.0 46.0 L1.0 45.0 1.0 44.0 0.75 43.25 0.0 43.0 0.0 42.0 0.0 41.0 0.0 40.0 0.0 39.0 Q3.5 39.0 5.5 37.5 L5.35 36.9 Q4.9 35.4 7.0 35.5 7.5 35.5 8.0 35.0 L8.75 34.75 9.0 34.0 9.0 33.0 10.0 33.0 11.0 33.0 14.9 32.55 15.0 32.0 15.0 31.0 15.75 30.75 16.0 30.0 16.0 29.0 16.75 28.75 17.0 28.0 17.8 26.9 18.0 26.0 Q19.0 26.0 19.8 25.6 L20.0 25.0 20.5 25.0 20.0 24.0 20.0 23.0 20.0 22.0 20.75 21.75 21.0 21.0 M4.0 40.0 L4.0 40.5 Q6.25 40.5 4.0 40.0" fill="#deb5d6" fill-rule="evenodd" stroke="none"/>
    <path d="M32.0 12.0 L31.0 12.0 30.0 12.0 29.75 11.25 Q29.5 11.0 29.0 11.0 L28.75 10.25 28.0 10.0 28.0 9.0 29.0 9.0 30.0 9.0 30.25 9.75 31.0 10.0 32.0 10.0 32.0 11.0 32.0 12.0" fill="#c6b5ce" fill-rule="evenodd" stroke="none"/>
  </g>
</svg>
