<?xml version="1.0" encoding="UTF-8" standalone="no"?>
<svg xmlns:xlink="http://www.w3.org/1999/xlink" height="56.0px" width="34.0px" xmlns="http://www.w3.org/2000/svg">
  <g transform="matrix(1.0, 0.0, 0.0, 1.0, 0.0, 0.0)">
    <path d="M31.25 4.75 L32.0 5.0 32.0 6.0 32.0 7.0 Q32.0 7.5 32.25 7.75 L33.0 8.0 33.0 9.0 33.25 9.75 34.0 10.0 34.0 11.0 34.0 12.0 33.0 12.0 33.0 13.0 33.25 13.75 34.0 14.0 34.0 15.0 33.0 15.0 32.0 15.0 31.0 15.0 30.0 15.0 30.0 16.0 29.0 16.0 29.0 17.0 28.0 17.0 28.0 18.0 28.0 19.0 27.75 19.8 24.0 24.0 23.0 24.0 23.0 25.0 22.0 25.0 21.0 25.0 21.0 26.0 20.8 26.6 Q20.0 27.0 19.0 27.0 L19.0 28.0 18.0 28.0 18.0 29.0 17.0 29.0 16.0 29.0 Q16.0 29.5 16.25 29.75 L17.0 30.0 16.75 30.75 16.0 31.0 16.0 35.0 16.0 36.0 Q16.0 36.5 16.25 36.75 L17.0 37.0 18.0 37.0 18.25 37.75 19.0 38.0 Q19.0 38.5 19.25 38.75 L20.0 39.0 Q20.5 39.0 20.75 39.25 L21.0 40.0 20.0 40.0 20.0 41.0 19.75 41.85 Q18.95 42.95 17.0 43.0 L17.0 42.0 16.75 41.25 16.0 41.0 16.0 42.0 16.0 43.0 16.0 44.0 15.8 44.9 15.0 46.0 15.0 48.0 15.0 49.0 14.0 49.0 14.0 50.0 Q14.0 50.5 14.25 50.75 L15.0 51.0 15.0 52.0 14.0 52.0 14.0 53.0 13.0 53.0 12.0 53.0 11.0 53.0 10.0 53.0 9.0 53.0 9.0 54.0 8.0 54.0 8.0 55.0 8.0 56.0 7.0 56.0 6.0 56.0 5.8 55.4 Q4.05 54.5 3.0 53.0 L3.75 52.75 4.0 52.0 3.75 51.25 2.0 50.0 2.0 49.0 2.0 48.0 2.0 47.0 1.75 46.25 1.0 46.0 0.0 46.0 0.0 45.0 0.0 43.0 0.8 41.9 1.0 41.0 1.0 40.0 1.75 39.75 2.0 39.0 2.75 38.75 3.0 38.0 3.0 37.0 3.0 35.0 3.75 34.75 4.0 34.0 4.0 33.0 4.0 31.0 4.5 31.0 4.0 30.0 3.0 30.0 2.0 30.0 2.0 29.0 1.75 28.25 1.0 28.0 1.0 27.0 1.0 26.0 1.75 25.75 2.0 25.0 2.0 24.0 2.75 23.75 3.0 23.0 5.0 23.0 6.0 23.0 6.75 22.75 7.0 22.0 6.75 21.25 6.0 21.0 6.0 20.0 6.0 19.0 6.75 18.75 7.0 18.0 Q8.7 17.7 8.1 15.0 L8.0 14.0 9.0 14.0 9.75 13.75 10.0 13.0 10.75 12.75 11.0 12.0 11.0 11.0 12.75 9.75 13.0 9.0 13.0 8.0 13.0 7.0 13.75 6.75 14.0 6.0 14.75 5.75 15.0 5.0 16.0 5.0 17.0 5.0 17.75 4.75 18.0 4.0 18.0 3.0 19.0 3.0 20.0 3.0 21.0 3.0 Q20.9 4.65 22.8 3.6 L23.0 3.0 23.75 2.75 24.0 2.0 24.0 1.0 24.0 0.0 25.0 0.0 Q25.0 0.5 25.25 0.75 L26.0 1.0 Q26.0 1.5 26.25 1.75 L27.0 2.0 27.25 2.75 28.0 3.0 29.0 3.0 Q29.0 3.5 29.25 3.75 L30.0 4.0 31.0 4.0 Q31.0 4.5 31.25 4.75 M6.0 40.5 Q8.25 40.5 6.0 40.0 L6.0 40.5 M8.0 39.0 L8.0 39.5 Q10.25 39.5 8.0 39.0 M6.0 34.5 Q8.25 34.5 6.0 34.0 L6.0 34.5 M8.0 33.0 L8.0 33.5 Q10.25 33.5 8.0 33.0 M5.0 26.0 L5.0 26.5 Q7.25 26.5 5.0 26.0 M9.0 28.0 L9.0 28.5 Q11.25 28.5 9.0 28.0 M12.0 32.5 Q14.25 32.5 12.0 32.0 L12.0 32.5 M13.0 27.0 L13.0 27.5 Q15.25 27.5 13.0 27.0 M15.0 26.0 L15.0 26.5 Q17.25 26.5 15.0 26.0 M11.0 23.5 Q13.25 23.5 11.0 23.0 L11.0 23.5 M14.0 20.0 L14.0 20.5 Q16.25 20.5 14.0 20.0 M12.0 15.5 Q14.25 15.5 12.0 15.0 L12.0 15.5 M14.0 13.5 Q16.25 13.5 14.0 13.0 L14.0 13.5 M17.0 17.0 L17.0 17.5 Q19.25 17.5 17.0 17.0 M10.0 18.0 L10.0 18.5 Q12.25 18.5 10.0 18.0 M20.0 8.0 L20.0 8.5 Q22.25 8.5 20.0 8.0 M16.0 10.0 L16.0 10.5 Q18.25 10.5 16.0 10.0 M30.0 13.0 L30.0 13.5 Q32.25 13.5 30.0 13.0 M25.0 6.0 L25.0 6.5 Q27.25 6.5 25.0 6.0 M28.0 9.0 L28.0 9.5 Q30.25 9.5 28.0 9.0 M23.0 11.5 Q25.25 11.5 23.0 11.0 L23.0 11.5 M3.0 43.0 L3.0 44.0 2.0 44.0 Q2.0 44.5 2.25 44.75 L3.0 45.0 4.0 45.0 4.75 44.75 5.0 44.0 5.65 43.75 Q7.7 40.8 4.0 43.0 L3.0 43.0 M5.0 49.0 L5.0 49.5 Q7.25 49.5 5.0 49.0 M9.0 49.5 Q11.25 49.5 9.0 49.0 L9.0 49.5 M11.0 37.0 L11.0 37.5 Q13.25 37.5 11.0 37.0 M11.0 43.0 L11.0 43.5 Q13.25 43.5 11.0 43.0 M13.0 47.5 Q15.25 47.5 13.0 47.0 L13.0 47.5 M11.0 48.5 Q13.25 48.5 11.0 48.0 L11.0 48.5 M8.75 44.25 Q8.5 44.0 8.0 44.0 L8.0 45.0 Q8.5 45.5 9.0 45.5 L9.0 45.0 8.75 44.25" fill="#8cadd6" fill-rule="evenodd" stroke="none"/>
  </g>
</svg>
