<?xml version="1.0" encoding="UTF-8" standalone="no"?>
<svg xmlns:xlink="http://www.w3.org/1999/xlink" height="46.0px" width="81.0px" xmlns="http://www.w3.org/2000/svg">
  <g transform="matrix(1.0, 0.0, 0.0, 1.0, 0.0, 0.0)">
    <path d="M81.0 33.0 L80.0 33.0 80.0 34.0 79.0 34.0 79.0 35.0 79.0 36.0 79.0 37.0 79.0 38.0 78.0 38.0 77.0 38.0 77.0 39.0 76.0 39.0 76.0 40.0 75.0 40.0 75.0 41.0 74.0 41.0 73.8 40.4 72.0 40.0 72.0 41.0 71.0 41.0 71.0 42.0 70.0 42.0 69.0 42.0 69.0 43.0 69.25 43.75 70.0 44.0 70.0 45.0 69.0 45.0 68.0 45.0 68.0 46.0 67.0 46.0 66.0 46.0 65.0 46.0 62.0 46.0 61.75 45.25 61.0 45.0 60.0 45.0 59.75 44.25 Q59.5 44.0 59.0 44.0 L59.0 45.0 58.0 45.0 57.0 45.0 57.0 46.0 56.0 46.0 54.0 46.0 53.8 45.4 52.0 45.0 51.0 45.0 49.0 45.0 48.75 44.25 48.0 44.0 47.0 44.0 46.8 43.4 45.0 43.0 44.0 43.0 43.75 42.25 43.0 42.0 42.75 41.25 42.0 41.0 41.0 41.0 40.75 40.25 40.0 40.0 39.0 40.0 37.0 40.0 36.75 39.25 36.0 39.0 36.0 38.0 35.85 37.45 33.0 37.0 32.75 36.25 Q32.5 36.0 32.0 36.0 L31.75 35.25 31.0 35.0 31.0 34.0 Q32.65 34.15 32.1 31.95 L32.0 31.0 31.75 30.25 31.0 30.0 30.25 29.75 30.0 29.0 30.6 28.8 Q31.65 26.35 29.0 27.0 L29.0 26.0 28.75 25.25 28.0 25.0 27.0 25.0 27.0 24.0 26.75 23.25 Q26.5 23.0 26.0 23.0 L25.75 22.25 25.0 22.0 24.75 21.25 24.0 21.0 23.0 21.0 23.0 20.0 22.75 19.25 22.0 19.0 21.0 19.0 21.2 18.4 Q23.25 17.5 21.0 17.0 L20.75 16.25 Q20.5 16.0 20.0 16.0 L19.0 16.0 18.75 15.25 18.0 15.0 18.0 14.0 17.75 13.25 Q17.5 13.0 17.0 13.0 L16.8 12.4 15.0 12.0 14.0 12.0 14.0 11.0 13.75 10.25 13.0 10.0 12.75 9.25 12.0 9.0 12.0 8.0 11.8 7.1 11.0 6.0 11.0 5.0 10.75 4.25 10.0 4.0 9.25 3.75 9.0 3.0 9.0 2.0 10.0 2.0 11.0 2.0 12.0 2.0 12.25 2.75 13.0 3.0 14.0 3.0 15.0 3.0 16.0 3.0 17.0 3.0 22.0 3.0 23.0 3.0 23.75 2.75 24.0 2.0 27.0 2.0 28.0 2.0 Q28.0 2.5 28.25 2.75 L29.0 3.0 Q29.0 3.5 29.25 3.75 L30.0 4.0 30.25 4.75 31.0 5.0 Q31.0 5.5 31.25 5.75 L32.0 6.0 32.0 7.0 Q32.0 7.5 32.25 7.75 L33.0 8.0 33.25 8.75 34.0 9.0 Q34.0 9.5 34.25 9.75 L35.0 10.0 36.0 10.0 Q36.5 10.5 37.0 10.5 L37.0 10.0 37.75 9.75 38.0 9.0 38.75 8.75 39.0 8.0 40.0 8.0 41.0 8.0 Q41.5 8.0 41.75 8.25 L42.0 9.0 42.25 9.75 43.0 10.0 Q43.0 10.5 43.25 10.75 L44.0 11.0 Q44.0 11.5 44.25 11.75 L45.0 12.0 45.0 13.0 45.25 13.75 46.0 14.0 Q46.0 14.5 46.25 14.75 L47.0 15.0 47.0 16.0 Q47.0 16.5 47.25 16.75 L48.0 17.0 48.25 17.75 49.0 18.0 50.0 18.0 51.1 18.8 52.0 19.0 52.0 20.0 51.0 20.0 51.0 21.0 51.0 22.0 50.0 22.0 Q50.0 23.0 50.4 23.8 50.5 24.0 51.0 24.0 L52.0 24.0 52.0 25.0 51.0 25.0 Q51.0 26.0 51.4 26.8 51.5 27.0 52.0 27.0 L52.0 28.0 51.0 28.0 Q51.0 29.0 51.4 29.8 51.5 30.0 52.0 30.0 52.0 31.0 52.4 31.8 L53.0 32.0 53.0 33.0 Q53.0 33.5 53.25 33.75 L54.0 34.0 54.0 35.0 54.25 35.75 55.0 36.0 Q55.0 36.5 55.25 36.75 L56.0 37.0 Q55.4 39.15 57.0 39.05 L58.0 39.0 59.0 39.0 Q59.0 39.5 59.25 39.75 L60.0 40.0 Q60.8 41.7 63.85 40.55 L64.0 40.0 Q65.0 40.0 65.8 39.6 L66.0 39.0 67.0 39.0 Q67.0 39.5 67.25 39.75 L68.0 40.0 69.0 40.0 69.75 39.75 70.0 39.0 70.0 38.0 70.75 37.75 71.0 37.0 71.75 36.75 72.0 36.0 72.0 35.0 72.0 33.0 72.75 32.75 73.0 32.0 74.0 32.0 80.0 32.0 81.0 32.0 81.0 33.0 M49.0 20.0 L49.0 20.5 Q51.25 20.5 49.0 20.0 M6.0 3.0 L5.0 3.0 5.0 4.0 5.0 5.0 Q5.0 6.0 5.4 6.8 5.5 7.0 6.0 7.0 L6.0 8.0 5.0 8.0 4.0 8.0 3.75 7.25 3.0 7.0 2.8 6.1 2.0 5.0 2.0 4.0 1.75 3.25 1.0 3.0 0.75 2.25 0.0 2.0 0.0 1.0 0.0 0.0 1.0 0.0 2.0 0.0 3.0 0.0 4.0 0.0 5.0 0.0 5.0 1.0 4.0 1.0 Q4.0 1.5 4.25 1.75 L5.0 2.0 6.0 2.0 6.0 3.0 M10.0 12.0 Q10.0 12.5 10.25 12.75 L11.0 13.0 11.0 14.0 Q11.0 14.5 11.25 14.75 L12.0 15.0 12.0 16.0 11.0 16.0 10.0 16.0 Q10.0 15.5 9.8 15.4 L8.0 15.0 7.0 15.0 7.0 14.0 7.75 13.75 8.0 13.0 8.0 12.0 8.0 11.0 8.0 10.0 9.0 10.0 9.25 10.75 10.0 11.0 10.0 12.0 M13.0 18.0 L14.0 18.0 Q14.0 18.5 14.25 18.75 L15.0 19.0 15.0 20.0 15.0 21.0 15.0 22.0 14.0 22.0 13.75 21.25 13.0 21.0 13.0 20.0 13.0 18.0" fill="#bdd6bd" fill-rule="evenodd" stroke="none"/>
  </g>
</svg>
