<?xml version="1.0" encoding="UTF-8" standalone="no"?>
<svg xmlns:xlink="http://www.w3.org/1999/xlink" height="42.0px" width="24.0px" xmlns="http://www.w3.org/2000/svg">
  <g transform="matrix(1.0, 0.0, 0.0, 1.0, 0.0, 0.0)">
    <path d="M21.0 10.0 L21.0 11.0 20.1 11.2 Q19.5 11.5 19.0 12.0 L19.0 13.0 19.0 14.0 Q19.0 14.5 19.25 14.75 L20.0 15.0 Q20.0 15.5 20.25 15.75 L21.0 16.0 21.85 18.05 22.0 19.0 21.0 19.0 21.0 21.0 21.0 22.0 21.25 22.75 22.0 23.0 Q23.2 25.7 22.25 26.35 22.0 26.5 22.0 27.0 22.0 27.5 22.25 27.75 L23.0 28.0 Q23.0 28.5 23.25 28.75 L24.0 29.0 24.0 30.0 24.0 31.0 24.0 32.0 23.0 32.0 22.0 32.0 21.0 32.0 20.0 32.0 19.75 31.25 19.0 31.0 18.75 30.25 18.0 30.0 17.0 30.0 16.0 30.0 15.0 30.0 14.0 30.0 13.75 29.25 13.0 29.0 13.0 30.0 12.0 30.0 11.0 30.0 11.0 31.0 10.0 31.0 9.0 31.0 9.0 32.0 8.0 32.0 Q8.0 32.5 8.25 32.75 L9.0 33.0 9.75 33.25 10.0 34.0 9.0 34.0 9.0 35.0 9.0 36.0 9.0 37.0 9.25 37.75 10.0 38.0 11.0 38.0 12.0 38.0 12.5 38.0 12.0 37.0 11.75 36.25 Q11.5 36.0 11.0 36.0 L11.0 35.0 11.0 34.0 12.0 34.0 13.0 34.0 14.0 34.0 15.0 34.0 15.0 35.0 14.0 35.0 14.0 36.0 Q14.0 36.5 14.25 36.75 L15.0 37.0 15.25 37.75 16.0 38.0 16.0 39.0 15.0 39.0 14.0 39.0 13.0 39.0 12.0 39.0 12.0 40.0 11.0 40.0 10.0 40.0 10.0 41.0 9.0 41.0 7.0 41.0 6.0 41.0 6.0 42.0 5.0 42.0 5.0 41.0 4.75 40.25 4.0 40.0 3.0 40.0 2.75 39.25 Q2.5 39.0 2.0 39.0 L1.0 39.0 0.0 39.0 0.0 38.0 0.55 37.85 Q1.7 34.8 0.0 34.0 L0.0 33.0 0.0 32.0 0.0 31.0 0.8 29.9 1.0 29.0 1.0 28.0 2.0 28.0 4.85 27.55 5.0 27.0 8.3 23.25 Q8.5 23.0 9.0 23.0 L9.75 22.75 10.0 22.0 10.6 21.8 Q11.7 19.3 10.0 19.0 L9.75 18.25 9.0 18.0 8.0 18.0 7.0 18.0 6.75 17.25 6.0 17.0 6.0 16.0 6.0 15.0 6.0 14.0 6.5 14.0 6.0 13.0 6.0 12.0 6.0 11.0 5.75 10.25 Q5.5 10.0 5.0 10.0 L5.0 9.0 5.0 8.0 4.75 7.25 4.0 7.0 4.0 6.0 5.0 6.0 6.0 6.0 7.0 6.0 8.0 6.0 Q8.5 6.5 9.0 6.5 L9.0 6.0 9.75 5.75 10.0 5.0 10.75 4.75 11.0 4.0 Q12.65 4.15 12.1 1.95 L12.0 1.0 13.0 1.0 14.0 1.0 14.75 0.75 15.0 0.0 16.0 0.0 17.0 0.0 18.0 0.0 17.75 0.75 17.0 1.0 17.0 2.0 16.0 2.0 16.0 3.0 15.0 3.0 15.25 3.75 16.0 4.0 16.0 5.0 Q16.5 5.5 17.0 5.5 L17.0 5.0 18.0 5.0 Q17.8 8.2 20.05 8.85 L21.0 9.0 21.0 10.0 M22.0 29.0 L22.0 29.5 Q24.25 29.5 22.0 29.0 M7.0 38.0 L7.0 38.5 Q9.25 38.5 7.0 38.0 M19.0 21.5 Q21.25 21.5 19.0 21.0 L19.0 21.5" fill="#ffffce" fill-rule="evenodd" stroke="none"/>
  </g>
</svg>
