<?xml version="1.0" encoding="UTF-8" standalone="no"?>
<svg xmlns:xlink="http://www.w3.org/1999/xlink" height="7.0px" width="9.0px" xmlns="http://www.w3.org/2000/svg">
  <g transform="matrix(1.0, 0.0, 0.0, 1.0, 0.0, 0.0)">
    <path d="M9.0 5.0 L8.0 5.0 8.0 4.0 9.0 4.0 9.0 5.0 M4.0 3.0 L4.0 4.0 3.0 4.0 3.0 5.0 3.0 6.0 3.0 7.0 2.0 7.0 1.75 6.25 1.0 6.0 0.75 5.25 0.0 5.0 0.0 4.0 0.8 2.9 1.0 2.0 2.0 2.0 2.75 1.75 3.0 1.0 3.0 0.0 3.75 0.25 4.0 1.0 4.0 2.0 4.0 3.0" fill="#ffffce" fill-rule="evenodd" stroke="none"/>
  </g>
</svg>
