<?xml version="1.0" encoding="UTF-8" standalone="no"?>
<svg xmlns:xlink="http://www.w3.org/1999/xlink" height="7.0px" width="7.0px" xmlns="http://www.w3.org/2000/svg">
  <g transform="matrix(1.0, 0.0, 0.0, 1.0, 0.0, 0.0)">
    <path d="M6.0 1.0 L6.25 1.75 7.0 2.0 7.0 3.0 6.5 3.1 Q6.15 4.65 4.0 4.0 L4.0 6.0 4.0 7.0 3.0 7.0 2.75 6.25 Q2.5 6.0 2.0 6.0 L1.75 5.25 1.0 5.0 1.0 6.0 0.0 6.0 0.0 5.0 0.0 4.0 0.0 3.0 0.75 2.75 1.0 2.0 1.75 1.75 2.0 1.0 2.75 0.75 3.0 0.0 4.0 0.0 5.1 0.8 6.0 1.0" fill="#bdd6bd" fill-rule="evenodd" stroke="none"/>
  </g>
</svg>
