<?xml version="1.0" encoding="UTF-8" standalone="no"?>
<svg xmlns:xlink="http://www.w3.org/1999/xlink" height="27.0px" width="23.0px" xmlns="http://www.w3.org/2000/svg">
  <g transform="matrix(1.0, 0.0, 0.0, 1.0, 0.0, 0.0)">
    <path d="M21.0 4.0 L21.0 5.0 21.0 6.0 20.0 6.0 Q20.0 6.5 20.25 6.75 L21.0 7.0 21.25 7.75 22.0 8.0 Q22.0 8.5 22.25 8.75 L23.0 9.0 23.0 10.0 23.0 11.0 23.0 12.0 23.0 13.0 22.0 13.0 20.0 13.0 20.0 14.0 19.0 14.0 18.0 14.0 17.0 14.0 17.0 15.0 16.0 15.0 16.0 16.0 15.0 16.0 15.25 16.75 16.0 17.0 Q16.0 18.0 16.4 18.8 L17.0 19.0 Q17.0 19.5 17.25 19.75 L18.0 20.0 18.25 20.75 19.0 21.0 19.0 22.0 18.0 22.0 17.0 22.0 17.0 23.0 16.0 23.0 16.0 24.0 15.0 24.0 15.0 25.0 15.0 26.0 14.0 26.0 13.0 26.0 13.0 27.0 12.0 27.0 12.0 26.0 11.75 25.25 Q11.5 25.0 11.0 25.0 L10.0 25.0 9.75 24.25 9.0 24.0 8.0 24.0 8.0 25.0 7.0 25.0 6.75 24.25 6.0 24.0 5.0 24.0 4.0 24.0 4.0 23.0 4.75 22.75 5.0 22.0 5.0 21.0 5.5 21.0 5.0 20.0 4.75 19.25 4.0 19.0 3.0 19.0 2.0 19.0 1.0 19.0 1.0 18.0 1.1 17.05 Q1.65 14.9 0.0 15.0 L0.0 14.0 0.0 13.0 0.0 11.0 Q2.15 11.65 2.05 10.0 L2.0 9.0 2.0 8.0 2.75 7.75 3.0 7.0 3.0 6.0 3.0 5.0 3.0 4.0 4.0 4.0 Q4.0 4.5 4.25 4.75 L5.0 5.0 6.0 5.0 6.75 4.75 7.0 4.0 Q10.7 6.2 8.65 3.25 L8.0 3.0 8.0 2.0 8.0 1.0 8.0 0.0 9.0 0.0 9.25 0.75 10.0 1.0 Q10.0 1.5 10.25 1.75 L11.0 2.0 12.0 2.0 Q11.35 4.65 13.8 3.6 L14.0 3.0 15.0 3.0 15.75 2.75 16.0 2.0 17.0 2.0 18.0 2.0 19.1 2.8 20.0 3.0 Q20.0 3.5 20.25 3.75 L21.0 4.0" fill="#deb5d6" fill-rule="evenodd" stroke="none"/>
  </g>
</svg>
