<?xml version="1.0" encoding="UTF-8" standalone="no"?>
<svg xmlns:xlink="http://www.w3.org/1999/xlink" height="20.0px" width="25.0px" xmlns="http://www.w3.org/2000/svg">
  <g transform="matrix(1.0, 0.0, 0.0, 1.0, 0.0, 0.0)">
    <path d="M25.0 6.0 L25.0 7.0 25.0 8.0 24.0 8.0 24.0 9.0 Q24.0 10.5 24.45 11.85 L25.0 12.0 25.0 13.0 25.0 14.0 24.0 14.0 24.0 15.0 23.0 15.0 23.0 16.0 22.0 16.0 22.0 17.0 22.0 18.0 21.0 18.0 21.0 19.0 20.0 19.0 20.0 20.0 19.0 20.0 Q19.0 19.5 18.8 19.4 L17.0 19.0 16.0 19.0 15.75 18.25 15.0 18.0 14.85 17.45 12.0 17.0 11.75 16.25 Q11.5 16.0 11.0 16.0 L10.0 16.0 9.75 15.25 9.0 15.0 8.75 14.25 Q8.5 14.0 8.0 14.0 L7.0 14.0 6.75 13.25 6.0 13.0 5.0 13.0 4.0 13.0 3.0 13.0 2.75 12.25 Q2.5 12.0 2.0 12.0 L1.8 11.1 1.0 10.0 1.0 9.0 1.0 8.0 0.75 7.25 0.0 7.0 0.0 6.0 0.0 5.0 0.0 4.0 0.75 3.75 1.0 3.0 1.0 2.0 3.05 1.15 4.0 1.0 4.75 0.75 5.0 0.0 6.0 0.0 Q6.5 0.5 7.0 0.5 L7.0 0.0 8.0 0.0 11.0 0.0 12.0 0.0 Q12.5 0.5 13.0 0.5 L13.0 0.0 15.0 0.0 16.0 0.0 17.1 0.8 18.0 1.0 19.0 1.0 20.0 1.0 21.0 1.0 22.0 1.0 23.0 1.0 23.8 2.1 24.0 3.0 24.25 3.75 25.0 4.0 25.0 5.0 25.0 6.0" fill="#bdd6bd" fill-rule="evenodd" stroke="none"/>
  </g>
</svg>
