<?xml version="1.0" encoding="UTF-8" standalone="no"?>
<svg xmlns:xlink="http://www.w3.org/1999/xlink" height="8.0px" width="16.0px" xmlns="http://www.w3.org/2000/svg">
  <g transform="matrix(1.0, 0.0, 0.0, 1.0, 0.0, 0.0)">
    <path d="M16.0 4.0 L16.0 5.0 15.0 5.0 14.0 5.0 14.0 6.0 13.0 6.0 13.0 7.0 12.0 7.0 11.75 6.25 Q11.5 6.0 11.0 6.0 L11.0 7.0 10.0 7.0 9.0 7.0 8.75 6.25 Q8.5 6.0 8.0 6.0 L7.0 6.0 7.0 7.0 6.0 7.0 6.0 8.0 5.0 8.0 4.0 8.0 3.75 7.25 3.0 7.0 2.75 6.25 Q2.5 6.0 2.0 6.0 L1.0 6.0 0.75 5.25 0.0 5.0 0.0 4.0 0.0 3.0 0.75 2.75 1.0 2.0 Q2.0 2.0 2.8 1.6 L3.0 1.0 3.75 0.75 4.0 0.0 5.0 0.0 6.0 0.0 7.0 0.0 8.0 0.0 9.0 0.0 Q9.5 0.5 10.1 0.8 L11.0 1.0 12.0 1.0 12.25 1.75 13.0 2.0 14.0 2.0 Q14.0 2.5 14.25 2.75 L15.0 3.0 16.0 3.0 16.0 4.0 M6.0 4.0 L6.0 4.5 Q8.25 4.5 6.0 4.0" fill="#8cadd6" fill-rule="evenodd" stroke="none"/>
  </g>
</svg>
