<?xml version="1.0" encoding="UTF-8" standalone="no"?>
<svg xmlns:xlink="http://www.w3.org/1999/xlink" height="7.0px" width="11.0px" xmlns="http://www.w3.org/2000/svg">
  <g transform="matrix(1.0, 0.0, 0.0, 1.0, 0.0, 0.0)">
    <path d="M3.0 4.0 L3.0 4.5 Q5.25 4.5 3.0 4.0 M4.0 2.0 L4.0 2.5 Q6.25 2.5 4.0 2.0 M6.0 4.0 L6.0 4.5 Q8.25 4.5 6.0 4.0 M6.0 1.0 L6.0 1.5 Q8.25 1.5 6.0 1.0 M11.0 1.0 L11.0 2.0 10.0 2.0 9.0 2.0 9.25 2.75 10.0 3.0 10.0 4.0 10.0 5.0 9.0 5.0 8.0 5.0 7.1 5.2 6.0 6.0 5.0 6.0 4.0 6.0 4.0 7.0 3.0 7.0 2.75 6.25 Q2.5 6.0 2.0 6.0 L2.0 7.0 1.0 7.0 0.0 7.0 0.0 6.0 0.0 5.0 0.5 5.0 0.0 4.0 0.0 3.0 0.75 2.75 1.0 2.0 2.0 2.0 2.75 1.75 3.0 1.0 4.0 1.0 5.0 1.0 5.75 0.75 6.0 0.0 7.0 0.0 8.0 0.0 9.1 0.8 10.0 1.0 11.0 1.0" fill="#ffdea5" fill-rule="evenodd" stroke="none"/>
  </g>
</svg>
