<?xml version="1.0" encoding="UTF-8" standalone="no"?>
<svg xmlns:xlink="http://www.w3.org/1999/xlink" height="9.0px" width="21.0px" xmlns="http://www.w3.org/2000/svg">
  <g transform="matrix(1.0, 0.0, 0.0, 1.0, 0.0, 0.0)">
    <path d="M18.0 7.0 L20.85 7.45 21.0 8.0 20.0 8.0 19.0 8.0 19.0 9.0 18.0 9.0 17.0 9.0 17.0 8.0 17.75 7.75 18.0 7.0 M16.0 8.0 L16.0 9.0 15.0 9.0 14.0 9.0 14.0 8.0 15.0 8.0 16.0 8.0 M8.0 3.0 L7.0 3.0 7.0 2.0 8.0 2.0 9.0 2.0 9.0 3.0 8.0 3.0" fill="#dec69c" fill-rule="evenodd" stroke="none"/>
    <path d="M15.0 8.0 L14.75 7.25 Q14.5 7.0 14.0 7.0 L14.0 6.0 15.0 6.0 16.0 6.0 16.0 7.0 16.0 8.0 15.0 8.0 M10.0 5.0 L9.0 5.0 8.75 4.25 Q8.5 4.0 8.0 4.0 L8.0 3.0 9.0 3.0 10.0 3.0 10.0 4.0 10.0 5.0 M7.0 3.0 L6.05 2.85 4.0 2.0 4.0 1.0 5.0 1.0 6.0 1.0 6.25 1.75 7.0 2.0 7.0 3.0 M13.0 5.0 L13.0 6.0 12.0 6.0 12.0 5.0 13.0 5.0 M17.0 7.0 L18.0 7.0 17.75 7.75 17.0 8.0 17.0 7.0" fill="#ffdea5" fill-rule="evenodd" stroke="none"/>
    <path d="M14.0 7.0 L13.0 7.0 11.0 7.0 11.0 6.0 12.0 6.0 13.0 6.0 14.0 6.0 14.0 7.0 M10.0 6.0 L10.0 5.0 11.0 5.0 11.0 4.0 11.0 3.0 Q11.5 3.5 12.1 3.8 L13.0 4.0 13.0 5.0 12.0 5.0 11.0 5.0 11.0 6.0 10.0 6.0 M4.0 1.0 L3.0 1.0 3.0 2.0 2.0 1.95 Q0.3 1.7 0.0 0.0 L4.9 0.5 5.0 1.0 4.0 1.0" fill="#c6bd9c" fill-rule="evenodd" stroke="none"/>
    <path d="M17.0 8.0 L16.0 8.0 16.0 7.0 17.0 7.0 17.0 8.0 M12.0 6.0 L11.0 6.0 11.0 5.0 12.0 5.0 12.0 6.0" fill="#e7d6a5" fill-rule="evenodd" stroke="none"/>
    <path d="M11.0 7.0 L10.25 6.75 Q10.0 6.5 10.0 6.0 L11.0 6.0 11.0 7.0" fill="#adb5a5" fill-rule="evenodd" stroke="none"/>
  </g>
</svg>
