<?xml version="1.0" encoding="UTF-8" standalone="no"?>
<svg xmlns:xlink="http://www.w3.org/1999/xlink" height="7.0px" width="14.0px" xmlns="http://www.w3.org/2000/svg">
  <g transform="matrix(1.0, 0.0, 0.0, 1.0, 0.0, 0.0)">
    <path d="M14.0 1.0 L13.0 1.0 13.0 2.0 12.0 2.0 12.0 3.0 11.0 3.0 11.0 4.0 11.0 5.0 10.0 5.0 9.0 5.0 9.0 6.0 8.0 6.0 7.0 6.0 6.0 6.0 6.0 7.0 5.0 7.0 4.0 7.0 1.0 7.0 0.75 6.25 0.0 6.0 0.0 5.0 0.0 3.0 0.0 2.0 0.75 1.75 1.0 1.0 2.0 1.0 Q1.9 2.65 3.8 1.6 4.0 1.5 4.0 1.0 L5.0 1.0 Q5.5 1.5 6.0 1.5 L6.0 1.0 7.0 1.0 8.0 1.0 9.0 1.0 9.75 0.75 10.0 0.0 13.0 0.0 14.0 0.0 14.0 1.0" fill="#deb5d6" fill-rule="evenodd" stroke="none"/>
  </g>
</svg>
