<?xml version="1.0" encoding="UTF-8" standalone="no"?>
<svg xmlns:xlink="http://www.w3.org/1999/xlink" height="15.0px" width="21.0px" xmlns="http://www.w3.org/2000/svg">
  <g transform="matrix(1.0, 0.0, 0.0, 1.0, 0.0, 0.0)">
    <path d="M21.0 13.0 L20.0 13.0 19.0 13.0 18.75 12.25 18.0 12.0 18.0 13.0 17.0 13.0 16.0 13.0 15.0 13.0 15.0 14.0 14.0 14.0 13.0 14.0 13.0 15.0 12.0 15.0 11.0 15.0 10.75 14.25 10.0 14.0 9.75 13.25 9.0 13.0 8.0 13.0 7.0 13.0 6.75 12.25 6.0 12.0 5.75 11.25 Q5.5 11.0 5.0 11.0 L4.75 10.25 4.0 10.0 3.75 9.25 3.0 9.0 3.0 10.0 2.0 10.0 1.75 9.25 1.0 9.0 0.75 8.25 0.0 8.0 0.0 7.0 0.0 6.0 0.0 5.0 0.8 3.9 1.0 3.0 1.75 2.75 2.0 2.0 3.0 2.0 3.75 1.75 4.0 1.0 5.0 1.0 6.0 1.0 7.0 1.0 8.0 1.0 9.0 1.0 9.25 1.75 10.0 2.0 Q11.0 2.0 11.8 1.6 L12.0 1.0 Q13.0 1.0 13.8 0.6 L14.0 0.0 15.0 0.0 15.25 0.75 16.0 1.0 16.0 2.0 15.0 2.0 15.25 2.75 16.0 3.0 17.0 3.0 18.0 3.0 18.0 5.0 18.0 6.0 18.0 7.0 18.0 8.0 17.0 8.0 Q17.0 8.5 17.25 8.75 L18.0 9.0 Q18.5 9.5 19.0 9.5 L19.0 9.0 20.0 9.0 20.8 10.1 21.0 11.0 20.0 11.0 Q20.0 11.5 20.25 11.75 L21.0 12.0 21.0 13.0 M14.0 12.0 L14.0 12.5 Q16.25 12.5 14.0 12.0 M2.0 6.0 L2.0 6.5 Q4.25 6.5 2.0 6.0 M8.0 6.5 Q10.25 6.5 8.0 6.0 L8.0 6.5 M10.0 7.0 L10.0 7.5 Q12.25 7.5 10.0 7.0 M9.0 11.0 L9.0 11.5 Q11.25 11.5 9.0 11.0 M8.0 9.5 Q10.25 9.5 8.0 9.0 L8.0 9.5 M6.0 8.5 Q8.25 8.5 6.0 8.0 L6.0 8.5 M4.0 7.0 L4.0 7.5 Q6.25 7.5 4.0 7.0 M3.0 4.0 L3.0 4.5 Q5.25 4.5 3.0 4.0 M5.0 2.0 L5.0 2.5 Q7.25 2.5 5.0 2.0 M10.0 3.0 L10.0 3.5 Q12.25 3.5 10.0 3.0 M7.0 3.5 Q9.25 3.5 7.0 3.0 L7.0 3.5 M6.0 5.0 L6.0 5.5 Q8.25 5.5 6.0 5.0 M15.0 6.0 L15.0 6.5 Q17.25 6.5 15.0 6.0 M16.0 10.0 L16.0 10.5 Q18.25 10.5 16.0 10.0 M12.0 11.5 Q14.25 11.5 12.0 11.0 L12.0 11.5 M14.0 9.0 L14.0 9.5 Q16.25 9.5 14.0 9.0 M11.0 9.5 Q13.25 9.5 11.0 9.0 L11.0 9.5 M13.0 7.5 Q15.25 7.5 13.0 7.0 L13.0 7.5 M14.0 4.5 Q16.25 4.5 14.0 4.0 L14.0 4.5 M11.0 5.5 Q13.25 5.5 11.0 5.0 L11.0 5.5 M12.0 2.0 L12.0 2.5 Q14.25 2.5 12.0 2.0" fill="#ffdea5" fill-rule="evenodd" stroke="none"/>
  </g>
</svg>
