<?xml version="1.0" encoding="UTF-8" standalone="no"?>
<svg xmlns:xlink="http://www.w3.org/1999/xlink" height="6.0px" width="14.0px" xmlns="http://www.w3.org/2000/svg">
  <g transform="matrix(1.0, 0.0, 0.0, 1.0, 0.0, 0.0)">
    <path d="M14.0 3.0 L14.0 4.0 13.0 4.0 12.0 4.0 12.0 5.0 11.0 5.0 10.0 5.0 10.0 6.0 9.0 6.0 8.0 6.0 7.75 5.25 7.0 5.0 6.0 5.0 5.0 5.0 4.0 5.0 3.0 5.0 2.75 4.25 Q2.5 4.0 2.0 4.0 L1.0 4.0 0.0 4.0 0.0 3.0 0.0 2.0 0.75 1.75 1.0 1.0 1.75 0.75 2.0 0.0 3.0 0.0 4.0 0.0 5.0 0.0 Q5.5 0.5 6.0 0.5 L6.0 0.0 7.0 0.0 8.0 0.0 9.0 0.0 10.0 0.0 Q10.0 0.5 10.25 0.75 L11.0 1.0 12.0 1.0 13.0 1.0 14.0 1.0 14.0 2.0 14.0 3.0" fill="#ffffce" fill-rule="evenodd" stroke="none"/>
  </g>
</svg>
