<?xml version="1.0" encoding="UTF-8" standalone="no"?>
<svg xmlns:xlink="http://www.w3.org/1999/xlink" height="19.0px" width="49.0px" xmlns="http://www.w3.org/2000/svg">
  <g transform="matrix(1.0, 0.0, 0.0, 1.0, 0.0, 0.0)">
    <path d="M47.0 4.0 Q47.0 5.5 47.45 6.85 L48.0 7.0 49.0 7.0 48.75 7.75 48.0 8.0 48.0 9.0 48.0 10.0 48.25 10.75 49.0 11.0 49.0 14.0 49.0 15.0 48.0 15.0 45.0 15.0 44.0 15.0 43.0 15.0 42.0 15.0 41.0 15.0 40.0 15.0 39.0 15.0 39.0 16.0 38.0 16.0 37.0 16.0 36.0 16.0 35.0 16.0 34.0 16.0 33.0 16.0 32.0 16.0 31.0 16.0 30.0 16.0 29.0 16.0 27.0 16.0 26.0 16.0 26.0 17.0 25.0 17.0 24.0 17.0 23.75 16.25 Q23.5 16.0 23.0 16.0 L23.0 17.0 22.0 17.0 22.0 18.0 21.0 18.0 21.0 19.0 20.0 19.0 19.0 19.0 17.0 19.0 17.0 18.0 16.75 17.25 16.0 17.0 15.0 17.0 14.1 16.8 Q13.5 16.5 13.0 16.0 L12.0 16.0 12.0 17.0 12.0 18.0 11.0 18.0 10.0 18.0 9.0 18.0 8.25 17.75 Q8.0 17.5 8.0 17.0 L7.75 16.25 7.0 16.0 6.0 16.0 5.0 16.0 4.75 15.25 4.0 15.0 3.0 15.0 3.0 14.0 2.75 13.25 Q2.5 13.0 2.0 13.0 L2.0 12.0 2.75 11.75 3.0 11.0 2.8 10.1 2.0 9.0 1.8 8.4 0.0 8.0 0.0 7.0 0.75 6.75 1.0 6.0 2.0 6.0 3.0 6.0 6.0 6.0 7.0 6.0 7.75 5.75 8.0 5.0 9.0 5.0 9.5 5.0 9.0 4.0 8.0 4.0 8.0 3.0 9.0 3.0 10.0 3.0 11.0 3.0 12.0 3.0 12.25 3.75 13.0 4.0 13.75 3.75 14.0 3.0 15.0 3.0 15.75 2.75 16.0 2.0 16.75 1.75 17.0 1.0 Q19.15 1.65 19.5 0.1 L20.0 0.0 Q20.0 0.5 20.25 0.75 L21.0 1.0 25.25 0.75 26.0 1.0 Q26.0 1.5 26.25 1.75 L27.0 2.0 27.25 2.75 28.0 3.0 29.0 3.0 30.0 3.0 Q29.9 4.65 31.8 3.6 L32.0 3.0 33.0 3.0 33.25 3.75 34.0 4.0 35.0 4.0 36.0 4.0 37.0 4.0 39.0 4.0 40.0 4.0 40.75 3.75 41.0 3.0 41.75 2.75 42.0 2.0 43.0 2.0 44.0 2.0 45.0 2.0 45.25 2.75 46.0 3.0 47.0 3.0 47.0 4.0 M42.0 3.0 L42.25 3.75 43.0 4.0 43.5 4.0 43.0 3.0 42.0 3.0 M45.0 10.0 L44.0 10.0 44.0 11.0 43.0 11.0 Q43.0 11.5 43.25 11.75 L44.0 12.0 45.0 12.0 46.0 12.0 46.75 11.75 47.0 11.0 46.75 10.25 46.0 10.0 45.0 10.0" fill="#bdd6bd" fill-rule="evenodd" stroke="none"/>
  </g>
</svg>
