<?xml version="1.0" encoding="UTF-8" standalone="no"?>
<svg xmlns:xlink="http://www.w3.org/1999/xlink" height="14.0px" width="9.0px" xmlns="http://www.w3.org/2000/svg">
  <g transform="matrix(1.0, 0.0, 0.0, 1.0, 0.0, 0.0)">
    <path d="M8.0 1.0 L8.0 2.0 7.0 2.0 6.0 2.0 6.0 4.0 6.0 5.0 6.0 6.0 Q6.0 7.0 6.4 7.8 6.5 8.0 7.0 8.0 L8.0 8.0 8.0 9.0 8.0 10.0 Q8.0 10.5 8.25 10.75 L9.0 11.0 9.0 12.0 8.0 12.0 7.0 12.0 6.0 12.0 6.0 13.0 6.0 14.0 5.0 14.0 4.0 14.0 3.75 13.25 3.0 13.0 2.75 12.25 Q2.5 12.0 2.0 12.0 L2.0 11.0 2.0 10.0 1.75 9.25 1.0 9.0 1.0 8.0 0.75 7.25 0.0 7.0 0.0 6.0 0.0 5.0 Q1.65 5.15 1.1 2.95 L1.0 2.0 2.0 2.0 3.0 2.0 3.75 1.75 4.0 1.0 Q5.0 1.0 5.8 0.6 L6.0 0.0 7.0 0.0 8.0 0.0 8.0 1.0" fill="#deb5d6" fill-rule="evenodd" stroke="none"/>
  </g>
</svg>
