<?xml version="1.0" encoding="UTF-8" standalone="no"?>
<svg xmlns:xlink="http://www.w3.org/1999/xlink" height="13.0px" width="11.0px" xmlns="http://www.w3.org/2000/svg">
  <g transform="matrix(1.0, 0.0, 0.0, 1.0, 0.0, 0.0)">
    <path d="M11.0 11.0 L10.0 11.0 10.0 12.0 9.0 12.0 8.0 12.0 8.0 13.0 7.0 13.0 6.0 13.0 5.0 13.0 4.75 12.25 4.0 12.0 3.0 12.0 2.0 12.0 2.0 13.0 1.25 12.75 0.0 11.0 0.0 10.0 0.75 9.75 1.0 9.0 2.0 9.0 2.75 8.75 3.0 8.0 2.8 7.1 2.0 6.0 2.0 5.0 2.0 4.0 2.0 3.0 1.75 2.25 1.0 2.0 1.0 1.0 1.75 0.75 2.0 0.0 3.0 0.0 4.0 0.0 5.0 0.0 Q5.0 0.5 5.25 0.75 L6.0 1.0 6.0 2.0 6.25 2.75 7.0 3.0 8.0 3.0 8.0 4.0 Q7.9 5.65 10.05 5.1 L11.0 5.0 11.0 6.0 11.0 7.0 11.0 8.0 11.0 9.0 11.0 10.0 11.0 11.0 M4.0 6.5 Q6.25 6.5 4.0 6.0 L4.0 6.5 M8.0 8.5 Q10.25 8.5 8.0 8.0 L8.0 8.5" fill="#8cadd6" fill-rule="evenodd" stroke="none"/>
  </g>
</svg>
