<?xml version="1.0" encoding="UTF-8" standalone="no"?>
<svg xmlns:xlink="http://www.w3.org/1999/xlink" height="7.0px" width="7.0px" xmlns="http://www.w3.org/2000/svg">
  <g transform="matrix(1.0, 0.0, 0.0, 1.0, 0.0, 0.0)">
    <path d="M6.0 0.0 L6.25 0.75 7.0 1.0 7.0 2.0 7.0 3.0 7.0 4.0 7.0 5.0 6.0 5.0 6.0 6.0 6.0 7.0 5.0 7.0 4.75 6.25 4.0 6.0 3.75 5.25 3.0 5.0 2.75 4.25 Q2.5 4.0 2.0 4.0 L1.75 3.25 1.0 3.0 0.75 2.25 0.0 2.0 0.0 1.0 0.0 0.0 1.0 0.0 4.0 0.0 5.0 0.0 6.0 0.0" fill="#ffffce" fill-rule="evenodd" stroke="none"/>
  </g>
</svg>
