<?xml version="1.0" encoding="UTF-8" standalone="no"?>
<svg xmlns:xlink="http://www.w3.org/1999/xlink" height="6.0px" width="8.0px" xmlns="http://www.w3.org/2000/svg">
  <g transform="matrix(1.0, 0.0, 0.0, 1.0, 0.0, 0.0)">
    <path d="M2.0 5.0 L1.0 5.0 1.0 4.0 0.75 3.25 0.0 3.0 0.0 2.0 0.0 1.0 1.0 1.0 2.0 1.0 3.0 1.0 4.0 1.0 4.75 0.75 5.0 0.0 6.0 0.0 7.0 0.0 8.0 0.0 8.0 1.0 7.0 1.0 6.0 1.0 6.0 2.0 Q5.5 2.0 5.45 2.15 4.7 4.2 2.0 4.0 L2.0 5.0" fill="#8cadd6" fill-rule="evenodd" stroke="none"/>
    <path d="M6.0 2.0 Q6.0 3.5 6.45 4.85 L7.0 5.0 7.0 6.0 6.0 6.0 5.0 6.0 4.0 6.0 3.75 5.25 3.0 5.0 2.0 5.0 2.0 4.0 Q4.7 4.2 5.45 2.15 5.5 2.0 6.0 2.0" fill="#adb5a5" fill-rule="evenodd" stroke="none"/>
  </g>
</svg>
