<?xml version="1.0" encoding="UTF-8" standalone="no"?>
<svg xmlns:xlink="http://www.w3.org/1999/xlink" height="26.0px" width="47.0px" xmlns="http://www.w3.org/2000/svg">
  <g transform="matrix(1.0, 0.0, 0.0, 1.0, 0.0, 0.0)">
    <path d="M41.25 7.75 L42.0 8.0 43.0 8.0 44.0 8.0 Q44.0 8.5 44.25 8.75 L45.0 9.0 46.0 9.0 Q46.0 9.5 46.25 9.75 L47.0 10.0 47.0 11.0 47.0 12.0 46.0 12.0 Q46.0 12.5 46.25 12.75 L47.0 13.0 47.0 14.0 47.0 15.0 46.0 15.0 44.0 15.0 43.0 15.0 43.0 16.0 42.0 16.0 42.0 17.0 42.0 18.0 41.0 18.0 40.0 18.0 40.0 19.0 39.0 19.0 37.0 19.0 37.0 20.0 36.0 20.0 35.0 20.0 35.0 21.0 34.0 21.0 34.0 22.0 Q34.0 22.5 34.25 22.75 L35.0 23.0 35.0 24.0 35.0 25.0 34.0 25.0 33.0 25.0 33.0 26.0 32.0 26.0 31.0 26.0 30.0 26.0 30.0 25.0 29.75 24.25 Q29.5 24.0 29.0 24.0 L28.75 23.25 28.0 23.0 Q28.0 22.5 28.15 22.45 31.9 20.95 26.0 21.0 L25.75 20.25 25.0 20.0 Q25.0 19.5 24.8 19.4 L23.0 19.0 23.0 20.0 22.0 20.0 22.0 21.0 21.0 21.0 21.0 22.0 20.0 22.0 20.0 23.0 19.0 23.0 18.0 23.0 18.0 24.0 17.0 24.0 16.0 24.0 16.0 23.0 16.0 22.0 16.75 21.75 17.0 21.0 17.75 20.75 18.0 20.0 19.0 20.0 19.5 20.0 19.0 19.0 19.0 18.0 19.55 17.85 Q20.15 16.4 18.0 17.0 L17.0 17.0 17.0 16.0 16.75 15.25 16.0 15.0 15.75 14.25 15.0 14.0 14.0 14.0 13.0 14.0 12.0 14.0 11.0 14.0 10.0 14.0 9.0 14.0 9.0 15.0 8.0 15.0 7.0 15.0 6.75 14.25 6.0 14.0 6.0 15.0 5.0 15.0 4.0 15.0 3.0 15.0 2.75 14.25 Q2.5 14.0 2.0 14.0 L1.0 14.0 0.0 14.0 0.0 13.0 0.0 11.0 0.0 10.0 0.75 9.75 1.0 9.0 1.0 8.0 1.75 7.75 2.0 7.0 3.0 7.0 3.75 6.75 4.0 6.0 4.0 5.0 3.75 4.25 3.0 4.0 3.0 3.0 3.75 2.75 4.0 2.0 5.0 2.0 6.0 2.0 7.0 2.0 8.0 2.0 9.0 2.0 10.0 2.0 11.0 2.0 12.0 2.0 13.0 2.0 Q13.0 2.5 13.25 2.75 L14.0 3.0 15.0 3.0 16.0 3.0 Q16.5 3.5 17.0 3.5 L17.0 3.0 18.0 3.0 18.25 3.75 19.0 4.0 20.0 4.0 20.75 3.75 21.0 3.0 21.75 2.75 22.0 2.0 22.75 1.75 23.0 1.0 24.0 1.0 26.85 0.55 27.0 0.0 28.0 0.0 29.0 0.0 30.0 0.0 31.0 0.0 Q31.0 0.5 31.25 0.75 L32.0 1.0 32.0 2.0 31.0 2.0 Q31.0 3.0 31.4 3.8 L32.0 4.0 33.0 4.0 34.0 4.0 Q34.0 4.5 34.25 4.75 L35.0 5.0 35.0 6.0 Q35.0 6.5 35.25 6.75 L36.0 7.0 37.0 7.0 38.0 7.0 39.0 7.0 40.0 7.0 41.0 7.0 Q41.0 7.5 41.25 7.75 M17.0 14.0 L17.0 14.5 Q19.25 14.5 17.0 14.0 M9.0 6.0 L9.0 6.5 Q11.25 6.5 9.0 6.0 M6.0 7.5 Q8.25 7.5 6.0 7.0 L6.0 7.5 M3.0 11.0 L3.0 11.5 Q5.25 11.5 3.0 11.0 M17.0 8.0 L17.0 8.5 Q19.25 8.5 17.0 8.0 M13.0 8.5 Q15.25 8.5 13.0 8.0 L13.0 8.5 M39.0 12.0 L39.0 12.5 Q41.25 12.5 39.0 12.0 M31.0 21.0 L31.0 21.5 Q33.25 21.5 31.0 21.0 M38.0 17.5 Q40.25 17.5 38.0 17.0 L38.0 17.5 M26.0 19.0 L26.0 19.5 Q28.25 19.5 26.0 19.0 M27.0 10.0 L27.0 10.5 Q29.25 10.5 27.0 10.0 M21.0 8.0 L21.0 8.5 Q23.25 8.5 21.0 8.0 M24.0 5.5 Q26.25 5.5 24.0 5.0 L24.0 5.5 M28.0 5.0 L28.0 5.5 Q30.25 5.5 28.0 5.0 M31.0 9.0 L31.0 9.5 Q33.25 9.5 31.0 9.0 M35.0 11.0 L35.0 11.5 Q37.25 11.5 35.0 11.0 M43.0 13.0 L43.0 13.5 Q45.25 13.5 43.0 13.0" fill="#8cadd6" fill-rule="evenodd" stroke="none"/>
  </g>
</svg>
