<?xml version="1.0" encoding="UTF-8" standalone="no"?>
<svg xmlns:xlink="http://www.w3.org/1999/xlink" height="16.0px" width="21.0px" xmlns="http://www.w3.org/2000/svg">
  <g transform="matrix(1.0, 0.0, 0.0, 1.0, 0.0, 0.0)">
    <path d="M21.0 9.0 L20.0 9.0 19.0 9.0 19.0 10.0 Q19.0 11.0 19.4 11.8 L20.0 12.0 20.0 13.0 19.0 13.0 18.0 13.0 18.0 14.0 17.0 14.0 17.0 15.0 17.0 16.0 16.0 16.0 15.0 16.0 14.0 16.0 13.0 16.0 12.0 16.0 11.0 16.0 10.75 15.25 10.0 15.0 9.0 15.0 8.0 15.0 7.75 14.25 7.0 14.0 6.0 14.0 5.0 14.0 4.0 14.0 3.0 14.0 2.0 14.0 1.0 14.0 1.0 15.0 0.0 15.0 0.0 14.0 0.0 13.0 0.0 12.0 0.0 11.0 0.0 10.0 0.0 9.0 0.0 8.0 1.0 8.0 1.75 7.75 2.0 7.0 3.0 7.0 Q4.0 7.0 4.8 6.6 L5.0 6.0 5.0 5.0 5.0 4.0 6.0 4.0 6.75 3.75 7.0 3.0 7.75 2.75 8.0 2.0 8.75 1.75 9.0 1.0 9.75 0.75 10.0 0.0 11.0 0.0 16.05 0.3 16.2 0.3 16.3 0.3 Q18.15 0.5 17.85 1.95 17.4 4.15 19.0 4.0 19.0 5.0 19.4 5.8 L20.0 6.0 Q20.0 6.5 20.25 6.75 L21.0 7.0 21.0 8.0 21.0 9.0 M16.0 8.5 Q18.25 8.5 16.0 8.0 L16.0 8.5" fill="#ffffce" fill-rule="evenodd" stroke="none"/>
  </g>
</svg>
