<?xml version="1.0" encoding="UTF-8" standalone="no"?>
<svg xmlns:xlink="http://www.w3.org/1999/xlink" height="8.0px" width="12.15px" xmlns="http://www.w3.org/2000/svg">
  <g transform="matrix(1.0, 0.0, 0.0, 1.0, 0.0, 0.0)">
    <path d="M10.15 5.0 L9.9 5.75 9.15 6.0 9.15 7.0 8.15 7.0 8.15 8.0 7.15 8.0 6.15 8.0 5.4 7.75 Q5.15 7.5 5.15 7.0 L4.9 6.25 4.15 6.0 3.15 6.0 3.15 5.0 3.7 4.85 Q4.3 3.4 2.15 4.0 L1.9 3.25 1.15 3.0 1.05 2.45 Q-0.45 2.15 0.15 0.0 L1.15 0.0 2.15 0.0 Q2.65 0.5 3.15 0.5 L3.15 0.0 4.15 0.0 5.15 0.0 6.15 0.0 6.4 0.75 7.15 1.0 7.9 0.75 8.15 0.0 9.15 0.0 9.4 0.75 10.15 1.0 11.25 1.8 12.15 2.0 12.15 3.0 11.15 3.0 11.15 4.0 10.15 4.0 10.15 5.0" fill="#deb5d6" fill-rule="evenodd" stroke="none"/>
  </g>
</svg>
