<?xml version="1.0" encoding="UTF-8" standalone="no"?>
<svg xmlns:xlink="http://www.w3.org/1999/xlink" height="6.0px" width="17.0px" xmlns="http://www.w3.org/2000/svg">
  <g transform="matrix(1.0, 0.0, 0.0, 1.0, 0.0, 0.0)">
    <path d="M17.0 6.0 L16.0 6.0 13.0 6.0 12.75 5.25 12.0 5.0 11.0 5.0 10.0 5.0 9.0 5.0 Q8.5 5.0 8.4 4.8 8.0 4.0 8.0 3.0 L8.0 2.0 8.5 2.0 8.0 1.0 8.0 0.0 11.0 0.0 12.0 0.0 13.0 0.0 Q12.8 2.7 14.95 2.5 L15.0 2.0 16.0 2.0 Q16.0 3.0 16.4 3.8 L17.0 4.0 17.0 5.0 17.0 6.0 M4.0 2.0 L4.0 3.0 3.0 3.0 3.0 4.0 2.0 4.0 1.0 4.0 1.0 5.0 0.0 5.0 0.0 4.0 0.0 3.0 0.8 1.9 1.0 1.0 2.0 1.0 Q2.0 1.5 2.25 1.75 L3.0 2.0 4.0 2.0" fill="#bdd6bd" fill-rule="evenodd" stroke="none"/>
  </g>
</svg>
