<?xml version="1.0" encoding="UTF-8" standalone="no"?>
<svg xmlns:xlink="http://www.w3.org/1999/xlink" height="8.0px" width="12.0px" xmlns="http://www.w3.org/2000/svg">
  <g transform="matrix(1.0, 0.0, 0.0, 1.0, 0.0, 0.0)">
    <path d="M5.0 5.0 L5.0 5.5 Q7.25 5.5 5.0 5.0 M11.0 4.0 L11.0 5.0 11.0 6.0 10.0 6.0 Q10.0 6.5 10.25 6.75 L11.0 7.0 11.0 8.0 10.0 8.0 8.0 8.0 7.0 8.0 6.75 7.25 6.0 7.0 5.0 7.0 3.0 7.0 3.0 6.5 Q0.3 6.7 0.0 5.0 L0.0 4.0 0.0 3.0 0.0 2.0 1.0 2.0 2.0 2.0 2.75 1.75 3.0 1.0 4.0 1.0 4.75 0.75 5.0 0.0 6.0 0.0 6.25 0.75 7.0 1.0 8.0 1.0 9.0 1.0 Q9.5 1.5 10.0 1.5 L10.0 1.0 11.0 1.0 Q11.0 1.5 11.25 1.75 L12.0 2.0 12.0 3.0 11.0 3.0 11.0 4.0" fill="#8cadd6" fill-rule="evenodd" stroke="none"/>
  </g>
</svg>
