<?xml version="1.0" encoding="UTF-8" standalone="no"?>
<svg xmlns:xlink="http://www.w3.org/1999/xlink" height="6.0px" width="12.0px" xmlns="http://www.w3.org/2000/svg">
  <g transform="matrix(1.0, 0.0, 0.0, 1.0, 0.0, 0.0)">
    <path d="M11.0 2.0 Q11.0 3.0 11.4 3.8 11.5 4.0 12.0 4.0 L12.0 5.0 11.0 5.0 10.0 5.0 9.0 5.0 8.0 5.0 7.0 5.0 7.0 6.0 6.0 6.0 5.0 6.0 4.75 5.25 4.0 5.0 3.75 4.25 3.0 4.0 2.75 3.25 Q2.5 3.0 2.0 3.0 L1.0 3.0 0.0 3.0 0.0 2.0 0.0 1.0 0.0 0.0 1.0 0.0 2.0 0.0 3.0 0.0 Q3.5 0.5 4.0 0.5 L4.0 0.0 5.0 0.0 Q5.5 0.5 6.1 0.8 L7.0 1.0 Q7.0 1.5 7.25 1.75 L8.0 2.0 9.0 2.0 10.0 2.0 11.0 2.0" fill="#ffffce" fill-rule="evenodd" stroke="none"/>
  </g>
</svg>
