<?xml version="1.0" encoding="UTF-8" standalone="no"?>
<svg xmlns:xlink="http://www.w3.org/1999/xlink" height="12.0px" width="13.35px" xmlns="http://www.w3.org/2000/svg">
  <g transform="matrix(1.0, 0.0, 0.0, 1.0, 0.0, 0.0)">
    <path d="M12.0 6.0 L10.0 6.0 9.0 6.0 9.0 7.0 9.0 8.0 8.0 8.0 8.0 9.0 7.0 9.0 6.0 9.0 5.0 9.0 5.0 10.0 5.0 11.0 4.0 11.0 3.0 11.0 3.0 12.0 2.0 12.0 1.0 12.0 0.75 11.25 0.0 11.0 0.0 10.0 0.75 9.75 1.0 9.0 1.0 8.0 1.5 8.0 1.0 7.0 1.0 6.0 1.0 5.0 1.0 4.0 1.5 4.0 1.0 3.0 1.0 2.0 1.75 1.75 2.0 1.0 3.0 1.0 Q4.0 1.0 4.8 0.6 L5.0 0.0 6.0 0.0 Q5.9 1.65 8.05 1.1 L9.0 1.0 10.0 1.0 10.75 0.75 11.0 0.0 Q14.15 0.3 13.1 5.0 L13.0 6.0 12.0 6.0 M6.0 7.0 L6.0 7.5 Q8.25 7.5 6.0 7.0 M2.0 9.5 Q4.25 9.5 2.0 9.0 L2.0 9.5 M3.0 7.0 L3.0 7.5 Q5.25 7.5 3.0 7.0 M5.0 5.0 L5.0 5.5 Q7.25 5.5 5.0 5.0 M2.0 5.0 L2.0 5.5 Q4.25 5.5 2.0 5.0 M3.0 2.0 L3.0 2.5 Q5.25 2.5 3.0 2.0 M6.0 3.5 Q8.25 3.5 6.0 3.0 L6.0 3.5 M8.0 5.0 L8.0 5.5 Q10.25 5.5 8.0 5.0 M10.0 4.0 L10.0 4.5 Q12.25 4.5 10.0 4.0 M9.0 2.0 L9.0 2.5 Q11.25 2.5 9.0 2.0 M11.0 1.5 Q13.25 1.5 11.0 1.0 L11.0 1.5" fill="#ffdea5" fill-rule="evenodd" stroke="none"/>
  </g>
</svg>
