<?xml version="1.0" encoding="UTF-8" standalone="no"?>
<svg xmlns:xlink="http://www.w3.org/1999/xlink" height="10.0px" width="9.0px" xmlns="http://www.w3.org/2000/svg">
  <g transform="matrix(1.0, 0.0, 0.0, 1.0, 0.0, 0.0)">
    <path d="M8.0 0.0 L9.0 0.0 9.0 1.0 9.0 2.0 8.85 2.55 6.0 3.0 6.0 4.0 5.0 4.0 4.0 4.0 4.0 5.0 4.0 6.0 4.0 7.0 3.0 7.0 3.0 8.0 3.0 9.0 2.0 9.0 2.0 10.0 1.1 9.8 0.0 9.0 0.75 8.75 1.0 8.0 0.75 7.25 0.0 7.0 0.0 6.0 1.0 6.0 1.5 6.0 1.0 5.0 1.0 4.0 1.0 3.0 1.0 2.0 2.0 2.0 3.0 2.0 Q3.5 2.5 4.0 2.5 L4.0 2.0 5.0 2.0 5.75 1.75 6.0 1.0 7.0 1.0 7.75 0.75 8.0 0.0" fill="#bdd6bd" fill-rule="evenodd" stroke="none"/>
  </g>
</svg>
