<?xml version="1.0" encoding="UTF-8" standalone="no"?>
<svg xmlns:xlink="http://www.w3.org/1999/xlink" height="10.0px" width="3.0px" xmlns="http://www.w3.org/2000/svg">
  <g transform="matrix(1.0, 0.0, 0.0, 1.0, 0.0, 0.0)">
    <path d="M3.0 2.0 L3.0 3.0 3.0 4.0 3.0 5.0 2.0 5.0 2.0 6.0 2.0 7.0 2.0 8.0 2.0 9.0 1.0 9.0 1.0 10.0 0.0 10.0 0.0 9.0 0.0 8.0 0.0 7.0 0.0 6.0 0.0 5.0 0.0 4.0 0.0 3.0 0.75 2.75 1.0 2.0 1.0 1.0 1.0 0.0 2.0 0.0 2.0 1.0 Q2.0 1.5 2.25 1.75 L3.0 2.0" fill="#8cadd6" fill-rule="evenodd" stroke="none"/>
  </g>
</svg>
