<?xml version="1.0" encoding="UTF-8" standalone="no"?>
<svg xmlns:xlink="http://www.w3.org/1999/xlink" height="42.0px" width="56.0px" xmlns="http://www.w3.org/2000/svg">
  <g transform="matrix(1.0, 0.0, 0.0, 1.0, 0.0, 0.0)">
    <path d="M41.0 15.0 Q41.0 15.5 41.25 15.75 L42.0 16.0 43.1 16.8 44.0 17.0 44.0 18.0 Q44.0 18.5 44.25 18.75 L45.0 19.0 45.25 19.75 46.0 20.0 46.0 21.0 45.0 21.0 45.25 21.75 46.0 22.0 Q46.0 22.5 46.25 22.75 L47.0 23.0 Q47.0 23.5 47.25 23.75 L48.0 24.0 49.0 24.0 50.0 24.0 51.0 24.0 51.25 24.75 52.0 25.0 Q52.5 25.5 53.0 25.5 L53.0 25.0 54.0 25.0 55.0 25.0 56.0 25.0 56.0 26.0 56.0 27.0 56.0 28.0 56.0 29.0 56.0 30.0 55.8 30.9 55.0 32.0 54.0 32.0 54.0 33.0 53.0 33.0 53.0 34.0 52.0 34.0 51.0 34.0 51.0 35.0 50.0 35.0 49.75 34.25 49.0 34.0 49.0 35.0 48.0 35.0 47.85 34.45 45.0 34.0 45.0 35.0 44.0 35.0 43.0 35.0 42.0 35.0 42.0 36.0 41.0 36.0 40.0 36.0 39.0 36.0 38.0 36.0 38.0 37.0 37.0 37.0 36.0 37.0 36.0 38.0 35.0 38.0 35.0 39.0 34.0 39.0 34.0 40.0 33.0 40.0 33.0 41.0 32.0 41.0 32.0 42.0 31.0 42.0 30.75 41.25 30.0 41.0 29.0 41.0 28.75 40.25 28.0 40.0 27.0 40.0 26.8 39.4 25.0 39.0 24.0 39.0 23.0 39.0 22.0 39.0 22.0 40.0 21.0 40.0 21.0 41.0 Q20.5 41.0 20.35 40.8 19.0 38.5 18.0 36.0 L17.75 35.25 Q17.5 35.0 17.0 35.0 L16.75 34.25 16.0 34.0 15.75 33.25 15.0 33.0 14.75 32.25 Q14.5 32.0 14.0 32.0 L13.75 31.25 13.0 31.0 12.5 30.95 Q12.15 26.85 11.0 24.0 L10.75 23.25 10.0 23.0 9.75 22.25 9.0 22.0 8.75 21.25 Q8.5 21.0 8.0 21.0 L7.75 20.25 7.0 20.0 6.75 19.25 6.0 19.0 6.0 18.0 5.75 17.25 Q5.5 17.0 5.0 17.0 L5.0 16.0 4.75 15.25 4.0 15.0 3.75 14.25 3.0 14.0 2.9 13.5 Q1.4 13.15 2.0 11.0 L1.75 10.25 1.0 10.0 0.0 10.0 0.0 9.0 0.0 8.0 2.85 7.55 3.0 7.0 4.0 7.0 4.75 6.75 5.0 6.0 5.75 5.75 6.0 5.0 6.0 4.0 6.0 3.0 6.0 2.0 6.75 1.75 7.0 1.0 8.0 1.0 10.05 0.15 11.0 0.0 13.0 0.0 14.0 0.0 15.1 0.8 16.0 1.0 17.0 1.0 18.0 1.0 18.25 1.75 19.0 2.0 Q19.0 2.5 19.25 2.75 L20.0 3.0 21.0 3.0 21.25 3.75 22.0 4.0 Q22.0 4.5 22.25 4.75 L23.0 5.0 Q22.35 7.65 24.8 6.6 25.0 6.5 25.0 6.0 L26.0 6.0 27.0 6.0 27.25 6.75 28.0 7.0 29.0 7.0 31.05 6.15 32.0 6.0 33.1 6.8 34.0 7.0 34.0 8.0 35.1 8.8 36.0 9.0 36.25 9.75 37.0 10.0 40.25 13.75 41.0 14.0 41.0 15.0" fill="#deb5d6" fill-rule="evenodd" stroke="none"/>
  </g>
</svg>
