<?xml version="1.0" encoding="UTF-8" standalone="no"?>
<svg xmlns:xlink="http://www.w3.org/1999/xlink" height="40.0px" width="42.0px" xmlns="http://www.w3.org/2000/svg">
  <g transform="matrix(1.0, 0.0, 0.0, 1.0, 0.0, 0.0)">
    <path d="M41.0 9.0 L40.05 9.15 Q39.0 9.5 38.0 10.0 L37.0 10.0 36.0 10.0 36.0 11.0 35.0 11.0 35.0 12.0 35.0 13.0 34.0 13.0 33.0 13.0 32.0 13.0 32.0 14.0 31.1 14.2 30.0 15.0 29.0 15.0 28.5 15.1 Q28.15 16.65 26.0 16.0 L25.0 16.0 25.0 17.0 24.0 17.0 24.0 18.0 23.0 18.0 22.0 18.0 22.0 21.0 22.0 22.0 22.0 23.0 22.0 24.0 21.0 24.0 20.0 24.0 Q20.0 24.5 20.25 24.75 L21.0 25.0 22.0 25.0 22.0 26.0 21.0 26.0 20.0 26.0 13.0 26.0 13.0 27.0 12.0 27.0 12.0 28.0 12.0 29.0 12.0 30.0 12.0 32.0 12.0 33.0 12.0 34.0 12.0 35.0 11.0 35.0 10.0 35.0 10.0 36.0 9.0 36.0 9.0 37.0 9.0 38.0 8.75 38.75 8.0 39.0 7.0 39.0 7.0 40.0 6.0 40.0 5.0 40.0 4.0 40.0 3.0 40.0 1.0 40.0 0.0 40.0 0.0 39.0 0.75 38.75 1.0 38.0 1.0 37.0 1.75 36.75 2.0 36.0 2.0 35.0 2.0 34.0 2.75 33.75 3.0 33.0 3.75 32.75 4.0 32.0 4.75 31.75 5.0 31.0 5.75 30.75 6.0 30.0 Q7.65 30.15 7.1 27.95 L7.0 27.0 8.0 27.0 8.75 26.75 9.0 26.0 9.0 25.0 10.0 25.0 10.8 23.9 11.0 23.0 11.0 22.0 12.0 22.0 13.0 22.0 14.0 22.0 14.75 21.75 15.0 21.0 15.75 20.75 16.0 20.0 17.0 20.0 17.75 19.75 18.0 19.0 18.75 18.75 19.0 18.0 19.0 17.0 19.75 16.75 20.0 16.0 Q20.5 16.0 20.6 15.8 21.7 13.3 20.0 13.0 L20.0 12.0 20.0 11.0 21.1 10.2 22.0 10.0 22.75 9.75 23.0 9.0 23.0 8.0 Q24.0 8.0 24.8 7.6 25.0 7.5 25.0 7.0 L26.0 7.0 26.75 6.75 27.0 6.0 27.0 5.0 27.0 4.0 28.0 4.0 28.75 3.75 29.0 3.0 29.0 2.0 29.75 1.75 30.0 1.0 30.0 0.0 31.0 0.0 32.0 0.0 Q32.0 0.5 32.25 0.75 L33.0 1.0 38.0 1.0 39.0 1.0 39.25 1.75 40.0 2.0 41.0 2.0 41.0 3.0 Q41.0 5.5 41.5 7.9 L42.0 8.0 41.75 8.75 41.0 9.0 M37.0 6.0 L37.0 6.5 Q39.25 6.5 37.0 6.0 M32.0 5.5 Q34.25 5.5 32.0 5.0 L32.0 5.5" fill="#ffffce" fill-rule="evenodd" stroke="none"/>
  </g>
</svg>
