<?xml version="1.0" encoding="UTF-8" standalone="no"?>
<svg xmlns:xlink="http://www.w3.org/1999/xlink" height="15.0px" width="26.0px" xmlns="http://www.w3.org/2000/svg">
  <g transform="matrix(1.0, 0.0, 0.0, 1.0, 0.0, 0.0)">
    <path d="M26.0 5.0 L25.0 5.0 24.0 5.0 24.0 8.0 24.0 9.0 23.0 9.0 22.75 8.25 22.0 8.0 22.0 9.0 21.0 9.0 20.0 9.0 19.75 8.25 19.0 8.0 19.0 9.0 19.0 10.0 18.0 10.0 17.75 9.25 Q17.5 9.0 17.0 9.0 L17.0 10.0 16.0 10.0 16.0 11.0 15.0 11.0 13.0 11.0 12.0 11.0 12.0 12.0 12.0 13.0 11.0 13.0 10.75 12.25 10.0 12.0 10.0 13.0 9.0 13.0 Q7.05 13.05 6.0 14.0 L5.0 14.0 5.0 15.0 4.0 15.0 3.0 15.0 2.75 14.25 Q2.5 14.0 2.0 14.0 L1.75 13.25 1.0 13.0 1.0 12.0 1.0 11.0 1.5 11.0 1.0 10.0 0.25 9.75 0.0 9.0 0.0 8.0 0.0 7.0 0.5 7.0 0.0 6.0 0.0 5.0 0.75 4.75 1.0 4.0 2.0 4.0 3.0 4.0 4.0 4.0 5.0 4.0 Q5.0 4.5 5.25 4.75 L6.0 5.0 7.0 5.0 8.0 5.0 8.0 6.0 7.0 6.0 Q7.0 6.5 7.25 6.75 L8.0 7.0 8.0 8.0 Q8.5 8.5 9.0 8.5 L9.0 8.0 9.75 7.75 10.0 7.0 10.75 6.75 11.0 6.0 11.75 5.75 12.0 5.0 12.75 4.75 13.0 4.0 13.0 3.0 13.75 2.75 14.0 2.0 15.0 2.0 15.75 1.75 16.0 1.0 16.75 0.75 17.0 0.0 18.0 0.0 19.0 0.0 20.0 0.0 21.0 0.0 22.0 0.0 23.0 0.0 24.0 0.0 Q23.8 2.75 25.2 3.75 L26.0 4.0 26.0 5.0 M6.0 12.0 L6.0 12.5 Q8.25 12.5 6.0 12.0 M3.0 12.0 L3.0 12.5 Q5.25 12.5 3.0 12.0 M6.0 9.5 Q8.25 9.5 6.0 9.0 L6.0 9.5 M10.0 9.0 L10.0 9.5 Q12.25 9.5 10.0 9.0 M8.0 11.0 L8.0 11.5 Q10.25 11.5 8.0 11.0 M4.0 10.0 L4.0 10.5 Q6.25 10.5 4.0 10.0 M2.0 8.0 L2.0 8.5 Q4.25 8.5 2.0 8.0 M4.0 7.0 L4.0 7.5 Q6.25 7.5 4.0 7.0 M2.0 5.0 L2.0 5.5 Q4.25 5.5 2.0 5.0 M14.0 6.0 L14.0 6.5 Q16.25 6.5 14.0 6.0 M18.0 6.0 L18.0 6.5 Q20.25 6.5 18.0 6.0 M16.0 7.0 L16.0 7.5 Q18.25 7.5 16.0 7.0 M14.0 9.5 Q16.25 9.5 14.0 9.0 L14.0 9.5 M12.0 7.5 Q14.25 7.5 12.0 7.0 L12.0 7.5 M15.0 3.0 L15.0 3.5 Q17.25 3.5 15.0 3.0 M19.0 3.5 Q21.25 3.5 19.0 3.0 L19.0 3.5 M17.0 4.0 L17.0 4.5 Q19.25 4.5 17.0 4.0 M18.0 1.5 Q20.25 1.5 18.0 1.0 L18.0 1.5 M21.0 6.0 L21.0 6.5 Q23.25 6.5 21.0 6.0 M22.0 4.0 L22.0 4.5 Q24.25 4.5 22.0 4.0 M21.0 1.5 Q23.25 1.5 21.0 1.0 L21.0 1.5" fill="#ffdea5" fill-rule="evenodd" stroke="none"/>
  </g>
</svg>
