<?xml version="1.0" encoding="UTF-8" standalone="no"?>
<svg xmlns:xlink="http://www.w3.org/1999/xlink" height="37.0px" width="39.0px" xmlns="http://www.w3.org/2000/svg">
  <g transform="matrix(1.0, 0.0, 0.0, 1.0, 0.0, 0.0)">
    <path d="M36.0 5.0 L35.0 5.0 34.0 5.0 33.0 5.0 32.0 5.0 31.0 5.0 30.75 4.25 30.0 4.0 30.0 5.0 30.0 6.0 30.0 7.0 29.0 7.0 Q29.0 7.5 29.25 7.75 L30.0 8.0 30.0 9.0 30.0 10.0 30.0 11.0 30.25 11.75 31.0 12.0 32.0 12.0 32.0 14.0 32.0 15.0 31.0 15.0 31.0 16.0 31.0 17.0 30.0 17.0 29.0 17.0 Q29.0 17.5 29.25 17.75 L30.0 18.0 30.0 19.0 30.0 20.0 30.0 21.0 29.0 21.0 28.0 21.0 28.0 22.0 27.0 22.0 26.0 22.0 26.0 23.0 25.0 23.0 25.0 24.0 25.0 25.0 24.0 25.0 23.0 25.0 22.0 25.0 21.0 25.0 20.0 25.0 19.0 25.0 19.0 26.0 19.0 27.0 18.0 27.0 18.0 28.0 18.0 29.0 18.25 29.75 19.0 30.0 Q19.0 30.5 19.25 30.75 L20.0 31.0 Q20.0 31.5 20.25 31.75 L21.0 32.0 Q21.0 33.0 21.4 33.8 21.5 34.0 22.0 34.0 L22.0 35.0 21.0 35.0 20.0 35.0 19.0 35.0 18.0 35.0 17.75 34.25 Q17.5 34.0 17.0 34.0 L17.0 35.0 16.0 35.0 16.0 36.0 15.0 36.0 15.0 37.0 14.0 37.0 14.0 36.0 14.0 35.0 13.75 34.25 13.0 34.0 12.0 34.0 11.75 33.25 Q11.5 33.0 11.0 33.0 L10.75 32.25 10.0 32.0 9.75 31.25 9.0 31.0 9.0 32.0 8.0 32.0 7.0 32.0 6.75 31.25 6.0 31.0 6.0 32.0 5.0 32.0 4.0 32.0 3.75 31.25 3.0 31.0 3.0 32.0 Q2.5 32.0 2.4 31.8 2.0 31.0 2.0 30.0 L2.0 29.0 2.75 28.75 3.0 28.0 2.75 27.25 Q2.5 27.0 2.0 27.0 L1.0 27.0 1.0 26.0 1.0 25.0 0.75 24.25 0.0 24.0 0.0 23.0 0.75 22.75 1.0 22.0 2.0 22.0 3.0 22.0 4.0 22.0 Q4.5 22.5 5.0 22.5 L5.0 22.0 Q6.0 22.0 6.8 21.6 7.0 21.5 7.0 21.0 L8.0 21.0 Q8.5 21.5 9.0 21.5 L9.0 21.0 Q10.0 21.0 10.8 20.6 L11.0 20.0 11.0 19.0 11.5 19.0 11.0 18.0 11.0 17.0 12.0 17.0 13.0 17.0 Q13.5 19.25 13.9 17.0 L14.0 16.0 15.0 16.0 16.0 16.0 Q17.0 16.0 17.8 15.6 L18.0 15.0 18.75 14.75 19.0 14.0 19.0 13.0 19.0 12.0 19.75 11.75 20.0 11.0 20.75 10.75 21.0 10.0 21.75 9.75 22.0 9.0 Q23.7 8.7 23.95 7.0 L24.0 6.0 24.75 5.75 25.0 5.0 25.0 4.0 25.0 2.0 25.0 1.0 26.0 1.0 27.0 1.0 29.85 0.55 30.0 0.0 34.0 0.0 35.0 0.0 35.0 1.0 34.0 1.0 35.1 1.8 36.0 2.0 36.0 3.0 37.1 3.8 38.0 4.0 39.0 4.0 39.0 5.0 38.0 5.0 37.0 5.0 36.0 5.0 M4.0 29.0 L4.0 29.5 Q6.25 29.5 4.0 29.0 M5.0 27.0 L5.0 27.5 Q7.25 27.5 5.0 27.0 M3.0 25.0 L3.0 25.5 Q5.25 25.5 3.0 25.0 M7.0 29.5 Q9.25 29.5 7.0 29.0 L7.0 29.5 M8.0 27.0 L8.0 27.5 Q10.25 27.5 8.0 27.0 M6.0 25.5 Q8.25 25.5 6.0 25.0 L6.0 25.5 M10.0 29.0 L10.0 29.5 Q12.25 29.5 10.0 29.0 M17.0 31.0 L17.0 31.5 Q19.25 31.5 17.0 31.0 M19.0 33.0 L19.0 33.5 Q21.25 33.5 19.0 33.0 M13.0 32.0 L13.0 32.5 Q15.25 32.5 13.0 32.0 M15.0 33.0 L15.0 33.5 Q17.25 33.5 15.0 33.0 M15.0 30.0 L15.0 30.5 Q17.25 30.5 15.0 30.0 M13.0 28.5 Q15.25 28.5 13.0 28.0 L13.0 28.5 M12.0 30.0 L12.0 30.5 Q14.25 30.5 12.0 30.0 M12.0 25.0 L12.0 25.5 Q14.25 25.5 12.0 25.0 M11.0 27.5 Q13.25 27.5 11.0 27.0 L11.0 27.5 M14.0 26.0 L14.0 26.5 Q16.25 26.5 14.0 26.0 M16.0 28.5 Q18.25 28.5 16.0 28.0 L16.0 28.5 M17.0 26.0 L17.0 26.5 Q19.25 26.5 17.0 26.0 M18.0 23.0 L18.0 23.5 Q20.25 23.5 18.0 23.0 M16.0 24.0 L16.0 24.5 Q18.25 24.5 16.0 24.0 M17.0 21.0 L17.0 21.5 Q19.25 21.5 17.0 21.0 M20.0 21.0 L20.0 21.5 Q22.25 21.5 20.0 21.0 M19.0 19.0 L19.0 19.5 Q21.25 19.5 19.0 19.0 M15.0 22.0 L15.0 22.5 Q17.25 22.5 15.0 22.0 M13.0 23.5 Q15.25 23.5 13.0 23.0 L13.0 23.5 M11.0 22.5 Q13.25 22.5 11.0 22.0 L11.0 22.5 M13.0 20.0 L13.0 20.5 Q15.25 20.5 13.0 20.0 M15.0 19.0 L15.0 19.5 Q17.25 19.5 15.0 19.0 M19.0 16.0 L19.0 16.5 Q21.25 16.5 19.0 16.0 M17.0 17.0 L17.0 17.5 Q19.25 17.5 17.0 17.0 M20.0 13.0 L20.0 13.5 Q22.25 13.5 20.0 13.0 M7.0 23.5 Q9.25 23.5 7.0 23.0 L7.0 23.5 M9.0 24.0 L9.0 24.5 Q11.25 24.5 9.0 24.0 M2.0 23.0 L2.0 23.5 Q4.25 23.5 2.0 23.0 M27.0 19.0 L27.0 19.5 Q29.25 19.5 27.0 19.0 M23.0 22.0 L23.0 22.5 Q25.25 22.5 23.0 22.0 M21.0 23.5 Q23.25 23.5 21.0 23.0 L21.0 23.5 M22.0 20.5 Q24.25 20.5 22.0 20.0 L22.0 20.5 M25.0 20.0 L25.0 20.5 Q27.25 20.5 25.0 20.0 M21.0 15.0 L21.0 15.5 Q23.25 15.5 21.0 15.0 M25.0 15.0 L25.0 15.5 Q27.25 15.5 25.0 15.0 M23.0 16.0 L23.0 16.5 Q25.25 16.5 23.0 16.0 M24.0 18.0 L24.0 18.5 Q26.25 18.5 24.0 18.0 M21.0 18.5 Q23.25 18.5 21.0 18.0 L21.0 18.5 M24.0 13.5 Q26.25 13.5 24.0 13.0 L24.0 13.5 M28.0 15.0 L28.0 15.5 Q30.25 15.5 28.0 15.0 M26.0 17.5 Q28.25 17.5 26.0 17.0 L26.0 17.5 M27.0 13.0 L27.0 13.5 Q29.25 13.5 27.0 13.0 M30.0 13.0 L30.0 13.5 Q32.25 13.5 30.0 13.0 M28.0 10.0 L28.0 10.5 Q30.25 10.5 28.0 10.0 M26.0 11.0 L26.0 11.5 Q28.25 11.5 26.0 11.0 M27.0 8.0 L27.0 8.5 Q29.25 8.5 27.0 8.0 M24.0 9.0 L24.0 9.5 Q26.25 9.5 24.0 9.0 M22.0 11.0 L22.0 11.5 Q24.25 11.5 22.0 11.0 M25.0 7.0 L25.0 7.5 Q27.25 7.5 25.0 7.0 M26.0 3.0 L26.0 3.5 Q28.25 3.5 26.0 3.0 M27.0 5.0 L27.0 5.5 Q29.25 5.5 27.0 5.0 M28.0 2.5 Q30.25 2.5 28.0 2.0 L28.0 2.5 M32.0 3.0 L32.0 3.5 Q34.25 3.5 32.0 3.0 M31.0 1.0 L31.0 1.5 Q33.25 1.5 31.0 1.0" fill="#ffdea5" fill-rule="evenodd" stroke="none"/>
  </g>
</svg>
