<?xml version="1.0" encoding="UTF-8" standalone="no"?>
<svg xmlns:xlink="http://www.w3.org/1999/xlink" height="25.0px" width="29.0px" xmlns="http://www.w3.org/2000/svg">
  <g transform="matrix(1.0, 0.0, 0.0, 1.0, 0.0, 0.0)">
    <path d="M28.25 0.75 L29.0 1.0 29.0 2.0 28.0 2.0 28.0 3.0 Q28.0 3.5 28.25 3.75 L29.0 4.0 29.0 5.0 28.0 5.0 28.0 6.0 Q28.0 6.5 28.25 6.75 L29.0 7.0 29.0 8.0 29.0 9.0 29.0 10.0 28.95 11.0 Q28.7 12.7 27.0 13.0 L26.0 13.0 25.75 12.25 25.0 12.0 25.0 13.0 25.0 14.0 24.0 14.0 23.0 14.0 23.0 15.0 23.0 16.0 22.0 16.0 22.0 17.0 21.0 17.0 21.0 18.0 20.0 18.0 19.0 18.0 19.0 19.0 18.0 19.0 17.0 19.0 16.0 19.0 16.0 20.0 15.0 20.0 15.0 21.0 14.0 21.0 14.0 22.0 14.0 23.0 14.0 24.0 13.0 24.0 12.0 24.0 11.0 24.0 10.0 24.0 10.0 25.0 9.0 25.0 8.0 25.0 7.0 25.0 5.0 25.0 4.0 25.0 3.0 25.0 2.75 24.25 Q2.5 24.0 2.0 24.0 L2.0 23.0 2.75 22.75 3.0 22.0 3.6 21.8 Q4.65 19.9 3.0 20.0 L2.75 19.25 Q2.5 19.0 2.0 19.0 L1.0 19.0 1.0 18.0 1.0 17.0 0.75 16.25 0.0 16.0 0.0 15.0 0.0 14.0 0.5 14.0 0.0 13.0 0.0 12.0 0.0 11.0 0.0 10.0 0.0 9.0 1.0 9.0 1.75 8.75 2.0 8.0 3.0 8.0 Q3.5 8.5 4.1 8.8 L5.0 9.0 5.75 8.75 6.0 8.0 6.75 7.75 7.0 7.0 8.0 7.0 8.75 6.75 9.0 6.0 10.0 6.0 10.75 5.75 11.0 5.0 11.0 4.0 11.75 3.75 12.0 3.0 13.0 3.0 13.75 2.75 14.0 2.0 15.0 2.0 15.25 2.75 16.0 3.0 17.0 3.0 18.0 3.0 19.0 3.0 Q18.9 4.65 20.8 3.6 L21.0 3.0 22.0 3.0 23.0 3.0 23.75 2.75 24.0 2.0 25.0 2.0 26.0 2.0 26.75 1.75 27.0 1.0 27.0 0.0 28.0 0.0 Q28.0 0.5 28.25 0.75" fill="#ffffce" fill-rule="evenodd" stroke="none"/>
  </g>
</svg>
