<?xml version="1.0" encoding="UTF-8" standalone="no"?>
<svg xmlns:xlink="http://www.w3.org/1999/xlink" height="105.0px" width="107.0px" xmlns="http://www.w3.org/2000/svg">
  <g transform="matrix(1.0, 0.0, 0.0, 1.0, 0.0, 0.0)">
    <path d="M83.0 20.0 Q85.8 20.2 88.05 20.85 L89.0 21.0 Q89.5 21.5 90.0 21.5 L90.0 21.0 Q93.2 20.3 94.3 21.75 94.5 22.0 95.0 22.0 95.0 22.5 95.25 22.75 L96.0 23.0 97.1 23.8 98.0 24.0 98.0 25.0 Q98.0 25.5 98.25 25.75 L99.0 26.0 100.0 26.0 Q100.0 26.5 100.25 26.75 L101.0 27.0 105.0 27.0 105.25 27.75 106.0 28.0 106.0 30.0 Q106.0 30.5 106.25 30.75 L107.0 31.0 107.0 35.0 106.0 35.0 106.0 37.0 105.0 37.0 105.0 38.0 104.75 38.75 100.0 43.0 100.0 44.0 99.0 44.0 98.95 46.0 Q98.7 48.2 96.0 48.0 L95.0 48.0 95.0 52.0 Q95.0 53.0 95.4 53.8 95.5 54.0 96.0 54.0 L96.0 56.0 95.0 56.0 95.1 59.0 Q95.7 61.7 94.0 62.0 L93.0 62.0 93.0 67.0 92.0 67.0 92.0 68.0 91.0 68.0 91.0 69.0 90.85 69.95 Q90.0 72.5 88.0 74.0 L88.0 75.0 81.0 75.0 81.0 76.0 79.0 76.0 79.0 77.0 76.0 77.0 76.0 78.0 74.0 78.0 74.0 79.0 73.0 79.0 73.0 80.0 71.0 80.0 71.0 82.0 70.0 82.0 70.0 83.0 69.0 83.0 69.0 91.0 68.0 91.0 68.0 92.0 67.1 92.2 66.0 93.0 66.0 94.0 65.0 94.0 65.0 95.0 64.8 95.9 64.0 97.0 64.0 98.0 63.0 98.0 62.75 97.25 Q62.5 97.0 62.0 97.0 L62.0 98.0 61.0 98.0 61.0 99.0 60.0 99.0 60.0 101.0 59.0 101.0 59.0 104.0 58.0 104.0 58.0 105.0 57.0 105.0 56.85 104.05 55.75 101.25 55.0 101.0 54.0 101.0 53.75 100.25 Q53.5 100.0 53.0 100.0 L52.0 100.0 51.75 99.25 51.0 99.0 50.75 98.25 Q50.5 98.0 50.0 98.0 L49.0 98.0 48.75 97.25 48.0 97.0 47.75 96.25 Q47.5 96.0 47.0 96.0 L46.0 96.0 46.0 94.0 46.75 93.75 47.0 93.0 47.0 92.0 48.0 92.0 48.75 91.75 49.0 91.0 49.75 90.75 50.0 90.0 50.0 89.0 51.0 89.0 51.75 88.75 52.0 88.0 Q53.0 88.0 53.8 87.6 L54.0 87.0 54.75 86.75 55.0 86.0 55.5 86.0 55.0 85.0 55.0 84.0 Q55.0 83.5 54.8 83.4 L53.0 83.0 53.0 81.0 53.75 80.75 54.0 80.0 54.0 79.0 53.75 78.25 Q53.5 78.0 53.0 78.0 L52.75 77.25 52.0 77.0 52.0 78.0 51.0 78.0 51.0 77.0 50.75 76.25 Q50.5 76.0 50.0 76.0 L50.0 75.0 50.5 75.0 50.0 74.0 49.75 73.25 49.0 73.0 44.0 73.0 44.0 70.0 44.75 69.75 45.0 69.0 44.75 68.25 Q44.5 68.0 44.0 68.0 L44.0 65.0 44.75 64.75 45.0 64.0 45.0 63.0 45.5 63.0 45.0 62.0 45.0 61.0 44.75 60.25 Q44.5 60.0 44.0 60.0 L43.0 60.0 43.0 58.0 42.75 57.25 42.0 57.0 38.0 57.0 38.0 56.0 37.75 55.25 37.0 55.0 37.0 51.0 36.75 50.25 36.0 50.0 33.0 50.0 32.75 49.25 Q32.5 49.0 32.0 49.0 L31.75 48.25 31.0 48.0 30.0 48.0 29.75 47.25 Q29.5 47.0 29.0 47.0 L28.0 47.0 27.75 46.25 27.0 46.0 26.0 46.0 25.75 45.25 25.0 45.0 24.0 45.0 24.0 40.0 23.85 39.45 21.0 39.0 21.0 40.0 19.0 40.0 19.0 41.0 17.0 41.0 17.0 42.0 13.0 42.0 13.0 43.0 12.0 43.0 11.8 42.4 10.0 42.0 9.0 42.0 9.0 41.0 9.5 41.0 9.0 40.0 5.0 40.0 4.75 39.25 4.0 39.0 3.0 39.0 2.8 38.1 2.0 37.0 2.0 36.0 1.75 35.25 1.0 35.0 0.75 34.25 0.0 34.0 0.0 33.0 0.75 32.75 1.0 32.0 1.75 31.75 2.0 31.0 2.75 30.75 3.0 30.0 3.0 27.0 3.75 26.75 4.0 26.0 5.0 26.0 5.75 25.75 6.0 25.0 8.0 25.0 8.75 24.75 9.0 24.0 11.0 24.0 Q12.65 24.15 12.1 21.95 L12.0 21.0 12.0 19.0 12.6 18.8 Q13.7 16.3 12.0 16.0 L12.0 15.0 11.75 14.25 Q11.5 14.0 11.0 14.0 L11.0 13.0 Q12.0 13.0 12.8 12.6 13.0 12.5 13.0 12.0 L12.75 11.25 12.0 11.0 11.75 10.25 Q11.5 10.0 11.0 10.0 L11.0 9.0 16.0 9.0 16.75 8.75 17.0 8.0 19.0 8.0 19.0 9.0 18.0 9.0 18.25 9.75 19.0 10.0 20.0 10.0 Q20.0 10.5 20.25 10.75 L21.0 11.0 Q21.5 11.5 22.0 11.5 L22.0 11.0 24.0 11.0 24.75 10.75 25.0 10.0 26.0 10.0 26.75 9.75 27.0 9.0 27.75 8.75 28.0 8.0 28.5 8.0 28.0 7.0 27.0 7.0 27.0 6.0 26.8 5.1 26.0 4.0 26.0 2.0 27.0 2.0 Q27.5 2.5 28.1 2.8 L29.0 3.0 Q29.5 3.5 30.0 3.5 L30.0 3.0 Q31.0 3.0 31.8 2.6 L32.0 2.0 34.0 2.0 34.75 1.75 35.0 1.0 35.75 0.75 36.0 0.0 38.0 0.0 38.0 1.0 Q38.0 1.5 38.25 1.75 L39.0 2.0 39.0 3.0 38.0 3.0 38.0 4.0 37.0 4.0 37.0 5.0 Q37.0 5.5 37.25 5.75 L38.0 6.0 38.0 7.0 Q38.0 7.5 38.25 7.75 L39.0 8.0 39.0 9.0 39.25 9.75 40.0 10.0 43.0 10.0 43.75 9.75 44.0 9.0 45.0 9.0 45.75 8.75 46.0 8.0 48.0 8.0 Q48.5 8.5 49.0 8.5 L49.0 8.0 49.75 7.75 50.0 7.0 53.0 7.0 Q53.0 7.5 53.25 7.75 L54.0 8.0 58.0 8.0 58.75 7.75 59.0 7.0 59.75 6.75 60.0 6.0 60.75 5.75 61.0 5.0 61.0 2.0 62.0 2.0 Q62.0 2.5 62.25 2.75 L63.0 3.0 63.0 6.0 Q63.0 7.0 63.4 7.8 63.5 8.0 64.0 8.0 L64.75 8.25 65.0 9.0 Q65.0 9.5 65.25 9.75 L66.0 10.0 66.0 11.0 65.0 11.0 65.0 12.0 64.0 12.0 64.0 13.0 63.0 13.0 63.0 14.0 62.0 14.0 62.0 15.0 Q62.5 15.5 63.0 15.5 L63.0 15.0 63.75 14.75 64.0 14.0 64.75 13.75 65.0 13.0 66.0 13.0 66.25 13.75 67.0 14.0 69.0 14.0 69.0 16.0 Q69.5 16.5 70.0 16.5 L70.0 16.0 71.0 16.0 72.8 15.6 Q73.0 15.5 73.0 15.0 73.5 15.5 74.1 15.8 L75.0 16.0 75.25 16.75 76.0 17.0 78.0 17.0 79.1 17.8 80.0 18.0 80.0 19.0 Q80.0 19.5 80.25 19.75 L81.0 20.0 Q80.9 21.65 82.8 20.6 L83.0 20.0 M67.0 17.1 L67.5 17.2 67.8 17.3 67.75 17.25 67.0 17.0 67.0 17.1 M31.0 6.0 L31.0 6.2 31.15 6.05 31.0 6.0 M6.0 29.1 L6.05 29.05 6.0 29.0 6.0 29.1 M54.0 74.5 L54.1 74.5 54.0 74.45 54.0 74.5 M67.0 88.0 L67.0 88.5 Q69.25 88.5 67.0 88.0" fill="#8cadd6" fill-rule="evenodd" stroke="none"/>
  </g>
</svg>
