<?xml version="1.0" encoding="UTF-8" standalone="no"?>
<svg xmlns:xlink="http://www.w3.org/1999/xlink" height="41.0px" width="50.0px" xmlns="http://www.w3.org/2000/svg">
  <g transform="matrix(1.0, 0.0, 0.0, 1.0, 0.0, 0.0)">
    <path d="M42.0 7.0 L42.25 7.75 43.0 8.0 Q42.9 9.65 45.05 9.1 L46.0 9.0 46.0 10.0 45.0 10.0 45.25 10.75 46.0 11.0 46.0 12.0 45.0 12.0 45.0 13.0 45.0 14.0 44.0 14.0 44.0 15.0 44.0 16.0 43.0 16.0 Q43.0 16.5 43.25 16.75 L44.0 17.0 44.0 18.0 44.0 19.0 44.0 20.0 44.0 21.0 Q44.0 22.0 44.4 22.8 44.5 23.0 45.0 23.0 L45.85 25.05 46.0 26.0 46.0 27.0 45.0 27.0 45.0 28.0 45.0 29.0 45.25 29.75 46.0 30.0 46.0 31.0 Q46.0 31.5 46.25 31.75 L47.0 32.0 48.0 32.0 49.1 32.8 50.0 33.0 50.0 34.0 50.0 35.0 50.0 36.0 50.0 37.0 50.0 38.0 49.75 38.75 49.0 39.0 48.0 39.0 47.0 39.0 47.0 40.0 46.8 40.6 Q46.0 41.0 45.0 41.0 L44.0 41.0 43.9 40.45 40.0 40.0 39.0 40.0 38.75 39.25 Q38.5 39.0 38.0 39.0 L37.0 39.0 36.25 38.75 36.0 38.0 35.75 37.25 Q35.5 37.0 35.0 37.0 L35.0 36.0 34.8 35.4 33.0 35.0 33.0 36.0 32.0 36.0 31.0 36.0 30.0 36.0 30.0 37.0 29.0 37.0 26.0 37.0 25.75 36.25 25.0 36.0 24.75 35.25 24.0 35.0 23.0 35.0 22.75 34.25 22.0 34.0 21.1 33.8 20.0 33.0 19.75 32.25 19.0 32.0 18.75 31.25 18.0 31.0 18.0 30.0 18.0 29.0 17.75 28.25 Q17.5 28.0 17.0 28.0 L16.75 27.25 16.0 27.0 15.75 26.25 15.0 26.0 14.0 26.0 13.0 26.0 13.0 27.0 12.0 27.0 11.75 26.25 Q11.5 26.0 11.0 26.0 L10.75 25.25 10.0 25.0 10.0 24.0 10.0 23.0 10.0 22.0 10.0 21.0 9.75 20.25 9.0 20.0 8.0 20.0 7.75 19.25 7.0 19.0 6.0 19.0 5.8 18.1 5.0 17.0 4.75 16.25 4.0 16.0 4.0 15.0 4.75 14.75 5.0 14.0 5.0 13.0 5.75 12.75 6.0 12.0 6.0 11.0 5.75 10.25 Q5.5 10.0 5.0 10.0 L4.0 10.0 3.75 9.25 3.0 9.0 3.0 8.0 3.0 7.0 Q4.0 7.0 4.8 6.6 L5.0 6.0 4.75 5.25 4.0 5.0 4.0 4.0 Q4.0 3.5 3.8 3.4 L2.0 3.0 2.0 4.0 1.0 4.0 1.0 3.0 1.0 2.0 0.75 1.25 0.0 1.0 0.0 0.0 1.0 0.0 2.0 0.0 Q2.0 0.5 2.25 0.75 L3.0 1.0 3.25 1.75 4.0 2.0 5.0 2.0 6.0 2.0 6.75 1.75 7.0 1.0 7.75 0.75 8.0 0.0 9.0 0.0 10.0 0.0 10.0 1.0 10.0 2.0 Q10.0 2.5 10.25 2.75 L11.0 3.0 12.0 3.0 Q12.0 4.0 12.4 4.8 12.5 5.0 13.0 5.0 12.9 6.65 15.05 6.1 L16.0 6.0 Q16.0 6.5 16.25 6.75 L17.0 7.0 Q17.0 7.5 17.25 7.75 L18.0 8.0 23.0 8.0 24.0 8.0 25.0 8.0 26.0 8.0 27.0 8.0 27.8 6.9 28.0 6.0 28.75 5.75 29.0 5.0 29.75 4.75 30.0 4.0 34.0 4.0 35.0 4.0 36.0 4.0 36.25 4.75 37.0 5.0 38.0 5.0 Q38.0 5.5 38.25 5.75 L39.0 6.0 40.0 6.0 41.0 6.0 Q41.0 6.5 41.25 6.75 L42.0 7.0" fill="#deb5d6" fill-rule="evenodd" stroke="none"/>
  </g>
</svg>
