<?xml version="1.0" encoding="UTF-8" standalone="no"?>
<svg xmlns:xlink="http://www.w3.org/1999/xlink" height="22.0px" width="36.0px" xmlns="http://www.w3.org/2000/svg">
  <g transform="matrix(1.0, 0.0, 0.0, 1.0, 0.0, 0.0)">
    <path d="M34.0 12.0 L34.0 13.0 35.1 13.8 36.0 14.0 36.0 15.0 35.0 15.0 34.0 15.0 33.0 15.0 33.0 16.0 32.0 16.0 31.0 16.0 Q31.0 16.5 31.25 16.75 L32.0 17.0 32.0 18.0 31.0 18.0 30.1 18.2 Q29.5 18.5 29.0 19.0 L28.0 19.0 28.0 20.0 27.0 20.0 27.0 21.0 26.0 21.0 26.0 22.0 25.0 22.0 24.75 21.25 24.0 21.0 24.0 22.0 23.0 22.0 23.0 21.0 23.0 20.0 23.0 19.0 22.75 18.25 22.0 18.0 Q22.0 17.5 21.8 17.4 L20.0 17.0 19.0 17.0 18.75 16.25 18.0 16.0 17.85 15.45 15.0 15.0 14.8 14.4 13.0 14.0 12.75 13.25 12.0 13.0 11.75 12.25 Q11.5 12.0 11.0 12.0 L11.0 13.0 10.1 12.8 9.3 12.6 Q7.5 13.45 6.0 12.0 L6.0 13.0 5.0 13.0 5.0 14.0 4.5 14.1 Q4.15 15.65 2.0 15.0 L2.0 14.0 2.75 13.75 3.0 13.0 3.5 13.0 3.0 12.0 3.0 11.0 2.75 10.25 Q2.5 10.0 2.0 10.0 L1.75 9.25 1.0 9.0 0.0 9.0 0.0 8.0 0.0 6.0 1.0 6.0 2.0 6.0 2.75 5.75 3.0 5.0 3.0 4.0 3.5 4.0 3.0 3.0 3.0 2.0 3.0 1.0 4.0 1.0 Q4.0 1.5 4.25 1.75 L5.0 2.0 Q5.0 2.5 5.25 2.75 L6.0 3.0 6.25 3.75 7.0 4.0 8.0 4.0 9.0 4.0 10.0 4.0 Q11.0 4.0 11.8 3.6 L12.0 3.0 12.0 2.0 12.75 1.75 13.0 1.0 Q15.15 1.65 15.5 0.1 L16.0 0.0 17.0 0.0 Q17.0 0.5 17.25 0.75 L18.0 1.0 19.0 1.0 19.0 2.0 18.0 2.0 Q18.0 3.0 18.4 3.8 18.5 4.0 19.0 4.0 L22.0 4.0 23.0 4.0 Q23.0 4.5 23.25 4.75 L24.0 5.0 Q24.0 6.0 24.4 6.8 24.5 7.0 25.0 7.0 25.0 7.5 25.25 7.75 L26.0 8.0 Q26.0 8.5 26.25 8.75 L27.0 9.0 27.25 9.75 28.0 10.0 29.0 10.0 Q29.0 10.5 29.25 10.75 L30.0 11.0 31.0 11.0 33.0 11.0 34.0 11.0 34.0 12.0" fill="#bdd6bd" fill-rule="evenodd" stroke="none"/>
  </g>
</svg>
