<?xml version="1.0" encoding="UTF-8" standalone="no"?>
<svg xmlns:xlink="http://www.w3.org/1999/xlink" height="24.0px" width="33.0px" xmlns="http://www.w3.org/2000/svg">
  <g transform="matrix(1.0, 0.0, 0.0, 1.0, 0.0, 0.0)">
    <path d="M23.0 9.0 L23.0 9.5 Q25.25 9.5 23.0 9.0 M25.0 8.0 L26.25 9.75 27.0 10.0 27.0 11.0 27.0 12.0 27.0 13.0 27.25 13.75 28.0 14.0 29.0 14.0 30.0 14.0 31.0 14.0 32.25 15.75 33.0 16.0 33.0 17.0 32.0 17.0 30.0 17.0 30.0 18.0 29.0 18.0 Q29.0 19.0 29.4 19.8 29.5 20.0 30.0 20.0 L31.0 20.0 31.0 21.0 Q31.0 21.5 31.25 21.75 L32.0 22.0 32.0 23.0 31.0 23.0 31.0 24.0 30.0 24.0 29.0 24.0 28.8 23.1 28.0 22.0 27.0 22.0 26.8 21.1 26.0 20.0 25.8 19.1 25.0 18.0 24.75 17.25 24.0 17.0 24.0 18.0 23.1 18.2 22.0 19.0 21.0 19.0 20.8 18.4 19.0 18.0 18.75 17.25 18.0 17.0 17.75 16.25 Q17.5 16.0 17.0 16.0 L17.0 15.0 17.0 14.0 16.75 13.25 16.0 13.0 15.0 13.0 14.75 12.25 Q14.5 12.0 14.0 12.0 L13.75 11.25 13.0 11.0 13.0 12.0 12.1 11.8 Q11.5 11.5 11.0 11.0 L10.75 10.25 10.0 10.0 9.75 9.25 9.0 9.0 8.0 9.0 8.0 8.0 7.75 7.25 7.0 7.0 6.0 7.0 5.0 7.0 5.0 8.0 4.0 8.0 4.0 9.0 3.0 9.0 2.0 9.0 1.0 9.0 1.0 10.0 1.0 11.0 1.0 12.0 0.0 12.0 0.0 11.0 0.0 10.0 0.0 9.0 0.0 8.0 0.0 7.0 0.0 6.0 0.0 5.0 0.0 4.0 0.0 3.0 0.0 2.0 0.0 1.0 1.0 1.0 2.0 1.0 2.75 0.75 3.0 0.0 4.0 0.0 4.0 1.0 4.0 2.0 4.0 3.0 4.0 4.0 Q4.0 4.5 4.25 4.75 L5.0 5.0 Q5.0 5.5 5.25 5.75 L6.0 6.0 7.0 6.0 8.0 6.0 9.0 6.0 Q9.5 6.5 10.0 6.5 L10.0 6.0 11.0 6.0 12.0 6.0 13.0 6.0 14.0 6.0 15.0 6.0 15.25 6.75 16.0 7.0 18.0 7.0 19.0 7.0 20.0 7.0 21.0 7.0 Q20.9 8.65 23.05 8.1 L24.0 8.0 25.0 8.0 M20.0 15.0 L20.0 15.5 Q22.25 15.5 20.0 15.0 M19.0 13.0 L19.0 13.5 Q21.25 13.5 19.0 13.0 M3.0 7.5 Q5.25 7.5 3.0 7.0 L3.0 7.5 M1.0 5.0 L1.0 5.5 Q3.25 5.5 1.0 5.0 M2.0 2.0 L2.0 2.5 Q4.25 2.5 2.0 2.0 M19.0 9.0 L19.0 9.5 Q21.25 9.5 19.0 9.0 M18.0 11.0 L18.0 11.5 Q20.25 11.5 18.0 11.0 M17.0 8.0 L17.0 8.5 Q19.25 8.5 17.0 8.0 M11.0 9.0 L11.0 9.5 Q13.25 9.5 11.0 9.0 M15.0 10.0 L15.0 10.5 Q17.25 10.5 15.0 10.0 M11.0 7.5 Q13.25 7.5 11.0 7.0 L11.0 7.5 M13.0 8.0 L13.0 8.5 Q15.25 8.5 13.0 8.0 M24.0 12.5 Q26.25 12.5 24.0 12.0 L24.0 12.5 M27.0 20.0 L27.0 20.5 Q29.25 20.5 27.0 20.0 M29.0 21.0 L29.0 21.5 Q31.25 21.5 29.0 21.0 M23.0 15.5 Q25.25 15.5 23.0 15.0 L23.0 15.5 M21.0 17.0 L21.0 17.5 Q23.25 17.5 21.0 17.0 M22.0 13.0 L22.0 13.5 Q24.25 13.5 22.0 13.0 M30.0 15.0 L30.0 15.5 Q32.25 15.5 30.0 15.0 M26.0 15.0 L26.0 15.5 Q28.25 15.5 26.0 15.0 M27.0 17.0 L27.0 17.5 Q29.25 17.5 27.0 17.0 M25.0 10.0 L25.0 10.5 Q27.25 10.5 25.0 10.0 M21.0 11.0 L21.0 11.5 Q23.25 11.5 21.0 11.0" fill="#ffdea5" fill-rule="evenodd" stroke="none"/>
  </g>
</svg>
