<?xml version="1.0" encoding="UTF-8" standalone="no"?>
<svg xmlns:xlink="http://www.w3.org/1999/xlink" height="102.0px" width="166.0px" xmlns="http://www.w3.org/2000/svg">
  <g transform="matrix(1.0, 0.0, 0.0, 1.0, 0.0, 0.0)">
    <path d="M164.0 18.0 L165.0 18.0 166.0 18.0 166.0 19.0 166.0 20.0 165.0 20.0 165.0 21.0 164.0 21.0 164.0 22.0 164.0 23.0 164.0 24.0 163.0 24.0 163.0 25.0 163.0 26.0 162.0 26.0 162.0 27.0 161.0 27.0 161.0 28.0 160.0 28.0 160.0 29.0 159.0 29.0 158.75 28.25 Q158.5 28.0 158.0 28.0 L157.0 28.0 157.0 29.0 156.0 29.0 156.0 30.0 156.0 31.0 156.0 32.0 156.0 33.0 156.0 34.0 156.0 35.0 155.0 35.0 155.0 36.0 154.0 36.0 153.0 36.0 152.0 36.0 152.0 37.0 151.0 37.0 151.0 38.0 150.0 38.0 149.0 38.0 149.0 39.0 148.0 39.0 147.0 39.0 147.0 40.0 146.0 40.0 145.75 39.25 145.0 39.0 144.0 39.0 144.0 40.0 144.0 41.0 143.0 41.0 Q141.05 41.05 140.0 42.0 L140.0 43.0 139.0 43.0 139.0 44.0 138.0 44.0 138.0 45.0 137.0 45.0 135.0 45.0 134.0 45.0 134.0 46.0 133.1 46.2 132.0 47.0 131.0 47.0 131.0 46.0 131.0 45.0 131.75 44.75 132.0 44.0 132.0 43.0 131.85 42.45 129.0 42.0 129.0 43.0 Q128.5 43.0 128.25 43.25 127.0 44.5 125.0 45.0 L124.0 45.0 124.0 46.0 124.0 47.0 123.0 47.0 123.0 48.0 122.0 48.0 120.0 48.0 120.0 49.0 119.0 49.0 Q119.0 49.5 119.25 49.75 L120.0 50.0 121.0 50.0 Q121.5 50.5 122.1 50.8 L123.0 51.0 Q123.0 52.0 123.4 52.8 123.5 53.0 124.0 53.0 124.0 53.5 124.25 53.75 L125.0 54.0 125.75 53.75 126.0 53.0 126.75 52.75 127.0 52.0 127.0 51.0 Q129.15 50.4 129.5 51.9 L130.0 52.0 Q130.0 52.5 130.25 52.75 L131.0 53.0 132.0 53.0 133.0 53.0 133.0 54.0 132.0 54.0 Q130.05 54.05 129.0 55.0 L128.0 55.0 128.0 56.0 127.75 56.75 127.0 57.0 126.0 57.0 126.0 58.0 125.0 58.0 125.0 59.0 124.0 59.0 124.0 60.0 Q124.0 60.5 124.25 60.75 L125.0 61.0 126.0 61.0 126.25 61.75 127.0 62.0 127.0 63.0 127.0 64.0 Q127.0 64.5 127.25 64.75 L128.0 65.0 Q128.0 66.0 128.4 66.8 128.5 67.0 129.0 67.0 L129.25 67.75 130.0 68.0 130.0 69.0 130.0 70.0 Q130.0 70.5 130.25 70.75 L131.0 71.0 131.0 72.0 131.0 73.0 130.0 73.0 129.0 73.0 128.0 73.0 128.0 74.0 Q128.0 74.5 128.25 74.75 L129.0 75.0 130.0 75.0 131.0 75.0 131.0 76.0 131.0 77.0 130.0 77.0 130.0 78.0 130.0 79.0 129.0 79.0 129.0 80.0 128.0 80.0 127.0 80.0 127.0 81.0 126.95 82.0 Q126.4 85.85 124.0 88.0 L124.0 89.0 123.0 89.0 123.0 90.0 122.0 90.0 121.0 90.0 121.0 91.0 120.75 91.85 Q119.95 92.95 118.0 93.0 L117.0 93.0 117.0 94.0 116.75 94.75 116.0 95.0 115.75 94.25 115.0 94.0 115.0 95.0 114.0 95.0 113.0 95.0 112.0 95.0 111.0 95.0 111.0 96.0 110.0 96.0 109.75 95.25 109.0 95.0 108.0 95.0 108.0 96.0 108.0 97.0 107.1 97.2 106.0 98.0 105.0 98.0 104.0 98.0 103.0 98.0 102.0 98.0 102.0 99.0 101.1 99.2 100.0 100.0 100.0 101.0 100.0 102.0 99.0 102.0 99.1 101.05 Q99.65 98.9 98.0 99.0 L97.8 98.4 96.0 98.0 95.0 98.0 94.0 98.0 93.0 98.0 93.0 99.0 92.0 99.0 91.75 98.25 91.0 98.0 90.0 98.0 90.0 97.0 90.0 96.0 90.0 95.0 89.85 94.45 87.0 94.0 86.0 94.0 85.0 94.0 85.0 95.0 84.0 95.0 83.0 95.0 82.0 95.0 81.0 95.0 81.0 96.0 80.0 96.0 79.0 96.0 78.75 95.25 78.0 95.0 78.0 96.0 77.0 96.0 76.0 96.0 75.0 96.0 75.25 96.75 76.0 97.0 76.0 98.0 76.0 99.0 75.0 99.0 74.75 98.25 Q74.5 98.0 74.0 98.0 L73.0 98.0 72.0 98.0 71.75 97.25 Q71.5 97.0 71.0 97.0 L70.0 97.0 70.0 96.0 70.0 95.0 69.75 94.25 69.0 94.0 69.0 93.0 68.8 92.1 68.0 91.0 67.0 91.0 66.0 91.0 66.0 92.0 65.25 91.75 Q65.0 91.5 65.0 91.0 L65.0 90.0 65.0 89.0 65.75 88.75 66.0 88.0 66.75 87.75 67.0 87.0 67.75 86.75 68.0 86.0 68.8 84.9 69.0 84.0 69.0 83.0 68.75 82.25 Q68.5 82.0 68.0 82.0 L67.75 81.25 67.0 81.0 66.75 80.25 66.0 80.0 65.75 79.25 Q65.5 79.0 65.0 79.0 L64.0 79.0 63.0 79.0 62.75 78.25 Q62.5 78.0 62.0 78.0 L61.75 77.25 61.0 77.0 60.75 76.25 60.0 76.0 60.0 77.0 59.0 77.0 58.0 77.0 57.0 77.0 56.0 77.0 56.0 78.0 55.0 78.0 54.0 78.0 54.0 79.0 53.0 79.0 52.0 79.0 52.0 80.0 52.0 81.0 51.0 81.0 50.75 80.25 Q50.5 80.0 50.0 80.0 L50.0 81.0 49.0 81.0 48.75 80.25 47.0 79.0 47.0 80.0 46.0 80.0 45.85 79.45 43.0 79.0 43.0 80.0 42.0 80.0 42.0 81.0 41.0 81.0 40.75 80.25 40.0 80.0 40.0 81.0 39.0 81.0 38.75 80.25 Q38.5 80.0 38.0 80.0 L37.0 80.0 36.0 80.0 35.0 80.0 34.0 80.0 33.0 80.0 32.75 79.25 Q32.5 79.0 32.0 79.0 L31.0 79.0 30.0 79.0 29.8 78.4 28.0 78.0 27.75 77.25 27.0 77.0 26.75 76.25 Q26.5 76.0 26.0 76.0 L25.75 75.25 25.0 75.0 24.0 75.0 23.75 74.25 Q23.5 74.0 23.0 74.0 L22.75 73.25 22.0 73.0 21.75 72.25 21.0 72.0 21.0 73.0 21.0 74.0 20.0 74.0 19.0 74.0 18.75 73.25 18.0 73.0 17.0 73.0 16.75 72.25 16.0 72.0 15.75 71.25 15.0 71.0 14.0 71.0 13.8 70.1 13.0 69.0 13.0 68.0 13.0 67.0 14.0 67.0 Q14.5 67.5 15.0 67.5 L15.0 67.0 15.6 66.8 Q16.65 64.9 15.0 65.0 L14.0 65.0 14.0 64.0 14.0 63.0 15.0 63.0 15.75 62.75 16.0 62.0 16.75 61.75 17.0 61.0 17.75 60.75 18.0 60.0 17.8 59.1 17.0 58.0 16.0 58.0 15.0 58.0 14.75 57.25 Q14.5 57.0 14.0 57.0 L14.0 58.0 13.0 58.0 12.0 58.0 12.0 59.0 11.0 59.0 10.75 58.25 10.0 58.0 9.0 58.0 8.0 58.0 7.75 57.25 7.0 57.0 6.75 56.25 6.0 56.0 6.0 55.0 5.75 54.25 Q5.5 54.0 5.0 54.0 L4.0 54.0 3.0 54.0 3.0 53.0 3.0 52.0 3.5 52.0 3.0 51.0 2.75 50.25 Q2.5 50.0 2.0 50.0 L2.1 49.05 Q2.65 46.9 1.0 47.0 L1.0 48.0 0.0 48.0 0.0 47.0 0.0 46.0 0.75 45.75 1.0 45.0 1.0 44.0 2.0 44.0 2.75 43.75 3.0 43.0 4.0 43.0 5.0 43.0 6.0 43.0 Q6.5 43.5 7.0 43.5 L7.0 43.0 7.75 42.75 8.0 42.0 8.75 41.75 9.0 41.0 10.0 41.0 11.0 41.0 12.0 41.0 12.75 40.75 13.0 40.0 13.75 39.75 14.0 39.0 15.0 39.0 16.0 39.0 16.75 38.75 17.0 38.0 17.75 37.75 18.0 37.0 18.0 36.0 18.75 35.75 19.0 35.0 19.75 34.75 20.0 34.0 19.75 33.25 19.0 33.0 19.0 32.0 19.0 31.0 19.0 29.0 19.0 28.0 20.0 28.0 21.0 28.0 22.0 28.0 23.0 28.0 Q23.5 28.5 24.0 28.5 L24.0 28.0 24.0 27.0 24.0 26.0 24.0 25.0 24.75 24.75 25.0 24.0 25.0 23.0 25.0 22.0 26.0 22.0 27.0 22.0 28.0 22.0 Q28.0 22.5 28.25 22.75 L29.0 23.0 30.0 23.0 31.0 23.0 31.75 22.75 32.0 22.0 32.75 21.75 33.0 21.0 33.0 20.0 33.0 19.0 33.0 18.0 33.75 17.75 34.0 17.0 35.0 17.0 35.75 16.75 36.0 16.0 36.0 15.0 37.0 15.0 38.0 15.0 Q38.0 15.5 38.25 15.75 L39.0 16.0 39.25 16.75 40.0 17.0 Q40.0 17.5 40.25 17.75 L41.0 18.0 42.0 18.0 42.25 18.75 43.0 19.0 44.0 19.0 45.0 19.0 45.25 19.75 46.0 20.0 46.0 21.0 46.0 22.0 Q46.0 22.5 46.25 22.75 L47.0 23.0 47.0 24.0 47.0 25.0 47.0 26.0 47.0 27.0 Q47.0 27.5 47.25 27.75 L48.0 28.0 48.25 28.75 49.0 29.0 52.0 29.0 53.0 29.0 54.0 29.0 55.0 29.0 Q55.0 29.5 55.25 29.75 L56.0 30.0 Q56.0 30.5 56.25 30.75 L57.0 31.0 58.0 31.0 59.0 31.0 59.0 32.0 Q59.0 32.5 59.25 32.75 L60.0 33.0 60.0 34.0 60.25 34.75 61.0 35.0 Q61.0 35.5 61.25 35.75 L62.0 36.0 66.0 36.0 67.0 36.0 68.0 36.0 69.0 36.0 Q68.9 37.65 70.8 36.6 L71.0 36.0 75.0 36.0 76.0 36.0 Q76.0 36.5 76.25 36.75 L77.0 37.0 78.0 37.0 78.25 37.75 79.0 38.0 80.0 38.0 Q80.0 38.5 80.25 38.75 L81.0 39.0 83.0 39.0 84.0 39.0 84.25 39.75 85.0 40.0 85.75 39.75 86.0 39.0 87.0 39.0 87.75 38.75 88.0 38.0 89.0 38.0 89.75 37.75 90.0 37.0 96.0 37.0 97.0 37.0 Q98.0 37.0 98.8 36.6 L99.0 36.0 99.75 35.75 100.0 35.0 100.75 34.75 101.0 34.0 Q102.0 34.0 102.8 33.6 103.0 33.5 103.0 33.0 L103.5 33.0 103.0 32.0 103.0 31.0 103.0 30.0 103.0 29.0 106.0 29.0 107.0 29.0 Q107.0 29.5 107.25 29.75 L108.0 30.0 108.75 29.75 109.0 29.0 109.75 28.75 110.0 28.0 111.0 28.0 111.75 27.75 112.0 27.0 113.0 27.0 114.0 27.0 114.75 26.75 115.0 26.0 115.75 25.75 116.0 25.0 116.75 24.75 117.0 24.0 118.0 24.0 119.0 24.0 Q120.0 24.0 120.8 23.6 121.0 23.5 121.0 23.0 L122.0 23.0 123.0 23.0 124.0 23.0 125.0 23.0 125.5 23.0 125.0 22.0 124.75 21.25 124.0 21.0 123.75 20.25 123.0 20.0 122.75 19.25 Q122.5 19.0 122.0 19.0 L121.0 19.0 120.75 18.25 120.0 18.0 120.0 19.0 119.0 19.0 118.75 18.25 118.0 18.0 118.0 19.0 117.0 19.0 116.0 19.0 115.0 19.0 114.0 19.0 114.0 18.0 114.0 17.0 114.75 16.75 115.0 16.0 115.0 15.0 115.75 14.75 116.0 14.0 116.75 13.75 117.0 13.0 118.0 13.0 Q118.0 13.5 118.25 13.75 L119.0 14.0 120.0 14.0 120.75 13.75 121.0 13.0 121.75 12.75 122.0 12.0 123.0 12.0 123.75 11.75 124.0 11.0 124.75 10.75 125.0 10.0 125.0 9.0 125.0 8.0 125.75 7.75 126.0 7.0 126.75 6.75 127.0 6.0 127.75 5.75 128.0 5.0 128.5 5.0 128.0 4.0 127.75 3.25 127.0 3.0 127.0 2.0 127.0 1.0 128.0 1.0 Q129.0 1.0 129.8 0.6 130.0 0.5 130.0 0.0 L131.0 0.0 136.0 0.0 137.0 0.0 Q137.0 0.5 137.25 0.75 L138.0 1.0 139.0 1.0 140.0 1.0 141.0 1.0 141.25 1.75 142.0 2.0 Q142.0 2.5 142.25 2.75 L143.0 3.0 143.0 4.0 Q143.0 4.5 143.25 4.75 L144.0 5.0 144.0 6.0 144.25 6.75 145.0 7.0 145.0 8.0 Q145.0 8.5 145.25 8.75 L146.0 9.0 146.0 10.0 146.0 11.0 146.0 12.0 Q146.0 12.5 146.25 12.75 L147.0 13.0 147.25 13.75 148.0 14.0 149.0 14.0 150.0 14.0 151.0 14.0 152.0 14.0 Q152.0 14.5 152.25 14.75 L153.0 15.0 153.25 15.75 154.0 16.0 155.0 16.0 155.0 17.0 155.0 18.0 155.0 19.0 Q155.0 19.5 155.25 19.75 L156.0 20.0 158.0 20.0 159.0 20.0 160.0 20.0 160.75 19.75 161.0 19.0 162.0 19.0 162.75 18.75 163.0 18.0 164.0 18.0 M72.0 93.0 L72.0 93.5 Q74.25 93.5 72.0 93.0 M74.0 87.0 L74.0 87.5 Q76.25 87.5 74.0 87.0 M71.0 88.0 L71.0 88.5 Q73.25 88.5 71.0 88.0 M78.0 90.5 Q80.25 90.5 78.0 90.0 L78.0 90.5 M70.0 80.0 L70.0 80.5 Q72.25 80.5 70.0 80.0 M62.0 76.0 L62.0 76.5 Q64.25 76.5 62.0 76.0 M66.0 78.0 L66.0 78.5 Q68.25 78.5 66.0 78.0 M76.0 86.5 Q78.25 86.5 76.0 86.0 L76.0 86.5 M73.0 83.5 Q75.25 83.5 73.0 83.0 L73.0 83.5 M27.0 75.0 L27.0 75.5 Q29.25 75.5 27.0 75.0 M31.0 77.0 L31.0 77.5 Q33.25 77.5 31.0 77.0 M18.0 69.0 L18.0 69.5 Q20.25 69.5 18.0 69.0 M19.0 64.0 L19.0 64.5 Q21.25 64.5 19.0 64.0 M9.0 56.0 L9.0 56.5 Q11.25 56.5 9.0 56.0 M6.0 53.0 L6.0 53.5 Q8.25 53.5 6.0 53.0 M25.0 67.0 L25.0 67.5 Q27.25 67.5 25.0 67.0 M22.0 63.5 Q24.25 63.5 22.0 63.0 L22.0 63.5 M24.0 62.5 Q26.25 62.5 24.0 62.0 L24.0 62.5 M21.0 59.0 L21.0 59.5 Q23.25 59.5 21.0 59.0 M25.0 37.0 L25.0 37.5 Q27.25 37.5 25.0 37.0 M23.0 38.5 Q25.25 38.5 23.0 38.0 L23.0 38.5 M21.0 39.5 Q23.25 39.5 21.0 39.0 L21.0 39.5 M27.0 36.5 Q29.25 36.5 27.0 36.0 L27.0 36.5 M24.0 32.5 Q26.25 32.5 24.0 32.0 L24.0 32.5 M22.0 33.5 Q24.25 33.5 22.0 33.0 L22.0 33.5 M27.0 27.0 L27.0 27.5 Q29.25 27.5 27.0 27.0 M34.0 31.0 L34.0 31.5 Q36.25 31.5 34.0 31.0 M33.0 26.5 Q35.25 26.5 33.0 26.0 L33.0 26.5 M31.0 27.5 Q33.25 27.5 31.0 27.0 L31.0 27.5 M36.0 30.5 Q38.25 30.5 36.0 30.0 L36.0 30.5 M39.0 27.5 Q41.25 27.5 39.0 27.0 L39.0 27.5 M15.0 43.5 Q17.25 43.5 15.0 43.0 L15.0 43.5 M20.0 46.0 L20.0 46.5 Q22.25 46.5 20.0 46.0 M12.0 44.5 Q14.25 44.5 12.0 44.0 L12.0 44.5 M18.0 42.0 L18.0 42.5 Q20.25 42.5 18.0 42.0 M8.0 47.0 L8.0 47.5 Q10.25 47.5 8.0 47.0 M4.0 48.0 L4.0 48.5 Q6.25 48.5 4.0 48.0 M40.0 22.0 L40.0 22.5 Q42.25 22.5 40.0 22.0 M36.0 21.5 Q38.25 21.5 36.0 21.0 L36.0 21.5 M75.0 45.0 L75.0 45.5 Q77.25 45.5 75.0 45.0 M74.0 41.0 L74.0 41.5 Q76.25 41.5 74.0 41.0 M79.0 42.0 L79.0 42.5 Q81.25 42.5 79.0 42.0 M61.0 40.0 L61.0 40.5 Q63.25 40.5 61.0 40.0 M65.0 40.0 L65.0 40.5 Q67.25 40.5 65.0 40.0 M68.0 45.0 L68.0 45.5 Q70.25 45.5 68.0 45.0 M70.0 40.0 L70.0 40.5 Q72.25 40.5 70.0 40.0 M58.0 37.5 Q60.25 37.5 58.0 37.0 L58.0 37.5 M51.0 37.5 Q53.25 37.5 51.0 37.0 L51.0 37.5 M58.0 42.5 Q60.25 42.5 58.0 42.0 L58.0 42.5 M47.0 32.5 Q49.25 32.5 47.0 32.0 L47.0 32.5 M43.0 25.0 L43.0 25.5 Q45.25 25.5 43.0 25.0 M51.0 32.5 Q53.25 32.5 51.0 32.0 L51.0 32.5 M54.0 35.0 L54.0 35.5 Q56.25 35.5 54.0 35.0 M128.0 77.5 Q130.3 77.5 128.0 77.0 L128.0 77.5 M126.0 70.0 L126.0 70.5 Q128.25 70.5 126.0 70.0 M124.0 65.0 L124.0 65.5 Q126.3 65.5 124.0 65.0 M100.0 98.0 L100.0 98.5 Q102.25 98.5 100.0 98.0 M95.0 96.5 Q97.25 96.5 95.0 96.0 L95.0 96.5 M91.0 94.0 L91.0 94.5 Q93.25 94.5 91.0 94.0 M119.0 53.0 L119.0 53.5 Q121.3 53.5 119.0 53.0 M121.0 58.0 L121.0 58.5 Q123.25 58.5 121.0 58.0 M104.0 37.5 Q106.25 37.5 104.0 37.0 L104.0 37.5 M107.0 41.5 Q109.25 41.5 107.0 41.0 L107.0 41.5 M102.0 38.5 Q104.25 38.5 102.0 38.0 L102.0 38.5 M111.0 32.0 L111.0 32.5 Q113.25 32.5 111.0 32.0 M107.0 34.5 Q109.25 34.5 107.0 34.0 L107.0 34.5 M113.0 31.5 Q115.25 31.5 113.0 31.0 L113.0 31.5 M116.0 29.0 L116.0 29.5 Q118.3 29.5 116.0 29.0 M118.0 28.5 Q120.3 28.5 118.0 28.0 L118.0 28.5 M93.0 40.0 L93.0 40.5 Q95.25 40.5 93.0 40.0 M97.0 40.5 Q99.25 40.5 97.0 40.0 L97.0 40.5 M83.0 43.5 Q85.25 43.5 83.0 43.0 L83.0 43.5 M87.0 42.5 Q89.25 42.5 87.0 42.0 L87.0 42.5 M90.0 41.0 L90.0 41.5 Q92.25 41.5 90.0 41.0 M153.0 25.0 L153.0 25.5 Q155.3 25.5 153.0 25.0 M134.0 42.5 Q136.3 42.5 134.0 42.0 L134.0 42.5 M124.0 26.5 Q126.3 26.5 124.0 26.0 L124.0 26.5 M122.0 27.5 Q124.25 27.5 122.0 27.0 L122.0 27.5 M135.0 14.0 L135.0 14.5 Q137.3 14.5 135.0 14.0 M128.0 24.5 Q130.3 24.5 128.0 24.0 L128.0 24.5 M131.0 22.0 L131.0 22.5 Q133.3 22.5 131.0 22.0 M126.0 19.0 L126.0 19.5 Q128.25 19.5 126.0 19.0 M125.0 15.0 L125.0 15.5 Q127.25 15.5 125.0 15.0 M128.0 18.5 Q130.3 18.5 128.0 18.0 L128.0 18.5 M131.0 15.0 L131.0 15.5 Q133.3 15.5 131.0 15.0 M128.0 11.5 Q130.3 11.5 128.0 11.0 L128.0 11.5 M130.0 9.0 L130.0 9.5 Q132.3 9.5 130.0 9.0 M131.0 4.0 L131.0 4.5 Q133.3 4.5 131.0 4.0 M139.0 6.5 Q141.3 6.5 139.0 6.0 L139.0 6.5 M139.0 11.5 Q141.3 11.5 139.0 11.0 L139.0 11.5 M141.0 10.0 L141.0 10.5 Q143.3 10.5 141.0 10.0 M134.0 10.0 L134.0 10.5 Q136.3 10.5 134.0 10.0 M135.0 5.5 Q137.3 5.5 135.0 5.0 L135.0 5.5 M159.0 24.0 L159.0 24.5 Q161.3 24.5 159.0 24.0 M155.0 24.0 L155.0 24.5 Q157.3 24.5 155.0 24.0 M152.0 20.0 L152.0 20.5 Q154.3 20.5 152.0 20.0 M144.0 16.0 L144.0 16.5 Q146.3 16.5 144.0 16.0 M148.0 18.0 L148.0 18.5 Q150.3 18.5 148.0 18.0" fill="#8cadd6" fill-rule="evenodd" stroke="none"/>
  </g>
</svg>
