<?xml version="1.0" encoding="UTF-8" standalone="no"?>
<svg xmlns:xlink="http://www.w3.org/1999/xlink" height="9.0px" width="19.0px" xmlns="http://www.w3.org/2000/svg">
  <g transform="matrix(1.0, 0.0, 0.0, 1.0, 0.0, 0.0)">
    <path d="M17.0 6.0 Q17.5 6.5 18.1 6.8 L19.0 7.0 19.0 8.0 19.0 9.0 18.0 9.0 17.0 9.0 16.0 9.0 15.0 9.0 14.85 8.45 12.0 8.0 11.75 7.25 Q11.5 7.0 11.0 7.0 L10.75 6.25 10.0 6.0 9.0 6.0 8.0 6.0 8.0 7.0 7.0 7.0 7.0 6.0 6.75 5.25 6.0 5.0 5.0 5.0 5.0 6.0 4.0 6.0 3.75 5.25 3.0 5.0 2.75 4.25 Q2.5 4.0 2.0 4.0 L1.8 3.4 0.0 3.0 0.0 2.0 0.0 1.0 0.0 0.0 1.0 0.0 2.0 0.0 3.0 0.0 4.0 0.0 Q4.0 0.5 4.25 0.75 L5.0 1.0 6.0 1.0 6.0 2.0 6.25 2.75 7.0 3.0 Q7.0 3.5 7.25 3.75 L8.0 4.0 Q8.0 4.5 8.25 4.75 L9.0 5.0 10.0 5.0 11.0 5.0 12.0 5.0 12.25 5.75 13.0 6.0 14.0 6.0 15.0 6.0 16.0 6.0 17.0 6.0" fill="#ffffce" fill-rule="evenodd" stroke="none"/>
  </g>
</svg>
