<?xml version="1.0" encoding="UTF-8" standalone="no"?>
<svg xmlns:xlink="http://www.w3.org/1999/xlink" height="13.0px" width="21.0px" xmlns="http://www.w3.org/2000/svg">
  <g transform="matrix(1.0, 0.0, 0.0, 1.0, 0.0, 0.0)">
    <path d="M4.0 10.0 L5.0 10.0 5.75 9.75 6.0 9.0 6.5 9.0 6.0 8.0 5.75 7.25 Q5.5 7.0 5.0 7.0 L4.0 7.0 3.0 7.0 2.0 7.0 1.0 7.0 1.0 6.0 1.0 3.0 1.75 2.75 2.0 2.0 2.0 1.0 3.0 1.0 3.25 1.75 4.0 2.0 Q4.0 2.5 4.25 2.75 L5.0 3.0 6.0 3.0 Q7.0 5.35 7.85 2.95 L8.0 2.0 8.75 1.75 9.0 1.0 9.0 0.0 10.0 0.0 10.0 1.0 Q10.0 1.5 10.25 1.75 L11.0 2.0 12.0 2.0 13.0 2.0 14.0 2.0 15.1 2.8 16.0 3.0 17.0 3.0 18.0 3.0 19.0 3.0 20.0 3.0 21.0 3.0 21.0 4.0 20.0 4.0 20.0 5.0 20.0 6.0 19.0 6.0 19.0 7.0 18.0 7.0 17.0 7.0 16.0 7.0 16.0 8.0 15.0 8.0 15.0 9.0 14.0 9.0 13.75 8.25 13.0 8.0 12.0 8.0 11.0 8.0 11.0 9.0 10.0 9.0 9.0 9.0 9.0 10.0 8.0 10.0 8.0 11.0 8.0 12.0 7.0 12.0 6.0 12.0 5.0 12.0 5.0 13.0 4.0 13.0 3.75 12.25 3.0 12.0 3.0 11.0 3.75 10.75 4.0 10.0" fill="#deb5d6" fill-rule="evenodd" stroke="none"/>
    <path d="M3.0 12.0 L2.0 12.0 0.0 12.0 0.0 11.0 0.75 10.75 1.0 10.0 3.0 10.0 4.0 10.0 3.75 10.75 3.0 11.0 3.0 12.0" fill="#c6b5ce" fill-rule="evenodd" stroke="none"/>
  </g>
</svg>
