<?xml version="1.0" encoding="UTF-8" standalone="no"?>
<svg xmlns:xlink="http://www.w3.org/1999/xlink" height="6.0px" width="8.0px" xmlns="http://www.w3.org/2000/svg">
  <g transform="matrix(1.0, 0.0, 0.0, 1.0, 0.0, 0.0)">
    <path d="M5.25 0.75 L6.0 1.0 7.0 1.0 7.0 2.0 Q7.0 2.5 7.25 2.75 L8.0 3.0 8.0 4.0 7.0 4.0 6.0 4.0 6.0 5.0 5.0 5.0 5.0 6.0 4.25 5.75 Q4.0 5.5 4.0 5.0 L3.75 4.25 3.0 4.0 3.0 5.0 2.0 5.0 2.0 6.0 1.0 6.0 0.0 6.0 0.0 5.0 0.0 4.0 0.0 3.0 0.0 2.0 0.0 1.0 1.0 1.0 2.0 1.0 2.75 0.75 3.0 0.0 4.0 0.0 5.0 0.0 Q5.0 0.5 5.25 0.75" fill="#8cadd6" fill-rule="evenodd" stroke="none"/>
  </g>
</svg>
