<?xml version="1.0" encoding="UTF-8" standalone="no"?>
<svg xmlns:xlink="http://www.w3.org/1999/xlink" height="50.0px" width="54.0px" xmlns="http://www.w3.org/2000/svg">
  <g transform="matrix(1.0, 0.0, 0.0, 1.0, 0.0, 0.0)">
    <path d="M29.0 37.0 L29.0 37.5 Q31.25 37.5 29.0 37.0 M38.0 37.5 Q40.25 37.5 38.0 37.0 L38.0 37.5 M32.0 37.5 Q34.25 37.5 32.0 37.0 L32.0 37.5 M32.0 43.0 L32.0 43.5 Q34.25 43.5 32.0 43.0 M38.0 43.0 L38.0 43.5 Q40.25 43.5 38.0 43.0 M36.0 45.0 L36.0 45.5 Q38.25 45.5 36.0 45.0 M39.0 45.0 L39.0 45.5 Q41.25 45.5 39.0 45.0 M33.0 46.5 Q35.25 46.5 33.0 46.0 L33.0 46.5 M35.0 47.0 L35.0 47.5 Q37.25 47.5 35.0 47.0 M31.0 45.0 L31.0 45.5 Q33.25 45.5 31.0 45.0 M34.0 44.0 L34.0 44.5 Q36.25 44.5 34.0 44.0 M32.0 40.5 Q34.25 40.5 32.0 40.0 L32.0 40.5 M34.0 41.0 L34.0 41.5 Q36.25 41.5 34.0 41.0 M34.0 38.0 L34.0 38.5 Q36.25 38.5 34.0 38.0 M40.0 41.0 L40.0 41.5 Q42.25 41.5 40.0 41.0 M40.0 38.0 L40.0 38.5 Q42.25 38.5 40.0 38.0 M36.0 42.5 Q38.25 42.5 36.0 42.0 L36.0 42.5 M38.0 40.0 L38.0 40.5 Q40.25 40.5 38.0 40.0 M36.0 39.5 Q38.25 39.5 36.0 39.0 L36.0 39.5 M29.0 44.0 L29.0 44.5 Q31.25 44.5 29.0 44.0 M23.0 40.0 L23.0 40.5 Q25.25 40.5 23.0 40.0 M25.0 41.0 L25.0 41.5 Q27.25 41.5 25.0 41.0 M22.0 38.0 L22.0 38.5 Q24.25 38.5 22.0 38.0 M25.0 38.0 L25.0 38.5 Q27.25 38.5 25.0 38.0 M27.0 39.5 Q29.25 39.5 27.0 39.0 L27.0 39.5 M28.0 41.0 L28.0 41.5 Q30.25 41.5 28.0 41.0 M30.0 42.0 L30.0 42.5 Q32.25 42.5 30.0 42.0 M30.0 39.0 L30.0 39.5 Q32.25 39.5 30.0 39.0 M26.0 34.5 Q28.25 34.5 26.0 34.0 L26.0 34.5 M29.0 34.5 Q31.25 34.5 29.0 34.0 L29.0 34.5 M27.0 36.0 L27.0 36.5 Q29.25 36.5 27.0 36.0 M26.0 31.5 Q28.25 31.5 26.0 31.0 L26.0 31.5 M28.0 32.5 Q30.25 32.5 28.0 32.0 L28.0 32.5 M24.0 36.0 L24.0 36.5 Q26.25 36.5 24.0 36.0 M22.0 35.0 L22.0 35.5 Q24.25 35.5 22.0 35.0 M21.0 33.0 L21.0 33.5 Q23.25 33.5 21.0 33.0 M23.0 31.0 L23.0 31.5 Q25.25 31.5 23.0 31.0 M24.0 33.0 L24.0 33.5 Q26.25 33.5 24.0 33.0 M25.0 29.0 L25.0 29.5 Q27.25 29.5 25.0 29.0 M22.0 29.0 L22.0 29.5 Q24.25 29.5 22.0 29.0 M21.0 25.5 Q23.25 25.5 21.0 25.0 L21.0 25.5 M24.0 25.5 Q26.25 25.5 24.0 25.0 L24.0 25.5 M23.0 27.5 Q25.25 27.5 23.0 27.0 L23.0 27.5 M30.0 30.0 L30.0 30.5 Q32.25 30.5 30.0 30.0 M28.0 29.5 Q30.25 29.5 28.0 29.0 L28.0 29.5 M26.0 27.0 L26.0 27.5 Q28.25 27.5 26.0 27.0 M27.0 25.0 L27.0 25.5 Q29.25 25.5 27.0 25.0 M29.0 27.5 Q31.25 27.5 29.0 27.0 L29.0 27.5 M30.0 25.0 L30.0 25.5 Q32.25 25.5 30.0 25.0 M38.0 34.0 L38.0 34.5 Q40.25 34.5 38.0 34.0 M40.0 35.0 L40.0 35.5 Q42.25 35.5 40.0 35.0 M36.0 36.0 L36.0 36.5 Q38.25 36.5 36.0 36.0 M36.0 33.0 L36.0 33.5 Q38.25 33.5 36.0 33.0 M40.0 32.0 L40.0 32.5 Q42.25 32.5 40.0 32.0 M38.0 31.0 L38.0 31.5 Q40.25 31.5 38.0 31.0 M34.0 35.0 L34.0 35.5 Q36.25 35.5 34.0 35.0 M31.0 35.5 Q33.25 35.5 31.0 35.0 L31.0 35.5 M31.0 32.5 Q33.25 32.5 31.0 32.0 L31.0 32.5 M33.0 33.5 Q35.25 33.5 33.0 33.0 L33.0 33.5 M35.0 31.0 L35.0 31.5 Q37.25 31.5 35.0 31.0 M33.0 30.5 Q35.25 30.5 33.0 30.0 L33.0 30.5 M34.0 28.5 Q36.25 28.5 34.0 28.0 L34.0 28.5 M31.0 28.5 Q33.25 28.5 31.0 28.0 L31.0 28.5 M32.0 26.0 L32.0 26.5 Q34.25 26.5 32.0 26.0 M35.0 26.0 L35.0 26.5 Q37.25 26.5 35.0 26.0 M39.0 29.5 Q41.25 29.5 39.0 29.0 L39.0 29.5 M36.0 29.0 L36.0 29.5 Q38.25 29.5 36.0 29.0 M37.0 27.0 L37.0 27.5 Q39.25 27.5 37.0 27.0 M40.0 27.0 L40.0 27.5 Q42.25 27.5 40.0 27.0 M39.0 25.5 Q41.25 25.5 39.0 25.0 L39.0 25.5 M20.0 37.0 L20.0 37.5 Q22.25 37.5 20.0 37.0 M1.0 25.0 L1.0 25.5 Q3.25 25.5 1.0 25.0 M5.0 25.0 L5.0 25.5 Q7.25 25.5 5.0 25.0 M3.0 27.0 L3.0 27.5 Q5.25 27.5 3.0 27.0 M9.0 30.0 L9.0 30.5 Q11.25 30.5 9.0 30.0 M9.0 26.0 L9.0 26.5 Q11.25 26.5 9.0 26.0 M8.0 28.0 L8.0 28.5 Q10.25 28.5 8.0 28.0 M6.0 27.5 Q8.25 27.5 6.0 27.0 L6.0 27.5 M19.0 35.5 Q21.25 35.5 19.0 35.0 L19.0 35.5 M16.0 35.0 L16.0 35.5 Q18.25 35.5 16.0 35.0 M17.0 31.0 L17.0 31.5 Q19.25 31.5 17.0 31.0 M20.0 31.0 L20.0 31.5 Q22.25 31.5 20.0 31.0 M18.0 33.0 L18.0 33.5 Q20.25 33.5 18.0 33.0 M13.0 34.0 L13.0 34.5 Q15.25 34.5 13.0 34.0 M11.0 31.0 L11.0 31.5 Q13.25 31.5 11.0 31.0 M15.0 33.0 L15.0 33.5 Q17.25 33.5 15.0 33.0 M14.0 31.5 Q16.25 31.5 14.0 31.0 L14.0 31.5 M13.0 29.0 L13.0 29.5 Q15.25 29.5 13.0 29.0 M11.0 28.0 L11.0 28.5 Q13.25 28.5 11.0 28.0 M12.0 26.0 L12.0 26.5 Q14.25 26.5 12.0 26.0 M14.0 27.5 Q16.25 27.5 14.0 27.0 L14.0 27.5 M15.0 25.0 L15.0 25.5 Q17.25 25.5 15.0 25.0 M19.0 29.0 L19.0 29.5 Q21.25 29.5 19.0 29.0 M16.0 29.0 L16.0 29.5 Q18.25 29.5 16.0 29.0 M17.0 27.0 L17.0 27.5 Q19.25 27.5 17.0 27.0 M20.0 27.0 L20.0 27.5 Q22.25 27.5 20.0 27.0 M18.0 25.0 L18.0 25.5 Q20.25 25.5 18.0 25.0 M20.0 23.0 L20.0 23.5 Q22.25 23.5 20.0 23.0 M20.0 19.0 L20.0 19.5 Q22.25 19.5 20.0 19.0 M18.0 21.0 L18.0 21.5 Q20.25 21.5 18.0 21.0 M17.0 23.0 L17.0 23.5 Q19.25 23.5 17.0 23.0 M16.0 19.0 L16.0 19.5 Q18.25 19.5 16.0 19.0 M13.0 24.0 L13.0 24.5 Q15.25 24.5 13.0 24.0 M15.0 22.0 L15.0 22.5 Q17.25 22.5 15.0 22.0 M12.0 22.0 L12.0 22.5 Q14.25 22.5 12.0 22.0 M11.0 20.0 L11.0 20.5 Q13.25 20.5 11.0 20.0 M14.0 20.0 L14.0 20.5 Q16.25 20.5 14.0 20.0 M14.0 17.5 Q16.25 17.5 14.0 17.0 L14.0 17.5 M19.0 16.0 L19.0 16.5 Q21.25 16.5 19.0 16.0 M18.0 18.0 L18.0 18.5 Q20.25 18.5 18.0 18.0 M16.0 16.0 L16.0 16.5 Q18.25 16.5 16.0 16.0 M10.0 24.0 L10.0 24.5 Q12.25 24.5 10.0 24.0 M8.0 22.5 Q10.25 22.5 8.0 22.0 L8.0 22.5 M7.0 24.0 L7.0 24.5 Q9.25 24.5 7.0 24.0 M3.0 23.0 L3.0 23.5 Q5.25 23.5 3.0 23.0 M5.0 22.0 L5.0 22.5 Q7.25 22.5 5.0 22.0 M20.0 10.0 L20.0 10.5 Q22.25 10.5 20.0 10.0 M20.0 8.0 L20.0 8.5 Q22.25 8.5 20.0 8.0 M25.0 12.0 L25.0 12.5 Q27.25 12.5 25.0 12.0 M28.0 12.0 L28.0 12.5 Q30.25 12.5 28.0 12.0 M37.0 12.0 L37.0 12.5 Q39.25 12.5 37.0 12.0 M40.0 12.0 L40.0 12.5 Q42.25 12.5 40.0 12.0 M37.0 24.0 L37.0 24.5 Q39.25 24.5 37.0 24.0 M39.0 22.0 L39.0 22.5 Q41.25 22.5 39.0 22.0 M36.0 22.0 L36.0 22.5 Q38.25 22.5 36.0 22.0 M38.0 20.0 L38.0 20.5 Q40.25 20.5 38.0 20.0 M34.0 24.0 L34.0 24.5 Q36.25 24.5 34.0 24.0 M32.0 23.0 L32.0 23.5 Q34.25 23.5 32.0 23.0 M32.0 19.0 L32.0 19.5 Q34.25 19.5 32.0 19.0 M33.0 21.5 Q35.25 21.5 33.0 21.0 L33.0 21.5 M35.0 20.0 L35.0 20.5 Q37.25 20.5 35.0 20.0 M31.0 15.5 Q33.25 15.5 31.0 15.0 L31.0 15.5 M33.0 16.5 Q35.25 16.5 33.0 16.0 L33.0 16.5 M34.0 18.5 Q36.25 18.5 34.0 18.0 L34.0 18.5 M31.0 17.5 Q33.25 17.5 31.0 17.0 L31.0 17.5 M35.0 14.0 L35.0 14.5 Q37.25 14.5 35.0 14.0 M33.0 13.0 L33.0 13.5 Q35.25 13.5 33.0 13.0 M40.0 18.0 L40.0 18.5 Q42.25 18.5 40.0 18.0 M39.0 16.5 Q41.25 16.5 39.0 16.0 L39.0 16.5 M36.0 16.5 Q38.25 16.5 36.0 16.0 L36.0 16.5 M37.0 18.0 L37.0 18.5 Q39.25 18.5 37.0 18.0 M38.0 14.0 L38.0 14.5 Q40.25 14.5 38.0 14.0 M29.0 23.5 Q31.25 23.5 29.0 23.0 L29.0 23.5 M26.0 23.0 L26.0 23.5 Q28.25 23.5 26.0 23.0 M26.0 19.0 L26.0 19.5 Q28.25 19.5 26.0 19.0 M27.0 21.0 L27.0 21.5 Q29.25 21.5 27.0 21.0 M29.0 19.0 L29.0 19.5 Q31.25 19.5 29.0 19.0 M30.0 21.0 L30.0 21.5 Q32.25 21.5 30.0 21.0 M24.0 21.0 L24.0 21.5 Q26.25 21.5 24.0 21.0 M21.0 21.5 Q23.25 21.5 21.0 21.0 L21.0 21.5 M23.0 23.0 L23.0 23.5 Q25.25 23.5 23.0 23.0 M23.0 19.0 L23.0 19.5 Q25.25 19.5 23.0 19.0 M25.0 17.0 L25.0 17.5 Q27.25 17.5 25.0 17.0 M22.0 14.0 L22.0 14.5 Q24.25 14.5 22.0 14.0 M22.0 17.5 Q24.25 17.5 22.0 17.0 L22.0 17.5 M24.0 15.5 Q26.25 15.5 24.0 15.0 L24.0 15.5 M30.0 13.0 L30.0 13.5 Q32.25 13.5 30.0 13.0 M26.0 14.5 Q28.25 14.5 26.0 14.0 L26.0 14.5 M28.0 17.5 Q30.25 17.5 28.0 17.0 L28.0 17.5 M28.0 15.5 Q30.25 15.5 28.0 15.0 L28.0 15.5 M30.0 6.0 L30.0 6.5 Q32.25 6.5 30.0 6.0 M27.0 10.0 L27.0 10.5 Q29.25 10.5 27.0 10.0 M29.0 8.0 L29.0 8.5 Q31.25 8.5 29.0 8.0 M27.0 7.0 L27.0 7.5 Q29.25 7.5 27.0 7.0 M30.0 10.0 L30.0 10.5 Q32.25 10.5 30.0 10.0 M22.0 9.0 L22.0 9.5 Q24.25 9.5 22.0 9.0 M23.0 11.0 L23.0 11.5 Q25.25 11.5 23.0 11.0 M24.0 7.0 L24.0 7.5 Q26.25 7.5 24.0 7.0 M25.0 9.0 L25.0 9.5 Q27.25 9.5 25.0 9.0 M24.0 3.0 L24.0 3.5 Q26.25 3.5 24.0 3.0 M22.0 5.5 Q24.25 5.5 22.0 5.0 L22.0 5.5 M28.0 4.0 L28.0 4.5 Q30.25 4.5 28.0 4.0 M26.0 5.0 L26.0 5.5 Q28.25 5.5 26.0 5.0 M27.0 2.0 L27.0 2.5 Q29.25 2.5 27.0 2.0 M33.0 6.5 Q35.25 6.5 33.0 6.0 L33.0 6.5 M39.0 7.0 L39.0 7.5 Q41.25 7.5 39.0 7.0 M39.0 10.0 L39.0 10.5 Q41.25 10.5 39.0 10.0 M37.0 9.5 Q39.25 9.5 37.0 9.0 L37.0 9.5 M36.0 7.5 Q38.25 7.5 36.0 7.0 L36.0 7.5 M34.0 9.0 L34.0 9.5 Q36.25 9.5 34.0 9.0 M32.0 11.0 L32.0 11.5 Q34.25 11.5 32.0 11.0 M32.0 8.0 L32.0 8.5 Q34.25 8.5 32.0 8.0 M35.0 11.0 L35.0 11.5 Q37.25 11.5 35.0 11.0 M31.0 3.0 L31.0 3.5 Q33.25 3.5 31.0 3.0 M35.0 5.0 L35.0 5.5 Q37.25 5.5 35.0 5.0 M33.0 4.0 L33.0 4.5 Q35.25 4.5 33.0 4.0 M35.0 2.0 L35.0 2.5 Q37.25 2.5 35.0 2.0 M38.0 3.0 L38.0 3.5 Q40.25 3.5 38.0 3.0 M38.0 5.0 L38.0 5.5 Q40.25 5.5 38.0 5.0 M39.0 1.0 L39.0 1.5 Q41.25 1.5 39.0 1.0 M47.0 37.0 L47.0 37.5 Q49.25 37.5 47.0 37.0 M44.0 37.0 L44.0 37.5 Q46.25 37.5 44.0 37.0 M41.0 43.0 L41.0 43.5 Q43.25 43.5 41.0 43.0 M45.0 39.0 L45.0 39.5 Q47.25 39.5 45.0 39.0 M43.0 41.5 Q45.25 41.5 43.0 41.0 L43.0 41.5 M42.0 39.5 Q44.25 39.5 42.0 39.0 L42.0 39.5 M48.0 39.0 L48.0 39.5 Q50.25 39.5 48.0 39.0 M46.0 35.0 L46.0 35.5 Q48.25 35.5 46.0 35.0 M44.0 34.0 L44.0 34.5 Q46.25 34.5 44.0 34.0 M42.0 36.0 L42.0 36.5 Q44.25 36.5 42.0 36.0 M43.0 31.0 L43.0 31.5 Q45.25 31.5 43.0 31.0 M42.0 33.0 L42.0 33.5 Q44.25 33.5 42.0 33.0 M45.0 32.0 L45.0 32.5 Q47.25 32.5 45.0 32.0 M44.0 29.0 L44.0 29.5 Q46.25 29.5 44.0 29.0 M42.0 28.0 L42.0 28.5 Q44.25 28.5 42.0 28.0 M41.0 30.0 L41.0 30.5 Q43.25 30.5 41.0 30.0 M42.0 25.0 L42.0 25.5 Q44.25 25.5 42.0 25.0 M44.0 26.0 L44.0 26.5 Q46.25 26.5 44.0 26.0 M46.0 30.0 L46.0 30.5 Q48.25 30.5 46.0 30.0 M46.0 27.0 L46.0 27.5 Q48.25 27.5 46.0 27.0 M46.0 24.0 L46.0 24.5 Q48.25 24.5 46.0 24.0 M46.0 21.5 Q48.25 21.5 46.0 21.0 L46.0 21.5 M44.0 23.0 L44.0 23.5 Q46.25 23.5 44.0 23.0 M41.0 23.0 L41.0 23.5 Q43.25 23.5 41.0 23.0 M43.0 21.0 L43.0 21.5 Q45.25 21.5 43.0 21.0 M41.0 20.0 L41.0 20.5 Q43.25 20.5 41.0 20.0 M45.0 19.0 L45.0 19.5 Q47.25 19.5 45.0 19.0 M44.0 15.5 Q46.25 15.5 44.0 15.0 L44.0 15.5 M42.0 16.0 L42.0 16.5 Q44.25 16.5 42.0 16.0 M43.0 18.0 L43.0 18.5 Q45.25 18.5 43.0 18.0 M41.0 14.5 Q43.25 14.5 41.0 14.0 L41.0 14.5 M42.0 11.0 L42.0 11.5 Q44.25 11.5 42.0 11.0 M41.0 3.0 L41.0 3.5 Q43.25 3.5 41.0 3.0 M43.0 4.0 L43.0 4.5 Q45.25 4.5 43.0 4.0 M41.0 5.0 L41.0 5.5 Q43.25 5.5 41.0 5.0 M44.25 2.75 L45.0 3.0 45.0 5.0 45.0 6.0 44.0 6.0 43.0 6.0 43.0 7.0 43.0 8.0 42.0 8.0 41.0 8.0 Q41.0 8.5 41.25 8.75 L42.0 9.0 43.0 9.0 43.0 10.0 Q43.0 10.5 43.25 10.75 L44.0 11.0 44.0 12.0 Q44.0 12.5 44.25 12.75 L45.0 13.0 45.25 13.75 46.0 14.0 47.0 14.0 47.0 15.0 47.0 16.0 47.0 17.0 46.0 17.0 Q46.0 17.5 46.25 17.75 L47.0 18.0 48.0 18.0 48.0 19.0 48.0 20.0 48.0 21.0 Q48.0 22.0 48.4 22.8 48.5 23.0 49.0 23.0 L49.0 24.0 49.0 25.0 48.0 25.0 48.0 26.0 48.0 27.0 48.25 27.75 49.0 28.0 49.0 29.0 48.0 29.0 48.0 30.0 48.0 31.0 48.0 32.0 48.25 32.75 49.0 33.0 Q49.0 34.0 49.4 34.8 L50.0 35.0 50.0 36.0 Q50.5 36.5 51.0 36.5 L51.0 36.0 52.0 36.0 53.0 36.0 Q53.0 36.5 53.25 36.75 L54.0 37.0 54.0 38.0 53.0 38.0 52.0 38.0 51.0 38.0 51.0 39.0 50.8 39.6 Q50.0 40.0 49.0 40.0 L49.0 41.0 48.0 41.0 48.0 42.0 47.0 42.0 46.75 41.25 46.0 41.0 46.0 42.0 45.85 42.55 Q43.45 43.45 42.0 45.0 L42.0 46.0 41.0 46.0 41.0 47.0 40.0 47.0 40.0 48.0 39.0 48.0 38.75 47.25 Q38.5 47.0 38.0 47.0 L38.0 48.0 37.0 48.0 37.0 49.0 36.0 49.0 34.0 49.0 34.0 50.0 33.0 50.0 32.75 49.25 Q32.5 49.0 32.0 49.0 L32.0 48.0 31.8 47.4 30.0 47.0 29.75 46.25 Q29.5 46.0 29.0 46.0 L28.0 46.0 27.0 46.0 27.0 45.0 26.75 44.25 Q26.5 44.0 26.0 44.0 L25.75 43.25 25.0 43.0 24.0 43.0 23.75 42.25 Q23.5 42.0 23.0 42.0 L22.0 42.0 21.75 41.25 21.0 41.0 20.75 40.25 Q20.5 40.0 20.0 40.0 L19.75 39.25 19.0 39.0 18.75 38.25 18.0 38.0 17.0 38.0 16.75 37.25 16.0 37.0 15.0 37.0 14.75 36.25 Q14.5 36.0 14.0 36.0 L13.0 36.0 12.75 35.25 12.0 35.0 11.75 34.25 Q11.5 34.0 11.0 34.0 L10.75 33.25 10.0 33.0 9.75 32.25 9.0 32.0 8.0 32.0 7.0 32.0 7.0 31.0 6.75 30.25 6.0 30.0 5.0 30.0 4.0 30.0 3.75 29.25 3.0 29.0 2.75 28.25 Q2.5 28.0 2.0 28.0 L1.0 28.0 0.75 27.25 0.0 27.0 0.0 26.0 0.0 25.0 0.0 23.0 1.0 23.0 2.75 21.75 3.0 21.0 5.0 21.0 6.0 21.0 Q7.0 21.0 7.8 20.6 L8.0 20.0 9.0 20.0 9.75 19.75 10.0 19.0 10.75 18.75 11.0 18.0 12.0 18.0 Q12.5 18.5 13.0 18.5 L13.0 18.0 13.0 17.0 13.0 16.0 13.75 15.75 14.0 15.0 14.75 14.75 15.0 14.0 Q16.0 13.5 17.05 13.15 L18.0 13.0 17.75 13.75 17.0 14.0 Q17.5 14.5 18.1 14.8 L19.0 15.0 19.75 14.75 20.0 14.0 20.75 13.75 21.0 13.0 20.75 12.25 Q20.5 12.0 20.0 12.0 L19.75 11.25 19.0 11.0 19.0 10.0 19.0 7.0 19.5 7.0 19.0 6.0 19.0 5.0 20.0 5.0 20.75 4.75 21.0 4.0 21.0 3.0 Q23.7 3.7 24.4 2.2 24.5 2.0 25.0 2.0 L25.75 1.75 26.0 1.0 27.0 1.0 29.0 1.0 30.0 1.0 Q30.5 1.5 31.0 1.5 L31.0 1.0 31.0 0.0 32.0 0.0 Q32.0 0.5 32.25 0.75 L33.0 1.0 33.75 0.75 34.0 0.0 35.0 0.0 36.0 0.0 36.25 0.75 37.0 1.0 Q38.0 1.0 38.8 0.6 L39.0 0.0 40.0 0.0 41.0 0.0 Q41.5 0.5 42.0 0.5 L42.0 0.0 43.0 0.0 44.0 0.0 44.0 1.0 44.0 2.0 Q44.0 2.5 44.25 2.75" fill="#ffdea5" fill-rule="evenodd" stroke="none"/>
  </g>
</svg>
