<?xml version="1.0" encoding="UTF-8" standalone="no"?>
<svg xmlns:xlink="http://www.w3.org/1999/xlink" height="48.0px" width="107.0px" xmlns="http://www.w3.org/2000/svg">
  <g transform="matrix(1.0, 0.0, 0.0, 1.0, 0.0, 0.0)">
    <path d="M104.0 24.0 L104.0 25.0 104.0 26.0 104.0 27.0 104.0 28.0 103.0 28.0 102.0 28.0 101.0 28.0 100.0 28.0 99.75 27.25 99.0 27.0 98.0 27.0 97.0 27.0 97.0 28.0 97.0 29.0 96.0 29.0 96.0 30.0 95.0 30.0 95.0 31.0 95.0 32.0 95.0 33.0 94.0 33.0 93.0 33.0 92.0 33.0 91.0 33.0 91.0 34.0 90.0 34.0 89.0 34.0 89.0 35.0 89.0 36.0 Q89.0 37.0 89.4 37.8 89.5 38.0 90.0 38.0 L90.0 39.0 90.0 40.0 90.0 41.0 89.0 41.0 89.0 42.0 88.0 42.0 Q88.0 41.5 87.8 41.4 L86.0 41.0 85.0 41.0 84.0 41.0 83.0 41.0 82.0 41.0 81.75 40.25 81.0 40.0 81.0 41.0 80.0 41.0 78.0 41.0 77.0 41.0 76.0 41.0 75.75 40.25 75.0 40.0 74.0 40.0 73.0 40.0 72.0 40.0 72.0 41.0 71.0 41.0 71.0 42.0 70.0 42.0 69.0 42.0 68.75 41.25 Q68.5 41.0 68.0 41.0 L67.0 41.0 66.0 41.0 65.0 41.0 65.0 42.0 64.0 42.0 64.0 43.0 63.0 43.0 63.0 44.0 62.0 44.0 61.5 44.1 Q61.15 45.65 59.0 45.0 L59.0 46.0 59.0 47.0 58.0 47.0 58.0 48.0 57.0 48.0 57.0 47.0 56.8 46.4 55.0 46.0 54.0 46.0 53.0 46.0 53.0 45.0 53.0 44.0 52.75 43.15 51.0 41.0 50.75 40.25 49.0 39.0 48.75 38.25 48.0 38.0 47.0 38.0 47.0 39.0 46.0 39.0 44.0 39.0 43.0 39.0 42.0 39.0 41.0 39.0 40.0 39.0 39.75 38.25 39.0 38.0 39.0 37.0 39.0 36.0 40.0 36.0 40.75 35.75 41.0 35.0 40.75 34.25 40.0 34.0 39.75 33.25 39.0 33.0 39.0 32.0 39.0 31.0 39.0 30.0 39.75 29.75 40.0 29.0 39.75 28.25 39.0 28.0 38.0 28.0 37.0 28.0 36.0 28.0 35.0 28.0 35.0 29.0 34.0 29.0 33.0 29.0 33.0 30.0 33.0 31.0 32.0 31.0 31.0 31.0 31.0 32.0 30.0 32.0 29.0 32.0 29.0 33.0 28.0 33.0 27.0 33.0 26.0 33.0 25.0 33.0 25.0 34.0 24.0 34.0 24.0 35.0 23.0 35.0 23.0 44.0 23.0 45.0 22.0 45.0 22.05 44.0 Q22.15 42.4 20.0 43.0 L19.0 43.0 18.0 43.0 17.0 43.0 16.0 43.0 15.75 42.25 15.0 42.0 14.75 41.25 Q14.5 41.0 14.0 41.0 L13.75 40.25 13.0 40.0 12.0 40.0 12.0 39.0 12.0 38.0 12.0 37.0 12.5 37.0 12.0 36.0 12.0 35.0 12.0 34.0 13.0 34.0 14.0 34.0 15.0 34.0 Q14.9 35.65 16.8 34.6 L17.0 34.0 17.5 34.0 17.0 33.0 17.0 32.0 17.0 31.0 17.0 30.0 17.5 30.0 17.0 29.0 16.85 28.45 14.0 28.0 13.0 28.0 12.75 27.25 12.0 27.0 11.0 27.0 10.0 27.0 10.0 28.0 9.0 28.0 8.0 28.0 8.0 29.0 7.0 29.0 6.1 28.8 Q5.5 28.5 5.0 28.0 L4.75 27.25 3.0 26.0 2.75 25.25 Q2.5 25.0 2.0 25.0 L1.8 24.4 0.0 24.0 0.0 23.0 0.0 22.0 0.0 21.0 0.0 20.0 0.0 19.0 0.75 18.75 1.0 18.0 2.0 18.0 Q2.0 18.5 2.25 18.75 L3.0 19.0 4.0 19.0 4.75 18.75 5.0 18.0 5.5 18.0 5.0 17.0 5.0 16.0 5.75 15.75 6.0 15.0 6.75 14.75 7.0 14.0 8.0 14.0 9.0 14.0 9.75 13.75 10.0 13.0 11.0 13.0 Q11.0 13.5 11.25 13.75 L12.0 14.0 12.75 13.75 13.0 13.0 14.0 13.0 15.0 13.0 15.25 13.75 16.0 14.0 17.0 14.0 Q17.5 14.5 18.1 14.8 L19.0 15.0 19.0 16.0 Q18.9 17.65 20.8 16.6 L21.0 16.0 22.0 16.0 Q22.0 16.5 22.25 16.75 L23.0 17.0 23.75 16.75 24.0 16.0 25.0 16.0 25.75 15.75 26.0 15.0 27.1 15.8 28.0 16.0 28.75 15.75 29.0 15.0 30.0 15.0 30.25 15.75 31.0 16.0 32.0 16.0 Q32.0 16.5 32.25 16.75 L33.0 17.0 34.0 17.0 34.75 16.75 35.0 16.0 36.0 16.0 37.0 16.0 Q37.5 16.5 38.0 16.5 L38.0 16.0 38.75 15.75 39.0 15.0 39.75 14.75 40.0 14.0 40.0 13.0 Q40.0 12.5 39.8 12.4 L38.0 12.0 37.0 12.0 37.0 11.0 37.75 10.75 38.0 10.0 38.0 9.0 38.75 8.75 39.0 8.0 40.0 8.0 40.75 7.75 41.0 7.0 40.75 6.25 40.0 6.0 40.0 5.0 41.0 5.0 Q42.0 5.0 42.8 4.6 43.0 4.5 43.0 4.0 L44.0 4.0 44.75 3.75 45.0 3.0 46.0 3.0 47.0 3.0 48.0 3.0 49.0 3.0 Q49.5 2.5 50.1 2.2 L51.0 2.0 52.0 2.0 53.0 2.0 54.0 2.0 Q55.0 2.0 55.8 1.6 L56.0 1.0 57.0 1.0 57.75 0.75 58.0 0.0 59.0 0.0 60.0 0.0 61.0 0.0 62.0 0.0 63.1 0.8 64.0 1.0 64.0 2.0 64.0 3.0 Q64.0 3.5 64.25 3.75 L65.0 4.0 66.0 4.0 67.0 4.0 68.0 4.0 69.1 4.8 70.0 5.0 Q70.0 5.5 70.25 5.75 L71.0 6.0 72.0 6.0 73.0 6.0 74.0 6.0 75.1 5.2 76.0 5.0 76.75 4.75 77.0 4.0 78.0 4.0 79.0 4.0 Q79.0 4.5 79.25 4.75 L80.0 5.0 Q80.0 5.5 80.25 5.75 L81.0 6.0 82.0 6.0 Q82.0 6.5 82.25 6.75 L83.0 7.0 Q83.0 7.5 83.25 7.75 L84.0 8.0 84.0 9.0 84.25 9.75 85.0 10.0 Q85.0 10.5 85.25 10.75 L86.0 11.0 86.0 12.0 Q86.0 12.5 86.25 12.75 L87.0 13.0 87.25 13.75 88.0 14.0 Q89.0 16.9 90.3 15.25 90.5 15.0 91.0 15.0 L92.0 15.0 93.1 15.8 94.0 16.0 95.0 16.0 96.0 16.0 97.0 16.0 98.0 16.0 99.0 16.0 99.75 16.25 100.0 17.0 Q100.0 17.5 100.25 17.75 L101.0 18.0 104.1 19.8 105.0 20.0 106.0 20.0 107.0 20.0 107.0 21.0 107.0 22.0 107.0 23.0 106.0 23.0 105.0 23.0 104.0 23.0 104.0 24.0 M85.0 15.0 L85.0 15.5 Q87.25 15.5 85.0 15.0 M99.0 21.0 L98.0 21.0 98.0 22.0 97.0 22.0 97.0 23.0 Q97.0 24.0 97.4 24.8 L98.0 25.0 Q98.0 25.5 98.25 25.75 L99.0 26.0 100.0 26.0 Q100.5 26.5 101.0 26.5 L101.0 26.0 101.5 26.0 101.0 25.0 101.0 24.0 100.75 23.25 100.0 23.0 100.0 22.0 100.8 20.9 101.0 20.0 100.75 19.25 100.0 19.0 99.0 19.0 98.0 19.0 Q98.0 19.5 98.25 19.75 L99.0 20.0 99.0 21.0 M87.0 28.0 L86.0 28.0 85.0 28.0 84.0 28.0 83.0 28.0 82.0 28.0 81.0 28.0 80.0 28.0 79.0 28.0 78.0 28.0 77.0 28.0 76.0 28.0 75.0 28.0 74.0 28.0 74.0 29.0 73.0 29.0 73.0 30.0 72.0 30.0 72.0 31.0 71.0 31.0 71.0 32.0 71.0 33.0 Q71.0 33.5 71.25 33.75 L72.0 34.0 72.25 34.75 73.0 35.0 73.8 33.9 74.0 33.0 74.0 32.0 Q75.0 32.0 75.8 31.6 76.0 31.5 76.0 31.0 L77.0 31.0 78.0 31.0 79.0 31.0 80.0 31.0 81.0 31.0 82.0 31.0 83.0 31.0 84.0 31.0 Q84.5 31.5 85.0 31.5 L85.0 31.0 86.0 31.0 86.75 30.75 87.0 30.0 87.75 29.75 88.0 29.0 87.75 28.25 87.0 28.0 M12.0 18.0 L12.0 18.5 Q14.25 18.5 12.0 18.0 M3.0 23.5 Q5.25 23.5 3.0 23.0 L3.0 23.5 M63.0 8.5 Q65.25 8.5 63.0 8.0 L63.0 8.5" fill="#ffffce" fill-rule="evenodd" stroke="none"/>
  </g>
</svg>
