<?xml version="1.0" encoding="UTF-8" standalone="no"?>
<svg xmlns:xlink="http://www.w3.org/1999/xlink" height="12.0px" width="11.25px" xmlns="http://www.w3.org/2000/svg">
  <g transform="matrix(1.0, 0.0, 0.0, 1.0, 0.0, 0.0)">
    <path d="M11.0 12.0 L10.0 12.0 10.0 11.0 9.75 10.25 9.0 10.0 9.0 9.0 9.75 8.75 10.0 8.0 Q11.65 7.9 11.1 10.05 L11.0 11.0 11.0 12.0 M10.0 3.0 L10.0 4.0 9.0 4.0 9.0 5.0 9.0 6.0 8.0 6.0 8.0 7.0 8.0 8.0 7.0 8.0 7.0 9.0 6.0 9.0 6.0 10.0 6.0 11.0 5.0 11.0 4.0 11.0 3.0 11.0 3.0 10.0 2.8 9.1 2.0 8.0 2.0 7.0 1.75 6.25 1.0 6.0 1.0 5.0 0.75 4.25 0.0 4.0 0.0 3.0 1.0 3.0 1.75 2.75 2.0 2.0 1.75 1.25 1.0 1.0 0.0 1.0 0.0 0.0 1.0 0.0 2.0 0.0 Q2.5 0.0 2.75 0.25 L3.0 1.0 3.25 1.75 4.0 2.0 Q4.0 2.5 4.25 2.75 L5.0 3.0 Q4.9 4.65 6.8 3.6 7.0 3.5 7.0 3.0 L8.0 3.0 9.0 3.0 10.0 3.0" fill="#bdd6bd" fill-rule="evenodd" stroke="none"/>
  </g>
</svg>
