<?xml version="1.0" encoding="UTF-8" standalone="no"?>
<svg xmlns:xlink="http://www.w3.org/1999/xlink" height="33.0px" width="20.0px" xmlns="http://www.w3.org/2000/svg">
  <g transform="matrix(1.0, 0.0, 0.0, 1.0, 0.0, 0.0)">
    <path d="M9.0 28.0 L9.0 28.5 Q11.25 28.5 9.0 28.0 M7.0 30.0 L7.0 30.5 Q9.25 30.5 7.0 30.0 M7.0 26.0 L7.0 26.5 Q9.25 26.5 7.0 26.0 M10.0 26.0 L10.0 26.5 Q12.25 26.5 10.0 26.0 M12.0 27.0 L12.0 27.5 Q14.25 27.5 12.0 27.0 M9.0 12.5 Q11.25 12.5 9.0 12.0 L9.0 12.5 M16.0 20.0 L16.0 20.5 Q18.25 20.5 16.0 20.0 M12.0 24.0 L12.0 24.5 Q14.25 24.5 12.0 24.0 M11.0 22.5 Q13.25 22.5 11.0 22.0 L11.0 22.5 M13.0 20.0 L13.0 20.5 Q15.25 20.5 13.0 20.0 M11.0 15.0 L11.0 15.5 Q13.25 15.5 11.0 15.0 M15.0 18.0 L15.0 18.5 Q17.25 18.5 15.0 18.0 M14.0 16.0 L14.0 16.5 Q16.25 16.5 14.0 16.0 M12.0 18.0 L12.0 18.5 Q14.25 18.5 12.0 18.0 M11.0 13.5 Q13.25 13.5 11.0 13.0 L11.0 13.5 M13.0 14.0 L13.0 14.5 Q15.25 14.5 13.0 14.0 M17.0 17.0 L17.0 17.5 Q19.25 17.5 17.0 17.0 M16.0 14.5 Q18.25 14.5 16.0 14.0 L16.0 14.5 M9.0 24.0 L9.0 24.5 Q11.25 24.5 9.0 24.0 M8.0 22.5 Q10.25 22.5 8.0 22.0 L8.0 22.5 M6.0 23.5 Q8.25 23.5 6.0 23.0 L6.0 23.5 M6.0 20.0 L6.0 20.5 Q8.25 20.5 6.0 20.0 M10.0 20.0 L10.0 20.5 Q12.25 20.5 10.0 20.0 M8.0 19.0 L8.0 19.5 Q10.25 19.5 8.0 19.0 M2.0 19.0 L2.0 19.5 Q4.25 19.5 2.0 19.0 M5.0 15.0 L5.0 15.5 Q7.25 15.5 5.0 15.0 M5.0 18.0 L5.0 18.5 Q7.25 18.5 5.0 18.0 M3.0 16.5 Q5.25 16.5 3.0 16.0 L3.0 16.5 M10.0 17.0 L10.0 17.5 Q12.25 17.5 10.0 17.0 M7.0 17.5 Q9.25 17.5 7.0 17.0 L7.0 17.5 M8.0 15.0 L8.0 15.5 Q10.25 15.5 8.0 15.0 M6.0 13.5 Q8.25 13.5 6.0 13.0 L6.0 13.5 M10.0 10.0 L10.0 10.5 Q12.25 10.5 10.0 10.0 M7.0 11.0 L7.0 11.5 Q9.25 11.5 7.0 11.0 M8.0 8.0 L8.0 8.5 Q10.25 8.5 8.0 8.0 M9.0 5.0 L9.0 5.5 Q11.25 5.5 9.0 5.0 M10.0 3.0 L10.0 3.5 Q12.25 3.5 10.0 3.0 M12.0 6.5 Q14.25 6.5 12.0 6.0 L12.0 6.5 M13.0 11.0 L13.0 11.5 Q15.25 11.5 13.0 11.0 M11.0 8.5 Q13.25 8.5 11.0 8.0 L11.0 8.5 M13.0 4.0 L13.0 4.5 Q15.25 4.5 13.0 4.0 M15.25 0.75 L16.0 1.0 16.0 2.0 15.0 2.0 15.25 2.75 16.0 3.0 16.0 4.0 16.0 5.0 16.0 6.0 15.0 6.0 14.0 6.0 14.0 7.0 14.0 8.0 13.0 8.0 Q13.0 9.0 13.4 9.8 L14.0 10.0 Q14.0 10.5 14.25 10.75 L15.0 11.0 16.0 11.0 Q16.0 12.0 16.4 12.8 L17.0 13.0 Q17.0 13.5 17.25 13.75 L18.0 14.0 18.0 15.0 18.25 15.75 19.0 16.0 Q19.0 16.5 19.25 16.75 L20.0 17.0 20.0 18.0 20.0 19.0 19.0 19.0 19.0 20.0 19.0 21.0 18.0 21.0 17.0 21.0 17.0 22.0 16.0 22.0 15.0 22.0 14.0 22.0 14.0 23.0 14.0 24.0 14.0 25.0 13.0 25.0 Q13.0 26.0 13.4 26.8 L14.0 27.0 14.0 28.0 14.0 29.0 13.0 29.0 12.0 29.0 11.0 29.0 Q11.0 29.5 11.25 29.75 L12.0 30.0 11.75 30.75 11.0 31.0 10.0 31.0 9.0 31.0 9.0 32.0 9.0 33.0 8.0 33.0 7.8 32.4 6.0 32.0 6.0 31.0 6.0 30.0 6.6 29.8 Q7.65 27.9 6.0 28.0 L6.1 27.05 Q6.65 24.9 5.0 25.0 L5.0 24.0 5.0 23.0 5.0 22.0 4.75 21.25 4.0 21.0 3.0 21.0 2.0 21.0 1.25 20.75 0.0 19.0 0.75 18.75 1.0 18.0 1.8 16.9 2.0 16.0 2.75 15.75 3.0 15.0 3.0 14.0 3.0 13.0 Q4.0 13.0 4.8 12.6 L5.0 12.0 5.0 11.0 5.0 10.0 Q7.65 10.65 7.1 8.0 L7.0 7.0 7.75 6.75 8.0 6.0 8.0 5.0 8.0 4.0 8.75 3.75 9.0 3.0 9.75 2.75 10.0 2.0 11.0 2.0 12.0 2.0 Q12.5 2.5 13.0 2.5 L13.0 2.0 13.5 2.0 13.0 1.0 13.0 0.0 14.0 0.0 15.0 0.0 15.25 0.75" fill="#ffdea5" fill-rule="evenodd" stroke="none"/>
  </g>
</svg>
