<?xml version="1.0" encoding="UTF-8" standalone="no"?>
<svg xmlns:xlink="http://www.w3.org/1999/xlink" height="36.0px" width="22.0px" xmlns="http://www.w3.org/2000/svg">
  <g transform="matrix(1.0, 0.0, 0.0, 1.0, 0.0, 0.0)">
    <path d="M21.0 15.0 L20.0 15.0 20.0 16.0 19.0 16.0 18.75 15.25 18.0 15.0 17.0 15.0 16.0 15.0 16.0 16.0 15.0 16.0 14.0 16.0 14.0 17.0 13.0 17.0 13.0 18.0 12.0 18.0 11.0 18.0 10.0 18.0 10.0 19.0 9.0 19.0 8.75 18.25 Q8.5 18.0 8.0 18.0 L7.0 18.0 7.0 19.0 6.0 19.0 6.0 20.0 6.0 21.0 5.0 21.0 5.1 20.0 Q5.7 17.3 4.0 17.0 L3.75 16.25 3.0 16.0 3.0 15.0 3.0 14.0 3.75 13.75 4.0 13.0 4.0 12.0 4.0 11.0 3.75 10.25 3.0 10.0 2.75 9.25 Q2.5 9.0 2.0 9.0 L2.0 8.0 1.75 7.25 1.0 7.0 0.75 6.25 0.0 6.0 0.0 5.0 0.8 3.9 1.0 3.0 Q2.0 3.0 2.8 2.6 L3.0 2.0 4.0 2.0 5.75 0.75 6.0 0.0 7.0 0.0 8.0 0.0 Q8.0 0.5 8.25 0.75 L9.0 1.0 9.25 1.75 10.0 2.0 10.0 3.0 9.0 3.0 9.0 4.0 9.0 5.0 9.0 6.0 8.0 6.0 Q8.0 6.5 8.25 6.75 L9.0 7.0 Q8.9 8.65 10.8 7.6 L11.0 7.0 12.0 7.0 13.0 7.0 Q14.0 7.0 14.8 6.6 L15.0 6.0 16.0 6.0 17.0 6.0 18.0 6.0 19.0 6.0 19.0 7.0 18.0 7.0 18.25 7.75 19.0 8.0 Q19.0 9.5 19.45 10.85 L20.0 11.0 Q20.0 11.5 20.25 11.75 L21.0 12.0 22.0 12.0 22.0 13.0 22.0 14.0 21.0 14.0 21.0 15.0 M5.45 29.9 L6.0 30.0 6.25 30.75 7.0 31.0 7.0 32.0 7.0 33.0 Q7.0 33.5 7.25 33.75 L8.0 34.0 8.0 35.0 8.0 36.0 7.0 36.0 6.0 36.0 5.25 35.75 Q5.0 35.5 5.0 35.0 L5.5 35.0 5.0 34.0 4.25 33.75 Q4.0 33.5 4.0 33.0 L3.75 32.25 3.0 32.0 2.75 31.25 Q2.5 31.0 2.0 31.0 L2.0 30.0 2.75 29.75 3.0 29.0 3.75 28.75 4.0 28.0 4.0 27.0 4.0 26.0 5.0 26.0 Q5.0 28.0 5.45 29.9" fill="#bdd6bd" fill-rule="evenodd" stroke="none"/>
  </g>
</svg>
