<?xml version="1.0" encoding="UTF-8" standalone="no"?>
<svg xmlns:xlink="http://www.w3.org/1999/xlink" height="19.0px" width="18.0px" xmlns="http://www.w3.org/2000/svg">
  <g transform="matrix(1.0, 0.0, 0.0, 1.0, 0.0, 0.0)">
    <path d="M11.0 9.0 L11.0 10.0 12.0 10.0 12.25 10.75 13.0 11.0 Q13.0 11.5 13.25 11.75 L14.0 12.0 Q14.0 12.5 14.25 12.75 L15.0 13.0 15.0 14.0 15.25 14.75 16.0 15.0 Q16.0 15.5 16.25 15.75 L17.0 16.0 17.0 17.0 Q17.0 17.5 17.25 17.75 L18.0 18.0 18.0 19.0 17.0 19.0 16.0 19.0 15.0 19.0 14.0 19.0 14.0 18.0 13.8 17.1 13.0 16.0 12.75 15.25 12.0 15.0 11.75 14.25 Q11.5 14.0 11.0 14.0 L11.0 13.0 11.0 12.0 11.0 11.0 11.0 10.0 10.0 10.0 9.75 9.25 9.0 9.0 8.0 9.0 7.0 9.0 6.0 9.0 5.0 9.0 4.0 9.0 3.0 9.0 2.0 9.0 2.0 8.0 2.0 7.0 2.0 6.0 1.75 5.25 1.0 5.0 0.75 4.25 0.0 4.0 0.0 3.0 0.0 2.0 1.0 2.0 2.0 2.0 2.75 1.75 3.0 1.0 3.0 0.0 4.0 0.0 Q4.0 0.5 4.25 0.75 L5.0 1.0 5.0 2.0 Q5.0 2.5 5.25 2.75 L6.0 3.0 6.25 3.75 7.0 4.0 8.0 4.0 9.0 4.0 9.0 5.0 8.0 5.0 8.0 6.0 8.0 7.0 Q8.0 7.5 8.25 7.75 L9.0 8.0 10.0 8.0 11.0 8.0 11.0 9.0" fill="#ffffce" fill-rule="evenodd" stroke="none"/>
  </g>
</svg>
