<?xml version="1.0" encoding="UTF-8" standalone="no"?>
<svg xmlns:xlink="http://www.w3.org/1999/xlink" height="37.0px" width="18.0px" xmlns="http://www.w3.org/2000/svg">
  <g transform="matrix(1.0, 0.0, 0.0, 1.0, 0.0, 0.0)">
    <path d="M12.0 3.0 L12.0 4.0 11.0 4.0 11.0 5.0 10.0 5.0 10.0 6.0 10.0 7.0 9.0 7.0 9.0 8.0 8.0 8.0 8.0 9.0 8.0 10.0 8.0 11.0 7.0 11.0 6.75 10.25 6.0 10.0 6.0 9.0 6.6 8.8 Q7.65 6.9 6.0 7.0 L5.75 6.25 Q5.5 6.0 5.0 6.0 L5.0 5.0 4.8 4.4 3.0 4.0 3.0 5.0 2.0 5.0 1.0 5.0 1.0 4.0 1.0 3.0 0.75 2.25 0.0 2.0 0.0 1.0 1.0 1.0 2.0 1.0 3.0 1.0 4.0 1.0 5.0 1.0 5.75 0.75 6.0 0.0 7.0 0.0 8.0 0.0 9.1 0.8 10.0 1.0 10.0 2.0 Q10.0 2.5 10.25 2.75 L11.0 3.0 12.0 3.0 M12.0 17.0 L13.0 17.0 13.0 18.0 12.0 18.0 12.0 17.0 M14.5 21.0 Q14.05 19.95 14.0 18.0 L15.75 19.25 16.0 20.0 16.0 21.0 Q16.0 21.5 16.25 21.75 L17.0 22.0 17.0 23.0 Q17.0 24.5 17.45 25.85 L18.0 26.0 18.0 27.0 17.0 27.0 17.0 28.0 17.0 29.0 17.0 30.0 17.0 31.0 16.0 31.0 16.0 32.0 15.0 32.0 14.0 32.0 14.0 33.0 13.0 33.0 12.0 33.0 11.0 33.0 11.0 34.0 10.0 34.0 9.1 34.2 8.0 35.0 Q8.0 35.5 8.25 35.75 L9.0 36.0 8.75 36.75 8.0 37.0 7.0 37.0 7.0 36.0 7.0 35.0 7.0 34.0 7.0 33.0 8.0 33.0 9.8 32.6 Q10.0 32.5 10.0 32.0 L10.0 31.0 10.75 30.75 11.0 30.0 12.0 30.0 13.0 30.0 13.75 29.75 14.0 29.0 14.0 28.0 14.0 27.0 14.0 26.0 14.0 25.0 14.0 24.0 14.0 23.0 14.5 23.0 14.0 22.0 14.0 21.0 14.5 21.0" fill="#deb5d6" fill-rule="evenodd" stroke="none"/>
    <path d="M9.0 14.0 L8.0 14.0 8.0 13.0 7.0 13.0 7.0 12.0 8.0 12.0 8.0 13.0 9.0 13.0 9.0 14.0" fill="#b5b5c6" fill-rule="evenodd" stroke="none"/>
    <path d="M9.0 14.0 L10.0 14.0 10.75 14.25 11.0 15.0 Q11.0 15.5 11.25 15.75 L12.0 16.0 12.0 17.0 11.0 17.0 10.0 17.0 10.0 16.0 9.75 15.25 9.0 15.0 9.0 14.0" fill="#c6b5ce" fill-rule="evenodd" stroke="none"/>
  </g>
</svg>
