<?xml version="1.0" encoding="UTF-8" standalone="no"?>
<svg xmlns:xlink="http://www.w3.org/1999/xlink" height="11.0px" width="15.0px" xmlns="http://www.w3.org/2000/svg">
  <g transform="matrix(1.0, 0.0, 0.0, 1.0, 0.0, 0.0)">
    <path d="M8.0 6.0 L8.0 6.5 Q10.25 6.5 8.0 6.0 M4.0 4.0 L4.0 4.5 Q6.25 4.5 4.0 4.0 M13.0 0.0 Q13.5 0.5 14.0 0.5 L14.0 0.0 15.0 0.0 15.0 1.0 15.0 2.0 15.0 3.0 15.0 4.0 15.0 5.0 14.0 5.0 14.0 6.0 13.0 6.0 12.0 6.0 12.0 7.0 11.0 7.0 11.0 8.0 11.0 9.0 10.0 9.0 9.0 9.0 9.0 10.0 8.0 10.0 8.0 11.0 7.0 11.0 6.75 10.25 6.0 10.0 6.0 11.0 5.0 11.0 5.0 10.0 4.8 9.4 3.0 9.0 2.95 8.0 Q2.7 6.3 1.0 6.0 L1.0 5.0 0.75 4.25 0.0 4.0 0.0 3.0 0.75 2.75 1.0 2.0 1.75 1.75 2.0 1.0 2.75 0.75 3.0 0.0 4.0 0.0 5.0 0.0 6.0 0.0 7.0 0.0 8.0 0.0 9.0 0.0 9.25 0.75 10.0 1.0 Q10.5 1.5 11.0 1.5 L11.0 1.0 11.75 0.75 12.0 0.0 13.0 0.0" fill="#8cadd6" fill-rule="evenodd" stroke="none"/>
  </g>
</svg>
