<?xml version="1.0" encoding="UTF-8" standalone="no"?>
<svg xmlns:xlink="http://www.w3.org/1999/xlink" height="15.2px" width="51.05px" xmlns="http://www.w3.org/2000/svg">
  <g transform="matrix(1.0, 0.0, 0.0, 1.0, 0.0, 0.0)">
    <path d="M6.0 2.0 L6.25 2.75 7.0 3.0 7.8 4.1 8.0 5.0 Q8.0 5.5 8.25 5.75 L9.0 6.0 9.0 7.0 9.0 8.0 9.0 9.0 9.0 10.0 9.0 11.0 9.25 11.75 10.0 12.0 10.8 13.1 11.0 14.0 10.0 14.0 9.0 14.0 8.0 14.0 7.75 13.25 7.0 13.0 6.0 13.0 5.75 12.25 Q5.5 12.0 5.0 12.0 L4.75 11.25 4.0 11.0 3.75 10.25 3.0 10.0 2.75 9.25 Q2.5 9.0 2.0 9.0 L1.8 8.1 1.0 7.0 1.1 6.0 Q1.7 3.3 0.0 3.0 L0.0 2.0 0.0 1.0 0.0 0.0 1.0 0.0 Q1.0 1.0 1.4 1.8 L2.0 2.0 3.0 2.0 3.75 1.75 4.0 1.0 5.0 1.0 Q5.5 1.0 5.75 1.25 L6.0 2.0 M4.0 7.0 L4.0 7.5 Q6.25 7.5 4.0 7.0" fill="#8cadd6" fill-rule="evenodd" stroke="none"/>
    <path d="M50.8 3.15 L51.05 4.0 50.05 4.0 49.05 4.0 49.05 5.0 48.9 5.55 46.05 6.0 45.05 6.0 43.05 6.0 42.8 5.25 Q42.55 5.0 42.05 5.0 L42.05 6.0 41.05 6.0 41.05 7.0 41.05 8.0 40.05 8.0 40.05 9.0 40.05 10.0 39.05 10.0 39.05 11.0 39.05 12.0 38.05 12.0 38.05 13.0 37.05 13.0 36.05 13.0 35.05 13.0 34.05 13.0 33.05 13.0 33.05 14.0 32.55 14.1 Q32.2 15.65 30.05 15.0 L29.05 15.0 28.05 15.0 27.05 15.0 26.8 14.25 26.05 14.0 26.05 13.0 27.05 13.0 28.05 13.0 29.05 13.0 30.05 13.0 Q31.75 12.7 31.15 10.0 L31.05 9.0 33.05 9.0 34.05 9.0 34.8 8.75 35.05 8.0 35.8 7.75 36.05 7.0 36.05 6.0 37.05 6.0 38.05 6.0 Q38.55 6.5 39.05 6.5 L39.05 6.0 39.05 5.0 39.8 4.75 40.05 4.0 40.8 3.75 41.05 3.0 41.8 2.75 42.05 2.0 42.05 1.0 43.05 1.0 43.8 0.75 44.05 0.0 45.05 0.0 46.05 0.0 46.3 0.75 47.05 1.0 Q47.05 1.5 47.3 1.75 L48.05 2.0 Q50.0 2.05 50.8 3.15" fill="#8cadd6" fill-rule="evenodd" stroke="none"/>
  </g>
</svg>
