<?xml version="1.0" encoding="UTF-8" standalone="no"?>
<svg xmlns:xlink="http://www.w3.org/1999/xlink" height="20.0px" width="9.0px" xmlns="http://www.w3.org/2000/svg">
  <g transform="matrix(1.0, 0.0, 0.0, 1.0, 0.0, 0.0)">
    <path d="M7.75 2.75 L7.0 3.0 7.0 4.0 Q7.0 4.5 7.25 4.75 L8.0 5.0 Q9.65 4.9 8.6 6.8 8.5 7.0 8.0 7.0 L7.0 7.0 7.0 8.0 7.0 9.0 6.0 9.0 7.1 9.8 8.0 10.0 8.0 11.0 8.0 12.0 8.85 14.05 9.0 15.0 8.0 15.0 7.0 15.0 7.0 16.0 6.0 16.0 6.0 17.0 5.0 17.0 Q5.0 17.5 5.25 17.75 L6.0 18.0 6.0 19.0 5.0 19.0 5.0 20.0 4.0 20.0 4.0 19.0 4.0 18.0 4.0 17.0 4.0 16.0 3.75 15.25 3.0 15.0 2.75 14.25 Q2.5 14.0 2.0 14.0 L1.75 13.25 1.0 13.0 0.75 12.25 0.0 12.0 0.0 11.0 0.0 10.0 0.75 9.75 1.0 9.0 1.75 8.75 2.0 8.0 Q2.5 8.0 2.6 7.8 3.7 5.3 2.0 5.0 L2.0 4.0 2.0 3.0 2.0 2.0 Q3.0 2.0 3.8 1.6 4.0 1.5 4.0 1.0 L4.0 0.0 5.0 0.0 Q5.0 0.5 5.25 0.75 L6.0 1.0 7.0 1.0 Q7.0 1.5 7.25 1.75 L8.0 2.0 7.75 2.75" fill="#deb5d6" fill-rule="evenodd" stroke="none"/>
  </g>
</svg>
