<?xml version="1.0" encoding="UTF-8" standalone="no"?>
<svg xmlns:xlink="http://www.w3.org/1999/xlink" height="35.0px" width="122.0px" xmlns="http://www.w3.org/2000/svg">
  <g transform="matrix(1.0, 0.0, 0.0, 1.0, 0.0, 0.0)">
    <path d="M57.75 3.0 Q59.2 5.55 60.2 8.85 L60.75 9.0 60.5 9.75 59.75 10.0 59.75 11.0 59.5 11.75 58.75 12.0 58.75 14.0 58.75 15.0 57.75 15.0 56.75 15.0 56.75 16.0 55.75 16.0 55.75 17.0 54.75 17.0 54.75 18.0 54.75 21.0 54.75 22.0 54.55 22.6 Q53.75 23.0 52.75 23.0 L51.75 23.0 51.75 22.0 51.5 21.25 Q51.25 21.0 50.75 21.0 L49.75 21.0 45.75 21.0 45.75 22.0 44.85 21.8 43.75 21.0 43.65 20.45 39.75 20.0 39.75 19.0 39.85 18.05 Q40.4 15.9 38.75 16.0 L38.55 15.1 37.75 14.0 37.5 13.25 36.75 13.0 36.75 12.0 37.75 12.0 38.75 12.0 Q38.75 12.5 39.0 12.75 L39.75 13.0 40.75 13.0 42.75 13.0 43.75 13.0 44.75 13.0 45.75 13.0 46.35 12.8 Q47.4 10.9 45.75 11.0 L45.75 10.0 46.75 10.0 47.75 10.0 48.75 10.0 49.75 10.0 50.75 10.0 51.5 9.75 51.75 9.0 52.5 8.75 52.75 8.0 52.75 7.0 53.5 6.75 53.75 6.0 53.75 5.0 54.55 3.9 54.75 3.0 56.75 3.0 57.75 3.0 M45.0 34.0 L44.0 34.0 44.0 35.0 43.0 35.0 42.85 34.45 40.0 34.0 39.0 34.0 39.0 33.0 40.0 33.0 40.75 32.75 41.0 32.0 42.0 32.0 43.0 32.0 44.1 32.8 45.0 33.0 46.0 33.0 46.0 34.0 45.0 34.0 M21.25 16.75 L22.0 17.0 22.75 17.25 23.0 18.0 Q23.0 18.5 23.25 18.75 L24.0 19.0 24.0 20.0 Q24.5 20.5 25.0 20.5 L25.0 20.0 Q28.25 20.75 27.2 26.05 L26.5 27.5 Q26.0 28.0 25.0 28.0 L24.75 27.25 24.0 27.0 23.0 27.0 22.75 26.25 22.0 26.0 21.75 25.25 21.0 25.0 20.75 24.25 Q20.5 24.0 20.0 24.0 L19.0 24.0 18.75 23.25 18.0 23.0 17.75 22.25 Q17.5 22.0 17.0 22.0 L16.75 21.25 16.0 21.0 15.75 20.25 15.0 20.0 15.0 19.0 14.8 18.1 14.0 17.0 14.0 16.0 13.75 15.25 13.0 15.0 12.75 14.25 11.0 13.0 10.75 12.25 10.0 12.0 10.0 11.0 10.0 10.0 9.75 9.25 9.0 9.0 8.75 8.25 Q8.5 8.0 8.0 8.0 L7.75 7.25 7.0 7.0 6.25 6.75 6.0 6.0 5.75 5.25 Q5.5 5.0 5.0 5.0 L4.75 4.25 4.0 4.0 3.75 3.25 3.0 3.0 2.75 2.25 Q2.5 2.0 2.0 2.0 L1.0 2.0 0.75 1.25 0.0 1.0 0.0 0.0 1.0 0.0 4.0 0.0 5.0 0.0 Q5.0 0.5 5.25 0.75 L6.0 1.0 Q6.0 2.0 6.4 2.8 6.5 3.0 7.0 3.0 7.0 3.5 7.25 3.75 L8.0 4.0 9.8 4.4 Q10.0 4.5 10.0 5.0 10.0 5.5 10.25 5.75 L11.0 6.0 Q11.0 6.5 11.25 6.75 L12.0 7.0 12.25 7.75 13.0 8.0 Q13.5 8.5 14.1 8.8 L15.0 9.0 16.0 9.0 Q16.0 9.5 16.25 9.75 L17.0 10.0 Q17.0 10.5 17.25 10.75 L18.0 11.0 18.25 11.75 19.0 12.0 Q19.0 12.5 19.25 12.75 L20.0 13.0 20.0 14.0 Q20.0 15.0 20.4 15.8 20.5 16.0 21.0 16.0 L21.25 16.75 M33.0 30.0 L33.25 30.75 34.0 31.0 35.1 31.8 36.0 32.0 36.0 33.0 35.1 33.2 34.0 34.0 33.75 33.25 33.0 33.0 32.0 33.0 31.75 32.25 31.0 32.0 30.0 32.0 29.8 31.4 28.0 31.0 28.0 30.0 28.75 29.75 29.0 29.0 Q30.05 29.95 32.0 30.0 L33.0 30.0" fill="#ffffce" fill-rule="evenodd" stroke="none"/>
    <path d="M122.0 22.75 L122.0 23.75 122.0 24.75 122.0 25.75 122.0 26.75 122.0 27.75 122.0 28.75 122.0 29.75 122.0 30.75 122.0 31.75 122.0 32.75 122.0 33.75 122.0 34.75 121.0 34.75 120.75 34.0 120.0 33.75 119.75 33.0 Q119.5 32.75 119.0 32.75 L119.0 31.75 118.75 31.0 118.0 30.75 117.75 30.0 117.0 29.75 116.75 29.0 114.0 26.75 113.75 26.0 Q113.5 25.75 113.0 25.75 L112.75 25.0 112.0 24.75 111.0 24.75 110.0 24.75 109.8 24.15 108.0 23.75 107.0 23.75 107.0 22.75 Q109.95 22.2 111.35 20.0 111.5 19.75 112.0 19.75 L112.75 19.5 113.0 18.75 113.75 18.5 114.0 17.75 115.0 17.75 116.0 17.75 Q116.0 18.25 116.25 18.5 L117.0 18.75 119.05 19.6 120.0 19.75 120.25 20.5 121.0 20.75 122.0 20.75 122.0 21.75 122.0 22.75 M102.25 15.5 L103.0 15.75 Q104.65 15.65 104.1 17.8 L104.0 18.75 103.0 18.75 102.0 18.75 100.0 18.75 99.8 17.85 99.0 16.75 99.0 15.75 99.0 14.75 100.0 14.75 101.0 14.75 102.0 14.75 102.25 15.5" fill="#ffffce" fill-rule="evenodd" stroke="none"/>
  </g>
</svg>
