<?xml version="1.0" encoding="UTF-8" standalone="no"?>
<svg xmlns:xlink="http://www.w3.org/1999/xlink" height="14.0px" width="14.0px" xmlns="http://www.w3.org/2000/svg">
  <g transform="matrix(1.0, 0.0, 0.0, 1.0, 0.0, 0.0)">
    <path d="M13.0 3.0 L12.0 3.0 12.0 4.0 11.0 4.0 11.0 5.0 11.0 6.0 10.0 6.0 9.0 6.0 9.0 7.0 9.0 8.0 8.0 8.0 7.0 8.0 Q7.0 9.5 7.45 10.85 L8.0 11.0 9.0 11.0 9.0 12.0 8.0 12.0 8.0 13.0 7.0 13.0 6.0 13.0 6.0 14.0 5.0 14.0 4.0 14.0 3.0 14.0 2.8 13.1 2.0 12.0 2.5 12.0 2.0 11.0 1.95 10.0 Q1.7 8.3 0.0 8.0 L0.0 7.0 0.75 6.75 1.0 6.0 1.0 5.0 Q2.05 4.05 4.0 4.0 L5.0 4.0 5.75 3.75 6.0 3.0 7.0 3.0 Q7.3 4.7 9.8 3.6 10.0 3.5 10.0 3.0 L10.0 2.0 11.0 2.0 11.75 1.75 12.0 1.0 12.75 0.75 13.0 0.0 14.0 0.0 14.0 1.0 14.0 2.0 13.0 2.0 13.0 3.0" fill="#deb5d6" fill-rule="evenodd" stroke="none"/>
  </g>
</svg>
