<?xml version="1.0" encoding="UTF-8" standalone="no"?>
<svg xmlns:xlink="http://www.w3.org/1999/xlink" height="11.0px" width="7.0px" xmlns="http://www.w3.org/2000/svg">
  <g transform="matrix(1.0, 0.0, 0.0, 1.0, 0.0, 0.0)">
    <path d="M6.0 1.0 L6.25 1.75 7.0 2.0 7.0 3.0 7.0 5.0 7.0 6.0 6.0 6.0 6.25 6.75 7.0 7.0 7.0 8.0 7.0 9.0 6.0 9.0 6.0 10.0 5.0 10.0 4.0 10.0 3.0 10.0 2.0 10.0 1.0 10.0 1.0 11.0 0.0 11.0 0.0 10.0 0.0 9.0 0.0 8.0 0.0 6.0 0.0 5.0 0.0 4.0 0.0 3.0 0.75 2.75 1.0 2.0 1.0 1.0 1.75 0.75 2.0 0.0 3.0 0.0 4.0 0.0 5.1 0.8 6.0 1.0" fill="#bdd6bd" fill-rule="evenodd" stroke="none"/>
  </g>
</svg>
