<?xml version="1.0" encoding="UTF-8" standalone="no"?>
<svg xmlns:xlink="http://www.w3.org/1999/xlink" height="26.5px" width="30.0px" xmlns="http://www.w3.org/2000/svg">
  <g transform="matrix(1.0, 0.0, 0.0, 1.0, 0.0, 0.0)">
    <path d="M29.0 5.5 L28.8 6.4 28.0 7.5 27.0 7.5 27.0 8.5 27.0 9.5 27.0 10.5 26.0 10.5 26.0 11.5 26.0 12.5 25.0 12.5 25.0 13.5 25.0 14.5 25.0 15.5 24.0 15.5 23.0 15.5 23.0 16.5 22.0 16.5 21.0 16.5 21.0 17.5 20.0 17.5 20.0 18.5 19.0 18.5 18.75 17.75 18.0 17.5 17.0 17.5 16.0 17.5 16.0 18.5 16.0 19.5 15.0 19.5 15.0 20.5 14.0 20.5 13.0 20.5 13.0 19.5 12.75 18.75 12.0 18.5 11.0 18.5 10.75 17.75 10.0 17.5 10.0 18.5 9.0 18.5 8.0 18.5 7.0 18.5 6.0 18.5 6.0 19.5 5.0 19.5 4.0 19.5 4.0 18.5 4.75 18.25 5.0 17.5 5.75 17.25 6.0 16.5 Q9.7 17.2 11.25 15.75 11.5 15.5 12.0 15.5 L12.25 16.25 13.0 16.5 14.0 16.5 14.75 16.25 15.0 15.5 15.0 14.5 15.75 14.25 16.0 13.5 17.0 13.5 18.0 13.5 18.75 13.25 19.0 12.5 Q20.0 12.5 20.8 12.1 L21.0 11.5 21.75 11.25 22.0 10.5 22.75 10.25 23.0 9.5 23.75 9.25 24.0 8.5 24.75 8.25 25.0 7.5 25.0 6.5 25.0 5.5 Q26.7 4.7 26.45 1.45 26.3 -0.7 28.65 0.35 29.0 0.5 29.3 1.4 L30.0 2.5 30.0 3.5 30.0 4.5 29.0 4.5 29.0 5.5 M2.0 22.5 Q3.45 24.0 2.25 25.65 2.0 26.0 2.0 26.5 L1.0 26.5 0.0 26.5 0.0 25.5 0.0 24.5 0.5 24.5 0.0 23.5 0.0 22.5 0.0 21.5 1.0 21.5 Q1.0 22.0 1.25 22.25 L2.0 22.5" fill="#ffffce" fill-rule="evenodd" stroke="none"/>
  </g>
</svg>
