<?xml version="1.0" encoding="UTF-8" standalone="no"?>
<svg xmlns:xlink="http://www.w3.org/1999/xlink" height="34.0px" width="85.0px" xmlns="http://www.w3.org/2000/svg">
  <g transform="matrix(1.0, 0.0, 0.0, 1.0, 0.0, 0.0)">
    <path d="M83.0 15.0 L84.0 15.0 84.25 15.75 85.0 16.0 85.0 17.0 84.0 17.0 83.0 17.0 83.0 18.0 82.0 18.0 81.0 18.0 80.0 18.0 79.0 18.0 78.0 18.0 78.0 19.0 77.0 19.0 77.0 20.0 76.0 20.0 76.0 21.0 75.0 21.0 75.0 22.0 74.0 22.0 73.0 22.0 72.0 22.0 71.0 22.0 71.0 23.0 70.75 23.75 70.0 24.0 69.0 24.0 68.0 24.0 67.9 23.45 64.0 23.0 64.0 24.0 63.0 24.0 Q63.0 25.0 63.4 25.8 63.5 26.0 64.0 26.0 L64.0 27.0 64.0 28.0 63.0 28.0 62.0 28.0 62.0 29.0 61.0 29.0 61.0 30.0 60.0 30.0 60.0 31.0 59.0 31.0 58.0 31.0 58.0 32.0 57.0 32.0 51.0 32.0 50.0 32.0 49.0 32.0 49.0 33.0 48.0 33.0 48.0 34.0 47.0 34.0 46.0 34.0 45.75 33.25 45.0 33.0 44.0 33.0 42.0 33.0 41.0 33.0 40.0 33.0 39.75 32.25 39.0 32.0 38.0 32.0 37.75 31.25 37.0 31.0 36.0 31.0 32.0 31.0 31.0 31.0 30.0 31.0 29.0 31.0 28.0 31.0 27.9 30.5 23.0 30.0 22.0 30.0 21.75 29.25 21.0 29.0 21.0 28.0 20.75 27.25 Q20.5 27.0 20.0 27.0 L20.0 26.0 19.8 25.4 18.0 25.0 17.0 25.0 16.75 24.25 16.0 24.0 Q16.0 23.5 15.8 23.4 L14.0 23.0 13.0 23.0 10.0 23.0 9.0 23.0 8.75 22.25 Q8.5 22.0 8.0 22.0 L8.0 21.0 8.75 20.75 9.0 20.0 9.0 19.0 9.0 18.0 8.75 17.25 Q8.5 17.0 8.0 17.0 L7.8 16.1 7.0 15.0 6.75 14.25 6.0 14.0 5.8 13.4 4.0 13.0 3.0 13.0 2.0 13.0 1.75 12.25 1.0 12.0 0.25 11.75 0.0 11.0 0.0 10.0 0.75 9.75 1.0 9.0 2.0 9.0 Q2.5 9.5 3.0 9.5 L3.0 9.0 4.0 9.0 4.75 8.75 5.0 8.0 5.0 7.0 6.0 7.0 7.0 7.0 Q8.0 7.0 8.8 6.6 L9.0 6.0 9.75 5.75 10.0 5.0 11.0 5.0 Q11.0 6.0 11.4 6.8 11.5 7.0 12.0 7.0 L13.0 7.0 14.0 7.0 14.75 6.75 15.0 6.0 15.0 5.0 16.0 5.0 17.0 5.0 17.0 6.0 Q17.0 6.5 17.25 6.75 L18.0 7.0 19.0 7.0 Q20.3 8.7 24.0 8.1 L25.0 8.0 Q25.5 8.5 26.0 8.5 L26.0 8.0 27.8 7.6 Q28.0 7.5 28.0 7.0 L28.75 6.75 29.0 6.0 28.75 5.25 28.0 5.0 28.0 4.0 28.0 2.0 28.75 1.75 29.0 1.0 29.75 0.75 30.0 0.0 31.0 0.0 Q31.0 0.5 31.25 0.75 L32.0 1.0 33.0 1.0 33.25 1.75 34.0 2.0 34.0 3.0 33.0 3.0 32.0 3.0 Q32.0 3.5 32.25 3.75 L33.0 4.0 33.0 5.0 32.0 5.0 Q31.9 6.65 33.8 5.6 34.0 5.5 34.0 5.0 L34.75 4.75 35.0 4.0 35.0 3.0 37.0 3.0 38.0 3.0 Q38.0 4.0 38.4 4.8 38.5 5.0 39.0 5.0 L39.25 5.75 40.0 6.0 Q40.0 6.5 40.25 6.75 L41.0 7.0 43.0 7.0 44.0 7.0 44.75 6.75 45.0 6.0 49.0 6.0 50.0 6.0 Q50.0 6.5 50.25 6.75 L51.0 7.0 52.0 7.0 53.1 7.8 54.0 8.0 54.25 8.75 55.0 9.0 56.0 9.0 Q56.0 9.5 56.25 9.75 L57.0 10.0 58.0 10.0 59.0 10.0 60.0 10.0 61.0 10.0 63.0 10.0 64.0 10.0 65.0 10.0 65.75 9.75 66.0 9.0 67.0 9.0 Q67.5 9.5 68.0 9.5 L68.0 9.0 68.75 8.75 69.0 8.0 69.75 7.75 70.0 7.0 72.0 7.0 73.0 7.0 74.0 7.0 Q73.9 8.65 75.8 7.6 76.0 7.5 76.0 7.0 L77.0 7.0 77.0 8.0 77.0 9.0 76.0 9.0 76.0 10.0 76.0 11.0 75.0 11.0 75.0 12.0 75.0 13.0 75.0 14.0 Q75.5 14.5 76.1 14.8 L77.0 15.0 78.0 15.0 79.0 15.0 80.0 15.0 80.75 14.75 81.0 14.0 82.0 14.0 Q82.0 14.5 82.25 14.75 L83.0 15.0" fill="#bdd6bd" fill-rule="evenodd" stroke="none"/>
  </g>
</svg>
