<?xml version="1.0" encoding="UTF-8" standalone="no"?>
<svg xmlns:xlink="http://www.w3.org/1999/xlink" height="19.15px" width="23.0px" xmlns="http://www.w3.org/2000/svg">
  <g transform="matrix(1.0, 0.0, 0.0, 1.0, 0.0, 0.0)">
    <path d="M22.0 17.15 L23.0 18.15 22.0 18.15 22.0 19.15 21.0 19.15 20.0 19.15 19.0 19.15 18.75 18.4 18.0 18.15 17.75 17.4 Q15.3 14.85 11.0 14.15 L10.75 13.4 10.0 13.15 9.0 13.15 8.0 13.15 7.8 12.55 6.0 12.15 6.0 13.15 6.0 14.15 5.0 14.15 4.0 14.15 4.0 15.15 4.0 16.15 4.0 17.15 3.0 17.15 2.0 17.15 1.75 16.4 1.0 16.15 1.0 17.15 0.0 17.15 0.0 16.15 0.0 15.15 0.0 0.15 Q2.15 -0.45 2.5 1.05 L3.0 1.15 3.25 1.9 4.0 2.15 5.0 2.15 Q5.0 2.65 5.25 2.9 L6.0 3.15 7.0 3.15 8.0 3.15 Q9.05 4.1 10.85 4.6 L11.0 5.15 Q11.0 6.15 11.4 6.95 11.5 7.15 12.0 7.15 12.0 8.15 12.4 8.95 12.5 9.15 13.0 9.15 16.2 10.5 18.85 12.4 20.55 13.6 21.3 16.05 L22.0 17.15 M3.0 11.15 L3.0 11.65 Q6.85 11.65 3.0 11.15" fill="#deb5d6" fill-rule="evenodd" stroke="none"/>
  </g>
</svg>
