<?xml version="1.0" encoding="UTF-8" standalone="no"?>
<svg xmlns:xlink="http://www.w3.org/1999/xlink" height="34.0px" width="18.0px" xmlns="http://www.w3.org/2000/svg">
  <g transform="matrix(1.0, 0.0, 0.0, 1.0, 0.0, 0.0)">
    <path d="M6.0 1.0 Q7.55 3.9 6.25 5.25 6.0 5.5 6.0 6.0 L5.0 6.0 5.0 7.0 4.0 7.0 4.0 9.0 4.0 10.0 Q4.0 10.5 4.25 10.75 L5.0 11.0 4.75 11.75 3.0 13.0 2.75 12.25 Q2.5 12.0 2.0 12.0 L2.0 11.0 1.75 10.25 1.0 10.0 0.8 9.1 0.0 8.0 0.0 7.0 Q2.15 7.65 1.55 6.15 1.5 6.0 1.0 6.0 L1.0 5.0 1.6 4.8 Q2.65 2.9 1.0 3.0 L1.0 2.0 1.75 1.75 2.0 1.0 2.0 0.0 3.0 0.0 4.0 0.0 5.1 0.8 6.0 1.0 M15.0 18.0 L15.0 19.0 14.0 19.0 14.0 20.0 14.0 21.0 13.0 21.0 12.0 21.0 12.0 20.0 12.5 20.0 12.0 19.0 12.0 18.0 12.0 17.0 13.0 17.0 14.0 17.0 15.0 17.0 15.0 18.0 M15.0 24.0 L16.0 24.0 16.8 25.1 17.0 26.0 Q17.0 26.5 17.25 26.75 L18.0 27.0 18.0 30.0 18.0 31.0 17.0 31.0 16.8 30.4 15.0 30.0 15.0 31.0 15.0 32.0 15.0 33.0 14.0 33.0 14.0 34.0 13.0 34.0 12.75 33.25 12.0 33.0 12.0 32.0 12.0 31.0 11.75 30.25 Q11.5 30.0 11.0 30.0 L11.0 29.0 11.0 28.0 11.75 27.75 12.0 27.0 13.0 27.0 13.75 26.75 14.0 26.0 15.0 26.0 15.5 26.0 15.0 25.0 15.0 24.0" fill="#bdd6bd" fill-rule="evenodd" stroke="none"/>
    <path d="M9.0 14.0 L9.0 13.0 10.0 13.0 10.0 14.0 9.0 14.0" fill="#bdd6d6" fill-rule="evenodd" stroke="none"/>
  </g>
</svg>
