<?xml version="1.0" encoding="UTF-8" standalone="no"?>
<svg xmlns:xlink="http://www.w3.org/1999/xlink" height="147.0px" width="434.0px" xmlns="http://www.w3.org/2000/svg">
  <g transform="matrix(1.0, 0.0, 0.0, 1.0, 0.0, 0.0)">
    <path d="M405.25 42.75 L406.0 43.0 410.0 43.0 Q410.0 43.5 410.25 43.75 L411.0 44.0 413.0 44.0 413.0 45.0 Q413.5 45.5 414.0 45.5 L414.0 45.0 416.05 45.85 417.0 46.0 417.25 46.75 418.0 47.0 418.1 47.5 419.3 48.0 422.0 48.0 Q422.0 48.5 422.25 48.75 L423.0 49.0 Q423.5 49.5 424.1 49.8 L425.0 50.0 Q425.0 50.5 425.25 50.75 L426.0 51.0 426.0 52.0 426.25 52.75 427.75 53.25 428.0 54.0 427.0 54.0 427.0 55.0 426.15 55.0 426.1 55.3 426.25 55.75 427.0 56.0 429.0 56.0 429.25 56.75 430.0 57.0 430.75 56.75 431.0 56.0 431.0 55.0 431.75 54.75 432.0 54.0 434.0 54.0 434.0 56.0 433.0 56.0 Q433.0 56.5 433.25 56.75 L434.0 57.0 434.0 65.0 433.0 65.0 432.85 64.45 430.0 64.0 429.75 63.25 429.0 63.0 427.0 62.95 Q425.3 62.7 425.0 61.0 L425.5 61.0 425.0 60.0 424.75 59.25 424.0 59.0 418.0 59.0 418.0 58.0 418.6 57.8 418.95 56.95 418.75 56.7 418.05 56.1 417.9 56.0 416.0 56.0 416.0 57.0 414.0 57.0 414.8 58.1 415.0 59.0 415.0 61.0 414.0 61.0 414.0 62.0 411.0 62.0 411.0 63.0 409.0 63.0 408.75 62.25 408.0 62.0 408.0 63.0 407.0 63.0 406.75 62.25 406.0 62.0 405.0 62.0 404.75 61.25 404.55 61.1 403.75 61.15 403.0 61.2 403.0 63.0 Q403.5 63.5 404.1 63.8 L405.0 64.0 406.0 64.0 Q406.0 64.5 406.25 64.75 L407.0 65.0 Q407.0 65.5 407.25 65.75 L408.0 66.0 Q408.5 66.5 409.0 66.5 L409.0 66.0 409.75 66.25 410.0 67.0 410.0 69.0 409.0 69.0 Q409.0 69.5 409.25 69.75 L410.0 70.0 411.0 70.0 411.0 71.0 411.25 71.75 412.0 72.0 411.85 72.55 409.0 73.0 409.0 72.0 408.75 71.25 408.0 71.0 408.0 72.0 407.0 72.0 406.75 71.25 406.0 71.0 406.0 72.0 405.5 72.1 Q405.15 73.65 403.0 73.0 L402.75 72.25 402.0 72.45 402.0 73.0 401.75 73.75 401.0 74.0 398.4 74.0 398.0 74.2 398.0 75.0 396.0 75.0 396.0 76.0 395.0 76.0 395.0 77.0 394.0 77.0 394.0 78.0 393.0 78.0 392.75 77.25 Q392.5 77.0 392.0 77.0 L392.0 79.0 390.0 79.0 390.0 80.0 388.0 80.0 388.0 82.0 387.0 82.0 386.75 81.25 Q386.5 81.0 386.0 81.0 L385.75 80.25 385.0 80.0 384.8 79.45 384.0 79.5 384.0 80.0 382.0 80.0 381.9 79.75 381.0 79.85 381.0 80.0 379.0 80.0 379.0 81.0 378.0 81.0 377.8 80.4 376.05 80.0 376.0 80.05 376.0 81.0 373.0 81.0 373.0 82.0 370.0 82.0 369.1 82.2 368.0 83.0 368.0 85.0 367.0 85.0 367.0 86.0 366.0 86.0 366.0 87.0 365.0 87.0 365.0 88.0 Q365.05 89.5 365.45 90.85 L366.0 91.0 366.25 91.75 367.0 92.0 367.0 93.0 366.0 93.0 366.0 94.0 366.25 94.75 367.0 95.0 367.0 96.0 365.0 96.0 365.0 97.0 364.8 97.9 364.0 99.0 364.0 100.0 Q364.0 100.5 364.25 100.75 L365.0 101.0 364.8 101.9 364.0 103.0 363.75 102.25 363.0 102.0 362.75 101.25 Q362.5 101.0 362.0 101.0 L362.0 103.0 361.0 103.0 360.75 102.25 360.0 102.0 360.0 104.0 358.35 104.0 358.0 104.9 358.0 106.0 Q358.0 106.5 358.25 106.75 L359.0 107.0 358.75 107.75 358.0 108.0 356.0 108.0 356.0 109.0 355.0 109.0 355.05 111.0 Q355.2 113.7 353.0 114.0 L352.0 114.0 352.0 115.0 351.0 115.0 350.75 114.15 Q349.8 112.7 350.0 110.0 L350.1 108.05 Q350.65 105.9 349.0 106.0 L348.8 105.1 348.0 104.0 348.0 98.0 348.75 97.75 349.0 97.0 349.0 96.0 349.75 95.75 350.0 95.0 350.0 94.0 Q351.55 92.05 354.05 91.15 L355.0 91.0 355.75 90.75 356.0 90.0 358.75 87.75 359.0 87.0 359.75 86.75 360.0 86.0 360.0 85.0 Q362.15 85.65 362.5 84.1 L363.0 84.0 363.75 83.75 364.0 83.0 364.75 82.75 365.0 82.0 365.0 81.0 365.75 80.75 366.0 80.0 369.0 80.0 369.75 79.75 370.0 79.0 370.0 76.0 370.75 75.75 371.0 75.0 371.0 74.0 Q371.5 73.5 372.1 73.2 L373.0 73.0 374.4 73.0 374.45 72.9 374.0 72.0 373.75 71.25 373.0 71.0 372.75 70.25 372.4 70.15 372.0 70.1 372.0 71.0 370.0 71.0 369.75 70.25 369.0 70.4 369.0 72.0 367.0 72.0 Q367.0 72.5 367.25 72.75 L368.0 73.0 367.75 73.75 367.0 74.0 367.0 75.0 366.0 75.0 366.0 76.0 Q365.5 76.0 365.25 76.25 364.0 77.5 362.0 78.0 L360.0 78.0 360.0 77.0 360.75 76.75 361.0 76.0 361.0 75.0 360.9 74.5 355.0 74.0 355.0 73.9 354.0 74.0 353.65 74.0 353.0 74.05 353.0 75.0 351.0 75.0 351.0 76.0 350.0 76.0 350.0 78.0 349.1 78.2 348.0 79.0 347.0 79.0 347.0 80.0 346.0 80.0 346.0 81.0 345.1 81.2 344.0 82.0 344.0 85.0 343.0 85.0 342.75 84.25 342.0 84.0 341.75 83.25 Q341.5 83.0 341.0 83.0 L341.0 85.0 340.75 85.75 340.0 86.0 Q340.0 85.5 339.8 85.4 L338.0 85.0 337.75 84.25 337.0 84.0 336.75 83.25 336.0 83.0 334.0 83.0 333.75 82.25 333.0 82.0 333.0 83.0 331.0 83.0 330.75 82.25 330.0 82.0 330.0 84.0 327.0 84.0 326.75 83.25 Q326.5 83.0 326.0 83.0 L326.0 84.0 321.0 84.0 320.75 83.25 Q320.5 83.0 320.0 83.0 L317.6 83.0 317.0 83.25 317.0 84.0 315.0 84.0 314.75 84.1 313.0 84.55 313.0 85.0 311.0 85.0 311.0 86.0 310.1 86.2 Q309.5 86.5 309.0 87.0 L308.0 87.0 308.0 88.0 307.75 88.75 307.0 89.0 306.0 89.0 306.0 90.0 305.75 90.75 305.0 91.0 304.0 91.0 304.0 92.0 303.0 92.0 303.0 93.0 302.0 93.0 302.0 94.0 301.0 94.0 301.0 95.0 300.0 95.0 300.0 96.0 299.0 96.0 299.0 97.0 298.0 97.0 298.0 98.0 296.0 98.0 296.0 99.0 295.0 99.0 295.0 100.0 294.0 100.0 293.75 99.25 Q293.5 99.0 293.0 99.0 L293.0 101.0 291.0 101.0 291.25 101.75 292.0 102.0 Q292.0 102.5 292.25 102.75 L293.0 103.0 294.0 103.0 294.25 103.75 295.0 104.0 296.0 104.0 296.0 106.0 Q296.5 106.5 297.0 106.5 L297.0 106.0 298.0 106.0 Q298.0 106.5 298.25 106.75 L299.0 107.0 301.0 107.0 301.75 106.75 302.0 106.0 303.5 106.0 303.0 105.0 303.0 104.0 304.8 104.4 305.0 105.0 Q305.0 105.5 305.25 105.75 L306.0 106.0 307.0 106.0 Q307.0 106.5 307.25 106.75 L308.0 107.0 308.0 108.0 306.0 108.0 306.25 108.75 307.0 109.0 308.0 109.0 308.0 110.0 Q308.0 110.5 308.25 110.75 L309.0 111.0 309.0 112.0 308.0 112.0 308.0 113.0 307.75 113.75 307.0 114.0 306.0 114.0 306.0 115.0 Q306.05 116.5 306.45 117.85 L307.0 118.0 307.0 119.0 306.0 119.0 306.0 121.0 305.0 121.0 Q305.0 121.5 305.25 121.75 L306.0 122.0 306.0 124.0 304.0 124.0 304.0 126.0 303.0 126.0 303.0 127.0 302.0 127.0 302.0 129.0 301.0 129.0 301.0 130.0 300.0 130.0 300.0 131.0 299.85 131.95 Q299.25 133.7 297.0 134.0 L297.0 135.0 296.0 135.0 296.0 136.0 Q295.5 136.0 295.35 136.2 294.15 138.15 292.0 139.0 L292.0 140.0 291.0 140.0 291.0 141.0 290.0 141.0 290.0 142.0 286.0 142.0 285.75 141.25 285.0 141.0 283.0 141.0 282.75 140.25 282.0 140.0 282.0 137.0 283.0 137.0 Q283.0 137.5 283.25 137.75 L284.0 138.0 284.75 137.75 285.0 137.0 286.0 137.0 286.75 136.75 287.0 136.0 287.75 135.75 288.0 135.0 288.0 134.0 288.75 133.75 289.0 133.0 289.0 131.0 289.8 129.9 290.0 129.0 290.0 128.0 291.0 128.0 291.7 127.8 291.8 127.65 292.0 127.0 292.0 124.0 291.75 123.25 291.0 123.0 291.0 124.0 287.0 124.0 287.0 125.0 285.0 125.0 285.0 126.0 281.0 126.0 281.0 124.0 281.5 124.0 281.0 123.0 280.0 123.0 279.75 122.25 279.0 122.0 278.75 121.25 Q278.5 121.0 278.0 121.0 L278.0 120.0 277.85 119.55 277.7 119.25 277.0 119.0 277.0 120.0 274.0 120.0 273.75 119.25 273.0 119.0 272.0 119.0 272.0 117.0 271.75 116.25 271.0 116.0 270.75 115.25 270.0 115.0 270.0 113.0 269.8 112.1 269.0 111.0 268.75 110.25 268.0 110.0 268.0 108.0 267.75 107.25 267.0 107.0 267.0 108.0 266.0 108.0 265.75 107.25 265.0 107.0 263.0 107.0 262.75 106.25 262.0 106.0 261.0 106.0 260.75 105.25 Q260.5 105.0 260.0 105.0 L260.0 106.0 259.0 106.0 259.0 105.0 258.75 104.25 258.0 104.0 258.0 106.0 255.0 106.0 255.0 107.0 254.0 107.0 253.75 106.25 253.0 106.0 253.0 107.0 252.0 107.0 252.0 108.0 251.1 108.0 251.0 108.15 251.0 109.0 250.65 109.0 250.35 109.8 251.0 110.0 Q251.0 110.5 251.25 110.75 L252.0 111.0 252.0 112.0 251.0 112.0 251.0 113.0 249.55 113.0 249.55 113.05 249.25 113.7 249.25 113.75 250.0 114.0 250.0 115.0 249.0 115.0 249.0 116.0 248.0 116.0 248.0 119.0 242.0 119.0 241.8 118.4 240.0 118.0 240.0 119.0 239.0 119.0 238.75 118.25 238.0 118.0 237.0 118.0 237.0 117.0 236.75 116.25 Q236.5 116.0 236.0 116.0 L236.0 117.0 234.0 117.0 234.0 118.0 233.0 118.0 233.0 119.0 232.0 119.0 232.0 120.0 225.0 120.0 225.0 121.0 222.0 121.0 221.75 120.25 Q221.5 120.0 221.0 120.0 L219.0 120.0 219.0 119.0 218.75 118.25 Q218.5 118.0 218.0 118.0 L218.0 119.0 217.0 119.0 216.75 118.25 216.0 118.0 215.75 117.25 215.65 117.15 215.3 117.15 214.6 117.0 214.0 117.0 213.75 116.25 213.0 116.0 213.0 117.0 208.0 117.0 207.75 116.25 207.0 116.0 207.0 118.0 206.0 118.0 205.75 117.25 205.0 117.0 204.0 117.0 204.1 116.05 Q204.65 113.9 203.0 114.0 L202.75 113.25 202.0 113.0 202.0 112.95 201.0 112.95 201.0 113.0 198.0 113.0 197.75 112.25 Q197.5 112.0 197.0 112.0 L196.0 112.0 195.75 111.25 195.0 111.0 193.0 111.0 193.0 112.0 192.0 112.0 192.0 113.0 191.0 113.0 191.0 114.0 190.0 114.0 190.0 116.0 Q190.0 116.5 190.25 116.75 L191.0 117.0 191.0 118.0 190.0 118.0 190.0 119.0 188.0 119.0 187.8 118.35 187.0 118.4 187.0 119.0 184.0 119.0 183.75 118.25 183.0 118.0 182.0 118.0 182.0 117.0 181.75 116.25 181.0 116.0 180.75 115.25 180.0 115.0 180.0 116.0 178.0 116.0 Q178.0 115.5 177.8 115.4 L176.0 115.0 176.0 116.0 172.0 116.0 172.0 117.0 171.0 117.0 171.0 118.0 168.0 118.0 168.0 119.0 167.0 119.0 167.0 120.0 164.0 120.0 164.0 121.0 163.0 121.0 162.75 120.25 162.0 120.0 161.0 120.0 160.8 119.4 159.0 119.0 158.8 118.3 158.0 118.35 158.0 119.0 Q154.75 118.7 153.4 116.35 152.2 114.25 148.0 115.0 L148.0 116.0 147.0 116.0 146.75 115.25 Q146.5 115.0 146.0 115.0 L145.75 114.25 145.0 114.0 141.0 114.0 141.0 113.0 141.5 113.0 141.0 112.0 140.1 111.8 Q139.5 111.5 139.0 111.0 L138.95 110.0 Q138.45 106.55 135.0 106.0 L134.8 105.1 134.0 104.0 134.5 104.0 134.0 103.0 133.75 102.25 133.0 102.0 133.0 103.0 132.0 103.0 131.75 102.25 Q131.5 102.0 131.0 102.0 L131.0 104.0 127.0 104.0 127.0 105.0 126.0 105.0 125.75 104.25 Q125.5 104.0 125.0 104.0 L122.0 104.0 121.75 103.25 121.0 103.0 120.0 103.0 120.0 104.0 119.0 104.0 119.0 102.0 118.75 101.25 118.0 101.0 118.0 100.0 117.75 99.25 117.0 99.0 116.75 98.25 Q116.5 98.0 116.0 98.0 L116.0 100.0 115.0 100.0 114.75 99.25 114.0 99.0 113.75 98.25 113.65 98.15 113.0 98.2 113.0 99.0 111.0 99.0 110.8 98.35 110.0 98.35 110.0 100.0 109.5 100.1 Q109.15 101.65 107.0 101.0 L106.75 100.25 106.0 100.4 106.0 101.0 104.0 101.0 104.0 102.0 102.0 102.0 102.0 103.0 100.0 103.0 99.75 102.25 99.0 102.0 99.0 103.0 97.0 103.0 97.0 104.0 93.0 104.0 93.0 105.0 92.0 105.0 91.75 104.25 91.0 104.0 90.0 104.0 90.0 109.0 89.0 109.0 89.0 111.0 87.0 111.0 Q87.0 112.0 87.4 112.8 87.5 113.0 88.0 113.0 L89.0 113.0 Q89.0 113.5 89.25 113.75 L90.0 114.0 90.25 114.75 91.0 115.0 Q91.0 115.5 90.8 115.6 90.05 116.0 89.15 116.0 L89.0 116.0 89.0 115.5 Q86.05 116.5 84.0 115.0 L83.75 114.25 Q83.5 114.0 83.0 114.0 L82.0 114.0 82.0 115.0 80.0 115.0 79.75 114.25 79.0 114.0 Q78.5 114.0 78.45 114.15 77.7 116.2 75.0 116.0 L74.75 115.25 Q74.5 115.0 74.0 115.0 L73.75 114.25 72.1 113.8 Q69.35 112.65 66.0 112.0 L66.0 113.0 64.0 113.0 63.75 112.25 63.0 112.0 62.9 111.6 62.0 111.2 62.0 113.0 61.0 113.0 61.0 114.0 60.0 114.0 60.0 115.0 57.0 115.0 57.0 116.0 56.0 116.0 56.0 118.0 55.0 118.0 54.75 117.25 54.0 117.0 53.0 117.0 53.0 118.0 52.0 118.0 52.0 120.0 51.0 120.0 51.0 123.0 49.0 123.0 Q49.0 123.5 49.25 123.75 L50.0 124.0 Q50.0 124.5 50.25 124.75 L51.0 125.0 51.25 125.75 52.0 126.0 Q53.0 128.9 54.3 127.25 54.5 127.0 55.0 127.0 55.0 127.5 55.25 127.75 L56.0 128.0 56.0 133.0 55.0 133.0 54.75 132.25 54.0 132.0 54.0 133.0 53.0 133.0 53.0 135.0 51.0 135.0 51.0 136.0 Q51.0 137.0 51.4 137.8 51.5 138.0 52.0 138.0 52.0 138.5 52.25 138.75 L53.0 139.0 53.0 140.0 52.0 140.0 Q52.0 140.5 52.25 140.75 L53.0 141.0 Q53.0 141.5 53.25 141.75 L54.0 142.0 54.0 143.0 53.0 143.0 Q53.0 143.5 53.25 143.75 L54.0 144.0 55.0 144.0 55.0 147.0 54.0 147.0 53.75 146.25 Q53.5 146.0 53.0 146.0 L52.75 145.25 52.0 145.0 50.0 145.0 49.8 144.1 49.0 143.0 45.0 143.0 44.1 142.8 43.0 142.0 Q43.0 141.5 42.8 141.4 L41.0 141.0 41.0 142.0 40.0 142.0 40.0 141.0 39.75 140.25 39.0 140.0 38.0 140.0 37.75 139.25 37.0 139.0 37.0 140.0 36.0 140.0 36.0 141.0 35.0 141.0 34.8 140.4 33.0 140.0 33.0 139.0 32.75 138.25 Q32.5 138.0 32.0 138.0 L32.0 139.0 31.4 138.8 Q30.7 137.3 29.0 137.0 L28.75 136.25 28.0 136.0 27.0 136.0 27.0 135.0 27.75 134.75 28.0 134.0 28.0 133.0 29.0 133.0 29.8 131.9 30.0 131.0 30.0 130.0 Q31.0 130.0 31.8 129.6 L32.0 129.0 32.0 128.0 32.75 127.75 33.0 127.0 33.75 126.75 33.9 126.3 34.0 125.9 34.0 123.0 34.8 121.9 35.0 121.05 35.0 121.0 34.75 120.25 34.0 120.0 33.75 119.25 33.0 119.0 32.75 118.25 Q32.5 118.0 32.0 118.0 L32.0 119.0 30.0 119.0 29.75 118.25 Q29.5 118.0 29.0 118.0 L28.0 118.0 27.75 117.25 27.0 117.0 23.0 117.0 22.75 116.25 22.0 116.0 21.0 116.0 21.0 114.0 20.75 113.25 Q20.5 113.0 20.0 113.0 L20.0 114.0 19.0 114.0 19.0 112.0 18.75 111.25 18.0 111.0 17.75 110.25 Q17.5 110.0 17.0 110.0 L16.0 110.0 15.75 109.25 15.0 109.0 15.0 110.0 12.0 110.0 12.0 108.0 14.0 108.0 14.75 107.75 15.0 107.0 14.75 106.25 Q14.5 106.0 14.0 106.0 L13.85 105.45 Q12.05 104.95 11.0 104.0 L10.75 103.25 10.0 103.0 10.0 102.0 9.75 101.25 9.0 101.0 Q10.9 98.85 8.1 97.75 L7.5 97.5 Q6.85 98.3 6.3 98.3 L6.2 98.3 Q5.5 98.2 5.0 97.0 L4.75 96.25 4.0 96.0 4.0 97.0 3.1 96.8 2.0 96.0 2.0 94.0 1.75 93.25 1.0 93.0 1.0 90.0 0.75 89.25 0.0 89.0 0.0 87.0 0.75 86.75 1.0 86.0 1.8 84.9 2.0 84.0 Q3.0 84.0 3.8 83.6 4.0 83.5 4.0 83.0 L6.0 83.0 6.75 82.75 7.0 82.0 6.75 81.25 6.0 81.0 5.75 80.25 Q5.5 80.0 5.0 80.0 L5.0 81.0 4.0 81.0 4.0 78.0 4.75 77.75 5.0 77.0 6.0 77.0 6.0 78.0 6.25 78.75 7.0 79.0 Q7.0 79.5 7.25 79.75 L8.0 80.0 Q8.0 80.5 8.25 80.75 L9.0 81.0 9.0 82.0 9.25 82.75 10.0 83.0 10.75 82.75 11.0 82.0 12.0 82.0 12.35 82.3 12.8 82.1 13.0 82.0 14.45 81.4 14.8 80.9 15.0 80.0 15.0 79.0 15.5 79.0 15.0 78.0 14.0 78.0 13.75 77.25 13.0 77.0 12.75 76.25 12.0 76.0 11.8 75.4 10.0 75.0 10.0 72.0 10.6 71.8 10.85 71.3 10.8 70.95 10.8 70.15 10.0 70.0 10.0 69.0 9.75 68.25 9.0 68.0 8.75 67.25 Q8.5 67.0 8.0 67.0 L8.0 66.0 8.5 66.0 8.0 65.0 8.1 64.05 Q8.65 61.9 7.0 62.0 L7.0 61.0 7.2 60.1 Q8.7 56.95 5.0 55.0 L5.0 53.0 5.75 52.75 6.0 52.0 6.75 51.75 7.0 51.0 6.8 50.1 6.0 49.0 5.8 48.4 Q4.3 47.7 4.0 46.0 L4.0 45.0 4.75 44.75 5.0 44.0 5.0 43.0 6.0 43.0 6.75 42.75 7.0 42.0 Q8.0 42.0 8.8 41.6 L9.0 41.0 12.0 41.0 12.25 41.75 13.0 42.0 Q13.5 42.5 14.1 42.8 L15.0 43.0 Q15.5 43.5 16.0 43.5 L16.0 43.0 19.0 43.0 Q22.7 42.3 24.25 43.75 L25.0 44.0 Q25.0 44.5 25.25 44.75 L26.0 45.0 Q26.0 45.5 26.25 45.75 L27.0 46.0 28.0 46.0 Q28.0 46.5 28.25 46.75 L29.0 47.0 30.0 47.0 30.25 47.75 31.0 48.0 32.0 48.0 Q34.7 47.8 35.45 49.85 L36.0 50.0 36.0 54.0 34.0 54.0 34.0 56.0 32.0 56.0 31.75 55.25 31.0 55.0 31.0 56.0 30.0 56.0 30.0 57.0 29.0 57.0 28.75 56.25 28.0 56.0 27.0 56.0 27.0 55.0 26.85 54.55 26.0 54.35 26.0 56.0 25.0 56.0 24.9 55.45 21.0 55.0 20.8 54.4 19.0 54.0 18.0 54.0 17.75 53.25 Q17.5 53.0 17.0 53.0 L16.75 52.25 16.0 52.0 16.0 54.0 15.0 54.0 15.0 55.0 15.25 55.75 16.0 56.0 Q16.0 56.5 16.25 56.75 L17.0 57.0 18.0 57.0 18.25 57.75 19.0 58.0 19.0 62.0 Q19.0 62.5 19.25 62.75 L20.0 63.0 20.0 64.0 Q20.0 64.5 20.25 64.75 L21.0 65.0 23.0 65.0 Q23.0 65.5 23.25 65.75 L24.0 66.0 24.25 66.75 25.0 67.0 Q25.3 68.7 27.8 67.6 28.0 67.5 28.0 67.0 L28.75 66.75 29.0 66.0 29.5 66.0 29.0 65.0 28.75 64.25 28.0 64.0 28.0 63.0 30.0 63.0 Q29.9 64.65 32.05 64.1 L34.0 64.0 34.75 63.75 35.0 63.0 35.0 61.0 34.75 60.25 34.0 60.0 34.0 59.0 34.75 58.75 35.0 58.0 36.0 58.0 38.85 57.55 39.0 57.0 39.0 56.0 43.0 56.0 Q43.0 56.5 43.25 56.75 L44.0 57.0 Q44.0 57.5 44.25 57.75 L45.0 58.0 45.1 58.1 46.0 58.2 46.0 57.0 Q46.0 56.5 46.15 56.05 L46.2 56.0 46.65 54.0 46.65 53.65 46.55 52.95 46.15 52.2 46.0 52.0 48.0 52.0 48.25 52.75 49.0 53.0 Q50.05 53.95 52.0 54.0 L54.0 54.0 54.75 53.75 55.0 53.0 55.0 51.0 55.75 50.75 56.0 50.0 57.0 50.0 Q57.5 50.5 58.0 50.5 L58.0 49.0 59.95 48.75 61.15 48.25 Q61.5 48.0 62.0 48.0 L63.0 48.0 63.75 47.75 64.0 47.0 65.0 47.0 Q65.5 47.5 66.0 47.5 L66.0 47.0 67.0 47.0 Q67.0 47.5 67.25 47.75 L68.0 48.0 68.75 47.75 69.0 47.0 70.0 47.0 Q70.0 47.5 70.25 47.75 L71.0 48.0 72.0 48.0 74.85 47.55 75.0 47.0 75.75 46.75 76.0 46.0 80.0 46.0 Q80.0 46.5 80.25 46.75 L81.0 47.0 81.75 46.75 82.0 46.0 82.0 45.0 83.0 45.0 Q83.5 45.5 84.0 45.5 L84.0 44.0 85.0 44.0 Q85.0 45.5 85.45 46.85 L86.0 47.0 86.0 47.2 86.95 47.35 87.85 47.55 88.0 47.0 88.75 46.75 89.0 46.0 89.0 45.0 Q92.65 44.7 90.25 42.7 90.0 42.5 90.0 42.0 L90.0 40.0 94.0 40.0 94.0 41.0 Q94.5 41.5 95.0 41.5 L95.0 41.0 98.0 41.0 Q98.0 41.5 98.25 41.75 L99.0 42.0 100.0 42.0 101.1 42.8 102.0 43.0 103.0 43.0 103.0 44.0 Q103.5 44.5 104.0 44.5 L104.0 44.0 105.0 44.0 105.25 44.75 106.0 45.0 107.0 45.0 107.0 46.0 Q107.5 46.5 108.0 46.5 L108.0 46.0 109.0 46.0 Q109.0 46.5 109.25 46.75 L110.0 47.0 Q109.95 47.85 110.4 48.0 110.85 48.15 111.8 47.6 112.0 47.5 112.0 47.0 L112.75 46.75 113.0 46.0 113.0 45.0 113.5 44.9 112.9 42.85 111.0 43.0 Q110.5 43.0 110.4 42.8 110.0 42.0 110.0 41.0 L109.75 40.25 109.0 40.0 108.0 40.0 108.0 39.0 108.75 38.75 109.0 38.0 109.0 36.0 108.75 35.25 108.0 35.0 107.75 34.25 Q107.5 34.0 107.0 34.0 L107.0 33.0 108.0 33.0 Q109.0 33.0 109.8 32.6 L110.0 32.0 110.75 31.75 111.0 31.0 111.75 30.75 112.0 30.0 112.0 28.0 112.75 27.75 113.0 27.0 113.75 26.75 114.0 26.0 114.75 25.75 115.0 25.0 119.0 25.0 121.05 25.85 122.0 26.0 Q122.0 26.5 122.25 26.75 L123.0 27.0 123.0 28.0 121.0 28.0 121.0 30.0 119.0 30.0 Q119.0 30.5 119.25 30.75 L120.0 31.0 120.0 32.0 120.25 32.75 121.0 33.0 Q122.7 33.3 122.1 36.0 L122.0 37.0 121.0 37.0 121.0 38.0 Q121.0 38.5 121.25 38.75 L122.0 39.0 122.0 41.0 121.0 41.0 121.1 42.4 121.45 43.85 122.0 44.0 122.0 45.0 Q122.0 45.5 122.25 45.75 L123.0 46.0 124.0 46.0 124.0 47.0 123.0 47.0 123.25 47.75 124.0 48.0 124.0 49.0 122.0 49.0 122.0 50.0 121.2 50.0 121.0 50.3 121.0 52.0 120.0 52.0 120.0 53.0 119.0 53.0 119.0 54.0 117.0 54.0 116.75 53.25 Q116.5 53.0 116.0 53.0 L116.0 54.0 115.0 54.0 Q115.0 53.5 114.8 53.4 L113.0 53.0 113.0 54.0 112.0 54.0 Q112.0 54.5 112.25 54.75 L113.0 55.0 Q113.0 55.5 113.25 55.75 L114.0 56.0 116.0 56.0 Q116.0 56.5 116.25 56.75 L117.0 57.0 118.35 57.0 Q119.55 56.4 120.9 56.1 L122.0 55.85 122.0 55.0 123.0 55.0 123.75 54.75 124.0 54.0 125.75 52.75 126.0 52.0 126.75 51.75 127.0 51.0 128.0 51.0 128.75 50.75 129.0 50.0 129.5 50.0 129.0 49.0 129.0 48.0 128.75 47.25 Q128.5 47.0 128.0 47.0 L128.0 45.0 133.0 44.5 133.0 45.0 132.0 45.0 132.25 45.75 133.0 46.0 134.0 46.0 134.0 47.0 Q134.0 47.5 134.25 47.75 L135.0 48.0 135.0 50.0 135.25 50.75 136.0 51.0 137.65 51.0 Q138.75 50.3 140.0 49.9 140.2 48.95 139.0 49.0 L136.0 49.0 136.0 48.0 137.0 48.0 137.75 47.75 138.0 47.0 138.5 47.0 138.0 46.0 137.0 46.0 136.8 45.1 136.0 44.0 135.75 43.25 135.0 43.0 134.95 42.8 134.0 42.45 134.0 43.0 133.0 43.0 132.75 42.25 132.0 42.0 131.0 42.0 130.75 41.25 130.0 41.0 130.0 43.0 128.0 42.95 Q124.8 42.7 126.0 38.0 127.0 38.0 127.8 37.6 L128.0 37.0 128.0 36.0 127.75 35.25 127.0 35.0 126.75 34.25 126.0 34.0 125.75 33.25 Q125.5 33.0 125.0 33.0 L125.0 31.0 126.0 31.0 126.75 30.75 127.0 30.0 129.0 30.0 129.25 30.75 130.0 31.0 130.0 32.0 129.0 32.0 129.25 32.75 130.0 33.0 136.0 34.0 Q136.0 34.5 136.25 34.75 L137.0 35.0 138.0 35.0 138.6 35.4 139.0 35.45 139.0 35.0 139.75 34.75 140.0 34.0 139.75 33.25 139.0 33.0 138.0 33.0 137.75 32.25 Q137.5 32.0 137.0 32.0 L135.0 32.0 135.0 31.0 137.0 31.0 137.75 30.75 138.0 30.0 138.5 30.0 138.0 29.0 138.0 28.0 Q141.7 27.3 143.25 28.75 L144.0 29.0 144.25 29.75 145.0 30.0 145.0 31.0 Q145.5 31.5 146.1 31.8 L147.0 32.0 148.0 32.0 148.0 34.95 148.8 36.3 148.9 36.45 149.0 36.0 150.0 36.0 150.0 37.95 150.65 38.8 150.75 38.75 151.0 38.0 151.75 37.75 152.0 37.0 152.75 36.75 153.0 36.0 153.0 35.0 152.75 34.25 Q152.5 34.0 152.0 34.0 L152.0 33.0 152.75 32.75 153.0 32.0 153.0 31.0 152.75 30.25 Q152.5 30.0 152.0 30.0 L151.0 30.0 150.75 29.25 150.0 29.0 149.85 28.5 149.4 28.05 149.0 28.0 148.0 28.0 Q144.3 28.2 145.0 24.0 L145.0 22.0 147.0 22.0 Q147.5 22.5 148.0 22.5 L148.0 22.0 150.0 22.0 150.65 22.45 151.0 22.3 151.0 22.0 153.0 22.0 153.05 22.05 154.0 22.15 154.0 21.0 158.0 21.0 Q157.4 23.15 158.85 22.55 L159.0 22.0 161.0 22.0 162.8 21.6 Q163.0 21.5 163.0 21.0 L163.0 20.0 162.75 19.25 162.0 19.0 162.0 15.0 162.75 14.75 163.0 14.0 Q165.15 14.65 165.5 13.1 L166.0 13.0 168.0 13.0 168.75 12.75 169.0 12.0 170.0 12.0 Q170.5 12.5 171.0 12.5 L171.0 12.0 173.0 12.0 173.75 11.75 174.0 11.0 177.0 11.0 177.75 10.75 178.0 10.0 180.0 10.0 Q180.5 10.5 181.0 10.5 L181.0 9.0 182.0 9.0 Q182.5 9.5 183.0 9.5 L183.0 8.0 184.0 8.0 Q184.0 8.5 184.25 8.75 L185.0 9.0 Q185.5 9.5 186.0 9.5 L186.0 9.0 187.0 9.0 187.0 10.0 Q187.5 10.5 188.0 10.5 L188.0 10.0 188.75 9.75 189.0 9.0 191.0 9.0 191.75 8.75 192.0 8.0 193.0 8.0 Q193.5 8.5 194.0 8.5 L194.0 8.0 195.0 8.0 195.25 8.75 196.0 9.0 196.75 8.75 197.0 8.0 197.75 7.75 198.0 7.0 200.0 7.0 Q204.9 6.95 201.0 4.5 L201.0 5.0 200.0 5.0 200.0 3.0 201.0 3.0 201.75 2.75 202.0 2.0 203.0 2.0 203.75 1.75 204.0 1.0 205.1 0.2 206.0 0.0 208.0 0.0 209.8 0.4 210.0 1.0 209.0 1.0 209.0 2.0 Q209.0 2.5 209.25 2.75 L210.0 3.0 211.0 3.0 Q211.0 3.5 211.25 3.75 L212.0 4.0 212.75 3.75 213.0 3.0 216.0 3.0 216.0 4.0 215.0 4.0 215.0 6.0 Q214.9 7.65 217.05 7.1 L218.0 7.0 218.75 6.75 219.0 6.0 219.0 5.0 227.0 5.0 Q227.0 5.5 227.25 5.75 L228.0 6.0 229.0 6.0 229.0 7.0 Q229.5 7.5 230.0 7.5 L230.0 7.0 231.0 7.0 231.0 10.0 230.0 10.0 Q230.0 10.5 230.25 10.75 L231.0 11.0 232.0 11.0 232.0 12.0 230.0 12.0 230.0 13.0 229.0 13.0 229.0 15.0 227.0 15.0 227.0 16.0 226.05 16.15 Q225.0 16.5 224.0 17.0 L223.75 16.25 223.0 16.0 223.0 18.0 222.0 18.0 222.0 19.0 221.0 19.0 220.75 18.25 220.0 18.0 220.0 20.0 217.0 20.0 217.0 21.0 215.0 21.0 215.0 22.0 214.0 22.0 214.0 23.0 213.1 23.2 212.0 24.0 212.0 25.0 211.0 25.0 Q211.0 25.5 211.25 25.75 L212.0 26.0 213.0 26.0 213.75 25.75 214.0 25.0 214.75 24.75 215.0 24.0 219.0 24.0 219.75 23.75 220.0 23.0 224.0 23.0 224.75 22.75 225.0 22.0 225.75 21.75 226.0 21.0 230.0 21.0 Q230.0 21.5 230.25 21.75 L231.0 22.0 232.0 22.0 Q232.0 22.5 232.25 22.75 L233.0 23.0 234.0 23.0 234.75 22.75 235.0 22.0 236.0 22.0 Q236.5 22.5 237.0 22.5 L237.0 22.0 239.0 22.0 Q239.5 22.5 240.0 22.5 L240.0 22.0 242.0 22.0 Q242.5 22.5 243.0 22.5 L243.0 22.0 245.0 22.0 Q245.0 22.5 245.25 22.75 L246.0 23.0 246.0 24.0 Q246.5 24.5 247.0 24.5 L247.0 24.0 248.0 24.0 Q248.0 24.5 248.25 24.75 L249.0 25.0 257.0 25.0 Q257.0 25.5 257.25 25.75 L258.0 26.0 260.0 26.0 260.75 25.75 261.0 25.0 261.0 22.0 261.75 21.75 262.0 21.0 264.0 21.0 264.25 21.75 265.0 22.0 Q265.5 22.5 266.1 22.8 L267.0 23.0 269.0 23.0 Q269.5 23.5 270.0 23.5 L270.0 23.0 275.0 23.0 275.0 24.0 272.0 24.0 272.0 25.0 270.0 25.0 270.0 26.0 269.0 26.0 268.75 25.25 268.0 25.0 268.0 27.0 267.15 26.75 Q265.95 26.05 264.0 26.0 L264.0 25.0 263.75 24.25 Q263.5 24.0 263.0 24.0 L263.0 26.0 Q263.0 26.5 263.25 26.75 L264.0 27.0 Q265.05 27.95 267.0 28.0 L269.0 28.0 Q269.0 28.5 269.25 28.75 L270.0 29.0 270.0 31.0 269.0 31.0 Q269.0 31.5 269.25 31.75 L270.0 32.0 271.0 32.0 271.75 31.75 272.0 31.0 272.0 29.0 273.0 29.0 273.25 29.75 274.0 30.0 Q274.0 30.5 274.25 30.75 L275.0 31.0 Q275.0 31.5 275.25 31.75 L276.0 32.0 276.25 32.75 277.0 33.0 Q277.0 33.5 277.25 33.75 L278.0 34.0 Q278.0 34.5 278.25 34.75 L279.0 35.0 280.0 35.0 Q280.0 35.5 280.25 35.75 L281.0 36.0 282.0 36.0 282.75 35.75 283.0 35.0 283.75 34.75 284.0 34.0 284.75 33.75 285.0 33.0 285.0 31.0 286.0 31.0 286.0 32.0 Q286.8 33.7 290.0 33.1 L291.0 33.0 Q291.5 33.5 292.0 33.5 L292.0 32.0 293.0 32.0 Q293.5 32.5 294.0 32.5 L294.0 32.0 296.0 32.0 Q296.0 32.5 296.25 32.75 L297.0 33.0 299.0 33.0 Q298.9 34.65 300.8 33.6 301.0 33.5 301.0 33.0 L301.0 32.0 302.0 32.0 Q302.3 33.7 304.8 32.6 L305.0 32.0 305.0 29.0 Q305.5 28.5 306.1 28.2 L307.75 27.75 308.0 27.0 308.75 26.75 309.0 26.0 311.0 26.0 Q311.0 26.5 311.25 26.75 L312.0 27.0 314.0 27.0 Q314.5 27.5 315.0 27.5 L315.0 27.0 317.0 27.0 Q317.5 27.5 318.0 27.5 L318.0 27.0 319.0 27.0 319.8 28.1 320.0 29.0 319.0 29.0 319.0 30.0 318.0 30.0 Q317.9 31.65 319.8 30.6 L320.0 30.0 321.0 30.0 321.25 30.75 322.0 31.0 322.6 30.8 Q323.65 28.9 322.0 29.0 L322.0 28.0 324.0 28.0 324.0 29.0 Q324.5 29.5 325.0 29.5 L325.0 28.0 330.0 28.0 330.0 31.0 329.0 31.0 Q329.5 31.5 330.1 31.8 L331.0 32.0 332.0 32.0 Q332.0 32.5 332.25 32.75 L333.0 33.0 335.0 33.0 Q335.5 33.5 336.0 33.5 L336.0 33.0 337.0 33.0 337.0 34.0 Q337.0 34.5 337.25 34.75 L338.0 35.0 339.0 35.0 Q340.05 35.95 342.0 36.0 L343.0 36.0 343.75 35.75 344.0 35.0 356.0 35.0 Q356.0 35.5 356.25 35.75 L357.0 36.0 358.0 36.0 Q358.0 36.5 358.25 36.75 L359.0 37.0 359.0 39.0 358.0 39.0 Q358.0 39.5 358.25 39.75 L359.0 40.0 Q359.0 40.5 359.25 40.75 L360.0 41.0 360.25 41.75 361.0 42.0 Q361.0 42.5 361.25 42.75 L362.0 43.0 Q362.0 43.5 362.25 43.75 L363.0 44.0 Q363.5 44.5 364.0 44.5 L364.0 44.0 364.75 43.75 365.0 43.0 365.0 42.0 365.75 41.75 366.0 41.0 370.0 41.0 371.1 41.8 372.0 42.0 Q372.5 42.5 373.0 42.5 L373.0 42.0 374.0 42.0 Q374.3 43.7 377.0 43.1 L378.0 43.0 Q378.5 43.5 379.0 43.5 L379.0 42.0 381.0 42.0 381.25 42.75 382.0 43.0 Q382.0 43.5 382.25 43.75 L383.0 44.0 384.0 44.0 384.25 44.75 385.0 45.0 Q384.9 46.65 387.05 46.1 L388.0 46.0 388.75 45.75 389.0 45.0 389.75 44.75 390.0 44.0 389.8 43.1 389.0 42.0 389.0 40.0 394.0 40.0 Q394.0 40.5 394.25 40.75 L395.0 41.0 396.0 41.0 Q396.5 41.5 397.0 41.5 L397.0 41.0 404.0 41.0 Q404.0 41.5 404.25 41.75 L405.0 42.0 405.25 42.75 M431.0 62.0 L431.0 62.5 Q433.3 62.5 431.0 62.0 M432.0 59.5 Q434.3 59.5 432.0 59.0 L432.0 59.5 M429.0 60.0 L429.0 60.5 Q431.3 60.5 429.0 60.0 M427.0 61.0 L427.0 61.5 Q429.3 61.5 427.0 61.0 M427.0 58.0 L427.0 58.5 Q429.3 58.5 427.0 58.0 M430.0 58.0 L430.0 58.5 Q432.3 58.5 430.0 58.0 M410.0 45.0 L410.0 45.5 Q412.3 45.5 410.0 45.0 M407.0 44.0 L407.0 44.5 Q409.3 44.5 407.0 44.0 M414.0 54.5 L414.85 54.5 414.0 54.25 414.0 54.5 M413.0 60.0 L413.0 60.5 Q415.3 60.5 413.0 60.0 M413.45 56.1 L413.55 56.5 Q414.8 56.45 413.45 56.1 M405.0 65.5 Q407.3 65.5 405.0 65.0 L405.0 65.5 M406.1 68.5 Q408.2 68.5 406.1 68.05 L406.1 68.5 M385.0 47.0 L385.0 47.5 Q387.3 47.5 385.0 47.0 M392.65 43.15 L392.0 43.0 392.0 43.5 392.65 43.15 M393.0 41.5 Q395.3 41.5 393.0 41.0 L393.0 41.5 M390.0 41.5 Q392.3 41.5 390.0 41.0 L390.0 41.5 M380.0 44.5 Q382.3 44.5 380.0 44.0 L380.0 44.5 M382.0 46.0 L382.0 46.5 Q384.3 46.5 382.0 46.0 M374.0 44.0 L374.0 44.5 374.7 44.5 375.15 44.35 374.0 44.0 M371.0 44.0 L371.0 44.25 372.15 44.4 371.0 44.0 M367.0 44.5 Q369.3 44.5 367.0 44.0 L367.0 44.5 M366.0 42.0 L366.0 42.5 Q368.3 42.5 366.0 42.0 M369.0 42.0 L369.0 42.5 Q371.3 42.5 369.0 42.0 M402.7 42.5 Q403.9 42.4 402.0 42.0 L402.0 42.3 402.7 42.5 M336.3 36.5 Q338.15 36.45 336.05 36.0 L336.3 36.5 M326.0 31.5 L326.4 31.5 Q328.1 31.45 326.0 31.0 L326.0 31.5 M327.0 29.0 L327.0 29.5 Q329.3 29.5 327.0 29.0 M344.0 36.0 L344.0 36.5 Q346.3 36.5 344.0 36.0 M339.0 36.0 L339.0 36.5 Q341.3 36.5 339.0 36.0 M342.8 37.2 L342.0 37.0 342.0 37.2 342.8 37.2 M356.0 37.5 Q358.3 37.5 356.0 37.0 L356.0 37.5 M362.0 45.0 Q362.0 45.5 362.25 45.75 363.95 47.4 362.0 45.0 M347.0 36.5 Q349.3 36.5 347.0 36.0 L347.0 36.5 M350.0 36.5 Q352.3 36.5 350.0 36.0 L350.0 36.5 M353.0 36.0 L353.0 36.5 Q355.3 36.5 353.0 36.0 M363.4 73.5 Q364.65 73.45 363.85 73.2 L363.4 73.5 M335.0 80.5 Q337.3 80.5 335.0 80.0 L335.0 80.5 M341.0 80.5 Q343.3 80.5 341.0 80.0 L341.0 80.5 M343.0 81.5 Q345.3 81.5 343.0 81.0 L343.0 81.5 M337.0 81.0 L337.0 81.5 Q339.3 81.5 337.0 81.0 M339.0 82.0 L339.0 82.5 Q341.3 82.5 339.0 82.0 M332.0 80.4 L332.0 80.5 Q333.75 80.5 332.85 80.25 L332.0 80.4 M328.0 81.35 L328.0 81.5 Q329.9 81.5 328.7 81.2 L328.2 81.3 328.0 81.35 M324.0 82.35 L324.0 82.5 Q325.85 82.5 324.75 82.2 L324.2 82.3 324.0 82.35 M349.0 75.0 L349.0 75.5 Q351.3 75.5 349.0 75.0 M361.0 86.5 Q363.3 86.5 361.0 86.0 L361.0 86.5 M364.0 85.0 L364.0 85.5 Q366.3 85.5 364.0 85.0 M362.0 76.5 Q364.3 76.5 362.0 76.0 L362.0 76.5 M345.65 76.15 L345.75 76.5 Q346.6 76.4 345.65 76.15 M354.0 92.0 L354.0 92.5 Q356.3 92.5 354.0 92.0 M347.0 77.0 L347.0 77.5 Q349.3 77.5 347.0 77.0 M345.0 79.5 Q347.3 79.5 345.0 79.0 L345.0 79.5 M352.6 94.15 L352.0 94.0 352.0 94.5 352.2 94.5 352.6 94.15 M360.2 88.05 L360.0 88.0 360.0 88.15 360.2 88.05 M356.0 91.0 L356.0 91.5 Q358.3 91.5 356.0 91.0 M363.0 88.5 Q365.3 88.5 363.0 88.0 L363.0 88.5 M358.95 90.25 L358.0 90.0 358.0 90.5 358.9 90.5 358.95 90.25 M380.85 67.5 L381.05 67.45 Q381.3 67.4 381.0 67.3 L380.7 67.2 380.85 67.5 M381.05 69.5 L382.15 69.45 381.95 69.25 381.1 69.05 381.05 69.5 M373.7 74.2 L373.0 74.0 373.0 74.5 373.55 74.5 373.7 74.2 M364.0 94.0 L364.0 94.5 Q366.3 94.5 364.0 94.0 M363.0 97.0 L363.0 97.5 Q365.3 97.5 363.0 97.0 M371.0 76.0 L371.0 76.5 371.1 76.5 371.4 76.1 371.0 76.0 M367.0 81.0 L367.0 81.5 Q369.3 81.5 367.0 81.0 M366.0 83.0 L366.0 83.5 Q368.3 83.5 366.0 83.0 M371.4 80.1 L371.0 80.0 371.0 80.5 372.05 80.45 Q372.45 80.35 371.4 80.1 M394.0 75.5 Q395.95 75.5 394.6 75.15 L394.0 75.2 394.0 75.5 M391.15 75.5 Q393.05 75.5 391.3 75.1 L391.15 75.5 M365.0 74.5 Q367.3 74.5 365.0 74.0 L365.0 74.5 M387.0 79.2 L387.0 79.5 Q389.1 79.5 387.4 79.1 L387.0 79.2 M361.0 99.5 Q363.2 99.5 361.25 99.05 L361.0 99.5 M349.25 100.05 L349.0 100.0 349.0 100.5 349.15 100.5 349.25 100.05 M353.0 109.5 Q355.3 109.5 353.0 109.0 L353.0 109.5 M351.0 108.0 L351.0 108.5 Q353.3 108.5 351.0 108.0 M349.15 103.05 L349.0 103.0 349.0 103.5 349.2 103.5 349.15 103.05 M350.0 105.5 L350.05 105.5 350.0 105.5 M302.0 34.5 Q304.3 34.5 302.0 34.0 L302.0 34.5 M298.0 34.0 L298.0 34.05 298.75 34.2 298.95 34.25 298.0 34.0 M351.0 111.5 Q353.3 111.5 351.0 111.0 L351.0 111.5 M353.0 112.0 L353.0 112.5 Q355.3 112.5 353.0 112.0 M287.35 34.45 L287.85 34.25 287.0 34.0 287.0 34.5 287.3 34.5 287.35 34.45 M285.05 38.0 L285.0 38.0 285.0 38.5 285.1 38.5 285.05 38.0 M315.0 29.5 Q317.3 29.5 315.0 29.0 L315.0 29.5 M323.0 32.0 L323.0 32.45 323.55 32.15 323.0 32.0 M320.0 32.5 Q322.3 32.5 320.0 32.0 L320.0 32.5 M321.05 34.5 L321.35 34.1 321.0 34.0 321.0 34.5 321.05 34.5 M305.0 33.5 Q307.3 33.5 305.0 33.0 L305.0 33.5 M307.0 31.0 L307.0 31.5 308.1 31.45 308.15 31.35 307.0 31.0 M306.0 29.5 Q308.3 29.5 306.0 29.0 L306.0 29.5 M308.0 28.0 L308.0 28.5 Q310.3 28.5 308.0 28.0 M311.0 28.0 L311.0 28.5 Q313.3 28.5 311.0 28.0 M305.05 36.35 L305.1 36.3 304.0 36.0 304.0 36.05 305.05 36.35 M256.0 27.5 Q258.3 27.5 256.0 27.0 L256.0 27.5 M259.0 27.5 Q261.3 27.5 259.0 27.0 L259.0 27.5 M261.0 26.5 Q263.3 26.5 261.0 26.0 L261.0 26.5 M262.0 22.5 Q264.3 22.5 262.0 22.0 L262.0 22.5 M267.0 24.0 L267.0 24.5 Q269.3 24.5 267.0 24.0 M243.9 25.5 Q244.7 25.35 243.0 25.0 L243.0 25.35 243.9 25.5 M267.0 29.0 L267.0 29.5 Q269.3 29.5 267.0 29.0 M283.0 36.0 L283.0 36.5 Q285.3 36.5 283.0 36.0 M277.0 35.0 L277.0 35.5 Q279.3 35.5 277.0 35.0 M275.0 33.0 L275.0 33.5 Q277.3 33.5 275.0 33.0 M253.0 26.0 L253.0 26.5 Q255.3 26.5 253.0 26.0 M250.0 26.0 L250.0 26.5 Q252.25 26.5 250.0 26.0 M265.85 30.25 L265.95 30.45 Q266.4 30.4 265.85 30.25 M267.3 32.5 Q269.15 32.45 267.0 32.0 L267.0 32.5 267.3 32.5 M273.0 31.0 L273.0 31.5 Q275.3 31.5 273.0 31.0 M271.0 33.0 L271.0 33.15 272.0 33.45 Q272.6 33.35 271.0 33.0 M279.05 37.5 Q281.3 37.5 279.0 37.0 L279.0 37.5 279.05 37.5 M282.0 38.5 Q284.3 38.5 282.0 38.0 L282.0 38.5 M274.15 54.05 L274.0 54.0 274.0 54.15 274.15 54.05 M267.8 98.5 L268.15 98.4 267.85 98.45 267.8 98.5 M293.55 68.5 Q294.65 68.45 293.7 68.2 L293.55 68.5 M295.0 70.25 L294.0 70.0 294.0 70.3 295.0 70.3 295.0 70.25 M296.5 77.5 L296.7 77.5 296.7 77.45 296.6 77.45 296.5 77.5 M294.3 79.5 L294.95 79.45 295.1 79.3 294.9 79.25 294.3 79.5 M292.4 97.5 Q293.7 97.45 292.75 97.2 L292.4 97.5 M301.0 91.0 L301.0 91.5 Q303.3 91.5 301.0 91.0 M303.0 89.35 L303.0 89.5 Q305.05 89.5 303.45 89.1 L303.0 89.35 M296.9 93.25 L296.6 93.5 Q297.5 93.45 296.9 93.25 M297.0 95.0 L297.0 95.5 Q299.3 95.5 297.0 95.0 M294.85 95.2 L294.55 95.5 Q295.6 95.45 294.85 95.2 M299.0 93.5 Q301.3 93.5 299.0 93.0 L299.0 93.5 M295.0 97.5 Q297.3 97.5 295.0 97.0 L295.0 97.5 M322.0 81.35 L322.0 81.5 322.25 81.5 322.1 81.3 322.0 81.35 M226.0 6.0 L226.0 6.5 Q228.25 6.5 226.0 6.0 M223.0 6.0 L223.0 6.5 Q225.25 6.5 223.0 6.0 M227.0 9.0 L227.0 9.1 227.15 9.5 Q229.15 9.5 227.0 9.0 M309.0 85.5 Q311.3 85.5 309.0 85.0 L309.0 85.5 M225.55 14.25 L225.25 14.5 Q226.75 14.5 225.65 14.15 L225.55 14.25 M228.0 22.0 L228.0 22.5 Q230.25 22.5 228.0 22.0 M226.0 23.5 Q228.25 23.5 226.0 23.0 L226.0 23.5 M231.0 23.0 L231.0 23.45 231.85 23.5 Q232.7 23.4 231.0 23.0 M213.0 5.5 Q215.25 5.5 213.0 5.0 L213.0 5.5 M227.0 12.0 L227.0 12.5 Q229.25 12.5 227.0 12.0 M241.0 24.5 Q243.3 24.5 241.0 24.0 L241.0 24.5 M237.0 24.0 L237.0 24.5 Q239.3 24.5 237.0 24.0 M214.75 8.2 L214.0 8.0 214.0 8.5 214.15 8.5 214.75 8.2 M204.0 7.0 L204.0 7.5 Q206.25 7.5 204.0 7.0 M203.0 10.5 Q205.25 10.5 203.0 10.0 L203.0 10.5 M203.0 3.5 Q205.25 3.5 203.0 3.0 L203.0 3.5 M207.0 3.0 L207.0 3.5 Q209.25 3.5 207.0 3.0 M205.0 5.0 L205.0 5.5 Q207.25 5.5 205.0 5.0 M206.0 1.5 Q208.25 1.5 206.0 1.0 L206.0 1.5 M220.0 6.0 L220.0 6.5 Q222.25 6.5 220.0 6.0 M209.75 13.25 Q209.5 13.0 209.0 13.0 L208.8 12.45 208.0 12.25 208.0 13.0 207.0 13.0 207.0 15.0 204.0 15.0 203.75 14.25 Q203.5 14.0 203.0 14.0 L203.0 15.0 201.0 15.0 200.75 14.25 Q200.5 14.0 200.0 14.0 L200.0 15.0 199.0 15.0 199.0 14.0 198.75 13.25 198.0 13.0 197.75 12.25 Q197.5 12.0 197.0 12.0 L197.0 13.0 196.0 13.0 196.0 16.0 195.0 16.0 Q195.0 17.0 195.4 17.8 195.5 18.0 196.0 18.0 L197.0 18.0 Q197.0 18.5 197.25 18.75 L198.0 19.0 199.0 19.0 Q199.0 19.5 199.25 19.75 L200.0 20.0 Q200.5 22.25 200.9 20.0 L201.0 19.0 202.0 19.0 202.75 18.75 203.0 18.0 Q204.0 18.0 204.8 17.6 205.0 17.5 205.0 17.0 L208.0 17.0 210.85 16.55 211.0 16.0 212.0 16.0 Q212.5 16.0 212.6 15.8 213.65 13.9 212.0 14.0 L210.0 14.0 209.75 13.25 M220.0 16.5 Q222.25 16.5 220.0 16.0 L220.0 16.5 M212.0 22.0 L212.0 22.5 Q214.25 22.5 212.0 22.0 M211.0 20.0 L211.0 20.5 Q213.25 20.5 211.0 20.0 M203.0 20.5 L204.05 20.45 204.1 20.35 203.0 20.0 203.0 20.5 M205.0 18.0 L205.0 18.5 Q207.25 18.5 205.0 18.0 M212.0 17.0 L212.0 17.5 Q214.25 17.5 212.0 17.0 M209.0 18.0 L209.0 18.5 Q211.25 18.5 209.0 18.0 M213.0 13.5 L213.2 13.5 213.0 13.1 213.0 13.5 M212.0 27.0 L212.0 27.5 Q214.25 27.5 212.0 27.0 M217.0 25.0 L217.0 25.5 Q219.25 25.5 217.0 25.0 M215.0 26.0 L215.0 26.5 Q217.25 26.5 215.0 26.0 M220.0 26.15 L220.25 26.05 220.0 26.0 220.0 26.15 M205.0 12.0 L205.0 12.5 Q207.25 12.5 205.0 12.0 M221.0 24.5 Q223.25 24.5 221.0 24.0 L221.0 24.5 M214.0 20.5 Q216.25 20.5 214.0 20.0 L214.0 20.5 M215.0 15.0 L215.0 15.5 Q217.25 15.5 215.0 15.0 M217.0 16.0 L217.0 16.5 Q219.25 16.5 217.0 16.0 M217.0 18.0 L217.0 18.5 Q219.25 18.5 217.0 18.0 M214.0 18.0 L214.0 18.5 Q216.25 18.5 214.0 18.0 M223.55 25.15 L223.0 25.0 223.0 25.25 223.55 25.15 M194.0 13.0 L194.0 13.5 Q196.25 13.5 194.0 13.0 M191.0 13.5 Q193.25 13.5 191.0 13.0 L191.0 13.5 M190.0 10.0 L190.0 10.5 Q192.25 10.5 190.0 10.0 M184.0 11.0 L184.0 11.5 Q186.25 11.5 184.0 11.0 M201.0 8.5 Q203.25 8.5 201.0 8.0 L201.0 8.5 M200.0 11.0 L200.0 11.5 Q202.25 11.5 200.0 11.0 M199.0 9.0 L199.0 9.5 Q201.25 9.5 199.0 9.0 M196.0 10.5 Q198.25 10.5 196.0 10.0 L196.0 10.5 M193.0 11.5 Q195.25 11.5 193.0 11.0 L193.0 11.5 M193.8 18.5 Q194.65 18.4 193.25 18.05 L193.8 18.5 M163.0 15.5 Q165.25 15.5 163.0 15.0 L163.0 15.5 M164.0 17.0 L164.0 17.5 Q166.25 17.5 164.0 17.0 M165.0 14.5 Q167.25 14.5 165.0 14.0 L165.0 14.5 M168.0 14.0 L168.0 14.5 169.1 14.35 168.0 14.0 M178.0 11.5 Q180.25 11.5 178.0 11.0 L178.0 11.5 M202.0 12.0 L202.0 12.5 Q204.25 12.5 202.0 12.0 M193.0 15.0 L193.0 15.5 Q195.25 15.5 193.0 15.0 M164.9 20.25 L164.0 20.0 164.0 20.5 164.85 20.5 164.9 20.25 M200.0 37.5 L200.65 37.5 Q201.35 37.45 201.0 37.3 L200.0 37.0 200.0 37.5 M172.5 32.5 Q173.75 32.45 172.5 32.15 L172.5 32.5 M169.05 40.45 L169.05 40.3 168.8 40.2 168.75 40.25 168.4 40.5 169.05 40.45 M176.0 12.0 L176.0 12.5 Q178.25 12.5 176.0 12.0 M173.0 13.0 L173.0 13.5 Q175.25 13.5 173.0 13.0 M163.0 22.5 Q165.25 22.5 163.0 22.0 L163.0 22.5 M199.25 57.05 L199.0 57.0 199.0 57.05 199.25 57.05 M169.8 79.2 L169.0 79.45 169.0 79.5 Q170.7 79.5 169.8 79.2 M180.0 77.4 L180.7 77.2 180.0 77.0 180.0 77.4 M197.0 56.4 L197.0 56.5 198.15 56.4 197.0 56.4 M202.0 57.0 L202.0 57.2 202.9 57.25 202.0 57.0 M171.0 98.5 Q172.95 98.5 171.55 98.15 L171.0 98.45 171.0 98.5 M177.0 98.2 L177.0 98.5 Q178.7 98.5 177.85 98.25 L177.0 98.2 M174.75 98.25 L174.0 98.0 174.0 100.0 172.0 100.0 172.0 101.0 171.0 101.0 Q171.0 102.0 171.4 102.8 171.5 103.0 172.0 103.0 L172.0 105.0 Q172.0 105.5 172.25 105.75 L173.0 106.0 Q173.5 106.5 174.0 106.5 L174.0 106.0 174.75 105.75 175.0 105.0 174.75 104.25 174.0 104.0 174.0 102.0 Q175.0 102.0 175.8 101.6 L176.0 101.0 176.75 100.75 177.0 100.0 176.75 99.25 Q176.5 99.0 176.0 99.0 L175.0 99.0 174.75 98.25 M173.6 96.5 L173.65 96.5 173.6 96.45 173.6 96.5 M202.05 76.0 L202.0 76.0 202.0 76.05 202.05 76.0 M189.9 86.5 Q190.45 86.4 189.75 86.2 L189.9 86.5 M191.2 84.05 L191.0 84.1 191.0 84.5 191.25 84.5 191.5 84.2 191.6 84.15 191.2 84.05 M213.15 56.4 L213.1 56.3 212.0 56.35 212.0 56.45 213.15 56.4 M205.0 57.0 L205.0 57.15 205.35 57.1 205.0 57.0 M225.0 67.15 L225.0 67.25 225.6 67.15 225.3 67.1 225.0 67.15 M201.75 95.25 L201.05 95.0 201.0 95.0 201.0 97.0 199.0 97.0 Q199.0 97.5 199.25 97.75 L200.0 98.0 Q200.0 98.5 200.25 98.75 L201.0 99.0 Q200.95 99.85 201.4 100.0 201.85 100.15 202.8 99.6 L203.0 99.0 203.0 98.0 204.0 98.0 204.0 99.0 204.25 99.75 205.0 100.0 205.0 103.0 204.0 103.0 204.25 103.75 205.0 104.0 205.0 105.0 204.0 105.0 Q204.0 106.0 204.4 106.8 204.5 107.0 205.0 107.0 205.0 107.5 205.25 107.75 L206.0 108.0 206.75 107.75 207.0 107.0 207.0 106.0 206.75 105.25 Q206.5 105.0 206.0 105.0 L206.0 103.0 206.5 103.0 206.0 102.0 206.0 99.0 206.5 99.0 206.0 98.0 205.0 98.0 205.0 97.0 204.75 96.25 204.0 96.0 202.0 96.0 201.75 95.25 M196.95 97.25 L196.65 97.5 Q197.45 97.45 196.95 97.25 M184.2 97.05 L184.0 97.0 184.0 97.5 184.2 97.5 184.25 97.45 184.2 97.05 M221.0 75.0 L221.0 75.25 221.55 75.15 221.0 75.0 M208.55 79.5 Q209.5 79.45 208.95 79.25 L208.45 79.4 208.55 79.5 M207.3 92.1 L207.0 92.0 207.0 92.5 207.35 92.5 207.35 92.4 207.3 92.1 M205.0 94.0 L205.0 94.5 Q207.25 94.5 205.0 94.0 M221.0 98.4 L221.0 101.0 219.1 101.0 219.05 101.2 219.25 101.75 220.0 102.0 220.0 103.0 219.0 103.0 219.0 104.0 218.0 104.0 218.0 105.0 216.0 105.0 216.0 107.0 215.0 107.0 215.0 109.0 213.0 109.0 213.0 110.0 211.0 110.0 211.0 112.0 207.0 112.0 207.0 113.0 206.0 113.0 Q206.0 113.5 206.25 113.75 L207.0 114.0 208.0 114.0 Q207.9 115.65 209.8 114.6 L210.0 114.0 212.0 114.0 212.75 113.75 213.0 113.0 213.75 112.75 214.0 112.0 215.75 112.0 216.0 111.9 216.8 111.6 217.0 111.0 217.75 110.75 218.0 110.0 218.75 109.75 219.0 109.0 219.75 108.75 220.0 108.0 221.0 108.0 221.75 107.75 222.0 107.0 222.0 106.0 222.75 105.75 223.0 105.0 223.0 104.0 223.75 103.75 224.0 103.0 224.0 98.0 223.75 97.25 223.3 97.1 223.0 97.3 223.0 98.0 221.7 98.0 221.0 98.4 M220.3 88.1 L220.25 88.05 220.0 88.1 220.0 88.45 220.3 88.1 M233.0 84.15 L233.0 84.5 233.5 84.5 233.0 84.15 M226.0 101.45 L226.05 101.3 225.0 101.0 225.0 101.5 226.0 101.45 M226.1 99.05 L226.0 99.0 226.0 99.5 226.1 99.5 226.1 99.05 M225.15 104.05 L225.0 104.0 225.0 104.35 225.15 104.05 M220.0 109.0 L220.0 109.5 220.25 109.5 220.65 109.15 220.0 109.0 M213.0 106.5 Q215.25 106.5 213.0 106.0 L213.0 106.5 M233.0 116.0 L233.0 116.5 Q235.3 116.5 233.0 116.0 M239.0 116.5 Q241.25 116.5 239.0 116.0 L239.0 116.5 M242.0 117.0 L242.0 117.5 Q244.25 117.5 242.0 117.0 M230.0 118.5 Q232.25 118.5 230.0 118.0 L230.0 118.5 M224.25 118.05 L224.0 118.0 224.0 118.5 224.8 118.5 224.25 118.05 M204.1 109.5 Q206.2 109.5 204.0 109.0 L204.0 109.25 204.1 109.5 M209.0 110.0 L209.0 110.5 Q211.25 110.5 209.0 110.0 M211.0 108.0 L211.0 108.5 Q213.25 108.5 211.0 108.0 M207.0 109.0 L207.0 109.5 Q209.25 109.5 207.0 109.0 M208.15 107.15 L208.0 107.1 208.0 107.5 208.95 107.45 208.15 107.15 M205.0 115.0 L205.0 115.5 Q207.25 115.5 205.0 115.0 M204.0 112.0 L204.0 112.5 Q206.25 112.5 204.0 112.0 M211.0 115.0 L211.0 115.5 Q213.25 115.5 211.0 115.0 M214.2 113.05 L214.0 113.0 214.0 113.25 214.2 113.05 M200.0 100.5 L201.15 100.4 Q201.15 100.25 200.0 100.0 L200.0 100.5 M202.0 101.0 L202.0 101.5 Q204.25 101.5 202.0 101.0 M206.0 111.5 Q208.25 111.5 206.0 111.0 L206.0 111.5 M221.0 118.0 L221.0 118.5 Q223.25 118.5 221.0 118.0 M195.6 109.35 L195.3 109.5 195.7 109.5 195.6 109.35 M202.4 107.2 L202.75 107.5 Q203.75 107.4 202.25 107.05 L202.4 107.2 M183.8 109.5 Q184.35 109.45 184.0 109.3 L183.8 109.45 183.8 109.5 M191.35 99.1 L191.25 99.05 191.25 99.5 191.45 99.5 191.35 99.1 M185.05 117.0 L185.0 117.0 185.0 117.5 185.45 117.5 185.05 117.0 M183.0 115.0 L183.0 115.5 Q185.25 115.5 183.0 115.0 M178.75 101.2 L178.0 101.0 178.0 101.5 178.75 101.5 178.75 101.2 M175.0 103.5 Q177.25 103.5 175.0 103.0 L175.0 103.5 M169.0 100.15 L169.0 100.5 Q171.2 100.5 169.05 100.0 L169.0 100.15 M169.0 103.0 L169.0 103.5 Q171.25 103.5 169.0 103.0 M167.75 102.5 Q168.45 102.4 167.9 102.25 L167.75 102.5 M166.7 104.35 L167.1 104.35 166.75 104.2 166.7 104.35 M171.0 106.0 L171.0 106.5 Q173.25 106.5 171.0 106.0 M170.0 116.35 L170.0 116.5 Q171.95 116.5 170.5 116.15 L170.0 116.35 M304.0 110.0 L304.0 110.5 Q306.3 110.5 304.0 110.0 M165.0 118.5 Q166.9 118.5 165.6 118.15 L165.2 118.05 165.0 118.25 165.0 118.5 M304.0 112.3 L303.9 112.5 Q304.35 112.4 304.0 112.3 M303.0 108.0 L303.0 108.5 Q305.3 108.5 303.0 108.0 M300.0 108.5 Q302.3 108.5 300.0 108.0 L300.0 108.5 M297.0 108.5 Q299.3 108.5 297.0 108.0 L297.0 108.5 M306.0 111.5 Q308.3 111.5 306.0 111.0 L306.0 111.5 M304.0 118.0 L304.0 118.5 Q306.3 118.5 304.0 118.0 M304.0 115.0 L304.0 115.5 Q306.3 115.5 304.0 115.0 M305.0 113.0 L305.0 113.5 Q307.3 113.5 305.0 113.0 M288.9 101.5 Q289.45 101.4 288.8 101.2 L288.9 101.5 M290.2 99.45 L290.15 99.5 Q291.9 99.5 290.55 99.15 L290.2 99.45 M287.0 111.5 L287.65 111.5 287.0 111.2 287.0 111.5 M293.0 105.0 L293.0 105.5 Q295.3 105.5 293.0 105.0 M288.0 114.0 L288.0 114.2 288.25 114.05 288.0 114.0 M286.05 123.3 L285.95 123.35 285.8 123.5 Q286.35 123.45 286.05 123.3 M289.35 122.1 L289.0 122.0 289.0 122.5 289.85 122.5 289.35 122.1 M303.4 123.5 Q304.85 123.45 303.5 123.15 L303.4 123.5 M302.7 114.5 Q303.65 114.4 302.65 114.15 L302.7 114.5 M302.7 117.5 Q303.6 117.4 302.75 117.2 L302.7 117.45 302.7 117.5 M289.7 135.15 L289.0 135.0 289.0 135.5 289.7 135.5 289.7 135.15 M287.0 140.0 L287.0 140.5 Q289.3 140.5 287.0 140.0 M285.0 138.0 L285.0 138.5 Q287.3 138.5 285.0 138.0 M287.0 137.0 L287.0 137.5 Q289.3 137.5 287.0 137.0 M289.0 139.5 Q291.3 139.5 289.0 139.0 L289.0 139.5 M291.0 137.0 L291.0 137.5 Q293.3 137.5 291.0 137.0 M303.75 120.5 Q304.6 120.4 303.7 120.15 L303.75 120.5 M272.0 115.0 L272.0 115.5 Q274.3 115.5 272.0 115.0 M273.0 117.0 L273.0 117.5 Q275.3 117.5 273.0 117.0 M271.0 113.5 Q273.3 113.5 271.0 113.0 L271.0 113.5 M261.0 104.15 L261.0 104.5 261.65 104.5 261.0 104.15 M156.0 22.0 L156.0 22.5 Q158.25 22.5 156.0 22.0 M147.0 24.0 L147.0 24.5 Q149.25 24.5 147.0 24.0 M283.0 139.0 L283.0 139.5 Q285.3 139.5 283.0 139.0 M283.0 124.0 L283.0 124.5 Q285.3 124.5 283.0 124.0 M245.0 117.0 L245.0 117.5 Q247.3 117.5 245.0 117.0 M247.0 115.0 L247.0 115.5 Q249.25 115.5 247.0 115.0 M255.0 104.5 Q256.7 104.5 255.9 104.25 L255.0 104.5 M159.25 23.75 L160.0 24.0 160.5 24.0 160.0 23.0 159.0 23.0 159.25 23.75 M140.0 31.5 Q142.25 31.5 140.0 31.0 L140.0 31.5 M134.0 35.0 L134.0 35.45 134.75 35.3 135.0 35.3 134.0 35.0 M141.0 29.0 L141.0 29.5 Q143.25 29.5 141.0 29.0 M141.05 35.05 L141.0 35.0 141.0 35.1 141.05 35.05 M128.0 34.5 Q130.25 34.5 128.0 34.0 L128.0 34.5 M131.0 34.0 L131.0 34.5 Q133.25 34.5 131.0 34.0 M129.0 36.0 L129.0 36.5 Q131.25 36.5 129.0 36.0 M127.0 31.0 L127.0 31.5 Q129.25 31.5 127.0 31.0 M131.0 39.0 L131.0 39.5 131.2 39.5 131.15 39.05 131.0 39.0 M127.0 41.5 Q129.25 41.5 127.0 41.0 L127.0 41.5 M128.0 39.0 L128.0 39.5 Q130.25 39.5 128.0 39.0 M121.8 48.5 Q122.45 48.4 121.85 48.25 L121.8 48.5 M140.0 48.0 L140.0 48.5 Q142.25 48.5 140.0 48.0 M139.0 44.15 L139.0 44.5 139.3 44.5 139.0 44.15 M131.0 48.0 L131.0 48.5 Q133.25 48.5 131.0 48.0 M129.0 46.0 L129.0 46.5 Q131.25 46.5 129.0 46.0 M155.25 31.05 L155.0 31.0 155.0 31.5 155.05 31.5 155.25 31.05 M154.3 34.5 L154.35 34.1 154.0 34.0 154.0 34.5 154.3 34.5 M142.0 32.5 Q144.25 32.5 142.0 32.0 L142.0 32.5 M146.0 26.0 L146.0 26.5 Q148.25 26.5 146.0 26.0 M154.0 36.0 L154.0 36.5 154.2 36.5 154.2 36.05 154.0 36.0 M153.25 38.05 L153.0 38.0 153.0 38.3 153.25 38.05 M118.0 32.0 L118.0 32.5 Q120.25 32.5 118.0 32.0 M115.0 32.5 Q117.25 32.5 115.0 32.0 L115.0 32.5 M116.0 30.0 L116.0 30.5 Q118.25 30.5 116.0 30.0 M114.0 28.0 L114.0 28.5 Q116.25 28.5 114.0 28.0 M113.0 30.0 L113.0 30.5 Q115.25 30.5 113.0 30.0 M116.0 26.0 L116.0 26.5 Q118.25 26.5 116.0 26.0 M119.0 26.5 Q121.25 26.5 119.0 26.0 L119.0 26.5 M118.0 28.0 L118.0 28.5 Q120.25 28.5 118.0 28.0 M92.0 43.5 Q94.25 43.5 92.0 43.0 L92.0 43.5 M97.0 42.5 Q99.25 42.5 97.0 42.0 L97.0 42.5 M91.0 45.0 L91.0 45.5 Q93.25 45.5 91.0 45.0 M90.0 47.0 L90.0 47.5 Q92.25 47.5 90.0 47.0 M81.4 49.1 L81.0 49.0 81.0 49.5 81.1 49.5 81.4 49.1 M91.0 41.0 L91.0 41.5 Q93.25 41.5 91.0 41.0 M118.35 35.5 Q120.0 35.45 118.15 35.05 L118.35 35.5 M120.0 39.5 Q122.25 39.5 120.0 39.0 L120.0 39.5 M109.0 48.0 L109.0 48.5 110.15 48.4 Q110.15 48.25 109.0 48.0 M105.0 47.5 Q107.25 47.5 105.0 47.0 L105.0 47.5 M110.0 39.0 L110.0 39.5 Q112.25 39.5 110.0 39.0 M110.0 34.5 Q112.25 34.5 110.0 34.0 L110.0 34.5 M111.0 32.0 L111.0 32.5 Q113.25 32.5 111.0 32.0 M120.0 34.5 Q122.25 34.5 120.0 34.0 L120.0 34.5 M112.1 41.05 L112.0 41.0 112.0 41.5 112.35 41.5 112.1 41.05 M113.2 47.05 L113.0 47.0 113.0 47.4 113.2 47.05 M119.0 37.5 Q121.25 37.5 119.0 37.0 L119.0 37.5 M118.0 52.45 L118.0 52.5 Q119.85 52.5 118.65 52.15 L118.0 52.45 M111.0 55.0 L111.0 55.05 111.6 55.5 Q112.9 55.45 111.0 55.0 M113.0 57.0 L113.0 57.5 Q115.25 57.5 113.0 57.0 M112.0 52.5 Q114.25 52.5 112.0 52.0 L112.0 52.5 M109.9 54.5 Q110.55 54.4 109.35 54.1 L109.3 54.3 109.9 54.5 M101.0 84.35 L101.0 84.5 102.1 84.4 101.0 84.35 M88.0 79.45 L88.0 79.5 88.15 79.5 88.0 79.45 M110.0 51.0 L110.0 51.5 Q112.25 51.5 110.0 51.0 M102.45 86.1 L102.0 86.0 102.0 86.3 102.45 86.1 M132.0 50.5 Q134.25 50.5 132.0 50.0 L132.0 50.5 M136.0 60.05 L136.0 60.5 136.05 60.5 136.35 60.25 136.0 60.05 M124.0 55.0 L124.0 55.35 124.7 55.2 124.0 55.0 M127.2 52.05 L127.0 52.0 127.0 52.25 127.2 52.05 M126.25 54.05 L126.0 54.0 126.0 54.5 126.2 54.5 126.25 54.05 M130.05 95.45 L129.0 95.4 129.0 95.5 130.0 95.45 130.05 95.45 M6.55 46.15 L6.0 46.0 6.0 46.5 6.5 46.5 6.55 46.15 M9.0 42.0 L9.0 42.5 Q11.25 42.5 9.0 42.0 M76.0 47.0 L76.0 47.5 Q78.25 47.5 76.0 47.0 M79.0 47.5 Q81.25 47.5 79.0 47.0 L79.0 47.5 M111.0 49.0 L111.0 49.5 Q113.25 49.5 111.0 49.0 M147.55 89.15 L147.45 89.1 147.35 89.2 147.55 89.15 M7.0 44.0 L7.0 44.5 7.15 44.5 7.5 44.15 7.0 44.0 M36.0 59.0 L36.0 59.5 Q38.25 59.5 36.0 59.0 M34.0 51.5 Q36.25 51.5 34.0 51.0 L34.0 51.5 M32.0 53.3 L32.0 53.5 Q34.15 53.5 32.2 53.05 L32.0 53.3 M22.0 44.0 L22.0 44.5 Q24.25 44.5 22.0 44.0 M24.0 46.5 Q26.25 46.5 24.0 46.0 L24.0 46.5 M21.0 46.5 Q23.25 46.5 21.0 46.0 L21.0 46.5 M19.0 44.0 L19.0 44.5 Q21.25 44.5 19.0 44.0 M16.0 44.5 Q18.25 44.5 16.0 44.0 L16.0 44.5 M11.0 43.0 L11.0 43.1 11.95 43.45 Q12.55 43.35 11.0 43.0 M22.0 52.2 L22.0 52.5 22.4 52.5 22.0 52.2 M22.0 66.0 L22.0 66.5 Q24.25 66.5 22.0 66.0 M25.0 70.0 L25.0 70.5 25.05 70.5 25.3 70.1 25.0 70.0 M21.5 70.0 L21.0 69.0 20.8 68.1 20.0 67.0 19.75 66.25 19.0 66.0 18.75 65.25 18.0 65.0 18.0 66.0 17.0 66.0 Q17.0 66.5 17.25 66.75 L18.0 67.0 18.0 68.0 18.25 68.75 19.0 69.0 19.0 70.0 18.1 70.2 Q17.5 70.5 17.0 71.0 L16.25 71.0 16.2 71.3 16.0 71.95 16.0 72.0 Q16.0 72.5 16.25 72.75 L17.0 73.0 17.0 75.0 Q17.5 75.5 18.1 75.8 L19.0 76.0 19.0 77.0 Q19.0 77.5 19.25 77.75 L20.0 78.0 21.1 78.8 22.0 79.0 Q22.5 79.5 23.0 79.5 L23.0 79.0 23.75 78.75 24.0 78.0 24.5 78.0 24.0 77.0 24.0 76.0 23.75 75.25 Q23.5 75.0 23.0 75.0 L23.0 73.0 22.8 72.1 22.0 71.0 21.0 71.0 21.0 70.0 21.5 70.0 M24.6 73.15 L24.0 73.0 24.0 73.5 24.6 73.5 24.6 73.15 M19.0 52.0 L19.0 52.5 Q21.25 52.5 19.0 52.0 M31.0 73.0 L31.0 73.45 31.2 73.05 31.0 73.0 M36.15 62.05 L36.0 62.0 36.0 62.5 36.15 62.5 36.15 62.05 M23.0 68.5 Q25.25 68.5 23.0 68.0 L23.0 68.5 M13.0 52.0 L13.0 53.0 Q13.0 53.5 13.25 53.75 L14.0 54.0 14.5 54.0 14.0 53.0 13.75 52.25 13.0 52.0 M13.55 55.5 Q14.8 55.45 13.35 55.1 L13.55 55.5 M17.0 63.0 L17.0 63.5 Q19.25 63.5 17.0 63.0 M9.0 64.0 L9.0 64.5 Q11.25 64.5 9.0 64.0 M9.0 61.0 L9.0 61.5 Q11.25 61.5 9.0 61.0 M9.0 59.0 L9.0 59.5 9.25 59.5 9.1 59.05 9.0 59.0 M17.0 59.0 L17.0 59.5 Q19.25 59.5 17.0 59.0 M16.0 61.5 Q18.25 61.5 16.0 61.0 L16.0 61.5 M15.0 57.0 L15.0 57.5 Q17.25 57.5 15.0 57.0 M15.55 65.5 Q16.7 65.45 15.6 65.15 L15.55 65.5 M12.0 73.25 L12.0 73.5 12.35 73.5 12.0 73.25 M15.0 76.0 L15.0 76.5 Q17.25 76.5 15.0 76.0 M18.0 78.5 Q20.25 78.5 18.0 78.0 L18.0 78.5 M2.2 86.25 L2.35 86.1 2.0 86.0 2.0 86.5 2.05 86.5 2.2 86.25 M4.75 84.2 L4.0 84.0 4.0 84.5 4.15 84.5 4.75 84.2 M10.0 88.5 Q11.6 88.5 10.95 88.25 L10.0 88.5 M8.0 83.0 L8.0 83.45 8.1 83.4 9.0 83.3 8.0 83.0 M1.3 88.1 L1.0 88.0 1.0 88.5 1.2 88.5 1.3 88.1 M12.3 89.05 L12.0 89.0 12.0 89.35 12.3 89.05 M36.9 77.25 L36.4 77.1 36.05 77.5 36.85 77.5 36.9 77.25 M26.0 85.35 L26.0 87.0 25.2 87.0 25.1 87.55 25.25 87.75 26.0 88.0 Q26.0 88.5 26.25 88.75 L27.0 89.0 28.0 89.0 28.0 90.0 Q27.9 91.65 29.8 90.6 L30.0 90.0 30.75 89.75 31.0 89.0 31.5 89.0 31.0 88.0 30.75 87.25 30.0 87.0 29.8 86.1 29.0 85.0 28.75 84.25 28.4 84.15 28.15 84.25 28.0 84.35 28.0 85.0 26.7 85.0 26.0 85.35 M29.0 92.5 Q31.25 92.5 29.0 92.0 L29.0 92.5 M28.45 94.5 Q29.75 94.45 28.65 94.15 L28.45 94.5 M40.0 90.0 L40.0 90.5 Q42.25 90.5 40.0 90.0 M39.1 88.5 L39.65 88.5 39.2 88.15 39.1 88.5 M39.0 92.0 L39.25 92.75 40.0 93.0 41.0 93.0 Q41.0 93.5 41.25 93.75 L42.0 94.0 Q42.5 94.5 43.0 94.5 L43.0 93.0 43.75 92.75 44.0 92.0 44.0 91.0 43.75 90.25 43.0 90.0 43.0 91.0 41.0 91.0 41.0 92.0 39.0 92.0 M33.0 88.5 L33.15 88.5 33.2 88.45 33.0 88.35 33.0 88.5 M58.0 54.0 L58.0 54.45 58.7 54.2 58.0 54.0 M56.0 52.0 L56.0 52.5 Q58.25 52.5 56.0 52.0 M59.0 52.5 Q61.25 52.5 59.0 52.0 L59.0 52.5 M61.0 51.0 L61.0 51.5 Q63.25 51.5 61.0 51.0 M63.0 58.0 L63.0 58.1 63.45 58.1 63.0 58.0 M72.4 74.1 L72.0 74.0 72.15 74.3 72.4 74.1 M14.0 74.5 Q16.25 74.5 14.0 74.0 L14.0 74.5 M31.0 90.5 L32.1 90.45 32.15 90.35 31.0 90.0 31.0 90.5 M56.2 55.05 L56.0 55.0 56.0 55.1 56.2 55.05 M44.0 95.0 L44.0 95.5 Q46.25 95.5 44.0 95.0 M47.0 57.0 L47.0 57.5 Q49.25 57.5 47.0 57.0 M41.0 57.0 L41.0 57.5 Q43.25 57.5 41.0 57.0 M50.0 55.0 L50.0 55.5 Q52.25 55.5 50.0 55.0 M47.0 54.0 L47.0 54.5 Q49.25 54.5 47.0 54.0 M53.0 55.5 Q55.25 55.5 53.0 55.0 L53.0 55.5 M74.7 84.4 L74.65 84.5 Q75.5 84.45 74.8 84.2 L74.7 84.4 M73.3 86.1 L73.9 86.5 Q74.55 86.4 73.35 86.1 L73.3 86.1 M74.0 95.0 L74.0 95.05 74.05 95.0 74.0 95.0 M62.75 98.25 Q62.5 98.0 62.0 98.0 L62.0 99.0 58.8 99.0 58.0 99.4 58.0 100.0 57.0 100.0 57.0 102.0 55.0 102.0 Q55.0 102.5 55.25 102.75 L56.0 103.0 56.0 105.0 56.05 105.35 56.3 105.8 57.0 106.0 Q57.0 107.0 57.4 107.8 57.5 108.0 58.0 108.0 L59.0 108.0 59.75 107.75 60.0 107.0 60.5 107.0 60.0 106.0 60.0 105.0 60.5 105.0 60.0 104.0 58.0 104.0 58.0 103.0 58.75 102.75 59.0 102.0 59.75 101.75 60.0 101.0 61.0 101.0 Q62.0 101.0 62.8 100.6 L63.0 100.0 65.0 100.0 Q65.5 100.0 65.6 99.8 66.65 97.9 65.0 98.0 L65.0 99.0 63.0 99.0 62.75 98.25 M70.0 93.0 Q70.0 93.5 70.25 93.75 L71.0 94.0 Q71.0 94.5 71.25 94.75 L72.0 95.0 72.75 94.75 73.0 94.0 74.0 94.0 74.75 93.75 75.0 93.0 75.75 92.75 76.0 92.0 75.75 91.25 75.0 91.0 75.0 92.0 73.0 92.0 73.0 93.0 70.0 93.0 M69.0 97.0 L69.0 97.5 Q71.25 97.5 69.0 97.0 M78.0 80.45 L78.0 80.5 79.0 80.45 78.0 80.45 M76.0 82.5 Q78.25 82.5 76.0 82.0 L76.0 82.5 M79.0 83.0 L78.75 82.25 78.0 82.0 78.0 83.0 77.0 83.0 77.0 85.0 76.0 85.0 76.0 87.0 75.0 87.0 75.25 87.75 76.0 88.0 Q76.0 88.5 76.25 88.75 L77.0 89.0 Q77.0 90.0 77.4 90.8 77.5 91.0 78.0 91.0 L78.25 91.75 79.0 92.0 79.75 91.75 80.0 91.0 80.0 89.0 79.75 88.25 79.0 88.0 79.0 85.0 79.75 84.75 80.0 84.0 79.75 83.25 79.0 83.0 M71.15 96.05 L71.0 96.0 71.0 96.2 71.15 96.05 M77.55 93.15 L77.0 93.0 77.0 93.5 77.2 93.45 77.55 93.15 M72.0 103.2 L72.0 103.5 73.15 103.4 72.0 103.2 M63.0 49.5 Q65.25 49.5 63.0 49.0 L63.0 49.5 M69.0 49.5 Q71.25 49.5 69.0 49.0 L69.0 49.5 M77.0 49.5 Q79.25 49.5 77.0 49.0 L77.0 49.5 M73.0 49.5 Q75.25 49.5 73.0 49.0 L73.0 49.5 M60.0 49.5 Q62.25 49.5 60.0 49.0 L60.0 49.5 M32.0 49.5 Q34.25 49.5 32.0 49.0 L32.0 49.5 M66.0 100.0 L66.0 100.05 66.05 100.0 66.0 100.0 M62.15 102.05 L62.0 102.0 62.0 102.4 62.15 102.05 M60.85 109.25 L60.0 109.0 60.0 109.5 60.85 109.5 60.85 109.25 M62.6 106.15 L62.0 106.0 62.0 106.5 62.25 106.5 62.6 106.15 M67.0 110.15 L67.0 110.5 67.4 110.5 67.0 110.15 M76.0 114.05 L76.0 114.5 Q78.1 114.5 76.3 114.05 L76.0 114.05 M74.0 113.2 L74.0 113.5 74.5 113.5 74.1 113.2 74.0 113.2 M58.5 110.5 Q59.9 110.45 58.25 110.05 L58.5 110.5 M42.9 120.0 L42.55 120.85 43.0 121.0 43.0 123.0 41.0 123.0 41.0 125.0 39.95 125.0 39.25 127.4 39.4 127.8 Q39.5 128.0 40.0 128.0 41.0 128.0 41.8 127.6 L42.0 127.0 42.75 126.75 43.0 126.0 43.0 125.0 43.75 124.75 44.0 124.0 44.0 123.0 Q44.5 123.0 44.6 122.8 45.65 120.9 44.0 121.0 L43.75 120.25 43.0 120.0 42.9 120.0 M46.15 123.35 L46.6 123.15 46.0 123.0 46.0 123.45 46.15 123.35 M58.0 113.25 L58.0 113.5 Q60.15 113.5 58.2 113.05 L58.0 113.25 M60.0 112.0 L60.0 112.5 Q62.25 112.5 60.0 112.0 M51.2 115.35 L51.15 115.5 51.5 115.5 51.2 115.35 M54.0 129.5 Q56.25 129.5 54.0 129.0 L54.0 129.5 M52.65 130.3 L52.8 130.5 Q53.6 130.4 52.5 130.15 L52.65 130.3 M44.55 127.15 L44.0 127.0 44.0 127.5 44.7 127.5 44.55 127.15 M46.0 139.0 L46.0 139.5 Q48.25 139.5 46.0 139.0 M49.0 139.0 L49.0 139.5 Q51.25 139.5 49.0 139.0 M48.0 141.0 L48.0 141.5 Q50.25 141.5 48.0 141.0 M48.0 137.15 L48.0 137.5 Q50.15 137.5 48.2 137.05 L48.0 137.15 M45.0 137.5 L45.35 137.5 45.0 137.45 45.0 137.5 M50.0 142.0 L50.0 142.5 Q52.25 142.5 50.0 142.0 M43.0 139.0 L43.0 139.5 Q45.25 139.5 43.0 139.0 M45.0 141.0 L45.0 141.5 Q47.25 141.5 45.0 141.0 M42.0 137.0 L42.0 137.5 Q44.25 137.5 42.0 137.0 M39.65 106.5 Q40.55 106.45 39.75 106.2 L39.65 106.5 M24.0 114.5 L24.3 114.5 24.0 114.4 24.0 114.5 M26.0 115.5 Q28.25 115.5 26.0 115.0 L26.0 115.5 M28.0 116.5 Q30.25 116.5 28.0 116.0 L28.0 116.5 M31.4 116.1 L31.0 116.0 31.0 116.5 31.9 116.5 31.4 116.1 M35.0 123.0 L35.0 123.1 35.05 123.0 35.0 123.0 M31.25 135.05 L31.0 135.0 31.0 135.5 31.45 135.5 31.25 135.05 M29.0 134.5 Q31.25 134.5 29.0 134.0 L29.0 134.5 M32.0 130.0 L32.0 130.5 Q34.25 130.5 32.0 130.0 M39.0 137.3 L39.0 137.5 Q40.65 137.5 39.9 137.25 L39.0 137.3 M35.0 138.0 L35.0 138.5 Q37.25 138.5 35.0 138.0 M40.0 139.0 L40.0 139.5 Q42.25 139.5 40.0 139.0 M153.5 102.15 L153.0 102.0 153.0 102.5 153.5 102.5 153.5 102.15 M150.75 101.25 L150.0 101.0 150.0 102.0 148.0 102.0 148.0 103.0 145.0 103.0 145.0 104.0 Q145.0 105.0 145.4 105.8 L146.0 106.0 146.75 105.75 147.0 105.0 147.75 104.75 148.0 104.0 149.0 104.0 149.75 103.75 150.0 103.0 150.75 102.75 151.0 102.0 150.75 101.25 M147.0 101.0 L147.0 101.5 Q149.25 101.5 147.0 101.0 M151.2 104.05 L151.0 104.0 151.0 104.15 151.2 104.05 M96.0 102.4 L96.0 102.5 97.15 102.35 96.0 102.4 M138.1 105.45 L137.95 105.25 137.0 105.0 137.0 105.5 138.1 105.45 M140.0 109.0 L140.0 109.5 141.1 109.4 141.05 109.3 140.0 109.0 M90.0 102.5 L90.6 102.5 90.0 102.15 90.0 102.5 M88.0 108.5 Q90.25 108.5 88.0 108.0 L88.0 108.5 M86.85 110.5 Q87.45 110.4 86.75 110.2 L86.85 110.5 M86.0 114.0 L86.0 114.5 Q88.25 114.5 86.0 114.0" fill="#ffdea5" fill-rule="evenodd" stroke="none"/>
  </g>
</svg>
