<?xml version="1.0" encoding="UTF-8" standalone="no"?>
<svg xmlns:xlink="http://www.w3.org/1999/xlink" height="9.0px" width="7.0px" xmlns="http://www.w3.org/2000/svg">
  <g transform="matrix(1.0, 0.0, 0.0, 1.0, 0.0, 0.0)">
    <path d="M6.5 4.9 L7.0 5.0 7.0 6.0 7.0 7.0 7.0 8.0 7.0 9.0 6.0 9.0 5.75 8.25 Q5.5 8.0 5.0 8.0 L5.0 9.0 4.0 9.0 3.0 9.0 2.0 9.0 1.0 9.0 1.0 8.0 1.5 8.0 1.0 7.0 1.0 6.0 0.75 5.25 0.0 5.0 0.0 4.0 1.0 4.0 2.0 4.0 3.0 4.0 3.6 3.8 Q4.65 1.9 3.0 2.0 L3.0 1.0 3.0 0.0 4.0 0.0 5.0 0.0 6.0 0.0 Q6.0 2.5 6.5 4.9" fill="#ffffce" fill-rule="evenodd" stroke="none"/>
  </g>
</svg>
