<?xml version="1.0" encoding="UTF-8" standalone="no"?>
<svg xmlns:xlink="http://www.w3.org/1999/xlink" height="36.0px" width="29.0px" xmlns="http://www.w3.org/2000/svg">
  <g transform="matrix(1.0, 0.0, 0.0, 1.0, 0.0, 0.0)">
    <path d="M22.0 12.0 Q22.0 12.5 22.25 12.75 L23.0 13.0 Q23.0 13.5 23.25 13.75 L24.0 14.0 25.0 14.0 26.0 14.0 Q26.5 14.5 27.0 14.5 L27.0 14.0 28.0 14.0 29.0 14.0 29.0 15.0 28.0 15.0 28.0 16.0 28.0 17.0 28.0 18.0 Q28.0 18.5 28.25 18.75 L29.0 19.0 29.0 20.0 29.0 21.0 28.0 21.0 Q28.0 22.0 28.4 22.8 L29.0 23.0 29.0 24.0 28.0 24.0 27.0 24.0 26.0 24.0 25.0 24.0 24.75 23.25 24.0 23.0 24.0 24.0 23.0 24.0 23.0 25.0 22.0 25.0 22.0 28.0 22.0 29.0 22.0 30.0 Q22.0 30.5 22.25 30.75 L23.0 31.0 Q23.0 31.5 23.25 31.75 L24.0 32.0 24.0 34.0 24.0 35.0 24.0 36.0 23.0 36.0 22.75 35.25 22.0 35.0 21.0 35.0 20.75 34.25 Q20.6 34.1 20.3 34.05 L20.0 34.15 20.0 35.0 19.0 35.0 18.0 35.0 17.0 35.0 16.0 35.0 15.75 34.25 15.0 34.0 14.0 34.0 14.0 33.0 13.75 32.25 13.0 32.0 12.75 31.25 12.0 31.0 11.75 30.25 Q11.5 30.0 11.0 30.0 L10.0 30.0 9.75 29.25 9.0 29.0 8.0 29.0 7.75 28.25 7.0 28.0 6.0 28.0 5.0 28.0 4.75 27.25 4.0 27.0 4.0 28.0 3.0 28.0 2.75 27.25 Q2.5 27.0 2.0 27.0 L1.75 26.25 1.0 26.0 0.0 26.0 0.0 25.0 0.75 24.75 1.0 24.0 1.75 23.75 2.0 23.0 2.75 22.75 3.0 22.0 3.75 21.75 4.0 21.0 4.0 20.0 4.0 17.0 4.0 16.0 4.0 15.0 4.0 14.0 4.0 13.0 4.0 12.0 3.75 11.25 3.0 11.0 3.0 10.0 4.0 10.0 4.75 9.75 5.0 9.0 5.0 8.0 5.0 7.0 6.0 7.0 6.75 6.75 7.0 6.0 7.75 5.75 8.0 5.0 8.75 4.75 9.0 4.0 9.0 3.0 9.0 2.0 9.75 1.75 10.0 1.0 11.0 1.0 Q11.5 1.5 12.0 1.5 L12.0 1.0 12.0 0.0 13.0 0.0 14.0 0.0 15.0 0.0 15.0 1.0 14.0 1.0 14.0 2.0 13.0 2.0 Q13.0 2.5 13.25 2.75 L14.0 3.0 14.0 4.0 14.0 5.0 13.0 5.0 Q13.0 5.5 13.25 5.75 L14.0 6.0 15.0 6.0 Q15.0 7.0 15.4 7.8 15.5 8.0 16.0 8.0 L16.0 9.0 Q16.0 10.0 16.4 10.8 L17.0 11.0 Q17.0 11.5 17.25 11.75 L18.0 12.0 19.0 12.0 Q19.5 12.5 20.0 12.5 L20.0 12.0 21.0 12.0 22.0 12.0 M14.85 9.5 Q15.45 9.4 14.75 9.2 L14.85 9.5 M8.0 6.0 L8.0 6.05 8.05 6.0 8.0 6.0 M6.2 8.05 L6.0 8.0 6.0 8.45 6.2 8.05 M5.35 15.1 L5.0 15.0 5.0 15.5 5.15 15.5 5.35 15.1 M5.0 21.0 L5.0 21.35 5.1 21.2 5.1 21.05 5.0 21.0 M5.0 18.0 L5.0 18.5 5.05 18.0 5.0 18.0 M2.05 25.0 L2.0 25.0 2.0 25.5 2.2 25.5 2.15 25.45 2.05 25.0" fill="#ffdea5" fill-rule="evenodd" stroke="none"/>
  </g>
</svg>
