<?xml version="1.0" encoding="UTF-8" standalone="no"?>
<svg xmlns:xlink="http://www.w3.org/1999/xlink" height="27.0px" width="32.0px" xmlns="http://www.w3.org/2000/svg">
  <g transform="matrix(1.0, 0.0, 0.0, 1.0, 0.0, 0.0)">
    <path d="M31.0 6.0 L30.0 6.0 30.25 6.75 31.0 7.0 Q31.0 7.5 31.25 7.75 L32.0 8.0 32.0 9.0 31.0 9.0 31.0 10.0 Q31.0 10.5 31.25 10.75 L32.0 11.0 32.0 12.0 32.0 13.0 31.0 13.0 31.0 14.0 31.0 15.0 Q31.0 15.5 31.25 15.75 L32.0 16.0 31.75 16.75 31.0 17.0 30.0 17.0 30.0 18.0 29.0 18.0 28.0 18.0 27.0 18.0 26.0 18.0 26.0 19.0 25.0 19.0 Q25.0 18.5 24.8 18.4 L23.0 18.0 22.0 18.0 21.0 18.0 Q21.0 19.0 21.4 19.8 21.5 20.0 22.0 20.0 22.0 21.0 22.4 21.8 L23.0 22.0 23.0 23.0 23.0 24.0 23.0 25.0 22.0 25.0 22.0 26.0 21.0 26.0 20.0 26.0 19.0 26.0 18.0 26.0 18.0 27.0 17.0 27.0 16.75 26.25 16.0 26.0 16.0 25.0 15.75 24.25 15.0 24.0 15.0 23.0 15.0 20.0 14.75 19.25 Q14.5 19.0 14.0 19.0 L14.0 18.0 14.0 15.0 Q14.5 15.0 14.6 14.8 15.65 12.9 14.0 13.0 L13.9 12.45 10.0 12.0 9.0 12.0 8.0 12.0 7.0 12.0 7.0 11.0 Q7.0 10.5 6.8 10.4 L5.0 10.0 5.0 11.0 4.0 11.0 3.0 11.0 2.8 10.4 1.0 10.0 1.0 9.0 1.0 8.0 1.5 8.0 1.0 7.0 1.0 6.0 0.75 5.25 0.0 5.0 0.0 4.0 0.5 4.0 0.0 3.0 0.0 2.0 0.0 1.0 0.75 0.75 1.0 0.0 2.0 0.0 2.0 1.0 Q1.9 2.65 3.8 1.6 4.0 1.5 4.0 1.0 L5.0 1.0 5.75 0.75 6.0 0.0 10.0 0.0 11.0 0.0 Q11.0 1.0 11.4 1.8 11.5 2.0 12.0 2.0 L12.25 2.75 13.0 3.0 14.0 3.0 14.75 2.75 15.0 2.0 16.0 2.0 17.0 2.0 Q17.0 2.5 17.25 2.75 L18.0 3.0 19.0 3.0 Q19.3 4.7 21.8 3.6 22.0 3.5 22.0 3.0 L23.0 3.0 24.0 3.0 24.75 2.75 25.0 2.0 26.0 2.0 Q26.0 2.5 26.25 2.75 L27.0 3.0 Q26.9 4.65 29.05 4.1 L30.0 4.0 30.25 4.75 31.0 5.0 31.0 6.0" fill="#bdd6bd" fill-rule="evenodd" stroke="none"/>
  </g>
</svg>
