<?xml version="1.0" encoding="UTF-8" standalone="no"?>
<svg xmlns:xlink="http://www.w3.org/1999/xlink" height="16.0px" width="10.0px" xmlns="http://www.w3.org/2000/svg">
  <g transform="matrix(1.0, 0.0, 0.0, 1.0, 0.0, 0.0)">
    <path d="M7.1 1.8 L8.0 2.0 8.0 3.0 Q8.0 3.5 8.25 3.75 L9.0 4.0 9.0 5.0 9.0 6.0 9.0 7.0 8.0 7.0 7.0 7.0 7.0 8.0 7.0 9.0 7.0 10.0 7.0 11.0 Q7.0 11.5 7.25 11.75 L8.0 12.0 Q8.0 12.5 8.25 12.75 L9.0 13.0 9.25 13.75 10.0 14.0 10.0 15.0 9.0 15.0 8.0 15.0 8.0 16.0 7.0 16.0 6.0 16.0 5.0 16.0 4.0 16.0 3.75 15.25 3.0 15.0 3.0 14.0 3.0 13.0 3.75 12.75 4.0 12.0 4.6 11.8 Q5.65 9.9 4.0 10.0 L3.75 9.25 3.0 9.0 3.0 8.0 2.75 7.25 Q2.5 7.0 2.0 7.0 L1.75 6.25 1.0 6.0 0.0 6.0 0.0 5.0 0.0 4.0 0.0 3.0 0.0 2.0 0.0 1.0 0.75 0.75 1.0 0.0 2.0 0.0 3.0 0.0 3.25 0.75 4.0 1.0 Q4.5 1.5 5.0 1.5 L5.0 1.0 6.0 1.0 7.1 1.8" fill="#ffffce" fill-rule="evenodd" stroke="none"/>
  </g>
</svg>
