<?xml version="1.0" encoding="UTF-8" standalone="no"?>
<svg xmlns:xlink="http://www.w3.org/1999/xlink" height="8.0px" width="9.0px" xmlns="http://www.w3.org/2000/svg">
  <g transform="matrix(1.0, 0.0, 0.0, 1.0, 0.0, 0.0)">
    <path d="M9.0 2.0 L9.0 3.0 9.0 4.0 9.0 5.0 9.0 6.0 8.0 6.0 Q8.0 6.5 8.25 6.75 L9.0 7.0 9.0 8.0 8.0 8.0 6.0 8.0 5.8 7.4 4.0 7.0 3.0 7.0 2.0 7.0 1.8 6.4 0.0 6.0 0.0 5.0 1.75 2.85 2.0 2.0 2.0 1.0 2.75 0.75 3.0 0.0 4.0 0.0 Q4.0 0.5 4.25 0.75 L5.0 1.0 6.0 1.0 6.75 0.75 7.0 0.0 8.0 0.0 Q8.0 0.5 8.25 0.75 L9.0 1.0 9.0 2.0" fill="#deb5d6" fill-rule="evenodd" stroke="none"/>
  </g>
</svg>
