<?xml version="1.0" encoding="UTF-8" standalone="no"?>
<svg xmlns:xlink="http://www.w3.org/1999/xlink" height="47.0px" width="33.0px" xmlns="http://www.w3.org/2000/svg">
  <g transform="matrix(1.0, 0.0, 0.0, 1.0, 0.0, 0.0)">
    <path d="M29.0 6.0 L29.0 7.0 28.0 7.0 28.0 8.0 28.0 9.0 27.0 9.0 27.0 10.0 26.0 10.0 25.0 10.0 24.0 10.0 24.0 11.0 23.0 11.0 22.0 11.0 22.0 12.0 21.0 12.0 21.0 14.0 21.0 15.0 21.0 16.0 20.0 16.0 20.0 17.0 19.0 17.0 19.0 18.0 18.0 18.0 18.25 18.75 19.0 19.0 Q19.0 19.5 19.25 19.75 L20.0 20.0 Q20.0 20.5 20.25 20.75 L21.0 21.0 21.0 22.0 Q21.0 23.0 21.4 23.8 21.5 24.0 22.0 24.0 L23.0 24.0 Q23.0 24.5 23.25 24.75 L24.0 25.0 24.25 25.75 25.0 26.0 Q26.0 26.0 26.8 25.6 L27.0 25.0 28.0 25.0 28.0 26.0 28.0 27.0 Q28.0 27.5 28.25 27.75 L29.0 28.0 30.0 28.0 31.0 28.0 Q31.0 28.5 31.25 28.75 L32.0 29.0 Q32.0 29.5 32.25 29.75 L33.0 30.0 33.0 31.0 33.0 32.0 33.0 33.0 33.0 34.0 32.0 34.0 32.0 36.0 32.0 37.0 32.0 38.0 32.0 39.0 31.0 39.0 30.0 39.0 30.0 40.0 30.0 41.0 30.25 41.75 31.0 42.0 31.0 43.0 31.0 44.0 30.0 44.0 30.0 46.0 30.0 47.0 29.0 47.0 28.75 46.25 28.0 46.0 27.0 46.0 26.75 45.25 Q26.5 45.0 26.0 45.0 L25.75 44.25 25.0 44.0 24.75 43.25 24.0 43.0 23.0 43.0 22.75 42.25 22.0 42.0 21.75 41.25 21.0 41.0 20.0 41.0 19.0 41.0 18.75 40.25 18.0 40.0 17.0 40.0 16.75 39.25 16.0 39.0 15.75 38.25 15.0 38.0 14.75 37.25 Q14.5 37.0 14.0 37.0 L14.0 36.0 13.75 35.25 13.0 35.0 13.0 34.0 13.6 33.8 Q14.65 31.35 12.0 32.0 L11.75 31.25 Q11.5 31.0 11.0 31.0 L10.4 30.8 Q10.0 30.0 10.0 29.0 L10.0 28.0 9.8 27.1 9.0 26.0 9.0 25.0 8.75 24.25 Q8.5 24.0 8.0 24.0 L7.8 23.1 7.0 22.0 6.75 21.25 6.0 21.0 6.0 20.0 5.75 19.25 Q5.5 19.0 5.0 19.0 L4.75 18.25 4.0 18.0 3.75 17.25 3.0 17.0 2.75 16.25 Q2.5 16.0 2.0 16.0 L1.75 15.25 1.0 15.0 1.0 14.0 1.0 13.0 0.75 12.25 0.0 12.0 0.0 11.0 0.0 10.0 1.0 10.0 Q1.0 10.5 1.25 10.75 L2.0 11.0 3.0 11.0 4.0 11.0 Q4.0 11.5 4.25 11.75 L5.0 12.0 6.0 12.0 6.75 11.75 7.0 11.0 7.0 10.0 7.8 8.9 8.0 8.0 8.0 7.0 9.0 7.0 10.0 7.0 10.75 6.75 11.0 6.0 12.0 6.0 12.75 5.75 13.0 5.0 13.75 4.75 14.0 4.0 14.75 3.75 15.0 3.0 15.75 2.75 16.0 2.0 16.0 1.0 16.0 0.0 17.1 0.8 18.0 1.0 18.25 1.75 19.0 2.0 20.0 2.0 Q20.0 3.0 20.4 3.8 20.5 4.0 21.0 4.0 L21.25 4.75 22.0 5.0 Q24.25 7.2 27.15 5.25 27.5 5.0 28.0 5.0 28.0 5.5 28.25 5.75 L29.0 6.0" fill="#bdd6bd" fill-rule="evenodd" stroke="none"/>
  </g>
</svg>
