<?xml version="1.0" encoding="UTF-8" standalone="no"?>
<svg xmlns:xlink="http://www.w3.org/1999/xlink" height="34.0px" width="30.0px" xmlns="http://www.w3.org/2000/svg">
  <g transform="matrix(1.0, 0.0, 0.0, 1.0, 0.0, 0.0)">
    <path d="M22.0 10.0 Q22.0 10.5 22.25 10.75 L23.0 11.0 23.0 14.0 23.0 15.0 23.0 16.0 Q23.0 16.5 23.25 16.75 L24.0 17.0 25.1 17.8 26.0 18.0 Q26.5 18.5 27.0 18.5 L27.0 18.0 28.0 18.0 28.0 19.0 Q28.0 19.5 28.25 19.75 L29.0 20.0 Q29.0 20.5 29.25 20.75 L30.0 21.0 30.0 22.0 29.0 22.0 Q29.0 22.5 29.25 22.75 L30.0 23.0 30.0 24.0 29.0 24.0 29.0 25.0 28.0 25.0 27.75 24.25 27.0 24.0 27.0 25.0 26.0 25.0 24.0 25.0 24.0 24.0 23.75 23.25 Q23.5 23.0 23.0 23.0 L23.0 24.0 23.0 25.0 22.0 25.0 21.0 25.0 20.0 25.0 19.0 25.0 18.0 25.0 18.0 26.0 18.0 27.0 18.0 28.0 18.0 29.0 17.0 29.0 17.0 30.0 16.0 30.0 16.0 31.0 15.0 31.0 14.0 31.0 14.0 32.0 13.0 32.0 12.75 31.25 12.0 31.0 12.0 32.0 11.0 32.0 10.0 32.0 8.0 32.0 7.75 31.25 7.0 31.0 6.75 30.25 6.0 30.0 6.0 31.0 6.0 32.0 6.0 33.0 5.0 33.0 5.0 34.0 4.0 34.0 3.0 34.0 3.0 33.0 3.0 32.0 3.0 31.0 2.8 30.1 2.0 29.0 2.0 28.0 2.0 27.0 2.0 26.0 1.75 25.25 1.0 25.0 1.0 24.0 1.5 24.0 1.0 23.0 0.75 22.25 0.0 22.0 0.0 21.0 0.0 20.0 0.0 19.0 0.0 18.0 0.8 16.9 1.0 16.0 0.75 15.25 0.0 15.0 0.0 14.0 0.5 14.0 0.0 13.0 0.0 12.0 1.0 12.0 1.5 12.0 1.0 11.0 1.0 10.0 1.0 8.0 1.6 7.8 Q2.65 5.9 1.0 6.0 L1.0 5.0 1.0 4.0 1.75 3.75 2.0 3.0 3.0 3.0 3.75 2.75 4.0 2.0 4.75 1.75 5.0 1.0 6.0 1.0 Q6.5 1.5 7.0 1.5 L7.0 1.0 7.0 0.0 8.0 0.0 9.0 0.0 9.0 1.0 9.0 2.0 8.0 2.0 Q8.0 2.5 8.25 2.75 L9.0 3.0 Q9.0 4.5 9.45 5.85 L10.0 6.0 11.0 6.0 Q11.0 6.5 11.25 6.75 L12.0 7.0 Q11.9 8.65 14.05 8.1 L15.0 8.0 Q15.5 8.5 16.1 8.8 L17.0 9.0 18.0 9.0 18.0 10.0 Q18.5 10.5 19.0 10.5 L19.0 10.0 21.0 10.0 22.0 10.0 M13.0 9.0 L13.0 9.1 13.25 9.05 13.0 9.0 M20.05 11.0 L20.0 11.0 20.0 11.05 20.05 11.0 M5.05 3.0 L5.0 3.0 5.0 3.05 5.05 3.0 M2.15 17.05 L2.0 17.0 2.0 17.5 2.1 17.5 Q2.05 17.25 2.15 17.05 M15.0 19.05 L15.0 19.25 15.15 19.3 15.0 19.05 M14.0 29.5 L14.05 29.5 14.0 29.45 14.0 29.5 M9.1 30.35 L9.0 30.25 9.0 30.5 9.25 30.5 9.1 30.35 M4.05 27.25 L4.0 27.0 4.0 27.5 4.1 27.5 4.05 27.25 M3.1 25.5 L3.0 25.1 3.0 25.5 3.1 25.5" fill="#ffdea5" fill-rule="evenodd" stroke="none"/>
  </g>
</svg>
