<?xml version="1.0" encoding="UTF-8" standalone="no"?>
<svg xmlns:xlink="http://www.w3.org/1999/xlink" height="21.0px" width="21.0px" xmlns="http://www.w3.org/2000/svg">
  <g transform="matrix(1.0, 0.0, 0.0, 1.0, 0.0, 0.0)">
    <path d="M21.0 14.0 L21.0 15.0 20.0 15.0 20.0 16.0 20.0 17.0 20.0 18.0 20.0 19.0 19.0 19.0 19.0 20.0 18.0 20.0 18.0 21.0 17.0 21.0 16.0 21.0 15.0 21.0 14.0 21.0 13.0 21.0 12.0 21.0 12.0 20.0 12.0 19.0 12.0 18.0 12.75 17.75 13.0 17.0 13.5 17.0 13.0 16.0 12.75 15.25 12.0 15.0 11.75 14.25 Q11.5 14.0 11.0 14.0 L10.0 14.0 9.0 14.0 8.75 13.25 Q8.5 13.0 8.0 13.0 L7.75 12.25 7.0 12.0 6.0 12.0 5.0 12.0 4.75 11.25 4.0 11.0 3.0 11.0 2.75 10.25 Q2.5 10.0 2.0 10.0 L2.0 9.0 1.75 8.25 1.0 8.0 0.75 7.25 0.0 7.0 0.0 6.0 0.0 5.0 0.0 4.0 0.75 3.75 1.0 3.0 1.0 2.0 1.0 1.0 2.0 1.0 3.0 1.0 4.0 1.0 4.75 0.75 5.0 0.0 6.0 0.0 9.0 0.0 10.0 0.0 Q10.0 0.5 10.25 0.75 L11.0 1.0 11.0 2.0 11.0 4.0 11.0 5.0 11.0 6.0 11.0 7.0 Q11.5 7.5 12.1 7.8 L13.0 8.0 14.0 8.0 15.0 8.0 16.0 8.0 17.0 8.0 17.0 9.0 17.0 10.0 Q17.0 10.5 17.25 10.75 L18.0 11.0 18.0 12.0 18.25 12.75 19.0 13.0 20.0 13.0 21.0 13.0 21.0 14.0" fill="#ffffce" fill-rule="evenodd" stroke="none"/>
  </g>
</svg>
