<?xml version="1.0" encoding="UTF-8" standalone="no"?>
<svg xmlns:xlink="http://www.w3.org/1999/xlink" height="26.0px" width="28.0px" xmlns="http://www.w3.org/2000/svg">
  <g transform="matrix(1.0, 0.0, 0.0, 1.0, 0.0, 0.0)">
    <path d="M26.0 5.0 L26.0 6.0 26.0 7.0 26.0 8.0 25.0 8.0 25.0 9.0 24.0 9.0 23.75 8.25 Q23.5 8.0 23.0 8.0 L22.75 7.25 22.0 7.0 22.0 6.0 22.0 5.0 21.75 4.25 21.0 4.0 20.0 4.0 20.0 5.0 20.0 6.0 Q20.0 6.5 20.25 6.75 L21.0 7.0 21.25 7.75 22.0 8.0 22.0 9.0 Q22.0 9.5 22.25 9.75 L23.0 10.0 23.0 11.0 Q23.0 11.5 23.25 11.75 L24.0 12.0 24.0 13.0 24.0 14.0 24.25 14.75 25.0 15.0 Q24.4 17.15 25.9 17.5 L26.0 18.0 Q26.0 18.5 26.25 18.75 L27.0 19.0 27.0 20.0 27.25 20.75 28.0 21.0 28.0 22.0 28.0 23.0 27.0 23.0 26.0 23.0 26.0 24.0 26.0 25.0 25.0 25.0 24.0 25.0 24.0 26.0 23.0 26.0 22.0 26.0 21.0 26.0 20.0 26.0 20.0 25.0 21.0 25.0 21.75 24.75 22.0 24.0 22.1 23.05 Q22.65 20.9 21.0 21.0 L20.0 21.0 20.0 22.0 20.0 23.0 19.0 23.0 18.0 23.0 18.0 24.0 17.0 24.0 17.0 25.0 16.0 25.0 16.0 26.0 15.0 26.0 1.0 26.0 1.0 25.0 1.0 24.0 Q1.0 17.5 1.4 11.05 1.7 6.75 0.0 5.0 L0.0 4.0 0.0 3.0 0.0 2.0 0.8 0.9 1.0 0.0 4.0 0.0 5.0 0.0 6.0 0.0 6.25 0.75 7.0 1.0 8.0 1.0 Q11.75 3.1 13.4 0.2 L14.0 0.0 Q13.9 1.65 15.8 0.6 16.0 0.5 16.0 0.0 L17.0 0.0 18.0 0.0 18.25 0.75 19.0 1.0 23.0 1.0 24.0 1.0 25.0 1.0 25.0 2.0 25.0 3.0 Q25.0 3.5 25.25 3.75 L26.0 4.0 26.0 5.0 M12.0 6.5 Q14.25 6.5 12.0 6.0 L12.0 6.5 M24.0 20.0 L24.0 20.5 Q26.25 20.5 24.0 20.0" fill="#ffffce" fill-rule="evenodd" stroke="none"/>
  </g>
</svg>
