<?xml version="1.0" encoding="UTF-8" standalone="no"?>
<svg xmlns:xlink="http://www.w3.org/1999/xlink" height="67.0px" width="17.0px" xmlns="http://www.w3.org/2000/svg">
  <g transform="matrix(1.0, 0.0, 0.0, 1.0, 0.0, 0.0)">
    <path d="M11.0 0.0 L12.0 0.0 12.0 1.0 12.0 2.0 12.25 2.75 13.0 3.0 13.0 4.0 13.0 5.0 Q13.0 6.0 13.4 6.8 L14.0 7.0 14.0 8.0 14.0 9.0 Q14.0 9.5 14.25 9.75 L15.0 10.0 15.0 11.0 15.0 12.0 15.25 12.75 16.0 13.0 Q16.0 13.5 16.25 13.75 L17.0 14.0 17.0 15.0 16.0 15.0 16.0 16.0 15.0 16.0 15.0 17.0 14.0 17.0 13.0 17.0 13.0 18.0 13.0 19.0 13.0 20.0 Q13.0 20.5 13.25 20.75 L14.0 21.0 14.0 22.0 13.0 22.0 13.0 23.0 13.0 24.0 13.0 25.0 12.0 25.0 12.0 26.0 12.0 27.0 11.0 27.0 11.0 28.0 11.0 29.0 10.0 29.0 10.0 30.0 10.0 31.0 9.0 31.0 9.0 32.0 9.0 33.0 9.0 34.0 9.0 35.0 8.0 35.0 8.0 36.0 8.0 37.0 8.0 38.0 Q8.0 38.5 8.25 38.75 L9.0 39.0 9.0 40.0 8.0 40.0 8.0 41.0 8.0 42.0 9.1 42.8 10.0 43.0 10.0 44.0 10.0 45.0 9.0 45.0 9.0 46.0 9.0 47.0 8.0 47.0 8.0 48.0 8.0 49.0 8.0 50.0 8.0 51.0 8.0 52.0 7.0 52.0 6.0 52.0 6.0 53.0 6.0 54.0 6.0 55.0 6.0 56.0 6.25 56.75 7.0 57.0 7.0 58.0 7.0 59.0 6.0 59.0 6.0 60.0 5.0 60.0 4.0 60.0 Q4.0 60.5 4.25 60.75 L5.0 61.0 5.0 62.0 5.0 63.0 5.0 64.0 4.0 64.0 4.0 65.0 4.0 66.0 4.0 67.0 3.0 67.0 2.0 67.0 1.0 67.0 0.0 67.0 0.0 66.0 0.0 65.0 0.75 64.75 1.0 64.0 1.0 63.0 1.75 62.75 2.0 62.0 2.0 61.0 2.0 60.0 1.75 59.25 1.0 59.0 1.0 58.0 1.0 56.0 1.0 55.0 1.75 54.75 2.0 54.0 2.75 53.75 3.0 53.0 3.0 52.0 3.75 51.75 4.0 51.0 4.0 50.0 4.8 48.9 5.0 48.0 5.75 47.75 6.0 47.0 6.0 46.0 6.0 45.0 6.0 44.0 6.0 43.0 6.0 42.0 Q7.65 42.15 7.1 39.95 L7.0 39.0 6.75 38.25 6.0 38.0 6.0 37.0 6.0 34.0 6.75 33.75 7.0 33.0 7.5 33.0 7.0 32.0 7.0 31.0 7.0 30.0 7.0 29.0 7.75 28.75 8.0 28.0 8.0 27.0 8.75 26.75 9.0 26.0 9.0 25.0 9.0 24.0 9.0 23.0 9.0 22.0 9.0 21.0 Q10.7 20.7 10.1 18.0 L10.0 17.0 10.0 16.0 10.0 15.0 10.0 14.0 Q11.7 12.2 11.7 8.0 11.7 3.75 10.0 2.0 L10.0 1.0 10.75 0.75 11.0 0.0" fill="#ffffce" fill-rule="evenodd" stroke="none"/>
  </g>
</svg>
