<?xml version="1.0" encoding="UTF-8" standalone="no"?>
<svg xmlns:xlink="http://www.w3.org/1999/xlink" height="91.0px" width="47.0px" xmlns="http://www.w3.org/2000/svg">
  <g transform="matrix(1.0, 0.0, 0.0, 1.0, 0.0, 0.0)">
    <path d="M47.0 15.0 L47.0 16.0 46.0 16.0 45.0 16.0 45.0 17.0 44.0 17.0 44.0 18.0 43.0 18.0 43.0 19.0 43.0 20.0 42.0 20.0 42.0 21.0 41.0 21.0 41.0 22.0 40.0 22.0 40.0 23.0 39.0 23.0 39.0 24.0 39.0 25.0 39.0 26.0 39.0 27.0 39.0 28.0 39.0 29.0 39.0 30.0 38.0 30.0 38.0 31.0 38.0 32.0 38.0 33.0 38.0 34.0 38.0 35.0 Q38.0 35.5 38.25 35.75 L39.0 36.0 39.25 36.75 40.0 37.0 Q40.0 37.5 40.25 37.75 L41.0 38.0 41.0 39.0 41.0 40.0 Q41.0 40.5 41.25 40.75 L42.0 41.0 42.25 41.75 43.0 42.0 43.0 43.0 42.0 43.0 42.0 44.0 41.0 44.0 41.0 45.0 41.0 46.0 40.0 46.0 40.0 47.0 39.0 47.0 38.0 47.0 37.0 47.0 37.0 48.0 36.0 48.0 35.0 48.0 34.0 48.0 33.0 48.0 32.0 48.0 31.0 48.0 30.0 48.0 29.0 48.0 28.0 48.0 27.0 48.0 Q27.0 49.0 27.4 49.8 27.5 50.0 28.0 50.0 L28.0 51.0 28.0 52.0 27.0 52.0 27.0 53.0 27.0 54.0 27.0 55.0 26.0 55.0 25.0 55.0 24.0 55.0 23.9 54.45 20.0 54.0 20.0 55.0 19.0 55.0 Q19.0 55.5 19.25 55.75 L20.0 56.0 20.0 57.0 20.0 58.0 Q20.0 58.5 20.25 58.75 L21.0 59.0 21.0 60.0 20.0 60.0 20.0 62.0 20.0 63.0 19.0 63.0 19.0 65.0 19.0 66.0 19.0 67.0 18.0 67.0 17.0 67.0 17.0 68.0 16.0 68.0 15.0 68.0 15.0 69.0 14.0 69.0 14.0 70.0 13.0 70.0 13.0 71.0 13.0 72.0 13.0 73.0 Q13.0 73.5 13.25 73.75 L14.0 74.0 Q14.0 74.5 14.25 74.75 L15.0 75.0 16.0 75.0 17.0 75.0 18.0 75.0 18.0 76.0 18.0 77.0 17.0 77.0 16.0 77.0 Q16.0 77.5 16.25 77.75 L17.0 78.0 17.0 79.0 16.0 79.0 15.0 79.0 15.0 80.0 14.0 80.0 14.0 81.0 13.0 81.0 13.0 82.0 13.0 83.0 13.0 84.0 12.0 84.0 11.0 84.0 10.0 84.0 10.0 85.0 10.0 86.0 9.0 86.0 9.0 87.0 8.0 87.0 Q8.0 88.0 8.4 88.8 8.5 89.0 9.0 89.0 L9.0 90.0 8.0 90.0 8.0 91.0 7.0 91.0 4.0 91.0 3.0 91.0 2.0 91.0 2.1 90.0 Q2.7 87.3 1.0 87.0 L1.0 86.0 1.6 85.8 Q2.7 83.3 1.0 83.0 L0.0 83.0 0.0 82.0 1.0 82.0 1.5 82.0 1.0 81.0 1.0 80.0 1.55 79.9 Q1.95 78.05 1.0 77.0 L1.75 76.75 2.0 76.0 2.0 75.0 2.75 74.75 3.0 74.0 3.75 73.75 4.0 73.0 3.75 72.25 3.0 72.0 3.0 71.0 3.0 70.0 Q4.65 70.15 4.1 67.95 L4.0 67.0 4.5 67.0 4.0 66.0 3.0 66.0 3.0 65.0 3.0 64.0 3.0 63.0 3.0 62.0 2.75 61.25 Q2.5 61.0 2.0 61.0 L2.0 60.0 2.75 59.75 3.0 59.0 3.0 58.0 3.0 57.0 3.0 56.0 3.0 55.0 3.0 51.0 3.5 51.0 3.0 50.0 3.0 49.0 4.0 49.0 4.75 48.75 5.0 48.0 5.5 48.0 5.0 47.0 5.0 46.0 4.75 45.25 4.0 45.0 4.0 44.0 4.0 43.0 4.75 42.75 5.0 42.0 5.75 41.75 6.0 41.0 6.0 40.0 6.0 39.0 Q7.65 39.15 7.1 36.95 L7.0 36.0 7.75 35.75 8.0 35.0 8.0 34.0 8.1 33.05 Q8.65 30.9 7.0 31.0 L7.0 30.0 7.0 29.0 7.0 28.0 7.0 24.0 Q8.7 23.2 8.1 20.0 L8.0 19.0 8.75 18.75 9.0 18.0 9.0 17.0 9.75 16.75 10.0 16.0 10.0 15.0 10.75 14.75 11.0 14.0 11.75 13.75 12.0 13.0 11.8 12.1 11.0 11.0 11.0 10.0 11.0 9.0 11.8 7.9 12.0 7.0 12.75 6.75 13.0 6.0 13.75 5.75 14.0 5.0 Q16.95 5.45 16.1 1.95 L16.0 1.0 16.75 0.75 17.0 0.0 18.0 0.0 Q18.5 0.5 19.0 0.5 L19.0 0.0 20.0 0.0 21.0 0.0 21.0 1.0 21.25 1.75 22.0 2.0 Q22.5 2.5 23.0 2.5 L23.0 2.0 23.0 1.0 23.75 0.75 24.0 0.0 25.0 0.0 26.0 0.0 Q26.0 0.5 26.25 0.75 L27.0 1.0 28.0 1.0 Q28.0 1.5 28.25 1.75 L29.0 2.0 29.0 3.0 Q29.0 3.5 29.25 3.75 L30.0 4.0 31.0 4.0 Q31.0 4.5 31.25 4.75 L32.0 5.0 Q32.0 5.5 32.25 5.75 L33.0 6.0 34.0 6.0 35.0 6.0 Q35.0 6.5 35.25 6.75 L36.0 7.0 36.25 7.75 37.0 8.0 38.0 8.0 39.0 8.0 39.25 8.75 40.0 9.0 40.0 10.0 40.0 11.0 39.0 11.0 39.0 12.0 38.0 12.0 38.0 13.0 38.0 14.0 Q38.5 14.5 39.0 14.5 L39.0 14.0 40.0 14.0 41.0 14.0 Q41.0 14.5 41.25 14.75 L42.0 15.0 43.0 15.0 44.0 15.0 45.0 15.0 46.0 15.0 47.0 15.0" fill="#deb5d6" fill-rule="evenodd" stroke="none"/>
  </g>
</svg>
