<?xml version="1.0" encoding="UTF-8" standalone="no"?>
<svg xmlns:xlink="http://www.w3.org/1999/xlink" height="13.0px" width="14.0px" xmlns="http://www.w3.org/2000/svg">
  <g transform="matrix(1.0, 0.0, 0.0, 1.0, 0.0, 0.0)">
    <path d="M11.0 5.0 L12.0 5.0 12.25 5.75 13.0 6.0 13.85 8.05 14.0 9.0 14.0 10.0 13.0 10.0 13.0 11.0 12.0 11.0 11.0 11.0 11.0 12.0 11.0 13.0 10.0 13.0 9.0 13.0 8.0 13.0 7.0 13.0 6.0 13.0 5.0 13.0 4.0 13.0 3.75 12.25 3.0 12.0 2.0 12.0 1.8 11.4 0.0 11.0 0.0 10.0 0.0 9.0 0.0 8.0 0.75 7.75 1.0 7.0 1.0 6.0 1.0 5.0 1.0 4.0 1.0 3.0 1.75 2.75 2.0 2.0 2.0 1.0 2.75 0.75 3.0 0.0 4.0 0.0 Q4.0 0.5 4.25 0.75 L5.0 1.0 Q5.0 1.5 5.25 1.75 L6.0 2.0 6.25 2.75 7.0 3.0 8.0 3.0 Q8.0 3.5 8.25 3.75 L9.0 4.0 10.0 4.0 Q10.0 4.5 10.25 4.75 L11.0 5.0" fill="#bdd6bd" fill-rule="evenodd" stroke="none"/>
  </g>
</svg>
