<?xml version="1.0" encoding="UTF-8" standalone="no"?>
<svg xmlns:xlink="http://www.w3.org/1999/xlink" height="12.0px" width="11.0px" xmlns="http://www.w3.org/2000/svg">
  <g transform="matrix(1.0, 0.0, 0.0, 1.0, 0.0, 0.0)">
    <path d="M11.0 4.0 L10.05 4.15 8.0 5.0 7.0 5.0 7.0 6.0 6.0 6.0 5.0 6.0 5.0 7.0 4.0 7.0 4.0 8.0 Q4.0 8.5 4.25 8.75 L5.0 9.0 Q5.0 9.5 5.25 9.75 L6.0 10.0 7.0 10.0 7.0 11.0 7.0 12.0 6.3 11.75 Q5.2 10.3 2.0 11.0 L2.0 10.0 2.0 9.0 2.0 8.0 2.5 8.0 2.0 7.0 2.0 6.0 1.75 5.25 1.0 5.0 0.0 5.0 0.0 4.0 0.0 3.0 0.0 2.0 0.0 1.0 1.0 1.0 Q1.5 1.5 2.0 1.5 L2.0 1.0 2.75 0.75 3.0 0.0 9.0 0.0 10.0 0.0 10.0 1.0 Q10.0 2.0 10.4 2.8 L11.0 3.0 11.0 4.0 M4.0 5.0 L4.0 5.5 Q6.25 5.5 4.0 5.0" fill="#8cadd6" fill-rule="evenodd" stroke="none"/>
  </g>
</svg>
