<?xml version="1.0" encoding="UTF-8" standalone="no"?>
<svg xmlns:xlink="http://www.w3.org/1999/xlink" height="9.0px" width="9.0px" xmlns="http://www.w3.org/2000/svg">
  <g transform="matrix(1.0, 0.0, 0.0, 1.0, 0.0, 0.0)">
    <path d="M8.0 3.0 L8.0 4.0 7.0 4.0 Q7.0 4.5 7.25 4.75 L8.0 5.0 8.0 7.0 8.0 8.0 7.0 8.0 7.0 9.0 6.0 9.0 5.0 9.0 5.0 8.0 5.0 7.0 4.75 6.25 2.0 4.0 1.0 4.0 1.0 5.0 0.0 5.0 0.0 4.0 0.0 3.0 0.75 2.75 1.0 2.0 2.0 2.0 2.75 1.75 3.0 1.0 Q4.0 0.5 5.05 0.15 L6.0 0.0 7.0 0.0 8.0 0.0 Q8.0 0.5 8.25 0.75 L9.0 1.0 9.0 2.0 8.0 2.0 8.0 3.0" fill="#bdd6bd" fill-rule="evenodd" stroke="none"/>
  </g>
</svg>
