<?xml version="1.0" encoding="UTF-8" standalone="no"?>
<svg xmlns:xlink="http://www.w3.org/1999/xlink" height="5.0px" width="9.0px" xmlns="http://www.w3.org/2000/svg">
  <g transform="matrix(1.0, 0.0, 0.0, 1.0, 0.0, 0.0)">
    <path d="M9.0 3.0 L9.0 4.0 9.0 5.0 8.0 5.0 7.0 5.0 6.75 4.25 6.0 4.0 6.0 5.0 5.0 5.0 4.0 5.0 3.0 5.0 2.1 4.8 Q1.5 4.5 1.0 4.0 L0.75 3.25 0.0 3.0 0.0 2.0 0.0 1.0 1.0 1.0 Q1.5 1.5 2.0 1.5 L2.0 1.0 3.0 1.0 Q3.5 1.5 4.0 1.5 L4.0 1.0 5.1 0.2 6.0 0.0 Q5.4 2.15 7.0 2.05 L8.0 2.0 Q8.0 2.5 8.25 2.75 L9.0 3.0" fill="#8cadd6" fill-rule="evenodd" stroke="none"/>
  </g>
</svg>
