<?xml version="1.0" encoding="UTF-8" standalone="no"?>
<svg xmlns:xlink="http://www.w3.org/1999/xlink" height="52.0px" width="44.0px" xmlns="http://www.w3.org/2000/svg">
  <g transform="matrix(1.0, 0.0, 0.0, 1.0, 0.0, 0.0)">
    <path d="M42.0 12.0 L42.25 12.75 43.0 13.0 Q43.0 13.5 43.25 13.75 L44.0 14.0 44.0 15.0 43.0 15.0 42.0 15.0 42.0 16.0 41.0 16.0 40.0 16.0 40.0 17.0 40.0 18.0 40.0 19.0 39.0 19.0 39.0 20.0 39.0 21.0 38.0 21.0 38.0 23.0 38.0 24.0 38.1 24.95 Q38.65 27.15 37.0 27.0 L37.0 28.0 37.0 29.0 36.0 29.0 36.0 30.0 35.0 30.0 35.0 31.0 35.0 32.0 34.1 32.2 Q33.5 32.5 33.0 33.0 L33.0 34.0 32.0 34.0 32.0 37.0 32.0 38.0 32.0 39.0 32.0 40.0 31.1 39.8 30.0 39.0 30.0 40.0 29.0 40.0 Q29.0 41.0 29.4 41.8 29.5 42.0 30.0 42.0 L31.0 42.0 Q31.0 42.5 31.25 42.75 L32.0 43.0 Q32.0 43.5 32.25 43.75 L33.0 44.0 33.25 44.75 34.0 45.0 34.0 46.0 Q34.0 46.5 34.25 46.75 L35.0 47.0 Q35.0 47.5 35.25 47.75 L36.0 48.0 36.0 49.0 36.0 50.0 35.0 50.0 34.0 50.0 33.0 50.0 32.0 50.0 32.0 51.0 31.0 51.0 31.0 52.0 30.0 52.0 29.0 52.0 28.0 52.0 27.0 52.0 26.0 52.0 25.0 52.0 24.0 52.0 23.0 52.0 22.75 51.25 22.0 51.0 21.75 50.25 21.0 50.0 20.0 50.0 19.0 50.0 18.0 50.0 17.0 50.0 16.0 50.0 15.25 49.75 15.0 49.0 14.8 48.1 14.0 47.0 13.75 46.25 13.0 46.0 12.75 45.25 11.0 44.0 10.75 43.25 10.0 43.0 9.0 43.0 8.75 42.25 Q8.5 42.0 8.0 42.0 L8.0 41.0 7.75 40.25 7.0 40.0 6.75 39.25 6.0 39.0 5.0 39.0 4.0 39.0 4.0 38.0 4.0 37.0 4.5 37.0 4.0 36.0 4.0 35.0 3.75 34.25 3.0 34.0 3.0 33.0 2.75 32.25 Q2.5 32.0 2.0 32.0 L2.0 31.0 2.0 30.0 1.75 29.25 1.0 29.0 0.8 28.1 0.0 27.0 2.8 22.85 3.0 22.0 3.0 21.0 Q4.0 21.0 4.8 20.6 L5.0 20.0 Q6.75 17.25 6.2 12.0 6.05 10.05 7.0 9.0 L7.75 8.75 8.0 8.0 8.0 7.0 8.0 4.0 8.0 3.0 9.0 3.0 23.0 3.0 24.0 3.0 24.0 4.0 Q24.5 4.5 25.0 4.5 L25.0 4.0 26.0 4.0 26.75 3.75 27.0 3.0 28.0 3.0 29.0 3.0 Q29.5 3.5 30.1 3.8 L31.0 4.0 Q31.5 4.5 32.0 4.5 L32.0 4.0 32.75 3.75 33.0 3.0 33.75 2.75 34.0 2.0 34.75 1.75 35.0 1.0 35.0 0.0 36.0 0.0 36.25 0.75 37.0 1.0 Q38.8 2.2 39.8 4.1 L40.0 5.0 Q40.0 5.5 40.25 5.75 L41.0 6.0 Q41.0 9.0 41.5 11.9 L42.0 12.0" fill="#bdd6bd" fill-rule="evenodd" stroke="none"/>
  </g>
</svg>
