<?xml version="1.0" encoding="UTF-8" standalone="no"?>
<svg xmlns:xlink="http://www.w3.org/1999/xlink" height="24.0px" width="26.0px" xmlns="http://www.w3.org/2000/svg">
  <g transform="matrix(1.0, 0.0, 0.0, 1.0, 0.0, 0.0)">
    <path d="M23.25 14.75 L24.0 15.0 24.25 15.75 25.0 16.0 25.0 17.0 24.0 17.0 Q24.0 18.0 24.4 18.8 24.5 19.0 25.0 19.0 25.0 19.5 25.25 19.75 L26.0 20.0 26.0 21.0 26.0 22.0 25.0 22.0 24.75 21.25 24.0 21.0 23.0 21.0 23.0 22.0 23.0 23.0 22.0 23.0 21.05 23.15 Q20.0 23.5 19.0 24.0 L18.75 23.25 18.0 23.0 17.0 23.0 16.0 23.0 15.0 23.0 14.1 22.8 Q13.5 22.5 13.0 22.0 L12.75 21.25 12.0 21.0 11.75 20.25 Q11.5 20.0 11.0 20.0 L10.0 20.0 9.75 19.25 9.0 19.0 8.75 18.25 Q8.5 18.0 8.0 18.0 L7.0 18.0 6.0 18.0 5.8 17.4 4.0 17.0 Q4.0 16.5 3.8 16.4 L2.0 16.0 1.75 15.25 1.0 15.0 1.0 14.0 0.75 13.25 0.0 13.0 0.0 12.0 1.0 12.0 1.75 11.75 2.0 11.0 2.75 10.75 3.0 10.0 3.0 9.0 3.0 8.0 5.0 8.0 6.0 8.0 Q7.7 7.2 7.1 4.0 L7.0 3.0 7.75 2.75 8.0 2.0 8.75 1.75 9.0 1.0 10.0 1.0 10.75 0.75 11.0 0.0 14.0 0.0 15.0 0.0 15.25 0.75 16.0 1.0 17.0 1.0 17.0 2.0 Q17.0 2.5 17.25 2.75 L18.0 3.0 18.25 3.75 19.0 4.0 20.0 4.0 20.0 5.0 20.0 6.0 20.0 7.0 19.0 7.0 19.0 8.0 18.0 8.0 18.0 9.0 18.25 9.75 19.0 10.0 Q19.0 10.5 19.25 10.75 L20.0 11.0 Q20.0 12.0 20.4 12.8 20.5 13.0 21.0 13.0 L21.25 13.75 22.0 14.0 23.0 14.0 Q23.0 14.5 23.25 14.75 M5.0 12.5 Q7.25 12.5 5.0 12.0 L5.0 12.5 M16.0 21.5 Q18.25 21.5 16.0 21.0 L16.0 21.5 M12.0 18.0 L12.0 18.5 Q14.25 18.5 12.0 18.0 M18.0 15.0 L18.0 15.5 Q20.25 15.5 18.0 15.0 M9.0 14.0 L9.0 14.5 Q11.25 14.5 9.0 14.0 M6.0 16.0 L6.0 16.5 Q8.25 16.5 6.0 16.0 M9.0 8.0 L9.0 8.5 Q11.25 8.5 9.0 8.0 M12.0 11.0 L12.0 11.5 Q14.25 11.5 12.0 11.0 M15.0 7.0 L15.0 7.5 Q17.25 7.5 15.0 7.0 M12.0 4.0 L12.0 4.5 Q14.25 4.5 12.0 4.0 M21.0 19.5 Q23.25 19.5 21.0 19.0 L21.0 19.5" fill="#8cadd6" fill-rule="evenodd" stroke="none"/>
  </g>
</svg>
