<?xml version="1.0" encoding="UTF-8" standalone="no"?>
<svg xmlns:xlink="http://www.w3.org/1999/xlink" height="10.0px" width="11.1px" xmlns="http://www.w3.org/2000/svg">
  <g transform="matrix(1.0, 0.0, 0.0, 1.0, 0.0, 0.0)">
    <path d="M7.0 2.0 L7.75 1.75 8.0 1.0 8.75 0.75 9.0 0.0 Q12.15 2.35 10.55 8.9 L10.0 9.0 9.0 9.0 9.0 10.0 8.0 10.0 7.0 10.0 7.0 9.0 7.75 8.75 8.0 8.0 7.75 7.25 7.0 7.0 6.0 7.0 5.75 6.25 Q5.5 6.0 5.0 6.0 L5.0 7.0 5.0 8.0 4.0 8.0 3.0 8.0 2.75 7.25 Q2.5 7.0 2.0 7.0 L1.75 6.25 1.0 6.0 1.0 5.0 1.0 4.0 0.75 3.25 0.0 3.0 0.0 2.0 1.0 2.0 2.0 2.0 3.0 2.0 Q3.5 2.5 4.0 2.5 L4.0 2.0 4.0 1.0 5.0 1.0 Q5.0 1.5 5.25 1.75 L6.0 2.0 7.0 2.0" fill="#8cadd6" fill-rule="evenodd" stroke="none"/>
  </g>
</svg>
