<?xml version="1.0" encoding="UTF-8" standalone="no"?>
<svg xmlns:xlink="http://www.w3.org/1999/xlink" height="21.0px" width="19.0px" xmlns="http://www.w3.org/2000/svg">
  <g transform="matrix(1.0, 0.0, 0.0, 1.0, 0.0, 0.0)">
    <path d="M15.0 9.0 L15.0 9.5 Q17.25 9.5 15.0 9.0 M17.0 5.0 Q17.0 5.5 17.25 5.75 L18.0 6.0 18.25 6.75 19.0 7.0 19.0 8.0 19.0 9.0 18.0 9.0 18.0 10.0 18.0 11.0 17.0 11.0 17.0 12.0 16.0 12.0 15.75 11.25 15.0 11.0 15.0 12.0 15.0 13.0 14.0 13.0 14.0 14.0 13.0 14.0 13.0 15.0 12.75 15.75 11.0 17.0 10.0 17.0 9.0 17.0 9.0 18.0 8.0 18.0 8.0 19.0 7.75 19.75 7.0 20.0 6.0 20.0 5.0 20.0 5.0 21.0 4.0 21.0 3.0 21.0 2.0 21.0 1.75 20.25 1.0 20.0 1.0 19.0 0.75 18.25 0.0 18.0 0.0 17.0 0.0 16.0 1.0 16.0 Q2.0 16.0 2.8 15.6 L3.0 15.0 4.0 15.0 5.0 15.0 5.75 14.75 6.0 14.0 7.0 14.0 7.75 13.75 8.0 13.0 8.0 12.0 8.8 10.9 9.0 10.0 9.8 8.9 10.0 8.0 10.0 7.0 10.0 6.0 10.0 5.0 9.75 4.25 9.0 4.0 9.0 3.0 9.0 2.0 9.0 1.0 9.0 0.0 10.0 0.0 Q10.0 1.0 10.4 1.8 L11.0 2.0 12.0 2.0 13.0 2.0 17.8 4.4 18.0 5.0 17.0 5.0" fill="#ffffce" fill-rule="evenodd" stroke="none"/>
  </g>
</svg>
