<?xml version="1.0" encoding="UTF-8" standalone="no"?>
<svg xmlns:xlink="http://www.w3.org/1999/xlink" height="5.0px" width="10.0px" xmlns="http://www.w3.org/2000/svg">
  <g transform="matrix(1.0, 0.0, 0.0, 1.0, 0.0, 0.0)">
    <path d="M9.0 0.0 L10.0 0.0 10.0 1.0 9.0 1.0 9.0 2.0 9.0 3.0 9.0 4.0 9.0 5.0 8.0 5.0 7.0 5.0 6.0 5.0 5.0 5.0 4.75 4.25 4.0 4.0 3.0 4.0 2.0 4.0 1.0 4.0 0.75 3.25 0.0 3.0 0.0 2.0 1.0 2.0 2.0 2.0 3.0 2.0 3.75 1.75 4.0 1.0 7.9 0.55 8.0 0.0 9.0 0.0" fill="#8cadd6" fill-rule="evenodd" stroke="none"/>
  </g>
</svg>
