<?xml version="1.0" encoding="UTF-8" standalone="no"?>
<svg xmlns:xlink="http://www.w3.org/1999/xlink" height="8.0px" width="5.0px" xmlns="http://www.w3.org/2000/svg">
  <g transform="matrix(1.0, 0.0, 0.0, 1.0, 0.0, 0.0)">
    <path d="M1.0 1.0 L0.0 1.0 0.0 0.0 1.0 0.0 2.0 0.0 3.0 0.0 3.0 1.0 2.0 1.0 1.0 1.0 M2.0 5.0 Q1.9 6.65 3.8 5.6 4.0 5.5 4.0 5.0 L4.75 5.25 5.0 6.0 5.0 7.0 4.0 7.0 4.0 8.0 3.0 8.0 2.75 7.25 Q2.5 7.0 2.0 7.0 L1.0 7.0 1.0 6.0 1.0 5.0 2.0 5.0" fill="#adb5a5" fill-rule="evenodd" stroke="none"/>
    <path d="M2.0 1.0 L2.0 2.0 1.0 2.0 1.0 1.0 2.0 1.0" fill="#8cadd6" fill-rule="evenodd" stroke="none"/>
    <path d="M2.0 2.0 L3.0 2.0 3.0 3.0 2.0 3.0 1.0 3.0 1.0 2.0 2.0 2.0" fill="#adbdd6" fill-rule="evenodd" stroke="none"/>
    <path d="M1.0 5.0 L0.0 5.0 0.0 4.0 0.75 3.75 1.0 3.0 2.0 3.0 2.0 4.0 2.0 5.0 1.0 5.0" fill="#5273ad" fill-rule="evenodd" stroke="none"/>
    <path d="M3.0 3.0 L3.0 4.0 2.0 4.0 2.0 3.0 3.0 3.0" fill="#bdd6bd" fill-rule="evenodd" stroke="none"/>
    <path d="M3.0 4.0 L3.0 5.0 2.0 5.0 2.0 4.0 3.0 4.0" fill="#bdd6d6" fill-rule="evenodd" stroke="none"/>
    <path d="M2.0 7.0 L2.0 8.0 1.0 8.0 1.0 7.0 2.0 7.0" fill="#b5b5c6" fill-rule="evenodd" stroke="none"/>
  </g>
</svg>
