<?xml version="1.0" encoding="UTF-8" standalone="no"?>
<svg xmlns:xlink="http://www.w3.org/1999/xlink" height="13.0px" width="16.0px" xmlns="http://www.w3.org/2000/svg">
  <g transform="matrix(1.0, 0.0, 0.0, 1.0, 0.0, 0.0)">
    <path d="M11.0 7.0 L11.0 8.0 10.0 8.0 10.0 7.0 11.0 7.0 M9.0 6.0 L9.0 7.0 8.0 7.0 7.0 7.0 6.0 7.0 5.0 7.0 4.0 7.0 3.75 6.25 3.0 6.0 2.0 6.0 2.0 7.0 1.0 7.0 0.0 7.0 0.0 6.0 0.0 5.0 0.0 4.0 0.0 3.0 0.0 2.0 0.75 1.75 1.0 1.0 2.0 1.0 Q2.5 1.5 3.0 1.5 L3.0 1.0 3.0 0.0 4.0 0.0 Q4.0 0.5 4.25 0.75 L5.0 1.0 6.0 1.0 6.0 2.0 5.0 2.0 Q5.0 2.5 5.25 2.75 L6.0 3.0 6.25 3.75 7.0 4.0 7.0 5.0 Q7.5 5.5 8.1 5.8 L9.0 6.0 M1.0 3.5 Q3.25 3.5 1.0 3.0 L1.0 3.5 M5.0 5.0 L5.0 5.5 Q7.25 5.5 5.0 5.0 M3.0 4.0 L3.0 4.5 Q5.25 4.5 3.0 4.0" fill="#ffdea5" fill-rule="evenodd" stroke="none"/>
    <path d="M13.0 10.0 L12.0 10.0 12.0 9.0 13.0 9.0 13.0 10.0" fill="#dec69c" fill-rule="evenodd" stroke="none"/>
    <path d="M13.0 10.0 L14.0 10.0 14.0 11.0 13.0 11.0 13.0 10.0 M15.0 12.0 L16.0 12.0 16.0 13.0 15.0 13.0 15.0 12.0" fill="#e7d6a5" fill-rule="evenodd" stroke="none"/>
    <path d="M15.0 13.0 L14.0 13.0 14.0 12.0 15.0 12.0 15.0 13.0" fill="#c6bd9c" fill-rule="evenodd" stroke="none"/>
  </g>
</svg>
