<?xml version="1.0" encoding="UTF-8" standalone="no"?>
<svg xmlns:xlink="http://www.w3.org/1999/xlink" height="35.0px" width="27.0px" xmlns="http://www.w3.org/2000/svg">
  <g transform="matrix(1.0, 0.0, 0.0, 1.0, 0.0, 0.0)">
    <path d="M2.0 30.5 Q4.25 30.5 2.0 30.0 L2.0 30.5 M4.0 25.0 L4.0 25.5 Q6.25 25.5 4.0 25.0 M16.0 19.5 Q18.25 19.5 16.0 19.0 L16.0 19.5 M15.0 22.0 L15.0 22.5 Q17.25 22.5 15.0 22.0 M13.0 21.5 Q15.25 21.5 13.0 21.0 L13.0 21.5 M19.0 15.5 Q21.25 15.5 19.0 15.0 L19.0 15.5 M7.0 23.0 L7.0 23.5 Q9.25 23.5 7.0 23.0 M10.0 22.0 L10.0 22.5 Q12.25 22.5 10.0 22.0 M19.0 6.5 Q21.25 6.5 19.0 6.0 L19.0 6.5 M14.0 7.5 Q16.25 7.5 14.0 7.0 L14.0 7.5 M21.0 10.5 Q23.25 10.5 21.0 10.0 L21.0 10.5 M24.0 5.5 Q26.25 5.5 24.0 5.0 L24.0 5.5 M26.0 0.0 L27.0 0.0 27.0 2.0 27.0 3.0 27.0 4.0 26.0 4.0 26.0 5.0 26.0 6.0 26.0 7.0 25.0 7.0 25.0 8.0 24.75 8.85 23.0 11.0 23.0 12.0 22.0 12.0 22.0 13.0 22.0 14.0 22.0 15.0 21.0 15.0 21.0 16.0 20.0 16.0 20.0 17.0 19.75 17.75 19.0 18.0 19.0 19.0 18.0 19.0 18.0 20.0 17.8 20.9 Q16.3 23.8 13.0 25.0 L12.0 25.0 12.0 26.0 11.0 26.0 10.0 26.0 10.0 27.0 9.0 27.0 9.0 28.0 8.0 28.0 8.0 29.0 7.0 29.0 7.0 30.0 6.0 30.0 6.0 31.0 5.0 31.0 5.0 32.0 4.0 32.0 3.0 32.0 3.0 33.0 2.0 33.0 2.0 34.0 2.0 35.0 1.0 35.0 0.0 35.0 0.0 34.0 0.0 33.0 0.0 32.0 0.0 24.0 0.0 23.0 0.75 22.75 1.0 22.0 1.75 21.75 2.0 21.0 2.75 20.75 3.0 20.0 3.75 19.75 4.0 19.0 5.0 19.0 6.0 19.0 8.85 18.55 9.0 18.0 10.0 18.0 10.75 17.75 11.0 17.0 11.75 16.75 12.0 16.0 12.75 15.75 13.0 15.0 13.75 14.75 14.0 14.0 14.75 13.75 15.0 13.0 15.75 12.75 16.0 12.0 16.6 11.8 Q17.65 9.9 16.0 10.0 L15.0 10.0 13.0 10.0 12.75 9.25 12.0 9.0 11.0 9.0 10.75 8.25 10.0 8.0 9.75 7.25 9.0 7.0 9.0 8.0 8.0 8.0 7.0 8.0 6.75 7.25 6.0 7.0 5.75 6.25 Q5.5 6.0 5.0 6.0 L5.0 5.0 4.75 4.25 4.0 4.0 4.0 3.0 4.0 2.0 4.0 1.0 5.0 1.0 6.0 1.0 7.25 2.75 8.0 3.0 Q8.0 3.5 8.25 3.75 L9.0 4.0 10.0 4.0 10.75 3.75 11.0 3.0 12.0 3.0 13.0 3.0 15.0 3.0 16.0 3.0 16.75 2.75 17.0 2.0 18.0 2.0 18.75 1.75 19.0 1.0 20.0 1.0 21.0 1.0 Q21.5 1.5 22.0 1.5 L22.0 1.0 23.0 1.0 24.0 1.0 24.75 0.75 25.0 0.0 26.0 0.0" fill="#8cadd6" fill-rule="evenodd" stroke="none"/>
  </g>
</svg>
