<?xml version="1.0" encoding="UTF-8" standalone="no"?>
<svg xmlns:xlink="http://www.w3.org/1999/xlink" height="57.0px" width="415.3px" xmlns="http://www.w3.org/2000/svg">
  <g transform="matrix(1.0, 0.0, 0.0, 1.0, 0.5, 0.5)">
    <path d="M413.8 54.5 L413.8 56.0 359.8 56.0 0.55 56.0 0.0 56.0 0.0 0.0 359.8 0.0 414.3 0.0 414.3 54.5 413.8 54.5 M364.55 55.5 L365.05 55.5 364.55 55.5" fill="#cc6699" fill-rule="evenodd" stroke="none"/>
    <path d="M359.8 0.0 L0.0 0.0 0.0 56.0 M0.55 56.0 L359.8 56.0 M365.05 55.5 L364.55 55.5" fill="none" stroke="#ffdea5" stroke-linecap="round" stroke-linejoin="round" stroke-width="1.0"/>
    <path d="M359.8 56.0 L413.8 56.0 413.8 54.5 M414.3 54.5 L414.3 0.0 359.8 0.0 M413.8 56.0 L414.3 56.0" fill="none" stroke="#ffdea5" stroke-linecap="round" stroke-linejoin="round" stroke-width="1.0"/>
  </g>
</svg>
