<?xml version="1.0" encoding="UTF-8" standalone="no"?>
<svg xmlns:xlink="http://www.w3.org/1999/xlink" height="13.55px" width="302.5px" xmlns="http://www.w3.org/2000/svg">
  <g transform="matrix(1.0, 0.0, 0.0, 1.0, -3.5, 2.5)">
    <path d="M4.65 9.5 L4.65 -1.7 34.65 -1.7 34.65 -1.45 95.0 -1.7 95.0 -1.45 124.5 -1.45 124.5 9.85 106.3 10.35 106.15 10.0 95.1 10.0 95.1 10.1 75.9 10.45 75.9 10.0 64.4 10.0 63.5 10.35 46.15 10.2 46.15 10.0 34.65 10.0 34.65 9.85 34.5 9.85 34.0 10.1 16.3 10.1 15.95 10.4 4.8 9.75 4.45 9.95 4.65 9.6 4.65 9.5" fill="#ff0000" fill-rule="evenodd" stroke="none"/>
    <path d="M4.65 9.5 L4.25 9.5 M5.6 -2.0 L305.5 -2.0 305.5 10.0 M244.35 10.55 L304.85 10.55 M243.75 10.5 L4.0 10.5 M4.0 -2.0 L4.0 9.0" fill="none" stroke="#ffdea5" stroke-linecap="round" stroke-linejoin="round" stroke-width="1.0"/>
  </g>
</svg>
