<?xml version="1.0" encoding="UTF-8" standalone="no"?>
<svg xmlns:xlink="http://www.w3.org/1999/xlink" height="13.5px" width="302.5px" xmlns="http://www.w3.org/2000/svg">
  <g transform="matrix(1.0, 0.0, 0.0, 1.0, -3.5, 2.5)">
    <path d="M4.65 9.5 L4.65 -1.7 34.65 -1.7 34.65 -1.45 95.6 -1.6 95.55 -1.45 154.5 -1.45 154.5 9.85 136.15 9.85 136.15 10.0 124.65 10.0 124.65 9.85 106.15 9.85 106.15 10.0 95.0 10.0 95.0 10.2 75.9 9.85 75.9 10.0 64.4 10.0 64.4 9.85 46.15 9.85 46.15 10.0 34.65 10.0 34.65 9.85 34.5 9.85 33.75 10.1 16.4 10.2 15.8 10.35 4.8 9.75 4.4 10.1 4.65 9.6 4.65 9.5" fill="#ff0000" fill-rule="evenodd" stroke="none"/>
    <path d="M4.65 9.5 L4.25 9.5 M5.6 -2.0 L305.5 -2.0 305.5 10.0 M244.1 10.5 L304.6 10.5 M243.75 10.5 L4.0 10.5 M4.0 -2.0 L4.0 9.0" fill="none" stroke="#ffdea5" stroke-linecap="round" stroke-linejoin="round" stroke-width="1.0"/>
  </g>
</svg>
