<?xml version="1.0" encoding="UTF-8" standalone="no"?>
<svg xmlns:xlink="http://www.w3.org/1999/xlink" height="13.5px" width="302.5px" xmlns="http://www.w3.org/2000/svg">
  <g transform="matrix(1.0, 0.0, 0.0, 1.0, -3.5, 2.5)">
    <path d="M4.65 9.5 L4.65 -1.7 34.65 -1.7 34.65 -1.45 155.5 -1.7 155.5 -1.45 185.25 -2.0 185.4 -1.8 215.5 -1.45 215.5 9.85 197.05 10.2 197.15 10.0 186.15 10.0 186.15 10.1 166.65 10.35 166.65 10.0 155.35 10.0 155.35 10.2 136.25 10.1 136.15 10.0 124.65 10.0 124.65 9.85 106.15 9.85 106.15 10.0 94.75 10.0 94.75 10.35 75.9 9.85 75.9 10.0 64.4 10.0 64.4 9.85 46.15 9.85 46.15 10.0 34.65 10.0 34.65 9.85 34.5 9.85 33.9 10.35 16.3 10.1 15.55 10.25 4.8 9.75 4.8 9.6 4.65 9.6 4.65 9.5" fill="#ff0000" fill-rule="evenodd" stroke="none"/>
    <path d="M185.25 -2.0 L5.6 -2.0 M4.65 9.5 L4.25 9.5 M185.25 -2.0 L305.5 -2.0 305.5 10.0 M243.75 10.5 L4.0 10.5 M4.0 -2.0 L4.0 9.0" fill="none" stroke="#ffdea5" stroke-linecap="round" stroke-linejoin="round" stroke-width="1.0"/>
    <path d="M244.4 10.5 L304.9 10.5" fill="none" stroke="#ffdea5" stroke-linecap="round" stroke-linejoin="round" stroke-width="1.0"/>
  </g>
</svg>
