<?xml version="1.0" encoding="UTF-8" standalone="no"?>
<svg xmlns:xlink="http://www.w3.org/1999/xlink" height="13.5px" width="302.5px" xmlns="http://www.w3.org/2000/svg">
  <g transform="matrix(1.0, 0.0, 0.0, 1.0, -3.5, 2.5)">
    <path d="M4.65 9.5 L4.65 -1.7 34.65 -1.7 34.65 -1.45 304.0 -1.45 304.0 9.85 285.65 9.85 285.65 10.0 274.15 10.0 274.15 9.85 257.15 9.85 257.15 10.0 245.65 10.0 245.65 9.85 226.65 9.85 226.65 10.0 215.15 10.0 215.15 9.85 197.15 10.2 197.15 10.0 185.65 10.0 185.65 10.1 166.4 10.1 166.65 10.0 155.15 10.0 155.15 9.95 136.15 9.85 136.15 10.0 124.65 10.0 124.65 9.85 106.15 9.85 106.15 10.0 94.65 10.0 94.65 9.85 75.9 9.85 75.9 10.0 64.4 10.0 64.4 9.85 46.15 9.85 46.15 10.0 34.65 10.0 34.65 9.85 4.8 9.75 4.8 9.6 4.65 9.6 4.65 9.5 M155.15 9.95 L155.15 9.85 155.0 9.85 155.15 9.95" fill="#ff0000" fill-rule="evenodd" stroke="none"/>
    <path d="M4.65 9.5 L4.25 9.5 M5.6 -2.0 L305.5 -2.0 305.5 10.0 M243.75 10.5 L4.0 10.5 M4.0 -2.0 L4.0 9.0" fill="none" stroke="#ffdea5" stroke-linecap="round" stroke-linejoin="round" stroke-width="1.0"/>
    <path d="M244.5 10.5 L305.0 10.5" fill="none" stroke="#ffdea5" stroke-linecap="round" stroke-linejoin="round" stroke-width="1.0"/>
  </g>
</svg>
