<?xml version="1.0" encoding="UTF-8" standalone="no"?>
<svg xmlns:xlink="http://www.w3.org/1999/xlink" height="28.0px" width="36.0px" xmlns="http://www.w3.org/2000/svg">
  <g transform="matrix(1.0, 0.0, 0.0, 1.0, 0.0, 0.0)">
    <path d="M21.0 4.0 L21.25 4.75 22.0 5.0 22.0 6.0 22.0 7.0 22.0 8.0 21.0 8.0 Q20.35 10.65 23.0 10.1 L24.0 10.0 24.0 11.0 24.0 12.0 24.25 12.75 25.0 13.0 Q25.0 13.5 25.25 13.75 L26.0 14.0 Q26.5 14.0 26.75 14.25 L27.0 15.0 27.25 15.75 28.0 16.0 29.0 16.0 30.0 16.0 31.0 16.0 Q31.0 16.5 31.25 16.75 L32.0 17.0 33.0 17.0 Q32.9 18.65 35.05 18.1 L36.0 18.0 36.0 19.0 35.0 19.0 35.0 20.0 34.0 20.0 34.0 21.0 33.0 21.0 33.0 22.0 32.0 22.0 32.0 23.0 31.0 23.0 31.0 24.0 30.0 24.0 30.0 25.0 29.0 25.0 28.0 25.0 26.0 25.0 25.0 25.0 24.0 25.0 24.0 26.0 23.0 26.0 23.0 27.0 22.0 27.0 21.0 27.0 20.0 27.0 19.0 27.0 Q19.0 26.5 18.8 26.4 L17.0 26.0 17.0 27.0 16.0 27.0 16.0 28.0 15.0 28.0 14.0 28.0 13.0 28.0 12.0 28.0 11.0 28.0 10.75 27.25 10.0 27.0 9.75 26.25 9.0 26.0 8.0 26.0 7.8 25.4 6.0 25.0 5.75 24.25 Q5.5 24.0 5.0 24.0 L4.75 23.25 4.0 23.0 3.75 22.25 3.0 22.0 2.75 21.25 Q2.5 21.0 2.0 21.0 L1.25 20.75 Q1.0 20.5 1.0 20.0 L1.6 19.8 Q2.65 17.9 1.0 18.0 L0.0 18.0 0.0 17.0 0.8 15.9 1.0 15.0 1.75 14.75 2.0 14.0 2.0 13.0 2.0 12.0 2.0 11.0 2.0 10.0 2.75 9.75 3.0 9.0 Q4.65 9.15 4.1 6.95 L4.0 6.0 4.75 5.75 5.0 5.0 Q8.1 5.1 8.0 1.0 L9.0 1.0 10.0 1.0 10.75 0.75 11.0 0.0 12.0 0.0 Q12.5 0.5 13.0 0.5 L13.0 0.0 14.0 0.0 15.0 0.0 16.0 0.0 17.0 0.0 Q17.0 0.5 17.25 0.75 L18.0 1.0 18.25 1.75 19.0 2.0 Q19.0 2.5 19.25 2.75 L20.0 3.0 Q20.0 3.5 20.25 3.75 L21.0 4.0" fill="#deb5d6" fill-rule="evenodd" stroke="none"/>
  </g>
</svg>
