<?xml version="1.0" encoding="UTF-8" standalone="no"?>
<svg xmlns:xlink="http://www.w3.org/1999/xlink" height="22.0px" width="19.0px" xmlns="http://www.w3.org/2000/svg">
  <g transform="matrix(1.0, 0.0, 0.0, 1.0, 0.0, 0.0)">
    <path d="M17.0 5.0 L17.0 10.0 17.0 11.0 17.0 12.0 Q17.0 12.5 17.25 12.75 L18.0 13.0 18.0 14.0 18.25 14.75 19.0 15.0 19.0 16.0 18.0 16.0 18.0 17.0 17.0 17.0 16.0 17.0 16.0 18.0 16.0 19.0 15.0 19.0 15.0 20.0 15.0 21.0 14.0 21.0 14.0 22.0 13.0 22.0 12.0 22.0 11.1 21.8 10.0 21.0 10.0 20.0 9.75 19.25 9.0 19.0 8.75 18.25 Q8.5 18.0 8.0 18.0 L7.0 18.0 6.75 17.25 6.0 17.0 5.75 16.25 Q5.5 16.0 5.0 16.0 L4.0 16.0 3.75 15.25 3.0 15.0 2.0 15.0 1.75 14.25 1.0 14.0 1.0 13.0 1.6 12.8 Q2.65 10.9 1.0 11.0 L0.0 11.0 0.0 10.0 0.75 9.75 1.0 9.0 1.5 9.0 1.0 8.0 0.0 8.0 0.0 7.0 0.75 6.75 1.0 6.0 1.8 4.9 2.0 4.0 1.75 3.25 1.0 3.0 0.8 2.1 0.0 1.0 0.0 0.0 1.0 0.0 2.0 0.0 3.0 0.0 3.25 0.75 4.0 1.0 4.0 2.0 4.0 3.0 Q4.0 3.5 4.25 3.75 L5.0 4.0 Q5.0 4.5 5.25 4.75 L6.0 5.0 Q6.5 5.5 7.0 5.5 L7.0 5.0 7.0 4.0 6.75 3.25 6.0 3.0 6.0 2.0 6.0 1.0 7.0 1.0 8.0 1.0 Q8.0 1.5 8.25 1.75 L9.0 2.0 10.0 2.0 11.0 2.0 12.0 2.0 12.25 2.75 13.0 3.0 14.0 3.0 14.75 2.75 15.0 2.0 15.75 1.75 16.0 1.0 17.0 1.0 18.0 1.0 18.0 2.0 18.0 3.0 18.0 4.0 17.0 4.0 17.0 5.0" fill="#ffffce" fill-rule="evenodd" stroke="none"/>
  </g>
</svg>
