<?xml version="1.0" encoding="UTF-8" standalone="no"?>
<svg xmlns:xlink="http://www.w3.org/1999/xlink" height="12.0px" width="13.0px" xmlns="http://www.w3.org/2000/svg">
  <g transform="matrix(1.0, 0.0, 0.0, 1.0, 0.0, 0.0)">
    <path d="M11.0 6.0 L10.0 6.0 10.0 7.0 9.0 7.0 9.0 8.0 8.0 8.0 7.0 8.0 6.75 7.25 6.0 7.0 6.0 8.0 6.0 9.0 5.0 9.0 5.0 10.0 4.0 10.0 4.0 11.0 3.0 11.0 1.0 11.0 1.0 12.0 0.0 12.0 0.0 11.0 0.0 10.0 0.0 9.0 0.75 8.75 1.0 8.0 1.0 7.0 2.0 7.0 2.75 6.75 3.0 6.0 3.5 6.0 3.0 5.0 3.0 4.0 3.0 3.0 3.0 2.0 3.75 1.75 4.0 1.0 4.0 0.0 5.0 0.0 6.0 0.0 Q6.5 0.5 7.0 0.5 L7.0 0.0 8.0 0.0 9.0 0.0 10.0 0.0 11.1 0.8 12.0 1.0 Q11.4 3.15 12.9 3.5 L13.0 4.0 12.75 4.75 12.0 5.0 12.0 6.0 11.0 6.0 M1.0 9.0 L1.0 9.5 Q3.25 9.5 1.0 9.0 M3.0 7.0 L3.0 7.5 Q5.25 7.5 3.0 7.0 M4.0 4.0 L4.0 4.5 Q6.25 4.5 4.0 4.0 M5.0 2.0 L5.0 2.5 Q7.25 2.5 5.0 2.0 M9.0 4.0 L9.0 4.5 Q11.25 4.5 9.0 4.0 M7.0 5.0 L7.0 5.5 Q9.25 5.5 7.0 5.0 M8.0 2.0 L8.0 2.5 Q10.25 2.5 8.0 2.0" fill="#ffdea5" fill-rule="evenodd" stroke="none"/>
  </g>
</svg>
