<?xml version="1.0" encoding="UTF-8" standalone="no"?>
<svg xmlns:xlink="http://www.w3.org/1999/xlink" height="27.0px" width="31.0px" xmlns="http://www.w3.org/2000/svg">
  <g transform="matrix(1.0, 0.0, 0.0, 1.0, 0.0, 0.0)">
    <path d="M22.0 3.0 L22.0 4.0 Q22.0 4.5 22.25 4.75 L23.0 5.0 23.0 6.0 Q23.3 7.7 25.0 7.95 L26.0 8.0 27.25 9.75 28.0 10.0 28.0 12.0 28.0 13.0 Q28.0 13.5 28.25 13.75 L29.0 14.0 Q29.55 17.45 30.45 20.2 31.0 22.0 31.0 24.0 L30.0 24.0 29.75 23.25 Q29.5 23.0 29.0 23.0 L29.0 24.0 29.0 25.0 29.0 26.0 28.0 26.0 27.85 25.45 25.0 25.0 25.0 26.0 24.0 26.0 23.0 26.0 22.0 26.0 22.0 27.0 21.0 27.0 20.0 27.0 19.9 26.45 16.0 26.0 15.75 25.25 15.0 25.0 14.75 24.25 Q14.5 24.0 14.0 24.0 L13.8 23.1 13.0 22.0 12.75 21.25 12.0 21.0 11.0 21.0 10.75 20.25 10.0 20.0 9.15 19.75 Q7.95 19.05 6.0 19.0 L5.0 19.0 4.0 19.0 4.0 18.0 4.6 17.8 Q5.65 15.9 4.0 16.0 L4.0 17.0 3.0 17.0 3.0 16.0 2.75 15.25 Q2.5 15.0 2.0 15.0 L1.75 14.25 1.0 14.0 0.8 13.1 0.0 12.0 0.5 12.0 0.0 11.0 0.0 10.0 0.0 8.0 0.75 7.75 1.0 7.0 1.0 6.0 1.0 5.0 2.0 5.0 2.0 6.0 2.0 7.0 Q2.5 7.5 3.0 7.5 L3.0 7.0 3.0 6.0 3.0 5.0 2.75 4.25 Q2.5 4.0 2.0 4.0 L2.0 3.0 2.0 2.0 2.0 0.0 3.0 0.0 5.0 0.0 6.0 0.0 6.0 1.0 6.0 2.0 Q6.5 2.5 7.0 2.5 L7.0 2.0 8.0 2.0 Q8.5 2.5 9.0 2.5 L9.0 2.0 10.0 2.0 11.0 2.0 12.0 2.0 Q12.5 2.5 13.0 2.5 L13.0 2.0 13.0 1.0 13.0 0.0 14.0 0.0 15.0 0.0 16.0 0.0 Q16.0 0.5 16.25 0.75 L17.0 1.0 18.0 1.0 18.25 1.75 19.0 2.0 Q19.0 2.5 19.25 2.75 L20.0 3.0 Q20.5 3.5 21.0 3.5 L21.0 3.0 22.0 3.0 M28.0 19.0 L28.0 19.5 Q30.25 19.5 28.0 19.0" fill="#bdd6bd" fill-rule="evenodd" stroke="none"/>
  </g>
</svg>
