<?xml version="1.0" encoding="UTF-8" standalone="no"?>
<svg xmlns:xlink="http://www.w3.org/1999/xlink" height="74.0px" width="156.0px" xmlns="http://www.w3.org/2000/svg">
  <g transform="matrix(1.0, 0.0, 0.0, 1.0, 0.0, 0.0)">
    <path d="M153.0 6.0 L153.25 6.75 154.0 7.0 154.0 8.0 154.0 9.0 154.0 10.0 154.0 11.0 Q154.0 11.5 154.25 11.75 L155.0 12.0 Q155.0 12.5 155.25 12.75 L156.0 13.0 156.0 14.0 156.0 15.0 Q155.5 15.0 155.4 15.2 154.7 16.7 152.0 16.0 L151.0 16.0 151.0 17.0 150.0 17.0 150.0 18.0 149.0 18.0 147.0 18.0 147.0 19.0 147.0 20.0 146.0 20.0 146.0 21.0 146.0 22.0 146.0 23.0 Q146.0 23.5 146.25 23.75 L147.0 24.0 148.0 24.0 148.0 25.0 147.0 25.0 147.0 26.0 146.0 26.0 145.75 25.25 145.0 25.0 144.0 25.0 144.0 26.0 143.0 26.0 142.0 26.0 141.0 26.0 140.0 26.0 Q140.0 26.5 140.25 26.75 L141.0 27.0 140.75 27.75 140.0 28.0 139.0 28.0 138.0 28.0 138.0 29.0 137.0 29.0 137.0 30.0 137.0 31.0 136.0 31.0 136.0 32.0 135.0 32.0 135.0 33.0 134.0 33.0 134.0 34.0 134.0 35.0 134.0 36.0 133.0 36.0 132.0 36.0 132.0 35.0 131.75 34.25 Q131.5 34.0 131.0 34.0 L131.0 35.0 131.0 36.0 131.0 37.0 131.0 38.0 131.0 39.0 Q131.0 39.5 131.25 39.75 L132.0 40.0 132.85 42.05 133.0 43.0 132.0 43.0 132.0 44.0 131.0 44.0 131.0 45.0 130.8 45.6 Q130.0 46.0 129.0 46.0 L128.0 46.0 128.0 47.0 127.0 47.0 127.0 48.0 126.0 48.0 125.0 48.0 125.0 49.0 Q124.5 49.0 124.35 49.2 123.15 51.15 121.0 52.0 L120.0 52.0 120.0 53.0 119.0 53.0 119.0 54.0 118.0 54.0 118.0 55.0 117.75 55.75 117.0 56.0 117.0 57.0 116.0 57.0 Q116.0 57.5 116.25 57.75 L117.0 58.0 117.0 59.0 117.0 60.0 117.25 60.75 118.0 61.0 118.0 62.0 Q118.0 62.5 118.25 62.75 L119.0 63.0 119.85 65.05 120.0 66.0 120.0 67.0 Q120.0 68.0 120.4 68.8 120.5 69.0 121.0 69.0 L121.0 70.0 121.0 71.0 120.0 71.0 120.0 72.0 120.0 73.0 119.0 73.0 119.0 74.0 118.25 73.75 Q118.0 73.5 118.0 73.0 L117.75 72.25 117.0 72.0 116.25 71.75 Q116.0 71.5 116.0 71.0 L115.75 70.25 115.0 70.0 114.75 69.25 114.0 69.0 114.0 68.0 114.0 67.0 113.75 66.25 Q113.5 66.0 113.0 66.0 L113.0 65.0 113.75 64.75 114.0 64.0 113.75 63.25 Q113.5 63.0 113.0 63.0 L112.75 62.25 112.0 62.0 111.75 61.25 111.0 61.0 110.75 60.25 Q110.5 60.0 110.0 60.0 109.5 60.0 109.15 60.25 107.95 60.95 106.0 61.0 L105.75 60.25 105.0 60.0 104.75 59.25 Q104.5 59.0 104.0 59.0 L103.0 59.0 101.0 59.0 100.0 59.0 99.0 59.0 98.0 59.0 97.0 59.0 96.0 59.0 96.0 60.0 96.0 61.0 95.0 61.0 95.0 62.0 94.0 62.0 93.0 62.0 92.75 61.25 Q92.5 61.0 92.0 61.0 L92.0 62.0 92.0 63.0 91.0 63.0 90.75 62.25 90.0 62.0 89.75 61.25 Q89.5 61.0 89.0 61.0 L88.75 60.25 88.0 60.0 88.0 61.0 87.0 61.0 86.0 61.0 85.0 61.0 82.0 61.0 81.0 61.0 81.0 62.0 80.0 62.0 80.0 63.0 79.0 63.0 78.0 63.0 78.0 64.0 77.1 64.2 Q75.2 65.2 74.0 67.0 L74.0 69.0 74.0 70.0 74.0 71.0 74.0 72.0 73.0 72.0 Q73.0 71.5 72.8 71.4 L71.0 71.0 70.0 71.0 69.75 70.25 69.0 70.0 68.75 69.25 Q68.5 69.0 68.0 69.0 L68.0 68.0 67.75 67.25 67.0 67.0 67.0 66.0 66.75 65.25 66.0 65.0 65.75 64.25 Q65.5 64.0 65.0 64.0 L64.75 63.25 64.0 63.0 63.75 62.25 63.0 62.0 62.75 61.25 Q62.5 61.0 62.0 61.0 L61.75 60.25 61.0 60.0 60.0 60.0 60.0 61.0 59.0 61.0 59.0 62.0 58.0 62.0 57.75 61.25 57.0 61.0 57.0 62.0 56.0 62.0 55.0 62.0 54.75 61.25 54.0 61.0 54.0 60.0 53.75 59.25 Q53.5 59.0 53.0 59.0 L52.75 58.25 52.0 58.0 51.75 57.25 51.0 57.0 50.75 56.25 Q50.5 56.0 50.0 56.0 L49.75 55.25 49.0 55.0 48.9 54.45 45.0 54.0 45.0 55.0 44.0 55.0 44.0 56.0 43.0 56.0 38.0 56.0 37.75 55.25 37.0 55.0 37.0 56.0 36.0 56.0 35.0 56.0 34.75 55.25 34.0 55.0 33.75 54.25 33.0 54.0 33.0 55.0 32.0 55.0 31.75 54.25 31.0 54.0 30.0 54.0 29.0 54.0 28.75 53.25 28.0 53.0 27.0 53.0 26.0 53.0 25.75 52.25 25.0 52.0 24.75 51.25 24.0 51.0 24.0 52.0 23.0 52.0 23.0 53.0 22.0 53.0 21.0 53.0 20.0 53.0 20.0 52.0 19.75 51.25 19.0 51.0 18.75 50.35 Q16.0 48.5 13.0 47.0 L12.0 47.0 12.0 46.0 11.75 45.25 Q11.5 45.0 11.0 45.0 L10.75 44.25 10.0 44.0 9.0 44.0 8.75 43.25 Q8.5 43.0 8.0 43.0 L7.75 42.25 7.0 42.0 7.0 41.0 7.0 40.0 6.75 39.25 6.0 39.0 6.0 38.0 6.0 37.0 5.75 36.25 Q5.5 36.0 5.0 36.0 L4.0 36.0 3.85 35.45 Q1.8 34.7 2.0 32.0 L2.0 31.0 1.75 30.25 1.0 30.0 1.0 29.0 1.0 28.0 1.0 27.0 1.0 24.0 0.75 23.25 0.0 23.0 0.0 22.0 0.0 20.0 0.75 19.75 1.0 19.0 1.0 18.0 1.0 17.0 1.0 16.0 1.8 14.9 2.0 14.0 2.0 13.0 2.0 12.0 2.0 11.0 2.0 10.0 2.0 9.0 2.0 8.0 1.75 7.25 1.0 7.0 0.75 6.25 0.0 6.0 0.0 5.0 0.0 4.0 0.0 3.0 1.0 3.0 2.0 3.0 Q2.0 3.5 2.25 3.75 L3.0 4.0 Q4.65 4.15 4.1 1.95 L4.0 1.0 5.0 1.0 6.0 1.0 7.0 1.0 8.0 1.0 9.0 1.0 10.0 1.0 11.0 1.0 12.0 1.0 13.0 1.0 14.0 1.0 15.0 1.0 16.0 1.0 17.0 1.0 18.0 1.0 19.0 1.0 20.0 1.0 21.0 1.0 22.0 1.0 23.0 1.0 24.0 1.0 25.0 1.0 26.0 1.0 27.0 1.0 28.0 1.0 29.0 1.0 30.0 1.0 31.0 1.0 32.0 1.0 33.0 1.0 34.0 1.0 35.0 1.0 36.0 1.0 37.0 1.0 38.0 1.0 39.0 1.0 40.0 1.0 41.0 1.0 42.0 1.0 43.0 1.0 44.0 1.0 45.0 1.0 46.0 1.0 47.0 1.0 48.0 1.0 49.0 1.0 50.0 1.0 51.0 1.0 52.0 1.0 53.0 1.0 54.0 1.0 55.0 1.0 56.0 1.0 57.0 1.0 58.0 1.0 59.0 1.0 60.0 1.0 61.0 1.0 62.0 1.0 63.0 1.0 64.0 1.0 65.0 1.0 66.0 1.0 67.0 1.0 68.0 1.0 69.0 1.0 70.0 1.0 71.0 1.0 72.0 1.0 73.0 1.0 74.0 1.0 75.0 1.0 76.0 1.0 77.0 1.0 78.0 1.0 78.75 0.75 79.0 0.0 80.0 0.0 Q80.0 0.5 80.25 0.75 L81.0 1.0 81.25 1.75 82.0 2.0 83.0 2.0 84.0 2.0 Q84.5 2.5 85.0 2.5 L85.0 2.0 86.0 2.0 Q86.0 2.5 86.25 2.75 L87.0 3.0 88.0 3.0 Q88.0 3.5 88.25 3.75 L89.0 4.0 90.0 4.0 91.0 4.0 92.0 4.0 93.0 4.0 94.0 4.0 93.75 4.75 93.0 5.0 92.0 5.0 92.0 6.0 91.0 6.0 90.0 6.0 90.0 7.0 89.0 7.0 89.0 8.0 88.0 8.0 87.0 8.0 87.25 8.75 88.0 9.0 Q89.0 9.0 89.8 8.6 L90.0 8.0 91.0 8.0 Q91.0 8.5 91.25 8.75 L92.0 9.0 93.0 9.0 94.0 9.0 94.75 8.75 95.0 8.0 96.0 8.0 97.0 8.0 98.0 8.0 104.0 8.95 105.0 9.0 106.0 9.0 107.0 9.0 108.0 9.0 109.0 9.0 110.0 9.0 110.0 10.0 110.0 11.0 109.0 11.0 108.75 10.25 108.0 10.0 108.0 11.0 107.0 11.0 106.75 10.25 106.0 10.0 105.0 10.0 105.0 11.0 104.0 11.0 103.0 11.0 103.0 12.0 102.0 12.0 101.0 12.0 101.0 13.0 100.0 13.0 100.0 14.0 100.0 15.0 100.0 17.0 100.0 18.0 Q100.0 21.0 100.5 23.9 L101.0 24.0 Q101.5 24.5 102.0 24.5 L102.0 24.0 Q103.5 23.0 103.9 21.0 L104.0 20.0 103.75 19.25 103.0 19.0 103.0 18.0 103.0 17.0 103.75 16.75 104.0 16.0 104.0 15.0 104.75 14.75 105.0 14.0 105.75 13.75 106.0 13.0 106.75 12.75 107.0 12.0 108.0 12.0 109.0 12.0 110.8 12.4 111.0 13.0 111.0 14.0 111.25 14.75 112.0 15.0 112.0 16.0 111.1 16.2 110.0 17.0 110.0 18.0 Q110.5 18.5 111.0 18.5 L111.0 18.0 111.75 17.75 112.0 17.0 113.0 17.0 Q113.0 17.5 113.25 17.75 L114.0 18.0 114.0 19.0 114.25 19.75 115.0 20.0 115.0 21.0 114.0 21.0 114.0 22.0 113.0 22.0 113.0 23.0 112.0 23.0 112.0 24.0 111.0 24.0 111.25 24.75 112.0 25.0 113.0 25.0 Q113.3 26.7 115.8 25.6 L116.0 25.0 117.0 25.0 117.75 24.75 118.0 24.0 119.0 24.0 120.0 24.0 120.75 23.75 121.0 23.0 122.0 23.0 122.75 22.75 123.0 22.0 123.0 21.0 123.0 20.0 124.0 20.0 125.0 20.0 126.0 20.0 129.9 19.55 130.0 19.0 130.75 18.75 131.0 18.0 131.0 17.0 131.0 16.0 131.75 15.75 132.0 15.0 133.0 15.0 133.75 14.75 134.0 14.0 143.0 14.0 144.0 14.0 144.75 13.75 145.0 13.0 145.75 12.75 146.0 12.0 146.75 11.75 147.0 11.0 147.8 9.9 148.0 9.0 148.0 8.0 148.75 7.75 149.0 7.0 149.0 6.0 150.0 6.0 151.0 6.0 Q151.5 6.5 152.0 6.5 L152.0 6.0 153.0 6.0 M20.0 49.0 L20.0 49.5 Q22.25 49.5 20.0 49.0 M50.0 54.0 L50.0 54.5 Q52.25 54.5 50.0 54.0 M55.0 57.0 L55.0 57.5 Q57.25 57.5 55.0 57.0 M72.0 68.5 Q74.25 68.5 72.0 68.0 L72.0 68.5 M65.0 62.0 L65.0 62.5 Q67.25 62.5 65.0 62.0 M69.0 65.0 L69.0 65.5 Q71.25 65.5 69.0 65.0 M11.0 43.5 Q13.25 43.5 11.0 43.0 L11.0 43.5 M17.0 46.5 Q19.25 46.5 17.0 46.0 L17.0 46.5 M15.0 41.0 L15.0 41.5 Q17.25 41.5 15.0 41.0 M13.0 42.5 Q15.25 42.5 13.0 42.0 L13.0 42.5 M12.0 38.5 Q14.25 38.5 12.0 38.0 L12.0 38.5 M8.0 35.0 L8.0 35.5 Q10.25 35.5 8.0 35.0 M4.0 31.0 L4.0 31.5 Q6.25 31.5 4.0 31.0 M5.0 26.0 L5.0 26.5 Q7.25 26.5 5.0 26.0 M6.0 30.5 Q8.25 30.5 6.0 30.0 L6.0 30.5 M8.0 29.5 Q10.25 29.5 8.0 29.0 L8.0 29.5 M11.0 33.0 L11.0 33.5 Q13.25 33.5 11.0 33.0 M6.0 12.0 L6.0 12.5 Q8.25 12.5 6.0 12.0 M11.0 24.5 Q13.25 24.5 11.0 24.0 L11.0 24.5 M11.0 15.5 Q13.25 15.5 11.0 15.0 L11.0 15.5 M13.0 19.5 Q15.25 19.5 13.0 19.0 L13.0 19.5 M8.0 21.5 Q10.25 21.5 8.0 21.0 L8.0 21.5 M3.0 22.0 L3.0 22.5 Q5.25 22.5 3.0 22.0 M5.0 17.0 L5.0 17.5 Q7.25 17.5 5.0 17.0 M9.0 16.0 L9.0 16.5 Q11.25 16.5 9.0 16.0 M7.0 6.5 Q9.25 6.5 7.0 6.0 L7.0 6.5 M9.0 11.0 L9.0 11.5 Q11.25 11.5 9.0 11.0 M5.0 7.0 L5.0 7.5 Q7.25 7.5 5.0 7.0 M19.0 6.5 Q21.25 6.5 19.0 6.0 L19.0 6.5 M11.0 6.0 L11.0 6.5 Q13.25 6.5 11.0 6.0 M15.0 6.0 L15.0 6.5 Q17.25 6.5 15.0 6.0 M17.0 11.5 Q19.25 11.5 17.0 11.0 L17.0 11.5 M27.0 6.5 Q29.25 6.5 27.0 6.0 L27.0 6.5 M23.0 6.0 L23.0 6.5 Q25.25 6.5 23.0 6.0 M25.0 11.0 L25.0 11.5 Q27.25 11.5 25.0 11.0 M31.0 6.0 L31.0 6.5 Q33.25 6.5 31.0 6.0 M39.0 6.5 Q41.25 6.5 39.0 6.0 L39.0 6.5 M35.0 6.5 Q37.25 6.5 35.0 6.0 L35.0 6.5 M33.0 11.0 L33.0 11.5 Q35.25 11.5 33.0 11.0 M47.0 6.5 Q49.25 6.5 47.0 6.0 L47.0 6.5 M43.0 6.0 L43.0 6.5 Q45.25 6.5 43.0 6.0 M49.0 11.5 Q51.25 11.5 49.0 11.0 L49.0 11.5 M41.0 11.0 L41.0 11.5 Q43.25 11.5 41.0 11.0 M59.0 6.5 Q61.25 6.5 59.0 6.0 L59.0 6.5 M55.0 6.5 Q57.25 6.5 55.0 6.0 L55.0 6.5 M51.0 6.0 L51.0 6.5 Q53.25 6.5 51.0 6.0 M57.0 11.5 Q59.25 11.5 57.0 11.0 L57.0 11.5 M67.0 6.5 Q69.25 6.5 67.0 6.0 L67.0 6.5 M63.0 6.0 L63.0 6.5 Q65.25 6.5 63.0 6.0 M65.0 11.0 L65.0 11.5 Q67.25 11.5 65.0 11.0 M71.0 6.0 L71.0 6.5 Q73.25 6.5 71.0 6.0 M75.0 6.5 Q77.25 6.5 75.0 6.0 L75.0 6.5 M77.0 10.5 Q79.25 10.5 77.0 10.0 L77.0 10.5 M73.0 11.0 L73.0 11.5 Q75.25 11.5 73.0 11.0 M80.0 5.0 L80.0 5.5 Q82.25 5.5 80.0 5.0 M117.0 67.0 L117.0 67.5 Q119.25 67.5 117.0 67.0 M107.0 59.0 L107.0 59.5 Q109.25 59.5 107.0 59.0 M112.0 60.0 L112.0 60.5 Q114.25 60.5 112.0 60.0 M105.0 27.5 Q107.25 27.5 105.0 27.0 L105.0 27.5 M109.0 28.5 Q111.25 28.5 109.0 28.0 L109.0 28.5 M113.0 30.0 L113.0 30.5 Q115.25 30.5 113.0 30.0 M118.0 29.5 Q120.25 29.5 118.0 29.0 L118.0 29.5 M120.0 28.5 Q122.25 28.5 120.0 28.0 L120.0 28.5 M100.0 27.0 L100.0 27.5 Q102.25 27.5 100.0 27.0 M96.0 13.0 L96.0 13.5 Q98.25 13.5 96.0 13.0 M92.0 13.0 L92.0 13.5 Q94.25 13.5 92.0 13.0 M97.0 18.5 Q99.25 18.5 97.0 18.0 L97.0 18.5 M88.0 13.5 Q90.25 13.5 88.0 13.0 L88.0 13.5 M83.0 8.0 L83.0 8.5 Q85.25 8.5 83.0 8.0 M110.0 22.0 L110.0 22.5 Q112.25 22.5 110.0 22.0 M106.0 22.0 L106.0 22.5 Q108.25 22.5 106.0 22.0 M108.0 17.0 L108.0 17.5 Q110.25 17.5 108.0 17.0 M131.0 42.0 L131.0 42.5 Q133.25 42.5 131.0 42.0 M122.0 27.0 L122.0 27.5 Q124.25 27.5 122.0 27.0 M132.0 28.0 L132.0 28.5 Q134.25 28.5 132.0 28.0 M137.0 27.5 Q139.25 27.5 137.0 27.0 L137.0 27.5 M139.0 20.0 L139.0 20.5 Q141.25 20.5 139.0 20.0 M135.0 23.0 L135.0 23.5 Q137.25 23.5 135.0 23.0 M134.0 19.5 Q136.25 19.5 134.0 19.0 L134.0 19.5 M137.0 15.5 Q139.25 15.5 137.0 15.0 L137.0 15.5 M130.0 24.0 L130.0 24.5 Q132.25 24.5 130.0 24.0 M126.0 24.0 L126.0 24.5 Q128.25 24.5 126.0 24.0 M151.0 12.0 L151.0 12.5 Q153.25 12.5 151.0 12.0 M145.0 19.5 Q147.25 19.5 145.0 19.0 L145.0 19.5 M143.0 20.5 Q145.25 20.5 143.0 20.0 L143.0 20.5 M142.0 15.0 L142.0 15.5 Q144.25 15.5 142.0 15.0 M148.0 16.0 L148.0 16.5 Q150.25 16.5 148.0 16.0" fill="#8cadd6" fill-rule="evenodd" stroke="none"/>
  </g>
</svg>
