<?xml version="1.0" encoding="UTF-8" standalone="no"?>
<svg xmlns:xlink="http://www.w3.org/1999/xlink" height="32.0px" width="30.0px" xmlns="http://www.w3.org/2000/svg">
  <g transform="matrix(1.0, 0.0, 0.0, 1.0, 0.0, 0.0)">
    <path d="M29.0 3.0 Q29.0 3.5 29.25 3.75 L30.0 4.0 30.0 5.0 29.0 5.0 28.0 5.0 27.0 5.0 27.0 6.0 27.0 7.0 27.0 8.0 27.0 9.0 27.0 10.0 27.0 11.0 27.25 11.75 28.0 12.0 28.0 13.0 28.0 14.0 28.0 15.0 28.0 16.0 28.0 17.0 28.0 18.0 Q28.0 19.0 28.4 19.8 L29.0 20.0 29.0 21.0 29.0 22.0 28.0 22.0 Q28.0 22.5 28.25 22.75 L29.0 23.0 29.0 24.0 29.0 25.0 29.0 26.0 Q29.0 27.0 29.4 27.8 29.5 28.0 30.0 28.0 L30.0 29.0 30.0 30.0 30.0 31.0 29.0 31.0 27.0 31.0 26.0 31.0 25.0 31.0 24.0 31.0 23.0 31.0 22.0 31.0 21.0 31.0 20.0 31.0 19.0 31.0 18.0 31.0 17.0 31.0 16.0 31.0 15.0 31.0 14.0 31.0 13.0 31.0 13.0 32.0 12.0 32.0 10.0 32.0 9.75 31.25 9.0 31.0 8.75 30.25 Q8.5 30.0 8.0 30.0 L7.75 29.25 7.0 29.0 6.75 28.25 6.0 28.0 5.0 28.0 4.0 28.0 3.0 28.0 2.0 28.0 0.0 28.0 0.0 27.0 0.8 25.9 1.0 25.0 1.0 24.0 1.0 20.0 0.75 19.25 0.0 19.0 0.0 18.0 0.0 17.0 0.0 16.0 2.0 16.0 3.0 16.0 4.0 16.0 5.0 16.0 6.0 16.0 7.0 16.0 7.75 15.75 8.0 15.0 9.0 15.0 9.6 14.8 Q10.65 12.9 9.0 13.0 L9.0 12.0 9.0 11.0 10.0 11.0 10.75 10.75 11.0 10.0 11.75 9.75 12.0 9.0 12.5 9.0 12.0 8.0 12.0 7.0 12.0 6.0 Q13.65 6.15 13.1 3.95 L13.0 3.0 13.0 2.0 19.0 2.0 20.0 2.0 21.0 2.0 21.75 1.75 22.0 1.0 22.0 0.0 23.0 0.0 24.0 0.0 24.25 0.75 25.0 1.0 26.0 1.0 Q26.0 1.5 26.25 1.75 L27.0 2.0 28.0 2.0 Q28.0 2.5 28.25 2.75 L29.0 3.0 M28.0 29.0 L28.0 29.5 Q30.25 29.5 28.0 29.0 M3.0 25.5 Q5.25 25.5 3.0 25.0 L3.0 25.5 M10.0 29.0 L10.0 29.5 Q12.25 29.5 10.0 29.0 M13.0 27.5 Q15.25 27.5 13.0 27.0 L13.0 27.5 M17.0 12.5 Q19.25 12.5 17.0 12.0 L17.0 12.5 M12.0 22.5 Q14.25 22.5 12.0 22.0 L12.0 22.5 M11.0 17.5 Q13.25 17.5 11.0 17.0 L11.0 17.5 M14.0 13.5 Q16.25 13.5 14.0 13.0 L14.0 13.5 M10.0 23.0 L10.0 23.5 Q12.25 23.5 10.0 23.0 M6.0 24.5 Q8.25 24.5 6.0 24.0 L6.0 24.5 M8.0 19.0 L8.0 19.5 Q10.25 19.5 8.0 19.0 M4.0 20.0 L4.0 20.5 Q6.25 20.5 4.0 20.0 M20.0 10.0 L20.0 10.5 Q22.25 10.5 20.0 10.0 M16.0 8.5 Q18.25 8.5 16.0 8.0 L16.0 8.5 M17.0 3.0 L17.0 3.5 Q19.25 3.5 17.0 3.0 M25.0 16.0 L25.0 16.5 Q27.25 16.5 25.0 16.0 M24.0 9.5 Q26.25 9.5 24.0 9.0 L24.0 9.5 M22.0 5.0 L22.0 5.5 Q24.25 5.5 22.0 5.0" fill="#8cadd6" fill-rule="evenodd" stroke="none"/>
  </g>
</svg>
