<?xml version="1.0" encoding="UTF-8" standalone="no"?>
<svg xmlns:xlink="http://www.w3.org/1999/xlink" height="38.0px" width="44.0px" xmlns="http://www.w3.org/2000/svg">
  <g transform="matrix(1.0, 0.0, 0.0, 1.0, 0.0, 0.0)">
    <path d="M44.0 16.0 L44.0 17.0 43.0 17.0 Q43.0 19.0 43.45 20.9 L44.0 21.0 44.0 22.0 43.0 22.0 43.0 23.0 42.0 23.0 42.0 24.0 42.0 25.0 41.0 25.0 40.0 25.0 Q40.0 24.5 39.8 24.4 L38.0 24.0 38.0 25.0 37.0 25.0 36.0 25.0 35.0 25.0 34.0 25.0 34.0 26.0 33.0 26.0 32.85 25.45 30.0 25.0 30.0 26.0 29.0 26.0 28.0 26.0 27.0 26.0 27.0 27.0 26.0 27.0 26.0 28.0 25.0 28.0 24.0 28.0 24.0 29.0 23.0 29.0 23.0 30.0 22.0 30.0 20.0 30.0 20.0 31.0 19.0 31.0 19.0 32.0 19.0 33.0 18.0 33.0 18.0 34.0 17.0 34.0 17.0 35.0 17.0 36.0 17.0 37.0 16.0 37.0 16.0 38.0 15.1 37.8 14.0 37.0 14.0 38.0 13.0 38.0 12.0 38.0 11.0 38.0 10.0 38.0 10.0 37.0 9.75 36.25 9.0 36.0 8.75 35.25 Q8.5 35.0 8.0 35.0 L7.0 35.0 7.0 34.0 7.55 33.85 Q8.15 32.4 6.0 33.0 L6.0 34.0 5.0 34.0 4.8 33.4 3.0 33.0 3.0 34.0 2.0 34.0 2.0 35.0 1.0 35.0 1.0 34.0 1.0 33.0 1.0 32.0 0.75 31.25 0.0 31.0 0.0 30.0 0.0 29.0 0.0 26.0 1.0 26.0 2.0 26.0 3.0 26.0 4.0 26.0 5.0 26.0 6.0 26.0 7.0 26.0 8.0 26.0 9.0 26.0 10.0 26.0 11.0 26.0 12.0 26.0 13.0 26.0 14.0 26.0 16.85 25.55 17.0 25.0 17.0 24.0 Q17.5 24.0 17.6 23.8 18.65 21.9 17.0 22.0 L17.0 21.0 17.0 20.0 16.8 19.1 16.0 18.0 16.0 17.0 16.0 16.0 16.0 15.0 16.0 14.0 16.0 13.0 16.0 12.0 16.0 11.0 16.0 10.0 16.0 9.0 15.75 8.25 15.0 8.0 15.0 7.0 15.0 6.0 15.0 5.0 15.0 4.0 15.0 3.0 15.0 2.0 14.75 1.25 Q14.5 1.0 14.0 1.0 L14.0 0.0 15.0 0.0 17.0 0.0 18.0 0.0 19.0 0.0 20.0 0.0 21.1 0.8 22.0 1.0 Q22.0 1.5 22.25 1.75 L23.0 2.0 Q23.0 2.5 23.25 2.75 L24.0 3.0 25.1 3.8 26.0 4.0 Q26.0 4.5 26.25 4.75 L27.0 5.0 27.25 5.75 28.0 6.0 29.0 6.0 Q29.0 6.5 29.25 6.75 L30.0 7.0 Q30.3 8.7 32.0 8.95 L33.0 9.0 33.25 9.75 34.0 10.0 Q34.0 10.5 34.25 10.75 L35.0 11.0 Q35.0 11.5 35.25 11.75 L36.0 12.0 37.0 12.0 Q37.0 12.5 37.25 12.75 L38.0 13.0 39.0 13.0 Q39.0 14.0 39.4 14.8 39.5 15.0 40.0 15.0 40.3 16.7 43.0 16.1 L44.0 16.0" fill="#bdd6bd" fill-rule="evenodd" stroke="none"/>
  </g>
</svg>
