<?xml version="1.0" encoding="UTF-8" standalone="no"?>
<svg xmlns:xlink="http://www.w3.org/1999/xlink" height="29.0px" width="41.0px" xmlns="http://www.w3.org/2000/svg">
  <g transform="matrix(1.0, 0.0, 0.0, 1.0, 0.0, 0.0)">
    <path d="M41.0 14.0 L40.0 14.0 40.0 15.0 40.0 16.0 40.0 17.0 40.0 18.0 39.0 18.0 39.0 19.0 38.0 19.0 38.0 20.0 37.0 20.0 37.0 21.0 36.0 21.0 36.0 22.0 35.0 22.0 35.0 23.0 35.0 24.0 35.0 25.0 34.0 25.0 33.0 25.0 33.0 26.0 33.0 27.0 32.0 27.0 31.0 27.0 30.75 26.25 30.0 26.0 29.0 26.0 28.0 26.0 27.0 26.0 26.1 26.2 Q25.5 26.5 25.0 27.0 L25.0 28.0 24.0 28.0 23.0 28.0 22.75 27.25 22.0 27.0 21.75 26.25 21.0 26.0 20.0 26.0 19.0 26.0 19.0 27.0 18.0 27.0 17.0 27.0 16.75 26.25 15.0 25.0 14.0 25.0 13.0 25.0 12.0 25.0 11.0 25.0 10.0 25.0 10.0 26.0 10.0 27.0 9.0 27.0 9.0 28.0 8.0 28.0 8.0 29.0 7.0 29.0 6.0 29.0 5.0 29.0 4.75 28.25 4.0 28.0 3.0 28.0 2.8 27.1 2.0 26.0 1.75 25.25 1.0 25.0 0.75 24.25 0.0 24.0 0.0 23.0 1.0 23.0 2.0 23.0 2.75 22.75 3.0 22.0 4.0 22.0 5.0 22.0 6.0 22.0 7.0 22.0 8.0 22.0 8.75 21.75 9.0 21.0 9.75 20.75 10.0 20.0 10.0 19.0 10.75 18.75 11.0 18.0 11.0 17.0 11.0 16.0 11.0 13.0 11.0 12.0 Q12.0 12.0 12.8 11.6 13.0 11.5 13.0 11.0 L14.0 11.0 15.0 11.0 15.75 10.75 16.0 10.0 16.75 9.75 17.0 9.0 17.75 8.75 18.0 8.0 18.75 7.75 19.0 7.0 Q19.5 6.5 20.1 6.2 L21.0 6.0 21.75 5.75 22.0 5.0 22.75 4.75 23.0 4.0 24.0 4.0 24.75 3.75 25.0 3.0 26.0 3.0 26.75 2.75 27.0 2.0 Q27.5 1.5 28.1 1.2 L29.0 1.0 29.75 0.75 30.0 0.0 31.0 0.0 32.0 0.0 33.0 0.0 33.25 0.75 34.0 1.0 35.0 1.0 36.0 1.0 36.25 1.75 37.0 2.0 38.0 2.0 39.0 2.0 39.0 3.0 39.0 4.0 39.25 4.75 40.0 5.0 40.0 6.0 Q40.0 6.5 40.25 6.75 L41.0 7.0 41.0 8.0 41.0 9.0 41.0 10.0 41.0 11.0 41.0 12.0 41.0 13.0 41.0 14.0 M39.0 11.0 L39.0 11.5 Q41.25 11.5 39.0 11.0" fill="#ffffce" fill-rule="evenodd" stroke="none"/>
  </g>
</svg>
