<?xml version="1.0" encoding="UTF-8" standalone="no"?>
<svg xmlns:xlink="http://www.w3.org/1999/xlink" height="42.0px" width="27.0px" xmlns="http://www.w3.org/2000/svg">
  <g transform="matrix(1.0, 0.0, 0.0, 1.0, 0.0, 0.0)">
    <path d="M25.0 10.0 L26.0 10.0 27.0 10.0 27.0 11.0 27.0 19.0 27.0 20.0 26.0 20.0 25.0 20.0 25.0 21.0 24.0 21.0 24.0 22.0 23.75 22.85 22.0 25.0 22.0 26.0 22.0 27.0 22.0 28.0 21.0 28.0 21.25 28.75 22.0 29.0 23.0 29.0 Q23.0 29.5 23.25 29.75 L24.0 30.0 24.0 31.0 24.0 32.0 23.85 32.55 21.0 33.0 21.0 34.0 21.0 35.0 20.0 35.0 20.0 36.0 19.0 36.0 19.0 37.0 18.0 37.0 18.0 38.0 17.0 38.0 16.0 38.0 15.0 38.0 14.0 38.0 14.0 39.0 14.0 40.0 13.0 40.0 13.0 41.0 12.0 41.0 12.0 42.0 11.0 42.0 10.75 41.25 10.0 41.0 9.0 41.0 8.0 41.0 7.0 41.0 6.0 41.0 5.75 40.25 Q5.5 40.0 5.0 40.0 L4.75 39.25 4.0 39.0 3.75 38.25 3.0 38.0 2.0 38.0 2.0 37.0 3.0 37.0 Q4.0 37.0 4.8 36.6 L5.0 36.0 5.5 36.0 5.0 35.0 4.9 34.5 Q3.4 34.15 4.0 32.0 L4.0 31.0 4.0 30.0 4.0 29.0 4.0 28.0 4.5 27.95 Q4.7 26.3 2.0 27.0 L1.75 26.25 1.0 26.0 0.75 25.25 0.0 25.0 0.0 24.0 0.75 23.75 1.0 23.0 1.75 22.75 2.0 22.0 2.8 20.9 3.0 20.0 3.75 19.75 4.0 19.0 4.75 18.75 5.0 18.0 5.8 16.9 6.0 16.0 6.0 15.0 6.0 14.0 6.55 13.9 Q7.75 8.75 6.0 6.0 L5.75 5.25 Q5.5 5.0 5.0 5.0 L4.75 4.25 4.0 4.0 4.0 3.0 4.0 2.0 4.0 1.0 4.75 0.75 5.0 0.0 6.0 0.0 7.0 0.0 8.0 0.0 Q8.0 0.5 8.25 0.75 L9.0 1.0 9.25 1.75 10.0 2.0 11.0 2.0 12.0 2.0 12.25 2.75 13.0 3.0 14.0 3.0 Q14.0 3.5 14.25 3.75 L15.0 4.0 15.25 4.75 16.0 5.0 17.0 5.0 Q17.0 5.5 17.25 5.75 L18.0 6.0 19.0 6.0 Q19.0 6.5 19.25 6.75 L20.0 7.0 21.0 7.0 21.25 7.75 22.0 8.0 23.0 8.0 Q23.0 8.5 23.25 8.75 L24.0 9.0 24.25 9.75 25.0 10.0 M4.0 21.0 Q4.0 21.5 4.15 21.55 7.9 23.0 4.0 21.0" fill="#deb5d6" fill-rule="evenodd" stroke="none"/>
  </g>
</svg>
