<?xml version="1.0" encoding="UTF-8" standalone="no"?>
<svg xmlns:xlink="http://www.w3.org/1999/xlink" height="10.0px" width="15.0px" xmlns="http://www.w3.org/2000/svg">
  <g transform="matrix(1.0, 0.0, 0.0, 1.0, 0.0, 0.0)">
    <path d="M5.0 3.0 L5.0 3.5 Q7.25 3.5 5.0 3.0 M2.0 3.0 L2.0 3.5 Q4.25 3.5 2.0 3.0 M3.0 1.0 L3.0 1.5 Q5.25 1.5 3.0 1.0 M7.0 2.0 L7.0 2.5 Q9.25 2.5 7.0 2.0 M9.0 3.0 L8.0 3.0 Q8.0 3.5 8.25 3.75 L9.0 4.0 9.5 4.0 9.0 3.0 M11.0 6.0 L11.0 6.5 Q13.25 6.5 11.0 6.0 M11.0 2.0 Q11.0 2.5 11.25 2.75 L12.0 3.0 12.0 4.0 11.0 4.0 Q11.0 4.5 11.25 4.75 L12.0 5.0 13.0 5.0 13.0 6.0 13.0 7.0 Q13.0 7.5 13.25 7.75 L14.0 8.0 Q14.0 8.5 14.25 8.75 L15.0 9.0 15.0 10.0 14.0 10.0 13.0 10.0 12.75 9.25 12.0 9.0 11.0 9.0 10.0 9.0 9.0 9.0 9.0 8.0 9.5 8.0 9.0 7.0 8.75 6.25 Q8.5 6.0 8.0 6.0 L8.0 7.0 7.0 7.0 6.75 6.25 6.0 6.0 5.75 5.25 Q5.5 5.0 5.0 5.0 L4.0 5.0 3.0 5.0 3.0 6.0 2.0 6.0 1.75 5.25 1.0 5.0 0.0 5.0 0.0 4.0 0.75 3.75 1.0 3.0 1.75 2.75 2.0 2.0 2.0 1.0 2.0 0.0 4.0 0.0 5.0 0.0 Q5.5 0.5 6.0 0.5 L6.0 0.0 7.0 0.0 8.0 0.0 Q8.0 0.5 8.25 0.75 L9.0 1.0 9.25 1.75 10.0 2.0 11.0 2.0" fill="#ffdea5" fill-rule="evenodd" stroke="none"/>
  </g>
</svg>
