<?xml version="1.0" encoding="UTF-8" standalone="no"?>
<svg xmlns:xlink="http://www.w3.org/1999/xlink" height="13.0px" width="17.0px" xmlns="http://www.w3.org/2000/svg">
  <g transform="matrix(1.0, 0.0, 0.0, 1.0, 0.0, 0.0)">
    <path d="M17.0 6.0 L17.0 7.0 17.0 8.0 17.0 9.0 17.0 10.0 17.0 11.0 17.0 12.0 16.0 12.0 16.0 13.0 15.0 13.0 14.8 12.1 14.0 11.0 13.8 10.4 12.0 10.0 11.75 9.25 Q11.5 9.0 11.0 9.0 L11.0 8.0 10.75 7.25 10.0 7.0 9.75 6.25 9.0 6.0 8.0 6.0 7.0 6.0 6.0 6.0 6.0 7.0 5.0 7.0 4.0 7.0 3.0 7.0 2.0 7.0 1.75 6.25 1.0 6.0 0.75 5.25 0.0 5.0 0.0 4.0 0.75 3.75 1.0 3.0 2.0 3.0 2.75 2.75 3.0 2.0 3.0 1.0 3.0 0.0 4.0 0.0 Q4.0 0.5 4.25 0.75 L5.0 1.0 6.0 1.0 7.0 1.0 Q7.0 1.5 7.25 1.75 L8.0 2.0 9.0 2.0 10.0 2.0 11.0 2.0 12.0 2.0 Q13.0 2.0 13.8 1.6 L14.0 1.0 15.0 1.0 15.0 2.0 15.0 3.0 14.0 3.0 Q14.0 3.5 14.25 3.75 L15.0 4.0 16.0 4.0 Q16.0 4.5 16.25 4.75 L17.0 5.0 17.0 6.0" fill="#ffffce" fill-rule="evenodd" stroke="none"/>
  </g>
</svg>
