<?xml version="1.0" encoding="UTF-8" standalone="no"?>
<svg xmlns:xlink="http://www.w3.org/1999/xlink" height="8.0px" width="7.0px" xmlns="http://www.w3.org/2000/svg">
  <g transform="matrix(1.0, 0.0, 0.0, 1.0, 0.0, 0.0)">
    <path d="M4.0 4.0 L4.0 4.5 Q6.25 4.5 4.0 4.0 M5.25 1.75 L6.0 2.0 6.0 3.0 6.25 3.75 7.0 4.0 7.0 5.0 6.0 5.0 6.0 6.0 5.0 6.0 5.0 7.0 4.0 7.0 4.0 8.0 3.1 7.8 2.0 7.0 1.75 6.25 1.0 6.0 1.0 5.0 1.0 4.0 0.75 3.25 0.0 3.0 0.0 2.0 0.0 1.0 0.75 0.75 1.0 0.0 2.0 0.0 3.0 0.0 4.0 0.0 5.0 0.0 5.0 1.0 Q5.0 1.5 5.25 1.75" fill="#8cadd6" fill-rule="evenodd" stroke="none"/>
  </g>
</svg>
