<?xml version="1.0" encoding="UTF-8" standalone="no"?>
<svg xmlns:xlink="http://www.w3.org/1999/xlink" height="8.0px" width="9.0px" xmlns="http://www.w3.org/2000/svg">
  <g transform="matrix(1.0, 0.0, 0.0, 1.0, 0.0, 0.0)">
    <path d="M9.0 6.0 L9.0 7.0 9.0 8.0 8.0 8.0 7.0 8.0 6.75 7.25 6.0 7.0 6.0 8.0 5.0 8.0 4.8 7.1 4.0 6.0 3.75 5.25 3.0 5.0 2.75 4.25 Q2.5 4.0 2.0 4.0 L1.0 4.0 0.0 4.0 0.0 3.0 0.0 2.0 0.75 1.75 1.0 1.0 1.75 0.75 2.0 0.0 3.0 0.0 3.0 1.0 3.25 1.75 4.0 2.0 Q4.0 2.5 4.25 2.75 L5.0 3.0 6.0 3.0 Q6.0 4.0 6.4 4.8 6.5 5.0 7.0 5.0 7.5 5.5 8.1 5.8 L9.0 6.0" fill="#deb5d6" fill-rule="evenodd" stroke="none"/>
  </g>
</svg>
