<?xml version="1.0" encoding="UTF-8" standalone="no"?>
<svg xmlns:xlink="http://www.w3.org/1999/xlink" height="13.0px" width="14.0px" xmlns="http://www.w3.org/2000/svg">
  <g transform="matrix(1.0, 0.0, 0.0, 1.0, 0.0, 0.0)">
    <path d="M1.0 6.0 L1.0 6.5 Q3.25 6.5 1.0 6.0 M6.0 9.0 L6.0 9.5 Q8.25 9.5 6.0 9.0 M9.0 9.0 L9.0 9.5 Q11.25 9.5 9.0 9.0 M8.0 7.5 Q10.25 7.5 8.0 7.0 L8.0 7.5 M1.0 9.0 L1.0 9.5 Q3.25 9.5 1.0 9.0 M3.0 11.5 Q5.25 11.5 3.0 11.0 L3.0 11.5 M3.0 8.0 L3.0 8.5 Q5.25 8.5 3.0 8.0 M5.0 7.0 L5.0 7.5 Q7.25 7.5 5.0 7.0 M5.0 3.0 L5.0 3.5 Q7.25 3.5 5.0 3.0 M2.0 3.5 Q4.25 3.5 2.0 3.0 L2.0 3.5 M4.0 5.0 L4.0 5.5 Q6.25 5.5 4.0 5.0 M3.0 1.5 Q5.25 1.5 3.0 1.0 L3.0 1.5 M9.0 4.0 L9.0 4.5 Q11.25 4.5 9.0 4.0 M7.0 5.0 L7.0 5.5 Q9.25 5.5 7.0 5.0 M10.75 1.75 L11.0 1.0 12.0 1.0 12.0 2.0 12.0 3.0 12.0 4.0 11.75 4.75 11.0 5.0 Q11.0 6.0 11.4 6.8 11.5 7.0 12.0 7.0 L13.0 7.0 14.0 7.0 14.0 8.0 13.0 8.0 12.0 8.0 11.0 8.0 11.0 9.0 10.75 9.75 10.0 10.0 10.0 11.0 10.0 12.0 9.0 12.0 8.0 12.0 7.0 12.0 6.75 11.25 6.0 11.0 6.0 12.0 5.0 12.0 4.0 12.0 4.0 13.0 3.0 13.0 2.0 13.0 1.0 13.0 1.0 12.0 1.0 11.0 0.75 10.25 0.0 10.0 0.0 9.0 0.0 8.0 0.5 8.0 0.0 7.0 0.0 6.0 0.0 5.0 0.5 5.0 0.0 4.0 0.0 3.0 0.0 2.0 0.5 2.0 0.0 1.0 0.0 0.0 5.0 0.0 6.0 0.0 6.25 0.75 7.0 1.0 8.0 1.0 8.0 2.0 Q8.5 2.5 9.0 2.5 L9.0 2.0 10.0 2.0 10.75 1.75" fill="#ffdea5" fill-rule="evenodd" stroke="none"/>
  </g>
</svg>
