<?xml version="1.0" encoding="UTF-8" standalone="no"?>
<svg xmlns:xlink="http://www.w3.org/1999/xlink" height="15.0px" width="7.0px" xmlns="http://www.w3.org/2000/svg">
  <g transform="matrix(1.0, 0.0, 0.0, 1.0, 0.0, 0.0)">
    <path d="M2.0 9.0 L2.0 9.5 Q4.25 9.5 2.0 9.0 M6.0 0.0 L6.25 0.75 7.0 1.0 7.0 2.0 7.0 3.0 7.0 4.0 7.0 5.0 6.0 5.0 5.0 5.0 4.75 4.25 4.0 4.0 3.0 4.0 3.0 5.0 2.0 5.0 Q2.0 5.5 2.25 5.75 L3.0 6.0 3.25 6.75 4.0 7.0 Q4.0 7.5 4.25 7.75 L5.0 8.0 5.0 9.0 5.0 10.0 4.0 10.0 Q4.0 10.5 4.25 10.75 L5.0 11.0 5.0 12.0 5.0 13.0 4.0 13.0 4.0 14.0 3.0 14.0 3.0 15.0 2.0 15.0 1.0 15.0 0.0 15.0 0.0 14.0 0.6 13.8 Q1.7 11.3 0.0 11.0 L0.0 10.0 0.0 9.0 0.0 8.0 0.0 7.0 0.0 6.0 0.0 4.0 0.0 3.0 0.0 2.0 0.0 1.0 0.0 0.0 1.0 0.0 2.0 0.0 3.0 0.0 4.0 0.0 5.0 0.0 6.0 0.0" fill="#ffffce" fill-rule="evenodd" stroke="none"/>
  </g>
</svg>
