<?xml version="1.0" encoding="UTF-8" standalone="no"?>
<svg xmlns:xlink="http://www.w3.org/1999/xlink" height="15.0px" width="6.0px" xmlns="http://www.w3.org/2000/svg">
  <g transform="matrix(1.0, 0.0, 0.0, 1.0, 0.0, 0.0)">
    <path d="M6.0 2.0 L6.0 3.0 5.0 3.0 5.0 5.0 5.0 6.0 4.0 6.0 4.0 7.0 4.0 8.0 3.0 8.0 Q3.0 10.0 3.45 11.9 L4.0 12.0 4.0 13.0 4.0 14.0 4.0 15.0 3.0 15.0 2.0 15.0 2.0 14.0 1.75 13.25 1.0 13.0 1.0 12.0 1.75 11.75 2.0 11.0 1.75 10.25 1.0 10.0 1.0 9.0 1.0 8.0 1.0 7.0 1.5 7.0 1.0 6.0 0.75 5.15 Q0.05 3.95 0.0 2.0 L1.0 2.0 2.0 2.0 2.75 1.75 3.0 1.0 Q3.5 0.5 4.1 0.2 L5.0 0.0 6.0 0.0 6.0 2.0" fill="#bdd6bd" fill-rule="evenodd" stroke="none"/>
  </g>
</svg>
