<?xml version="1.0" encoding="UTF-8" standalone="no"?>
<svg xmlns:xlink="http://www.w3.org/1999/xlink" height="23.0px" width="30.0px" xmlns="http://www.w3.org/2000/svg">
  <g transform="matrix(1.0, 0.0, 0.0, 1.0, 0.0, 0.0)">
    <path d="M28.25 1.75 L29.0 2.0 Q29.0 2.5 29.25 2.75 L30.0 3.0 30.0 4.0 30.0 5.0 29.0 5.0 28.0 5.0 28.0 6.0 28.0 7.0 27.0 7.0 26.0 7.0 Q26.0 7.5 26.25 7.75 L27.0 8.0 27.0 9.0 27.0 10.0 27.0 11.0 27.0 12.0 26.0 12.0 26.0 13.0 25.0 13.0 24.0 13.0 23.0 13.0 Q23.0 13.5 23.25 13.75 L24.0 14.0 24.0 15.0 23.0 15.0 23.0 16.0 23.0 17.0 22.0 17.0 21.75 16.25 21.0 16.0 20.0 16.0 19.0 16.0 19.0 17.0 18.0 17.0 18.0 18.0 17.0 18.0 16.0 18.0 16.0 19.0 15.0 19.0 15.0 20.0 14.0 20.0 13.0 20.0 12.0 20.0 12.25 20.75 13.0 21.0 13.0 22.0 13.0 23.0 12.0 23.0 11.75 22.25 Q11.5 22.0 11.0 22.0 L10.75 21.25 10.0 21.0 10.0 22.0 10.0 23.0 9.0 23.0 8.75 22.25 Q8.5 22.0 8.0 22.0 L7.75 21.25 7.0 21.0 7.0 20.0 6.75 19.25 6.0 19.0 5.0 19.0 4.0 19.0 3.75 18.25 3.0 18.0 2.0 18.0 0.0 18.0 0.0 17.0 0.0 11.0 0.75 10.75 1.0 10.0 1.75 9.75 2.0 9.0 2.0 8.0 2.5 8.0 2.0 7.0 2.0 6.0 2.0 4.0 2.5 4.0 2.0 3.0 2.0 2.0 2.75 1.75 3.0 1.0 3.75 0.75 4.0 0.0 5.0 0.0 8.0 0.0 9.0 0.0 9.25 0.75 10.0 1.0 Q10.5 1.5 11.0 1.5 L11.0 1.0 12.0 1.0 13.0 1.0 14.0 1.0 15.0 1.0 15.25 1.75 16.0 2.0 17.0 2.0 Q17.5 2.5 18.0 2.5 L18.0 2.0 19.75 0.75 20.0 0.0 21.0 0.0 22.0 0.0 23.0 0.0 Q23.0 0.5 23.25 0.75 L24.0 1.0 25.0 1.0 26.0 1.0 27.0 1.0 28.0 1.0 Q28.0 1.5 28.25 1.75 M8.0 12.0 L8.0 12.5 Q10.25 12.5 8.0 12.0 M4.0 12.5 Q6.25 12.5 4.0 12.0 L4.0 12.5 M1.0 12.5 Q3.25 12.5 1.0 12.0 L1.0 12.5 M20.0 12.0 L20.0 12.5 Q22.25 12.5 20.0 12.0 M17.0 12.5 Q19.25 12.5 17.0 12.0 L17.0 12.5 M14.0 12.5 Q16.25 12.5 14.0 12.0 L14.0 12.5 M11.0 12.5 Q13.25 12.5 11.0 12.0 L11.0 12.5 M13.0 16.0 L13.0 16.5 Q15.25 16.5 13.0 16.0 M14.0 18.0 L14.0 18.5 Q16.25 18.5 14.0 18.0 M11.0 18.5 Q13.25 18.5 11.0 18.0 L11.0 18.5 M12.0 14.0 L12.0 14.5 Q14.25 14.5 12.0 14.0 M15.0 14.0 L15.0 14.5 Q17.25 14.5 15.0 14.0 M16.0 16.5 Q18.25 16.5 16.0 16.0 L16.0 16.5 M18.0 14.0 L18.0 14.5 Q20.25 14.5 18.0 14.0 M9.0 19.0 L9.0 19.5 Q11.25 19.5 9.0 19.0 M4.0 15.0 L4.0 15.5 Q6.25 15.5 4.0 15.0 M5.0 17.0 L5.0 17.5 Q7.25 17.5 5.0 17.0 M1.0 16.5 Q3.25 16.5 1.0 16.0 L1.0 16.5 M2.0 14.0 L2.0 14.5 Q4.25 14.5 2.0 14.0 M9.0 14.0 L9.0 14.5 Q11.25 14.5 9.0 14.0 M10.0 16.0 L10.0 16.5 Q12.25 16.5 10.0 16.0 M8.0 17.0 L8.0 17.5 Q10.25 17.5 8.0 17.0 M7.0 15.0 L7.0 15.5 Q9.25 15.5 7.0 15.0 M6.0 13.5 Q8.25 13.5 6.0 13.0 L6.0 13.5 M5.0 6.0 L5.0 6.5 Q7.25 6.5 5.0 6.0 M8.0 6.0 L8.0 6.5 Q10.25 6.5 8.0 6.0 M6.0 8.5 Q8.25 8.5 6.0 8.0 L6.0 8.5 M7.0 10.5 Q9.25 10.5 7.0 10.0 L7.0 10.5 M9.0 8.0 L9.0 8.5 Q11.25 8.5 9.0 8.0 M10.0 10.0 L10.0 10.5 Q12.25 10.5 10.0 10.0 M4.0 9.0 L4.0 9.5 Q6.25 9.5 4.0 9.0 M2.0 10.0 L2.0 10.5 Q4.25 10.5 2.0 10.0 M3.0 5.0 L3.0 5.5 Q5.25 5.5 3.0 5.0 M4.0 1.0 L4.0 1.5 Q6.25 1.5 4.0 1.0 M6.0 3.0 L6.0 3.5 Q8.25 3.5 6.0 3.0 M8.0 4.0 L8.0 4.5 Q10.25 4.5 8.0 4.0 M10.0 5.0 L10.0 5.5 Q12.25 5.5 10.0 5.0 M7.0 1.0 L7.0 1.5 Q9.25 1.5 7.0 1.0 M20.0 6.0 L20.0 6.5 Q22.25 6.5 20.0 6.0 M17.0 6.5 Q19.25 6.5 17.0 6.0 L17.0 6.5 M19.0 8.0 L19.0 8.5 Q21.25 8.5 19.0 8.0 M20.0 10.0 L20.0 10.5 Q22.25 10.5 20.0 10.0 M16.0 8.5 Q18.25 8.5 16.0 8.0 L16.0 8.5 M17.0 10.5 Q19.25 10.5 17.0 10.0 L17.0 10.5 M14.0 10.5 Q16.25 10.5 14.0 10.0 L14.0 10.5 M12.0 9.5 Q14.25 9.5 12.0 9.0 L12.0 9.5 M11.0 7.5 Q13.25 7.5 11.0 7.0 L11.0 7.5 M14.0 7.0 L14.0 7.5 Q16.25 7.5 14.0 7.0 M11.0 3.5 Q13.25 3.5 11.0 3.0 L11.0 3.5 M13.0 5.5 Q15.25 5.5 13.0 5.0 L13.0 5.5 M15.0 4.0 L15.0 4.5 Q17.25 4.5 15.0 4.0 M13.0 2.5 Q15.25 2.5 13.0 2.0 L13.0 2.5 M19.0 4.0 L19.0 4.5 Q21.25 4.5 19.0 4.0 M20.0 2.0 L20.0 2.5 Q22.25 2.5 20.0 2.0 M21.0 14.5 Q23.25 14.5 21.0 14.0 L21.0 14.5 M23.0 6.0 L23.0 6.5 Q25.25 6.5 23.0 6.0 M22.0 8.5 Q24.25 8.5 22.0 8.0 L22.0 8.5 M25.0 11.0 L25.0 11.5 Q27.25 11.5 25.0 11.0 M24.0 9.5 Q26.25 9.5 24.0 9.0 L24.0 9.5 M22.0 11.5 Q24.25 11.5 22.0 11.0 L22.0 11.5 M22.0 3.5 Q24.25 3.5 22.0 3.0 L22.0 3.5 M24.0 5.0 L24.0 5.5 Q26.25 5.5 24.0 5.0 M24.0 2.0 L24.0 2.5 Q26.25 2.5 24.0 2.0 M26.0 3.0 L26.0 3.5 Q28.25 3.5 26.0 3.0" fill="#ffdea5" fill-rule="evenodd" stroke="none"/>
  </g>
</svg>
