<?xml version="1.0" encoding="UTF-8" standalone="no"?>
<svg xmlns:xlink="http://www.w3.org/1999/xlink" height="20.0px" width="19.0px" xmlns="http://www.w3.org/2000/svg">
  <g transform="matrix(1.0, 0.0, 0.0, 1.0, 0.0, 0.0)">
    <path d="M17.0 6.0 L17.0 7.0 16.0 7.0 16.0 8.0 15.0 8.0 15.0 9.0 14.0 9.0 Q14.0 9.5 14.25 9.75 L15.0 10.0 15.25 10.75 16.0 11.0 16.0 12.0 15.0 12.0 15.25 12.75 16.0 13.0 Q16.0 14.0 16.4 14.8 L17.0 15.0 17.0 16.0 Q17.0 16.5 17.25 16.75 L18.0 17.0 18.25 17.75 19.0 18.0 19.0 19.0 19.0 20.0 18.0 20.0 17.0 20.0 16.75 19.25 16.0 19.0 15.0 19.0 14.0 19.0 13.0 19.0 Q13.0 18.5 12.8 18.4 L11.0 18.0 11.0 19.0 10.0 19.0 7.0 19.0 6.0 19.0 5.0 19.0 4.0 19.0 3.75 18.25 3.0 18.0 3.0 17.0 3.0 16.0 2.75 15.25 Q2.5 15.0 2.0 15.0 L1.75 14.25 1.0 14.0 0.75 13.25 0.0 13.0 0.0 12.0 0.0 11.0 0.0 10.0 0.0 9.0 Q1.0 9.0 1.8 8.6 L2.0 8.0 3.0 8.0 5.0 8.0 6.0 8.0 Q6.5 8.5 7.0 8.5 L7.0 8.0 7.75 7.75 8.0 7.0 8.75 6.75 9.0 6.0 9.0 5.0 9.0 4.0 9.75 3.75 10.0 3.0 10.75 2.75 11.0 2.0 11.5 2.0 11.0 1.0 11.0 0.0 12.0 0.0 13.0 0.0 Q13.0 0.5 13.25 0.75 L14.0 1.0 Q14.0 1.5 14.25 1.75 L15.0 2.0 16.0 2.0 Q16.0 2.5 16.25 2.75 L17.0 3.0 17.0 4.0 17.0 5.0 17.0 6.0 M8.0 10.5 Q10.25 10.5 8.0 10.0 L8.0 10.5 M11.0 3.5 Q13.25 3.5 11.0 3.0 L11.0 3.5" fill="#bdd6bd" fill-rule="evenodd" stroke="none"/>
  </g>
</svg>
