<?xml version="1.0" encoding="UTF-8" standalone="no"?>
<svg xmlns:xlink="http://www.w3.org/1999/xlink" height="20.0px" width="32.0px" xmlns="http://www.w3.org/2000/svg">
  <g transform="matrix(1.0, 0.0, 0.0, 1.0, 0.0, 0.0)">
    <path d="M21.25 0.75 L22.0 1.0 22.0 2.0 22.0 3.0 22.0 4.0 22.0 5.0 Q22.0 5.5 22.25 5.75 L23.0 6.0 24.0 6.0 24.0 7.0 Q24.5 7.5 25.0 7.5 L25.0 7.0 26.0 7.0 Q26.0 7.5 26.25 7.75 L27.0 8.0 27.0 9.0 27.25 9.75 28.0 10.0 29.0 10.0 29.0 11.0 Q29.0 11.5 29.25 11.75 L30.0 12.0 30.25 12.75 31.0 13.0 32.0 13.0 32.0 14.0 31.0 14.0 30.0 14.0 29.0 14.0 28.0 14.0 27.0 14.0 26.75 13.25 Q26.5 13.0 26.0 13.0 L26.0 14.0 25.0 14.0 24.0 14.0 23.75 13.25 Q23.5 13.0 23.0 13.0 L23.0 14.0 23.0 15.0 22.0 15.0 21.0 15.0 20.0 15.0 20.0 16.0 19.0 16.0 18.75 15.25 18.0 15.0 18.0 16.0 17.0 16.0 16.0 16.0 15.0 16.0 14.75 15.25 Q14.5 15.0 14.0 15.0 L13.8 14.4 12.0 14.0 11.0 14.0 10.0 14.0 9.0 14.0 9.0 15.0 9.0 16.0 9.0 17.0 9.0 18.0 8.0 18.0 7.0 18.0 6.0 18.0 5.75 17.25 Q5.5 17.0 5.0 17.0 L5.0 18.0 4.0 18.0 4.0 19.0 3.0 19.0 3.0 20.0 2.0 20.0 1.75 19.25 1.0 19.0 1.0 18.0 1.5 18.0 1.0 17.0 0.8 16.1 0.0 15.0 0.0 14.0 0.0 13.0 0.5 13.0 0.0 12.0 0.0 11.0 0.75 10.75 1.0 10.0 1.0 9.0 2.0 9.0 3.0 9.0 Q3.5 9.5 4.0 9.5 L4.0 9.0 5.0 9.0 5.75 8.75 6.0 8.0 7.0 8.0 8.0 8.0 Q8.0 8.5 8.25 8.75 L9.0 9.0 9.75 8.75 10.0 8.0 10.0 7.0 10.75 6.75 11.0 6.0 11.75 5.75 12.0 5.0 13.0 5.0 Q13.5 5.5 14.0 5.5 L14.0 5.0 14.75 4.75 15.0 4.0 15.75 3.75 16.0 3.0 16.75 2.75 17.0 2.0 17.75 1.75 18.0 1.0 18.75 0.75 19.0 0.0 20.0 0.0 21.0 0.0 21.25 0.75 M7.0 12.0 L7.0 12.5 Q9.25 12.5 7.0 12.0 M11.0 12.5 Q13.25 12.5 11.0 12.0 L11.0 12.5 M14.0 13.5 Q16.25 13.5 14.0 13.0 L14.0 13.5 M17.0 13.0 L17.0 13.5 Q19.25 13.5 17.0 13.0 M20.0 13.0 L20.0 13.5 Q22.25 13.5 20.0 13.0 M3.0 16.0 L3.0 16.5 Q5.25 16.5 3.0 16.0 M1.0 14.5 Q3.25 14.5 1.0 14.0 L1.0 14.5 M4.0 13.0 L4.0 13.5 Q6.25 13.5 4.0 13.0 M7.0 16.0 L7.0 16.5 Q9.25 16.5 7.0 16.0 M6.0 14.5 Q8.25 14.5 6.0 14.0 L6.0 14.5 M7.0 9.0 L7.0 9.5 Q9.25 9.5 7.0 9.0 M9.0 11.0 L9.0 11.5 Q11.25 11.5 9.0 11.0 M5.0 10.0 L5.0 10.5 Q7.25 10.5 5.0 10.0 M2.0 11.0 L2.0 11.5 Q4.25 11.5 2.0 11.0 M17.0 6.0 L17.0 6.5 Q19.25 6.5 17.0 6.0 M20.0 9.0 L20.0 9.5 Q22.25 9.5 20.0 9.0 M17.0 9.5 Q19.25 9.5 17.0 9.0 L17.0 9.5 M19.0 11.5 Q21.25 11.5 19.0 11.0 L19.0 11.5 M16.0 11.0 L16.0 11.5 Q18.25 11.5 16.0 11.0 M19.0 7.5 Q21.25 7.5 19.0 7.0 L19.0 7.5 M14.0 9.5 Q16.25 9.5 14.0 9.0 L14.0 9.5 M11.0 9.5 Q13.25 9.5 11.0 9.0 L11.0 9.5 M13.0 11.5 Q15.25 11.5 13.0 11.0 L13.0 11.5 M12.0 7.0 L12.0 7.5 Q14.25 7.5 12.0 7.0 M15.0 7.0 L15.0 7.5 Q17.25 7.5 15.0 7.0 M20.0 4.0 L20.0 4.5 Q22.25 4.5 20.0 4.0 M16.0 4.0 L16.0 4.5 Q18.25 4.5 16.0 4.0 M20.0 1.0 L20.0 1.5 Q22.25 1.5 20.0 1.0 M18.0 2.0 L18.0 2.5 Q20.25 2.5 18.0 2.0 M28.0 12.0 L28.0 12.5 Q30.25 12.5 28.0 12.0 M21.0 6.5 Q23.25 6.5 21.0 6.0 L21.0 6.5 M22.0 11.0 L22.0 11.5 Q24.25 11.5 22.0 11.0 M23.0 9.0 L23.0 9.5 Q25.25 9.5 23.0 9.0 M25.0 11.0 L25.0 11.5 Q27.25 11.5 25.0 11.0" fill="#ffdea5" fill-rule="evenodd" stroke="none"/>
  </g>
</svg>
