<?xml version="1.0" encoding="UTF-8" standalone="no"?>
<svg xmlns:xlink="http://www.w3.org/1999/xlink" height="47.0px" width="51.0px" xmlns="http://www.w3.org/2000/svg">
  <g transform="matrix(1.0, 0.0, 0.0, 1.0, 0.0, 0.0)">
    <path d="M51.0 6.0 L50.0 6.0 50.0 11.0 49.0 11.0 49.0 12.0 48.0 12.0 48.0 15.0 47.0 15.0 47.0 18.0 46.0 18.0 Q46.0 18.5 46.25 18.75 L47.0 19.0 47.0 24.0 46.0 24.0 46.0 30.0 46.8 31.1 47.0 32.0 Q47.0 32.5 47.25 32.75 L48.0 33.0 48.25 33.75 49.0 34.0 49.0 35.0 Q49.0 35.5 48.8 35.6 48.0 36.0 47.0 36.0 L46.0 36.0 46.0 37.0 45.0 37.0 45.0 38.0 44.0 38.0 44.0 40.0 Q44.0 40.5 44.25 40.75 L45.0 41.0 45.0 43.0 44.0 43.0 44.0 47.0 42.0 47.0 41.75 46.25 Q41.5 46.0 41.0 46.0 L40.75 45.25 40.0 45.0 40.0 46.0 37.0 46.0 36.75 45.25 36.0 45.0 35.0 45.0 34.85 44.45 Q33.05 43.95 32.0 43.0 L28.0 43.0 28.0 44.0 27.0 44.0 27.0 41.0 26.75 40.25 Q26.5 40.0 26.0 40.0 L26.0 37.0 26.1 36.05 Q26.65 33.9 25.0 34.0 L24.0 34.0 23.8 33.1 23.0 32.0 23.0 33.0 22.0 33.0 Q22.0 32.5 21.8 32.4 L20.0 32.0 20.0 33.0 19.0 33.0 19.0 35.0 14.0 35.0 14.0 34.0 13.75 33.25 13.0 33.0 13.0 32.0 12.75 31.25 12.0 31.0 11.75 30.25 Q11.5 30.0 11.0 30.0 L10.85 29.45 8.0 29.0 8.0 30.0 1.0 30.0 0.75 29.25 0.0 29.0 0.0 28.0 0.75 27.75 1.0 27.0 5.0 27.0 Q4.9 28.65 6.8 27.6 7.0 27.5 7.0 27.0 L7.75 26.75 8.0 26.0 8.0 25.0 9.0 25.0 9.75 24.75 10.0 24.0 10.75 23.75 11.0 23.0 11.0 20.0 11.75 19.75 12.0 19.0 12.75 18.75 13.0 18.0 13.75 17.75 14.0 17.0 14.75 16.75 15.0 16.0 15.0 15.0 15.8 13.9 16.0 13.0 16.0 8.0 16.8 6.9 17.0 6.0 Q18.65 6.15 18.1 3.95 L18.0 2.0 18.75 1.75 19.0 1.0 22.0 1.0 Q22.0 1.5 22.25 1.75 L23.0 2.0 Q23.5 2.5 24.1 2.8 L25.0 3.0 Q24.9 4.65 26.8 3.6 L27.0 3.0 28.0 3.0 Q29.0 3.0 29.8 2.6 L30.0 2.0 31.0 2.0 31.75 1.75 32.0 1.0 35.0 1.0 35.75 0.75 36.0 0.0 37.0 0.0 Q37.0 0.5 37.25 0.75 L38.0 1.0 42.0 1.0 42.25 1.75 43.0 2.0 Q43.0 2.5 43.25 2.75 L44.0 3.0 45.0 3.0 Q46.0 3.0 46.8 2.6 L47.0 2.0 48.0 2.0 48.25 2.75 49.0 3.0 Q49.0 3.5 49.25 3.75 L50.0 4.0 Q50.0 4.5 50.25 4.75 L51.0 5.0 51.0 6.0 M42.0 45.0 L42.0 45.5 Q44.25 45.5 42.0 45.0" fill="#8cadd6" fill-rule="evenodd" stroke="none"/>
  </g>
</svg>
