<?xml version="1.0" encoding="UTF-8" standalone="no"?>
<svg xmlns:xlink="http://www.w3.org/1999/xlink" height="14.0px" width="13.0px" xmlns="http://www.w3.org/2000/svg">
  <g transform="matrix(1.0, 0.0, 0.0, 1.0, 0.0, 0.0)">
    <path d="M11.0 2.5 L11.0 2.0 12.0 2.0 12.0 3.0 12.0 4.0 11.0 4.0 11.0 5.0 Q11.0 5.5 11.25 5.75 L12.0 6.0 12.0 7.0 12.25 7.75 13.0 8.0 13.0 9.0 12.0 9.0 12.0 10.0 11.0 10.0 10.0 10.0 10.0 11.0 10.0 12.0 9.0 12.0 9.0 11.0 8.8 10.4 7.0 10.0 7.0 11.0 6.0 11.0 5.0 11.0 5.0 12.0 5.0 13.0 5.0 14.0 4.0 14.0 3.0 14.0 2.75 13.25 Q2.5 13.0 2.0 13.0 L1.8 12.1 1.0 11.0 0.8 10.1 0.0 9.0 0.0 8.0 0.0 7.0 0.0 6.0 Q3.3 5.95 1.25 4.65 1.0 4.5 1.0 4.0 L2.0 4.0 3.0 4.0 3.75 3.75 4.0 3.0 4.75 2.75 5.0 2.0 5.0 1.0 5.0 0.0 8.0 0.0 9.0 0.0 Q9.0 1.0 9.4 1.8 9.5 2.0 10.0 2.0 10.5 2.5 11.0 2.5" fill="#deb5d6" fill-rule="evenodd" stroke="none"/>
  </g>
</svg>
