<?xml version="1.0" encoding="UTF-8" standalone="no"?>
<svg xmlns:xlink="http://www.w3.org/1999/xlink" height="31.0px" width="32.0px" xmlns="http://www.w3.org/2000/svg">
  <g transform="matrix(1.0, 0.0, 0.0, 1.0, 0.0, 0.0)">
    <path d="M25.0 5.0 L25.0 6.0 24.0 6.0 24.25 6.75 25.0 7.0 Q25.0 8.5 25.45 9.85 L26.0 10.0 Q26.0 10.5 26.25 10.75 L27.0 11.0 27.0 12.0 27.0 13.0 26.0 13.0 Q26.0 13.5 26.25 13.75 L27.0 14.0 27.25 14.75 28.0 15.0 Q29.0 15.0 29.8 14.6 L30.0 14.0 31.0 14.0 31.0 15.0 Q31.0 15.5 31.25 15.75 L32.0 16.0 32.0 17.0 32.0 18.0 31.0 18.0 30.0 18.0 29.0 18.0 28.0 18.0 27.0 18.0 26.0 18.0 26.0 19.0 26.0 20.0 26.0 21.0 26.0 22.0 26.0 23.0 26.0 24.0 26.0 25.0 26.0 26.0 25.0 26.0 Q25.0 26.5 25.25 26.75 L26.0 27.0 26.0 28.0 Q26.0 28.5 26.25 28.75 L27.0 29.0 27.0 30.0 26.0 30.0 26.0 31.0 25.0 31.0 24.0 31.0 23.0 31.0 22.75 30.25 22.0 30.0 22.0 31.0 21.0 31.0 20.0 31.0 19.75 30.25 19.0 30.0 19.0 31.0 18.0 31.0 17.75 30.25 Q17.5 30.0 17.0 30.0 L16.0 30.0 14.0 30.0 13.75 29.25 13.0 29.0 13.0 30.0 12.0 30.0 8.0 30.0 7.75 29.25 7.0 29.0 7.0 30.0 6.0 30.0 5.0 30.0 4.75 29.25 4.0 29.0 3.0 29.0 1.0 29.0 0.75 28.25 0.0 28.0 0.0 27.0 0.0 26.0 0.75 25.75 1.0 25.0 1.75 24.75 2.0 24.0 2.0 23.0 2.0 20.0 2.75 19.75 3.0 19.0 4.0 19.0 4.75 18.75 5.0 18.0 5.5 18.0 5.0 17.0 5.0 16.0 5.75 15.75 6.0 15.0 5.8 14.1 5.0 13.0 5.0 12.0 5.0 11.0 5.0 10.0 4.75 9.25 4.0 9.0 4.0 10.0 Q3.5 10.0 3.4 9.8 3.0 9.0 3.0 8.0 L3.75 7.75 4.0 7.0 4.0 6.0 3.75 5.25 3.0 5.0 2.85 4.05 2.0 2.0 2.0 1.0 2.0 0.0 3.0 0.0 Q2.9 1.65 4.8 0.6 L5.0 0.0 7.0 0.0 8.0 0.0 10.0 0.0 11.0 0.0 Q11.5 0.0 11.75 0.25 L12.0 1.0 12.0 2.0 12.0 3.0 11.0 3.0 Q11.0 3.5 11.25 3.75 L12.0 4.0 13.0 4.0 13.0 5.0 Q13.0 5.5 13.25 5.75 L14.0 6.0 Q14.5 6.5 15.0 6.5 L15.0 6.0 16.0 6.0 17.0 6.0 18.0 6.0 19.0 6.0 19.75 5.75 20.0 5.0 20.75 4.75 21.0 4.0 22.0 4.0 23.0 4.0 Q23.0 4.5 23.25 4.75 L24.0 5.0 25.0 5.0 M22.0 16.0 L22.0 16.5 Q24.25 16.5 22.0 16.0 M23.0 14.0 L23.0 14.5 Q25.25 14.5 23.0 14.0 M28.0 16.0 L28.0 16.5 Q30.25 16.5 28.0 16.0 M21.0 11.0 L21.0 11.5 Q23.25 11.5 21.0 11.0 M23.0 9.0 L23.0 9.5 Q25.25 9.5 23.0 9.0 M22.0 7.5 Q24.25 7.5 22.0 7.0 L22.0 7.5 M25.0 11.0 L25.0 11.5 Q27.25 11.5 25.0 11.0 M24.75 17.25 L24.0 17.0 24.0 18.0 Q24.5 18.5 25.0 18.5 L25.0 18.0 24.75 17.25 M23.0 28.0 L23.0 28.5 Q25.25 28.5 23.0 28.0 M22.0 26.5 Q24.25 26.5 22.0 26.0 L22.0 26.5 M2.0 26.0 L2.0 26.5 Q4.25 26.5 2.0 26.0 M4.0 25.0 L4.0 25.5 Q6.25 25.5 4.0 25.0 M5.0 27.0 L5.0 27.5 Q7.25 27.5 5.0 27.0 M7.0 25.0 L7.0 25.5 Q9.25 25.5 7.0 25.0 M8.0 27.0 L8.0 27.5 Q10.25 27.5 8.0 27.0 M10.0 26.0 L10.0 26.5 Q12.25 26.5 10.0 26.0 M11.0 28.0 L11.0 28.5 Q13.25 28.5 11.0 28.0 M15.0 27.0 L15.0 27.5 Q17.25 27.5 15.0 27.0 M13.0 26.0 L13.0 26.5 Q15.25 26.5 13.0 26.0 M20.0 28.0 L20.0 28.5 Q22.25 28.5 20.0 28.0 M17.0 28.0 L17.0 28.5 Q19.25 28.5 17.0 28.0 M17.0 25.0 L17.0 25.5 Q19.25 25.5 17.0 25.0 M19.0 26.0 L19.0 26.5 Q21.25 26.5 19.0 26.0 M19.0 12.5 Q21.25 12.5 19.0 12.0 L19.0 12.5 M16.0 12.0 L16.0 12.5 Q18.25 12.5 16.0 12.0 M13.0 12.0 L13.0 12.5 Q15.25 12.5 13.0 12.0 M6.0 12.0 L6.0 12.5 Q8.25 12.5 6.0 12.0 M19.0 23.5 Q21.25 23.5 19.0 23.0 L19.0 23.5 M20.0 21.0 L20.0 21.5 Q22.25 21.5 20.0 21.0 M17.0 22.5 Q19.25 22.5 17.0 22.0 L17.0 22.5 M18.0 20.0 L18.0 20.5 Q20.25 20.5 18.0 20.0 M15.0 24.0 L15.0 24.5 Q17.25 24.5 15.0 24.0 M14.0 22.5 Q16.25 22.5 14.0 22.0 L14.0 22.5 M12.0 24.0 L12.0 24.5 Q14.25 24.5 12.0 24.0 M11.0 22.5 Q13.25 22.5 11.0 22.0 L11.0 22.5 M12.0 20.0 L12.0 20.5 Q14.25 20.5 12.0 20.0 M15.0 20.0 L15.0 20.5 Q17.25 20.5 15.0 20.0 M13.0 16.5 Q15.25 16.5 13.0 16.0 L13.0 16.5 M14.0 18.5 Q16.25 18.5 14.0 18.0 L14.0 18.5 M11.0 18.0 L11.0 18.5 Q13.25 18.5 11.0 18.0 M11.0 14.0 L11.0 14.5 Q13.25 14.5 11.0 14.0 M14.0 14.5 Q16.25 14.5 14.0 14.0 L14.0 14.5 M20.0 18.0 L20.0 18.5 Q22.25 18.5 20.0 18.0 M19.0 16.5 Q21.25 16.5 19.0 16.0 L19.0 16.5 M17.0 18.0 L17.0 18.5 Q19.25 18.5 17.0 18.0 M16.0 16.5 Q18.25 16.5 16.0 16.0 L16.0 16.5 M17.0 14.0 L17.0 14.5 Q19.25 14.5 17.0 14.0 M20.0 14.0 L20.0 14.5 Q22.25 14.5 20.0 14.0 M9.0 24.0 L9.0 24.5 Q11.25 24.5 9.0 24.0 M9.0 20.0 L9.0 20.5 Q11.25 20.5 9.0 20.0 M8.0 22.0 L8.0 22.5 Q10.25 22.5 8.0 22.0 M6.0 23.5 Q8.25 23.5 6.0 23.0 L6.0 23.5 M6.0 20.5 Q8.25 20.5 6.0 20.0 L6.0 20.5 M4.0 22.0 L4.0 22.5 Q6.25 22.5 4.0 22.0 M3.0 20.0 L3.0 20.5 Q5.25 20.5 3.0 20.0 M8.0 18.0 L8.0 18.5 Q10.25 18.5 8.0 18.0 M8.0 15.0 L8.0 15.5 Q10.25 15.5 8.0 15.0 M10.0 16.0 L10.0 16.5 Q12.25 16.5 10.0 16.0 M9.0 13.0 L9.0 13.5 Q11.25 13.5 9.0 13.0 M10.0 6.0 L10.0 6.5 Q12.25 6.5 10.0 6.0 M10.0 9.0 L10.0 9.5 Q12.25 9.5 10.0 9.0 M8.0 11.0 L8.0 11.5 Q10.25 11.5 8.0 11.0 M7.0 9.0 L7.0 9.5 Q9.25 9.5 7.0 9.0 M8.0 7.0 L8.0 7.5 Q10.25 7.5 8.0 7.0 M5.0 7.0 L5.0 7.5 Q7.25 7.5 5.0 7.0 M3.0 2.0 L3.0 2.5 Q5.25 2.5 3.0 2.0 M6.0 3.0 L6.0 3.5 Q8.25 3.5 6.0 3.0 M8.0 4.5 Q10.25 4.5 8.0 4.0 L8.0 4.5 M6.0 5.5 Q8.25 5.5 6.0 5.0 L6.0 5.5 M7.0 1.0 L7.0 1.5 Q9.25 1.5 7.0 1.0 M10.0 1.0 L10.0 1.5 Q12.25 1.5 10.0 1.0 M20.0 6.0 L20.0 6.5 Q22.25 6.5 20.0 6.0 M19.0 9.5 Q21.25 9.5 19.0 9.0 L19.0 9.5 M17.0 10.0 L17.0 10.5 Q19.25 10.5 17.0 10.0 M17.0 7.5 Q19.25 7.5 17.0 7.0 L17.0 7.5 M14.0 10.0 L14.0 10.5 Q16.25 10.5 14.0 10.0 M15.0 8.0 L15.0 8.5 Q17.25 8.5 15.0 8.0 M12.0 8.5 Q14.25 8.5 12.0 8.0 L12.0 8.5 M11.0 11.5 Q13.25 11.5 11.0 11.0 L11.0 11.5 M23.0 12.0 L23.0 12.5 Q25.25 12.5 23.0 12.0 M24.0 24.5 Q26.25 24.5 24.0 24.0 L24.0 24.5 M22.0 22.0 L22.0 22.5 Q24.25 22.5 22.0 22.0 M21.0 24.0 L21.0 24.5 Q23.25 24.5 21.0 24.0 M22.0 19.0 L22.0 19.5 Q24.25 19.5 22.0 19.0 M24.0 21.5 Q26.25 21.5 24.0 21.0 L24.0 21.5 M25.0 15.0 L25.0 15.5 Q27.25 15.5 25.0 15.0" fill="#ffdea5" fill-rule="evenodd" stroke="none"/>
  </g>
</svg>
