<?xml version="1.0" encoding="UTF-8" standalone="no"?>
<svg xmlns:xlink="http://www.w3.org/1999/xlink" height="33.0px" width="24.0px" xmlns="http://www.w3.org/2000/svg">
  <g transform="matrix(1.0, 0.0, 0.0, 1.0, 0.0, 0.0)">
    <path d="M23.0 6.0 L23.0 7.0 23.0 8.0 23.0 10.0 23.0 11.0 23.0 12.0 23.0 13.0 22.0 13.0 21.0 13.0 21.0 14.0 21.0 15.0 21.0 16.0 21.0 17.0 21.0 18.0 21.0 20.0 21.0 21.0 21.0 23.0 21.0 24.0 21.0 25.0 21.0 26.0 21.0 27.0 21.0 28.0 21.0 29.0 21.0 30.0 21.0 31.0 21.0 32.0 20.0 32.0 19.0 32.0 19.0 33.0 18.0 33.0 17.0 33.0 16.0 33.0 15.0 33.0 14.75 32.25 Q14.5 32.0 14.0 32.0 L13.8 31.4 12.0 31.0 11.0 31.0 10.75 30.25 10.0 30.0 9.75 29.25 9.0 29.0 9.0 28.0 9.0 27.0 8.75 26.25 Q8.5 26.0 8.0 26.0 L8.0 25.0 8.0 23.0 7.75 22.25 7.0 22.0 7.0 21.0 7.0 20.0 7.0 19.0 7.0 16.0 6.75 15.25 6.0 15.0 5.9 14.5 Q4.4 14.15 5.0 12.0 L4.75 11.25 4.0 11.0 4.0 10.0 3.75 9.25 3.0 9.0 2.75 8.25 Q2.5 8.0 2.0 8.0 L2.0 7.0 1.75 6.25 1.0 6.0 0.8 5.1 0.0 4.0 0.0 3.0 0.0 2.0 0.0 1.0 0.0 0.0 1.0 0.0 3.0 0.0 4.0 0.0 Q4.0 0.5 4.25 0.75 L5.0 1.0 16.0 1.0 17.0 1.0 18.0 1.0 18.25 1.75 19.0 2.0 20.0 2.0 Q19.9 3.65 22.05 3.1 L23.0 3.0 24.0 3.0 24.0 4.0 23.0 4.0 23.0 5.0 23.0 6.0 M18.0 31.0 L18.0 31.5 Q20.25 31.5 18.0 31.0 M14.0 28.0 L14.0 28.5 Q16.25 28.5 14.0 28.0 M12.0 29.0 L12.0 29.5 Q14.25 29.5 12.0 29.0 M17.0 23.5 Q19.25 23.5 17.0 23.0 L17.0 23.5 M12.0 24.5 Q14.25 24.5 12.0 24.0 L12.0 24.5 M14.0 19.5 Q16.25 19.5 14.0 19.0 L14.0 19.5 M13.0 14.0 L13.0 14.5 Q15.25 14.5 13.0 14.0 M11.0 15.5 Q13.25 15.5 11.0 15.0 L11.0 15.5 M16.0 18.0 L16.0 18.5 Q18.25 18.5 16.0 18.0 M9.0 20.0 L9.0 20.5 Q11.25 20.5 9.0 20.0 M6.0 8.0 L6.0 8.5 Q8.25 8.5 6.0 8.0 M10.0 11.0 L10.0 11.5 Q12.25 11.5 10.0 11.0 M4.0 4.0 L4.0 4.5 Q6.25 4.5 4.0 4.0 M9.0 5.0 L9.0 5.5 Q11.25 5.5 9.0 5.0 M17.0 6.5 Q19.25 6.5 17.0 6.0 L17.0 6.5 M16.0 11.5 Q18.25 11.5 16.0 11.0 L16.0 11.5 M20.0 9.0 L20.0 9.5 Q22.25 9.5 20.0 9.0 M13.0 5.0 L13.0 5.5 Q15.25 5.5 13.0 5.0" fill="#8cadd6" fill-rule="evenodd" stroke="none"/>
  </g>
</svg>
