<?xml version="1.0" encoding="UTF-8" standalone="no"?>
<svg xmlns:xlink="http://www.w3.org/1999/xlink" height="36.0px" width="41.0px" xmlns="http://www.w3.org/2000/svg">
  <g transform="matrix(1.0, 0.0, 0.0, 1.0, 0.0, 0.0)">
    <path d="M41.0 16.0 L40.0 16.0 40.0 19.0 40.0 20.0 39.0 20.0 39.0 21.0 39.0 22.0 38.0 22.0 38.0 23.0 37.0 23.0 37.0 24.0 36.0 24.0 36.0 25.0 35.0 25.0 35.0 26.0 34.0 26.0 34.0 27.0 33.0 27.0 33.0 28.0 32.0 28.0 32.0 29.0 31.0 29.0 31.0 30.0 30.0 30.0 30.0 31.0 29.1 31.2 28.0 32.0 27.0 32.0 26.0 32.0 25.0 32.0 24.0 32.0 24.0 33.0 23.0 33.0 22.0 33.0 21.0 33.0 18.0 33.0 17.0 33.0 16.0 33.0 15.0 33.0 15.0 34.0 14.0 34.0 13.0 34.0 10.0 34.0 10.0 35.0 9.0 35.0 9.0 36.0 8.0 36.0 7.75 35.25 7.0 35.0 6.0 35.0 5.75 34.25 Q5.5 34.0 5.0 34.0 L4.75 33.25 4.0 33.0 4.0 32.0 4.0 31.0 4.0 30.0 4.5 30.0 4.0 29.0 4.0 28.0 4.0 27.0 3.75 26.25 3.0 26.0 3.0 25.0 2.75 24.25 Q2.5 24.0 2.0 24.0 L2.0 23.0 2.0 22.0 1.75 21.25 1.0 21.0 0.8 20.1 0.0 19.0 1.0 19.0 2.0 19.0 3.1 19.8 4.0 20.0 5.0 20.0 6.0 20.0 6.75 19.75 7.0 19.0 7.75 18.75 8.0 18.0 8.75 17.75 9.0 17.0 9.0 16.0 9.0 15.0 9.0 14.0 9.0 13.0 10.0 13.0 Q10.0 13.5 10.25 13.75 L11.0 14.0 12.0 14.0 12.75 13.75 13.0 13.0 13.75 12.75 14.0 12.0 14.75 11.75 15.0 11.0 15.75 10.75 16.0 10.0 17.0 10.0 18.0 10.0 19.0 10.0 20.0 10.0 Q19.9 11.65 21.8 10.6 22.0 10.5 22.0 10.0 L22.0 9.0 23.0 9.0 23.75 8.75 24.0 8.0 24.75 7.75 25.0 7.0 26.0 7.0 26.75 6.75 27.0 6.0 27.8 4.9 28.0 4.0 29.0 4.0 Q30.0 4.0 30.8 3.6 31.0 3.5 31.0 3.0 L32.0 3.0 Q32.5 3.5 33.0 3.5 L33.0 3.0 32.75 2.25 Q32.5 2.0 32.0 2.0 L32.0 1.0 32.75 0.75 33.0 0.0 34.0 0.0 Q34.0 0.5 34.25 0.75 L35.0 1.0 36.0 1.0 37.0 1.0 38.0 1.0 39.0 1.0 39.0 2.0 Q39.0 3.5 39.45 4.85 L40.0 5.0 40.0 6.0 40.0 8.0 40.0 9.0 39.0 9.0 38.0 9.0 38.0 10.0 37.0 10.0 37.0 11.0 37.0 12.0 37.0 13.0 Q37.0 13.5 37.25 13.75 L38.0 14.0 Q38.0 14.5 38.25 14.75 L39.0 15.0 40.0 15.0 41.0 15.0 41.0 16.0 M11.25 18.75 Q12.95 20.45 11.0 18.0 11.0 18.5 11.25 18.75 M30.0 18.0 L29.0 18.0 29.0 19.0 28.0 19.0 28.0 20.0 27.0 20.0 26.0 20.0 Q25.3 22.7 27.0 22.95 L28.0 23.0 Q28.0 23.5 28.25 23.75 L29.0 24.0 Q29.5 24.5 30.0 24.5 L30.0 24.0 30.75 23.75 31.0 23.0 Q32.0 23.0 32.8 22.6 L33.0 22.0 33.6 21.8 Q34.65 19.9 33.0 20.0 L33.0 19.0 32.75 18.25 Q32.5 18.0 32.0 18.0 L31.8 17.4 30.0 17.0 30.0 18.0" fill="#deb5d6" fill-rule="evenodd" stroke="none"/>
  </g>
</svg>
