<?xml version="1.0" encoding="UTF-8" standalone="no"?>
<svg xmlns:xlink="http://www.w3.org/1999/xlink" height="110.0px" width="160.0px" xmlns="http://www.w3.org/2000/svg">
  <g transform="matrix(1.0, 0.0, 0.0, 1.0, 0.0, 0.0)">
    <path d="M159.0 6.0 L159.8 7.1 160.0 8.0 159.0 8.0 158.0 8.0 158.0 9.0 157.0 9.0 156.75 8.25 156.0 8.0 156.0 9.0 155.0 9.0 155.0 10.0 154.95 10.5 148.0 11.0 147.0 11.0 147.0 12.0 146.0 12.0 144.0 12.0 143.1 11.8 142.0 11.0 142.0 12.0 141.0 12.0 140.0 12.0 139.0 12.0 138.0 12.0 Q138.0 13.0 138.4 13.8 138.5 14.0 139.0 14.0 L140.0 14.0 140.75 13.75 141.0 13.0 142.0 13.0 143.0 13.0 144.0 13.0 147.0 13.0 148.0 13.0 149.0 13.0 150.0 13.0 151.0 13.0 151.0 14.0 150.0 14.0 149.0 14.0 148.0 14.0 147.0 14.0 146.0 14.0 145.0 14.0 144.0 14.0 143.0 14.0 142.0 14.0 142.0 15.0 141.0 15.0 140.0 15.0 140.0 16.0 140.0 17.0 Q140.0 17.5 140.25 17.75 L141.0 18.0 142.0 18.0 142.0 19.0 142.0 20.0 142.0 21.0 142.0 22.0 141.0 22.0 140.0 22.0 140.0 23.0 139.0 23.0 138.0 23.0 138.0 25.0 138.0 26.0 137.0 26.0 136.0 26.0 Q136.0 26.5 136.25 26.75 L137.0 27.0 137.0 28.0 137.0 29.0 136.0 29.0 Q136.0 29.5 136.25 29.75 L137.0 30.0 Q137.0 30.5 137.25 30.75 L138.0 31.0 139.0 31.0 Q139.0 31.5 139.25 31.75 L140.0 32.0 141.0 32.0 142.0 32.0 141.85 32.55 139.0 33.0 139.0 34.0 138.0 34.0 136.0 34.0 135.0 34.0 134.0 34.0 134.0 35.0 Q134.0 35.5 134.25 35.75 L135.0 36.0 135.25 36.75 136.0 37.0 Q136.0 37.5 136.25 37.75 L137.0 38.0 138.0 38.0 139.0 38.0 139.0 39.0 138.0 39.0 137.0 39.0 137.0 40.0 137.0 41.0 136.0 41.0 135.0 41.0 135.25 41.75 136.0 42.0 Q136.0 42.5 136.25 42.75 L137.0 43.0 137.0 44.0 136.0 44.0 Q136.0 44.5 136.25 44.75 L137.0 45.0 137.0 46.0 136.1 46.2 Q135.5 46.5 135.0 47.0 L135.0 48.0 Q135.0 49.0 135.4 49.8 135.5 50.0 136.0 50.0 L136.0 51.0 135.0 51.0 134.0 51.0 133.0 51.0 132.75 50.25 132.0 50.0 131.0 50.0 131.0 51.0 130.0 51.0 129.0 51.0 128.75 50.25 Q128.5 50.0 128.0 50.0 L127.0 50.0 126.75 49.25 126.0 49.0 126.0 50.0 126.25 50.75 127.0 51.0 127.0 52.0 127.0 53.0 126.0 53.0 124.0 53.0 Q124.0 52.5 123.8 52.4 L122.0 52.0 122.0 53.0 121.0 53.0 121.0 54.0 Q121.0 54.5 121.25 54.75 L122.0 55.0 Q122.0 56.0 122.4 56.8 122.5 57.0 123.0 57.0 L124.0 57.0 Q124.5 57.5 125.0 57.5 L125.0 57.0 126.0 57.0 Q126.0 58.0 126.4 58.8 126.5 59.0 127.0 59.0 L128.0 59.0 129.0 59.0 130.0 59.0 131.0 59.0 Q131.0 59.5 131.25 59.75 L132.0 60.0 133.0 60.0 133.0 61.0 Q133.0 61.5 133.25 61.75 L134.0 62.0 Q134.0 62.5 134.25 62.75 L135.0 63.0 135.25 63.75 136.0 64.0 136.0 65.0 135.0 65.0 135.0 66.0 134.0 66.0 134.0 67.0 133.0 67.0 132.75 66.25 132.0 66.0 131.8 65.1 131.0 64.0 130.75 63.25 130.0 63.0 129.0 63.0 128.0 63.0 127.75 62.25 127.0 62.0 126.75 61.25 126.0 61.0 125.0 61.0 124.0 61.0 123.0 61.0 122.75 60.25 Q122.5 60.0 122.0 60.0 L121.0 60.0 120.0 60.0 119.75 59.25 Q119.5 59.0 119.0 59.0 L118.0 59.0 Q118.0 59.5 118.25 59.75 L119.0 60.0 119.0 61.0 119.0 62.0 Q119.5 62.5 120.1 62.8 L121.0 63.0 122.0 63.0 123.0 63.0 124.0 63.0 125.0 63.0 126.0 63.0 126.0 64.0 125.0 64.0 124.0 64.0 124.0 65.0 123.0 65.0 122.75 64.25 Q122.5 64.0 122.0 64.0 L121.0 64.0 120.0 64.0 119.0 64.0 119.0 65.0 119.0 66.0 118.0 66.0 118.0 67.0 117.0 67.0 117.25 67.75 118.0 68.0 119.0 68.0 119.0 69.0 Q119.0 69.5 119.25 69.75 L120.0 70.0 121.0 70.0 Q122.0 70.0 122.8 69.6 L123.0 69.0 124.0 69.0 125.0 69.0 126.0 69.0 126.75 68.75 127.0 68.0 128.0 68.0 Q128.0 68.5 128.25 68.75 L129.0 69.0 Q131.15 68.4 131.5 69.9 L132.0 70.0 132.0 71.0 131.0 71.0 130.0 71.0 129.0 71.0 129.0 72.0 128.0 72.0 128.0 73.0 127.0 73.0 127.0 74.0 126.0 74.0 125.0 74.0 124.0 74.0 124.0 75.0 123.0 75.0 122.0 75.0 122.0 76.0 121.0 76.0 119.0 76.0 118.0 76.0 117.1 76.2 116.0 77.0 115.75 76.25 115.0 76.0 115.0 77.0 114.0 77.0 113.0 77.0 113.0 78.0 112.0 78.0 111.0 78.0 110.75 77.25 Q110.5 77.0 110.0 77.0 L109.75 76.25 109.0 76.0 108.75 75.25 108.0 75.0 108.0 76.0 108.0 77.0 108.0 78.0 108.0 79.0 107.0 79.0 106.0 79.0 106.0 80.0 105.0 80.0 105.0 81.0 105.0 82.0 104.0 82.0 104.0 83.0 103.0 83.0 103.0 84.0 102.0 84.0 102.0 85.0 101.0 85.0 99.0 85.0 98.0 85.0 98.0 86.0 98.0 87.0 97.0 87.0 96.0 87.0 96.0 86.0 95.75 85.25 Q95.5 85.0 95.0 85.0 L94.0 85.0 93.0 85.0 93.0 86.0 92.0 86.0 92.0 87.0 92.0 88.0 91.0 88.0 91.0 89.0 90.0 89.0 89.0 89.0 88.75 88.25 88.0 88.0 88.0 89.0 87.0 89.0 87.0 90.0 87.0 91.0 86.0 91.0 85.0 91.0 84.0 91.0 84.0 92.0 84.25 92.75 85.0 93.0 84.75 93.75 84.0 94.0 83.0 94.0 83.0 95.0 83.0 96.0 83.0 97.0 83.0 98.0 82.0 98.0 82.0 99.0 82.0 100.0 81.0 100.0 80.0 100.0 80.0 101.0 79.0 101.0 Q79.0 102.0 79.4 102.8 L80.0 103.0 80.0 104.0 80.0 105.0 79.0 105.0 79.0 106.0 79.0 107.0 79.0 108.0 78.0 108.0 78.0 109.0 77.0 109.0 77.0 110.0 76.0 110.0 75.0 110.0 74.75 109.25 Q74.5 109.0 74.0 109.0 L74.0 108.0 73.75 107.25 73.0 107.0 72.75 106.25 72.0 106.0 72.0 107.0 71.0 107.0 70.0 107.0 70.0 108.0 69.0 108.0 68.0 108.0 67.0 108.0 66.75 107.25 66.0 107.0 66.0 106.0 65.75 105.25 Q65.5 105.0 65.0 105.0 L64.75 104.25 64.0 104.0 63.0 104.0 62.75 103.25 Q62.5 103.0 62.0 103.0 L61.0 103.0 61.0 102.0 61.0 101.0 61.0 100.0 60.75 99.25 60.0 99.0 59.75 98.25 Q59.5 98.0 59.0 98.0 L59.0 97.0 59.75 96.75 60.0 96.0 60.75 95.75 61.0 95.0 61.6 94.8 Q62.65 92.9 61.0 93.0 L60.75 92.25 60.0 92.0 59.0 92.0 59.0 91.0 59.0 90.0 59.0 89.0 58.75 88.25 58.0 88.0 57.0 88.0 56.0 88.0 55.75 87.25 55.0 87.0 55.0 86.0 56.0 86.0 56.75 85.75 57.0 85.0 58.0 85.0 59.0 85.0 59.75 84.75 60.0 84.0 60.75 83.75 61.0 83.0 61.0 82.0 61.0 81.0 61.5 81.0 61.0 80.0 60.75 79.25 60.0 79.0 59.75 78.25 Q59.5 78.0 59.0 78.0 L58.0 78.0 58.0 77.0 58.75 76.75 59.0 76.0 59.0 75.0 60.0 75.0 60.75 74.75 61.0 74.0 61.1 73.05 Q61.65 70.9 60.0 71.0 L60.0 70.0 60.5 70.0 60.0 69.0 59.0 69.0 59.0 68.0 Q59.5 68.0 59.6 67.8 60.65 65.9 59.0 66.0 L58.75 65.25 58.0 65.0 57.75 64.25 57.0 64.0 57.0 63.0 57.0 62.0 56.75 61.25 Q56.5 61.0 56.0 61.0 L55.0 61.0 54.0 61.0 53.75 60.25 Q53.5 60.0 53.0 60.0 L52.0 60.0 51.75 59.25 51.0 59.0 50.75 58.25 Q50.5 58.0 50.0 58.0 L49.0 58.0 49.0 57.0 49.0 56.0 48.75 55.25 48.0 55.0 47.75 54.25 Q47.5 54.0 47.0 54.0 L47.0 53.0 46.75 52.25 46.0 52.0 46.05 51.0 Q46.2 48.3 44.0 48.0 L44.0 47.0 43.75 46.25 43.0 46.0 42.0 46.0 42.0 45.0 41.75 44.25 Q41.5 44.0 41.0 44.0 L40.0 44.0 39.75 43.25 39.0 43.0 38.0 43.0 38.0 42.0 38.5 42.0 38.0 41.0 37.75 40.25 37.0 40.0 36.0 40.0 35.75 39.25 Q35.5 39.0 35.0 39.0 L34.0 39.0 Q34.0 38.5 33.8 38.4 L32.0 38.0 31.0 38.0 30.0 38.0 28.0 38.0 27.75 37.25 27.0 37.0 27.0 38.0 26.0 38.0 25.75 37.25 25.0 37.0 24.0 37.0 23.0 37.0 23.0 38.0 22.0 38.0 21.75 37.25 21.0 37.0 20.0 37.0 20.0 38.0 19.0 38.0 18.75 37.25 18.0 37.0 17.0 37.0 17.0 38.0 16.0 38.0 15.0 38.0 14.75 37.25 Q14.5 37.0 14.0 37.0 L14.0 38.0 13.0 38.0 12.0 38.0 11.0 38.0 10.0 38.0 10.0 37.0 Q12.65 37.65 11.6 35.2 11.5 35.0 11.0 35.0 L10.0 35.0 9.0 35.0 8.75 34.25 Q8.5 34.0 8.0 34.0 L8.0 33.0 9.0 33.0 10.0 33.0 11.0 33.0 12.0 33.0 13.0 33.0 14.0 33.0 Q14.0 33.5 14.25 33.75 L15.0 34.0 16.0 34.0 16.8 32.9 17.0 32.0 17.0 31.0 16.75 30.25 16.0 30.0 Q16.0 29.5 15.8 29.4 L14.0 29.0 14.0 30.0 13.0 30.0 12.0 30.0 11.0 30.0 10.75 29.25 10.0 29.0 9.0 29.0 9.0 30.0 9.0 31.0 8.0 31.0 8.0 30.0 7.75 29.25 7.0 29.0 6.0 29.0 5.0 29.0 4.0 29.0 Q4.0 28.5 3.8 28.4 L2.0 28.0 1.0 28.0 0.75 27.25 0.0 27.0 0.0 26.0 1.0 26.0 2.0 26.0 3.0 26.0 3.75 25.75 4.0 25.0 4.75 24.75 5.0 24.0 7.0 24.0 8.0 24.0 9.8 23.6 Q10.0 23.5 10.0 23.0 L11.0 23.0 12.0 23.0 16.9 22.5 17.0 22.0 18.0 22.0 19.0 22.0 19.75 21.75 20.0 21.0 20.75 20.75 21.0 20.0 21.0 19.0 21.0 18.0 21.0 17.0 22.0 17.0 22.75 16.75 23.0 16.0 23.0 15.0 22.75 14.25 22.0 14.0 22.0 15.0 21.0 15.0 20.0 15.0 19.0 15.0 18.0 15.0 15.0 15.0 15.0 14.0 15.75 13.75 16.0 13.0 17.0 13.0 18.0 13.0 Q19.0 13.0 19.8 12.6 L20.0 12.0 20.75 11.75 21.0 11.0 22.0 11.0 23.0 11.0 24.0 11.0 24.25 11.75 25.0 12.0 Q25.5 12.5 26.0 12.5 L26.0 12.0 26.5 12.0 26.0 11.0 26.0 10.0 27.0 10.0 28.0 10.0 29.0 10.0 30.0 10.0 30.75 9.75 31.0 9.0 31.0 8.0 31.6 7.8 Q32.65 5.9 31.0 6.0 L31.0 5.0 32.0 5.0 33.0 5.0 34.0 5.0 35.0 5.0 Q35.5 5.5 36.1 5.8 L37.0 6.0 Q37.0 6.5 37.25 6.75 L38.0 7.0 39.0 7.0 39.25 7.75 40.0 8.0 41.0 8.0 Q42.75 10.65 42.5 7.05 L42.0 7.0 41.0 7.0 40.75 6.25 40.0 6.0 39.0 6.0 38.75 5.25 Q38.5 5.0 38.0 5.0 L38.0 4.0 40.0 4.0 41.0 4.0 41.75 3.75 42.0 3.0 44.0 3.0 45.0 3.0 46.0 3.0 46.75 2.75 47.0 2.0 48.0 2.0 49.0 2.0 Q49.0 2.5 49.25 2.75 L50.0 3.0 50.0 4.0 50.0 5.0 50.0 6.0 50.0 7.0 Q50.5 7.5 51.0 7.5 L51.0 7.0 51.75 6.75 52.0 6.0 52.75 5.75 53.0 5.0 54.0 5.0 55.0 5.0 56.0 5.0 Q56.0 5.5 56.25 5.75 L57.0 6.0 58.0 6.0 Q58.0 6.5 58.25 6.75 L59.0 7.0 60.0 7.0 Q59.9 8.65 61.8 7.6 L62.0 7.0 62.0 6.0 62.0 5.0 62.0 4.0 61.75 3.25 61.0 3.0 60.0 3.0 60.0 2.0 61.0 2.0 62.0 2.0 63.0 2.0 64.0 2.0 65.1 2.8 66.0 3.0 67.0 3.0 68.0 3.0 Q68.0 3.5 68.25 3.75 L69.0 4.0 Q71.7 3.8 72.45 5.85 L73.0 6.0 74.0 6.0 Q77.45 6.9 76.55 4.15 L76.0 4.0 76.0 3.0 77.0 3.0 78.0 3.0 79.0 3.0 80.0 3.0 81.0 3.0 81.5 3.0 81.0 2.0 80.0 2.0 79.0 2.0 78.0 2.0 77.75 1.25 Q77.5 1.0 77.0 1.0 L77.0 0.0 81.0 0.0 82.0 0.0 Q82.0 0.5 82.25 0.75 L83.0 1.0 Q83.5 1.5 84.0 1.5 L84.0 1.0 86.0 1.0 87.0 1.0 87.25 1.75 88.0 2.0 88.8 0.9 89.0 0.0 136.0 0.0 137.0 0.0 136.9 0.55 133.0 1.0 132.0 1.0 132.0 2.0 131.0 2.0 127.0 2.0 127.0 3.0 126.0 3.0 125.0 3.0 124.75 2.25 124.0 2.0 124.0 3.0 123.0 3.0 122.0 3.0 121.8 2.4 120.0 2.0 119.0 2.0 118.0 2.0 111.0 2.0 110.0 2.0 110.0 3.0 109.0 3.0 109.0 4.0 108.0 4.0 107.0 4.0 107.0 5.0 106.0 5.0 Q106.0 5.5 106.25 5.75 L107.0 6.0 Q106.9 7.65 108.8 6.6 109.0 6.5 109.0 6.0 L110.0 6.0 111.0 6.0 112.0 6.0 112.75 5.75 113.0 5.0 114.0 5.0 115.0 5.0 116.0 5.0 125.0 5.0 126.0 5.0 126.0 6.0 125.0 6.0 124.0 6.0 123.0 6.0 122.0 6.0 122.0 7.0 121.0 7.0 Q121.0 7.5 121.25 7.75 L122.0 8.0 123.0 8.0 124.0 8.0 125.0 8.0 126.8 7.6 Q127.0 7.5 127.0 7.0 L128.0 7.0 129.0 7.0 Q130.0 7.0 130.8 6.6 L131.0 6.0 131.75 5.75 132.0 5.0 Q133.05 4.05 135.0 4.0 L136.0 4.0 136.0 5.0 135.85 5.95 Q135.15 8.15 133.0 9.0 L133.0 10.0 132.0 10.0 132.0 11.0 131.0 11.0 131.0 12.0 130.0 12.0 130.0 13.0 129.0 13.0 129.25 13.75 130.0 14.0 131.0 14.0 131.75 13.75 132.0 13.0 132.75 12.75 133.0 12.0 134.0 12.0 134.75 11.75 135.0 11.0 Q137.0 9.5 139.15 8.2 L140.0 8.0 141.0 8.0 142.0 8.0 143.0 8.0 144.0 8.0 145.0 8.0 147.0 8.0 148.0 8.0 148.75 7.75 149.0 7.0 149.75 6.75 150.0 6.0 150.75 5.75 151.0 5.0 152.0 5.0 153.0 5.0 154.0 5.0 155.0 5.0 Q155.0 5.5 155.25 5.75 L156.0 6.0 157.0 6.0 158.0 6.0 159.0 6.0 M128.0 14.5 Q130.25 14.5 128.0 14.0 L128.0 14.5" fill="#ffffce" fill-rule="evenodd" stroke="none"/>
  </g>
</svg>
