<?xml version="1.0" encoding="UTF-8" standalone="no"?>
<svg xmlns:xlink="http://www.w3.org/1999/xlink" height="23.0px" width="24.0px" xmlns="http://www.w3.org/2000/svg">
  <g transform="matrix(1.0, 0.0, 0.0, 1.0, 0.0, 0.0)">
    <path d="M21.0 10.0 L22.0 10.0 23.0 10.0 Q23.0 10.5 23.25 10.75 L24.0 11.0 23.75 11.75 23.0 12.0 23.0 13.0 22.0 13.0 21.0 13.0 20.0 13.0 20.0 14.0 19.0 14.0 18.0 14.0 18.0 15.0 17.0 15.0 17.0 16.0 17.0 17.0 16.0 17.0 15.0 17.0 15.0 18.0 14.0 18.0 14.0 19.0 13.0 19.0 13.0 20.0 12.0 20.0 11.0 20.0 10.75 19.25 10.0 19.0 9.0 19.0 8.0 19.0 7.0 19.0 7.0 20.0 6.0 20.0 6.0 21.0 5.0 21.0 5.0 22.0 5.0 23.0 4.0 23.0 3.0 23.0 2.0 23.0 2.0 22.0 2.0 21.0 1.75 20.25 1.0 20.0 0.75 19.25 0.0 19.0 0.0 18.0 0.0 17.0 0.0 15.0 0.0 14.0 0.0 13.0 0.0 12.0 0.0 11.0 Q1.0 11.0 1.8 10.6 L2.0 10.0 2.75 9.75 3.0 9.0 3.0 8.0 3.0 1.0 5.85 0.55 6.0 0.0 7.0 0.0 8.0 0.0 9.1 0.8 10.0 1.0 10.75 0.75 11.0 0.0 12.0 0.0 13.0 0.0 14.0 0.0 14.0 1.0 14.0 2.0 Q14.0 2.5 14.25 2.75 L15.0 3.0 15.25 3.75 16.0 4.0 Q16.0 4.5 16.25 4.75 L17.0 5.0 18.0 5.0 18.25 5.75 19.0 6.0 19.0 7.0 19.0 8.0 Q19.0 8.5 19.25 8.75 L20.0 9.0 Q20.0 9.5 20.25 9.75 L21.0 10.0" fill="#ffffce" fill-rule="evenodd" stroke="none"/>
  </g>
</svg>
