<?xml version="1.0" encoding="UTF-8" standalone="no"?>
<svg xmlns:xlink="http://www.w3.org/1999/xlink" height="17.0px" width="20.25px" xmlns="http://www.w3.org/2000/svg">
  <g transform="matrix(1.0, 0.0, 0.0, 1.0, 0.0, 0.0)">
    <path d="M19.0 2.5 L19.0 2.0 Q20.65 1.9 20.1 4.05 L20.0 5.0 19.0 5.0 Q19.0 5.5 19.25 5.75 L20.0 6.0 20.0 7.0 19.0 7.0 19.0 8.0 19.0 9.0 19.0 10.0 19.0 11.0 18.0 11.0 18.0 12.0 18.0 13.0 18.0 14.0 17.0 14.0 17.0 15.0 16.0 15.0 15.0 15.0 15.0 16.0 14.0 16.0 14.0 17.0 13.0 17.0 12.0 17.0 11.0 17.0 10.75 16.25 10.0 16.0 9.0 16.0 8.0 16.0 7.75 15.25 7.0 15.0 Q7.0 14.5 6.8 14.4 L5.0 14.0 5.0 13.0 5.0 12.0 4.75 11.25 4.0 11.0 Q4.0 10.5 3.8 10.4 L2.0 10.0 1.0 10.0 0.25 9.75 0.0 9.0 0.0 8.0 0.0 7.0 0.0 6.0 1.0 6.0 2.0 6.0 Q3.0 6.0 3.8 5.6 4.0 5.5 4.0 5.0 L4.75 4.75 5.0 4.0 5.75 3.75 6.0 3.0 7.0 3.0 8.0 3.0 8.75 2.75 9.0 2.0 9.0 1.0 9.0 0.0 11.0 0.0 12.0 0.0 13.0 0.0 Q12.9 1.65 14.8 0.6 L15.0 0.0 16.0 0.0 17.0 0.0 17.0 1.0 Q17.0 1.5 17.25 1.75 L18.0 2.0 Q18.5 2.5 19.0 2.5" fill="#bdd6bd" fill-rule="evenodd" stroke="none"/>
  </g>
</svg>
