<?xml version="1.0" encoding="UTF-8" standalone="no"?>
<svg xmlns:xlink="http://www.w3.org/1999/xlink" height="39.0px" width="27.05px" xmlns="http://www.w3.org/2000/svg">
  <g transform="matrix(1.0, 0.0, 0.0, 1.0, 0.0, 0.0)">
    <path d="M22.0 1.0 L23.0 1.0 23.75 0.75 24.0 0.0 25.0 0.0 26.0 0.0 Q27.25 4.75 27.0 11.0 L27.0 12.0 26.0 12.0 26.0 13.0 25.0 13.0 25.0 14.0 24.0 14.0 24.0 15.0 23.15 15.25 Q21.95 15.95 20.0 16.0 L19.0 16.0 19.0 17.0 18.0 17.0 17.0 17.0 17.0 18.0 16.75 18.75 12.0 23.0 11.0 23.0 11.0 24.0 Q11.05 25.95 11.75 27.15 L12.0 28.0 12.0 29.0 12.25 29.75 13.0 30.0 13.0 31.0 13.0 32.0 13.0 33.0 13.0 34.0 12.0 34.0 12.25 34.75 13.0 35.0 13.0 36.0 12.0 36.0 11.0 36.0 11.0 37.0 10.0 37.0 9.0 37.0 8.0 37.0 8.0 38.0 7.0 38.0 7.0 39.0 6.0 39.0 5.0 39.0 5.0 38.0 5.0 37.0 4.75 36.25 4.0 36.0 4.0 35.0 4.0 34.0 3.75 33.25 3.0 33.0 3.0 32.0 2.75 31.25 Q2.5 31.0 2.0 31.0 L2.0 30.0 3.0 30.0 3.75 29.75 4.0 29.0 4.75 28.75 5.0 28.0 5.0 27.0 5.75 26.75 6.0 26.0 6.0 25.0 6.75 24.75 7.0 24.0 7.0 23.0 7.0 22.0 8.0 22.0 8.5 22.0 8.0 21.0 8.1 20.05 Q8.65 17.9 7.0 18.0 L7.1 17.05 Q7.65 14.9 6.0 15.0 L5.75 14.25 Q5.5 14.0 5.0 14.0 L4.75 13.25 4.0 13.0 3.0 13.0 2.8 12.4 1.0 12.0 0.0 12.0 0.0 11.0 0.0 10.0 1.0 10.0 2.0 10.0 Q3.0 10.0 3.8 9.6 4.0 9.5 4.0 9.0 L5.0 9.0 6.0 9.0 7.0 9.0 8.0 9.0 9.1 9.8 10.0 10.0 10.0 11.0 9.0 11.0 9.0 12.0 Q9.0 13.0 9.4 13.8 9.5 14.0 10.0 14.0 10.0 14.5 10.25 14.75 L11.0 15.0 Q11.0 15.5 11.25 15.75 L12.0 16.0 Q12.5 16.5 13.0 16.5 L13.0 16.0 13.5 16.0 13.0 15.0 13.0 14.0 14.0 14.0 14.8 12.9 15.0 12.0 15.0 11.0 15.0 9.0 14.75 8.25 Q14.5 8.0 14.0 8.0 L13.75 7.25 13.0 7.0 12.0 7.0 12.0 6.0 11.75 5.25 Q11.5 5.0 11.0 5.0 L11.0 4.0 11.75 3.75 12.0 3.0 12.0 2.0 13.0 2.0 13.75 1.75 14.0 1.0 15.0 1.0 Q14.9 2.65 17.05 2.1 L18.0 2.0 18.75 1.75 19.0 1.0 20.0 1.0 21.0 1.0 22.0 1.0" fill="#ffffce" fill-rule="evenodd" stroke="none"/>
  </g>
</svg>
