<?xml version="1.0" encoding="UTF-8" standalone="no"?>
<svg xmlns:xlink="http://www.w3.org/1999/xlink" height="24.0px" width="30.0px" xmlns="http://www.w3.org/2000/svg">
  <g transform="matrix(1.0, 0.0, 0.0, 1.0, 0.0, 0.0)">
    <path d="M30.0 6.0 L30.0 7.0 30.0 8.0 29.0 8.0 29.0 9.0 29.0 10.0 28.0 10.0 27.0 10.0 Q27.5 10.5 28.1 10.8 L29.0 11.0 29.0 12.0 28.0 12.0 27.0 12.0 27.25 12.75 28.0 13.0 28.0 14.0 28.0 15.0 28.0 16.0 27.0 16.0 26.9 15.45 23.0 15.0 23.0 16.0 22.0 16.0 22.0 17.0 21.0 17.0 21.0 18.0 20.0 18.0 20.0 19.0 19.0 19.0 18.0 19.0 18.0 20.0 17.0 20.0 17.0 21.0 16.0 21.0 15.0 21.0 15.0 22.0 14.0 22.0 14.0 23.0 13.0 23.0 13.0 24.0 12.0 24.0 9.0 24.0 8.0 24.0 7.0 24.0 6.75 23.25 6.0 23.0 5.0 23.0 5.0 24.0 4.0 24.0 3.75 23.25 3.0 23.0 2.0 23.0 1.75 22.25 1.0 22.0 0.75 21.25 0.0 21.0 0.0 20.0 0.0 17.0 0.0 16.0 0.0 15.0 0.0 14.0 0.0 13.0 0.0 12.0 1.0 12.0 2.0 12.0 3.0 12.0 Q2.9 13.65 4.8 12.6 L5.0 12.0 Q6.7 11.7 6.1 9.0 L6.0 8.0 7.0 8.0 8.0 8.0 Q8.0 8.5 8.25 8.75 L9.0 9.0 10.0 9.0 Q10.0 9.5 10.25 9.75 L11.0 10.0 12.0 10.0 13.0 10.0 14.0 10.0 15.0 10.0 15.25 10.75 16.0 11.0 17.0 11.0 17.0 12.0 Q17.0 12.5 17.25 12.75 L18.0 13.0 20.0 13.0 21.0 13.0 21.75 12.75 22.0 12.0 21.8 11.1 21.0 10.0 20.85 9.45 18.0 9.0 18.0 8.0 18.0 7.0 18.0 6.0 18.75 5.75 19.0 5.0 18.75 4.25 18.0 4.0 18.0 3.0 18.0 2.0 18.0 1.0 18.75 0.75 19.0 0.0 20.0 0.0 22.0 0.0 23.0 0.0 Q23.5 0.5 24.1 0.8 L25.0 1.0 27.05 1.85 28.0 2.0 Q28.0 2.5 28.25 2.75 L29.0 3.0 Q29.5 3.0 29.75 3.25 L30.0 4.0 30.0 5.0 30.0 6.0" fill="#deb5d6" fill-rule="evenodd" stroke="none"/>
  </g>
</svg>
