<?xml version="1.0" encoding="UTF-8" standalone="no"?>
<svg xmlns:xlink="http://www.w3.org/1999/xlink" height="19.0px" width="8.0px" xmlns="http://www.w3.org/2000/svg">
  <g transform="matrix(1.0, 0.0, 0.0, 1.0, 0.0, 0.0)">
    <path d="M4.0 3.0 L4.0 4.0 3.0 4.0 3.25 4.75 4.0 5.0 4.0 6.0 4.0 7.0 3.0 7.0 3.25 7.75 4.0 8.0 4.0 9.0 Q4.0 9.5 4.25 9.75 L5.0 10.0 5.0 11.0 5.0 12.0 Q5.0 12.5 5.25 12.75 L6.0 13.0 7.0 13.0 Q7.0 13.5 7.25 13.75 L8.0 14.0 8.0 16.0 8.0 17.0 8.0 18.0 7.0 18.0 6.1 18.2 Q5.5 18.5 5.0 19.0 L4.75 18.25 4.0 18.0 4.0 17.0 4.75 16.75 5.0 16.0 5.0 15.0 4.75 14.25 4.0 14.0 3.75 13.25 3.0 13.0 3.0 14.0 2.0 14.0 1.75 13.25 1.0 13.0 0.75 12.25 0.0 12.0 0.0 11.0 0.0 10.0 0.0 9.0 0.0 8.0 1.0 8.0 1.5 8.0 1.0 7.0 1.0 6.0 1.8 4.9 2.0 4.0 2.0 3.0 1.75 2.25 1.0 2.0 0.75 1.25 0.0 1.0 0.0 0.0 1.0 0.0 2.0 0.0 Q2.0 0.5 2.25 0.75 L3.0 1.0 3.8 2.1 4.0 3.0" fill="#8cadd6" fill-rule="evenodd" stroke="none"/>
  </g>
</svg>
