<?xml version="1.0" encoding="UTF-8" standalone="no"?>
<svg xmlns:xlink="http://www.w3.org/1999/xlink" height="21.0px" width="17.0px" xmlns="http://www.w3.org/2000/svg">
  <g transform="matrix(1.0, 0.0, 0.0, 1.0, 0.0, 0.0)">
    <path d="M17.0 0.0 L17.0 1.0 17.0 2.0 17.0 3.0 16.0 3.0 16.0 4.0 16.0 5.0 16.0 6.0 16.0 7.0 16.0 8.0 16.0 9.0 15.0 9.0 15.0 10.0 15.0 11.0 14.0 11.0 14.0 12.0 13.0 12.0 13.0 13.0 12.0 13.0 12.0 14.0 11.0 14.0 11.0 15.0 11.0 16.0 10.0 16.0 Q10.0 16.5 10.25 16.75 L11.0 17.0 11.0 18.0 10.0 18.0 10.0 19.0 9.0 19.0 9.0 20.0 8.0 20.0 7.0 20.0 7.0 21.0 6.0 21.0 5.0 21.0 4.0 21.0 3.0 21.0 2.0 21.0 1.0 21.0 0.25 20.75 0.0 20.0 0.0 19.0 0.75 18.75 1.0 18.0 1.75 17.75 2.0 17.0 3.0 17.0 3.75 16.75 4.0 16.0 4.0 15.0 5.0 15.0 6.0 15.0 7.0 15.0 Q7.95 17.3 8.0 14.0 L8.0 13.0 7.8 12.1 7.0 11.0 7.0 10.0 7.0 9.0 7.0 8.0 7.6 7.8 Q8.65 5.9 7.0 6.0 L6.75 5.25 6.0 5.0 5.0 5.0 5.0 4.0 6.0 4.0 7.0 4.0 8.0 4.0 Q8.0 4.5 8.25 4.75 L9.0 5.0 10.0 5.0 11.0 5.0 11.75 4.75 12.0 4.0 12.75 3.75 13.0 3.0 13.0 2.0 13.0 1.0 13.75 0.75 14.0 0.0 15.0 0.0 16.0 0.0 17.0 0.0 M9.0 15.0 L9.0 15.5 Q11.25 15.5 9.0 15.0 M6.25 16.75 Q7.95 18.45 6.0 16.0 L6.25 16.75" fill="#ffffce" fill-rule="evenodd" stroke="none"/>
  </g>
</svg>
