<?xml version="1.0" encoding="UTF-8" standalone="no"?>
<svg xmlns:xlink="http://www.w3.org/1999/xlink" height="35.0px" width="18.0px" xmlns="http://www.w3.org/2000/svg">
  <g transform="matrix(1.0, 0.0, 0.0, 1.0, 0.0, 0.0)">
    <path d="M16.0 0.0 L17.0 0.0 17.0 1.0 17.0 2.0 Q17.0 2.5 17.25 2.75 L18.0 3.0 18.0 5.0 18.0 6.0 17.0 6.0 17.0 7.0 17.0 8.0 17.0 10.0 17.0 11.0 16.0 11.0 16.0 12.0 16.0 13.0 16.0 14.0 16.0 15.0 15.8 15.9 15.0 17.0 15.0 18.0 15.0 19.0 14.0 19.0 14.0 20.0 14.0 21.0 13.0 21.0 12.0 21.0 12.25 21.75 13.0 22.0 13.0 24.0 13.0 25.0 12.0 25.0 12.0 26.0 12.0 27.0 12.0 28.0 11.0 28.0 11.0 29.0 11.1 29.95 Q11.65 32.15 10.0 32.0 L10.0 33.0 9.0 33.0 9.0 34.0 8.0 34.0 7.0 34.0 7.0 35.0 6.0 35.0 5.0 35.0 4.75 34.25 4.0 34.0 3.0 34.0 2.75 33.25 Q2.5 33.0 2.0 33.0 L2.0 32.0 2.5 32.0 2.0 31.0 1.8 30.1 1.0 29.0 1.0 28.0 1.5 28.0 1.0 27.0 0.0 27.0 0.0 26.0 0.75 25.75 1.0 25.0 1.0 24.0 1.75 23.75 2.0 23.0 2.0 22.0 3.0 22.0 3.5 22.0 3.0 21.0 3.0 20.0 3.0 15.0 2.8 14.1 2.0 13.0 2.75 12.75 3.0 12.0 4.0 12.0 4.5 12.0 4.0 11.0 3.0 11.0 3.0 10.0 4.0 10.0 5.0 10.0 5.75 9.75 6.0 9.0 7.0 9.0 8.0 9.0 8.75 8.75 9.0 8.0 10.0 8.0 10.75 7.75 11.0 7.0 11.75 6.75 12.0 6.0 12.75 5.75 13.0 5.0 13.0 4.0 13.0 3.0 14.0 3.0 14.75 2.75 15.0 2.0 15.8 0.9 16.0 0.0 M8.0 32.5 Q10.25 32.5 8.0 32.0 L8.0 32.5 M5.0 32.0 L5.0 32.5 Q7.25 32.5 5.0 32.0 M5.0 28.0 L5.0 28.5 Q7.25 28.5 5.0 28.0 M3.0 29.5 Q5.25 29.5 3.0 29.0 L3.0 29.5 M2.0 25.0 L2.0 25.5 Q4.25 25.5 2.0 25.0 M4.0 26.0 L4.0 26.5 Q6.25 26.5 4.0 26.0 M9.0 30.0 L9.0 30.5 Q11.25 30.5 9.0 30.0 M8.0 28.5 Q10.25 28.5 8.0 28.0 L8.0 28.5 M6.0 30.0 L6.0 30.5 Q8.25 30.5 6.0 30.0 M7.0 26.0 L7.0 26.5 Q9.25 26.5 7.0 26.0 M9.0 25.0 L9.0 25.5 Q11.25 25.5 9.0 25.0 M10.0 27.0 L10.0 27.5 Q12.25 27.5 10.0 27.0 M8.0 12.5 Q10.25 12.5 8.0 12.0 L8.0 12.5 M11.0 23.5 Q13.25 23.5 11.0 23.0 L11.0 23.5 M14.0 16.5 Q16.25 16.5 14.0 16.0 L14.0 16.5 M12.0 18.0 L12.0 18.5 Q14.25 18.5 12.0 18.0 M11.0 16.0 L11.0 16.5 Q13.25 16.5 11.0 16.0 M12.0 13.0 L12.0 13.5 Q14.25 13.5 12.0 13.0 M14.0 14.0 L14.0 14.5 Q16.25 14.5 14.0 14.0 M6.0 22.0 L6.0 22.5 Q8.25 22.5 6.0 22.0 M7.0 20.0 L7.0 20.5 Q9.25 20.5 7.0 20.0 M7.0 24.0 L7.0 24.5 Q9.25 24.5 7.0 24.0 M9.0 22.0 L9.0 22.5 Q11.25 22.5 9.0 22.0 M10.0 20.0 L10.0 20.5 Q12.25 20.5 10.0 20.0 M4.0 23.0 L4.0 23.5 Q6.25 23.5 4.0 23.0 M5.0 19.0 L5.0 19.5 Q7.25 19.5 5.0 19.0 M5.0 15.0 L5.0 15.5 Q7.25 15.5 5.0 15.0 M4.0 17.0 L4.0 17.5 Q6.25 17.5 4.0 17.0 M10.0 14.0 L10.0 14.5 Q12.25 14.5 10.0 14.0 M6.0 13.5 Q8.25 13.5 6.0 13.0 L6.0 13.5 M9.0 18.0 L9.0 18.5 Q11.25 18.5 9.0 18.0 M8.0 15.5 Q10.25 15.5 8.0 15.0 L8.0 15.5 M7.0 17.5 Q9.25 17.5 7.0 17.0 L7.0 17.5 M10.0 11.0 L10.0 11.5 Q12.25 11.5 10.0 11.0 M7.0 10.0 L7.0 10.5 Q9.25 10.5 7.0 10.0 M11.0 9.0 L11.0 9.5 Q13.25 9.5 11.0 9.0 M15.0 9.0 L15.0 9.5 Q17.25 9.5 15.0 9.0 M13.0 11.0 L13.0 11.5 Q15.25 11.5 13.0 11.0 M13.0 7.5 Q15.25 7.5 13.0 7.0 L13.0 7.5 M15.0 5.0 L15.0 5.5 Q17.25 5.5 15.0 5.0 M16.0 3.5 Q18.25 3.5 16.0 3.0 L16.0 3.5" fill="#ffdea5" fill-rule="evenodd" stroke="none"/>
  </g>
</svg>
