<?xml version="1.0" encoding="UTF-8" standalone="no"?>
<svg xmlns:xlink="http://www.w3.org/1999/xlink" height="78.0px" width="108.15px" xmlns="http://www.w3.org/2000/svg">
  <g transform="matrix(1.0, 0.0, 0.0, 1.0, 0.0, 0.0)">
    <path d="M84.15 9.0 L86.95 13.15 87.15 14.0 87.15 15.0 87.15 16.0 87.4 16.75 88.15 17.0 Q87.95 19.75 89.35 20.75 L90.15 21.0 90.4 21.75 91.15 22.0 92.15 22.0 Q92.15 22.5 92.4 22.75 L93.15 23.0 94.15 23.0 95.15 23.0 Q95.15 23.5 95.4 23.75 L96.15 24.0 96.15 25.0 96.15 26.0 96.4 26.75 97.15 27.0 Q97.15 28.0 97.55 28.8 L98.15 29.0 99.25 29.8 100.15 30.0 101.15 30.0 101.15 32.0 101.15 33.0 Q101.15 33.5 101.4 33.75 L102.15 34.0 103.15 34.0 Q103.15 34.5 103.4 34.75 L104.15 35.0 105.9 37.15 106.15 38.0 106.15 39.0 Q106.15 39.5 106.4 39.75 L107.15 40.0 107.15 41.0 107.15 43.0 107.15 44.0 Q107.15 44.5 107.4 44.75 L108.15 45.0 108.15 49.0 108.15 50.0 107.15 50.0 107.15 51.0 107.15 52.0 107.15 53.0 106.15 53.0 106.15 54.0 106.15 55.0 106.15 56.0 106.15 57.0 105.9 57.75 105.15 58.0 104.15 58.0 104.15 59.0 103.15 59.0 103.15 60.0 102.95 60.9 101.15 64.0 101.15 65.0 100.15 65.0 100.15 66.0 100.15 67.0 100.15 68.0 99.15 68.0 99.15 69.0 98.15 69.0 98.15 70.0 98.15 71.0 98.05 72.0 Q97.15 76.05 94.15 74.0 L93.15 74.0 93.15 75.0 92.15 75.0 92.15 76.0 91.15 76.0 90.15 76.0 90.15 77.0 89.15 77.0 89.15 78.0 88.15 78.0 87.9 77.25 87.15 77.0 86.9 76.25 Q86.65 76.0 86.15 76.0 L85.9 75.25 85.15 75.0 84.15 75.0 83.15 75.0 83.15 76.0 82.15 76.0 82.15 77.0 81.15 77.0 80.15 77.0 79.15 77.0 78.9 76.25 78.15 76.0 77.15 76.0 76.15 76.0 75.15 76.0 74.9 75.25 Q74.65 75.0 74.15 75.0 L73.25 74.8 Q70.85 73.8 70.15 71.0 L70.9 70.75 71.15 70.0 71.15 69.0 70.9 68.25 70.15 68.0 69.15 68.0 68.95 67.4 Q68.15 67.0 67.15 67.0 L67.15 66.0 67.65 66.0 Q67.65 65.5 67.15 65.0 L66.9 64.25 66.15 64.0 66.15 65.0 66.15 66.0 65.15 66.0 65.15 65.0 65.15 64.0 65.15 63.0 65.15 62.0 64.9 61.25 64.15 61.0 64.15 62.0 63.15 62.0 62.15 62.0 62.15 63.0 61.9 63.85 60.15 66.0 59.9 65.25 Q59.65 65.0 59.15 65.0 L59.15 64.0 58.9 63.25 58.15 63.0 57.9 62.25 57.15 62.0 56.9 61.25 Q56.65 61.0 56.15 61.0 L55.9 60.25 55.15 60.0 54.9 59.25 54.15 59.0 53.9 58.25 Q53.65 58.0 53.15 58.0 L52.25 57.8 49.15 56.0 48.9 55.25 48.15 55.0 47.15 55.0 47.15 56.0 46.15 56.0 45.15 56.0 44.9 55.25 Q44.65 55.0 44.15 55.0 L43.15 55.0 42.15 55.0 42.15 56.0 41.15 56.0 39.15 56.0 39.15 57.0 38.15 57.0 38.15 58.0 37.15 58.0 35.15 58.0 34.9 57.25 34.15 57.0 34.15 58.0 33.25 58.2 Q31.05 59.45 28.15 60.0 L28.15 61.0 27.15 61.0 27.15 62.0 27.1 62.5 19.15 63.0 Q19.15 62.5 18.95 62.4 18.15 62.0 17.15 62.0 L17.15 63.0 14.95 64.65 Q11.95 66.3 7.15 66.0 L6.9 65.25 6.15 65.0 5.9 64.25 Q5.65 64.0 5.15 64.0 L4.9 63.25 4.15 63.0 4.15 62.0 4.9 61.75 5.15 61.0 5.15 60.0 5.9 59.75 6.15 59.0 6.15 58.0 6.25 57.05 Q6.8 54.9 5.15 55.0 L4.95 54.1 4.15 53.0 4.15 52.0 4.15 49.0 3.9 48.25 3.15 48.0 2.9 47.25 Q2.65 47.0 2.15 47.0 L2.15 46.0 2.15 45.0 1.9 44.25 1.15 44.0 1.05 43.5 Q-0.45 43.15 0.15 41.0 L1.15 41.0 1.65 41.0 Q1.65 40.5 1.15 40.0 L1.15 39.0 1.15 38.0 0.9 37.25 0.15 37.0 0.15 36.0 0.15 35.0 0.15 34.0 0.15 33.0 0.15 29.0 1.15 29.0 Q1.15 29.5 1.4 29.75 L2.15 30.0 2.9 29.75 3.15 29.0 3.15 28.0 4.15 28.0 4.9 27.75 5.15 27.0 5.15 26.0 Q7.3 26.65 7.65 25.1 L8.15 25.0 9.15 25.0 10.15 25.0 10.9 24.75 11.15 24.0 12.15 24.0 13.95 23.6 14.15 23.0 17.15 23.0 18.15 23.0 18.9 22.75 19.15 22.0 20.9 20.75 21.15 20.0 21.9 19.75 22.15 19.0 22.9 18.75 23.15 18.0 23.15 17.0 23.15 15.0 24.15 15.0 24.9 14.75 25.15 14.0 26.15 14.0 26.15 15.0 Q26.15 15.5 26.4 15.75 L27.15 16.0 27.9 15.75 28.15 15.0 28.15 14.0 28.15 13.0 29.15 13.0 Q29.15 13.5 29.4 13.75 L30.15 14.0 30.9 13.75 31.15 13.0 30.9 12.25 30.15 12.0 30.15 11.0 30.9 10.75 31.15 10.0 31.9 9.75 32.15 9.0 32.9 8.75 33.15 8.0 34.15 8.0 34.9 7.75 35.15 7.0 36.15 7.0 37.15 7.0 Q37.15 7.5 37.4 7.75 L38.15 8.0 38.15 9.0 Q38.15 10.0 38.55 10.8 38.65 11.0 39.15 11.0 L39.9 10.75 40.15 10.0 40.15 9.0 41.15 9.0 42.15 9.0 42.4 9.75 43.15 10.0 43.75 9.8 Q44.8 7.9 43.15 8.0 L43.15 7.0 43.9 6.75 44.15 6.0 44.9 5.75 45.15 5.0 45.15 4.0 45.9 3.75 46.15 3.0 47.15 3.0 48.15 3.0 48.9 2.75 49.15 2.0 50.15 2.0 Q50.65 2.5 51.15 2.5 L51.15 2.0 51.15 1.0 51.9 0.75 52.15 0.0 53.15 0.0 Q53.15 0.5 53.4 0.75 L54.15 1.0 56.15 1.0 57.15 1.0 57.4 1.75 58.15 2.0 Q58.65 2.5 59.15 2.5 L59.15 2.0 60.15 2.0 61.25 2.8 62.15 3.0 62.15 4.0 61.9 4.75 61.15 5.0 60.15 5.0 60.15 6.0 60.15 7.0 60.15 8.0 59.15 8.0 Q59.15 8.5 59.4 8.75 L60.15 9.0 Q61.0 11.15 63.2 11.85 L64.15 12.0 Q64.15 12.5 64.4 12.75 L65.15 13.0 Q65.15 13.5 65.4 13.75 L66.15 14.0 67.15 14.0 Q67.15 14.5 67.4 14.75 L68.15 15.0 69.15 15.0 69.9 15.25 70.15 16.0 Q70.15 16.5 70.4 16.75 L71.15 17.0 72.15 17.0 72.9 16.75 73.15 16.0 73.15 15.0 73.9 14.75 74.15 14.0 74.95 12.9 75.15 12.0 75.15 11.0 75.9 10.75 76.15 10.0 76.0 9.05 75.15 7.0 75.9 6.75 76.15 6.0 76.65 6.0 Q76.65 5.5 76.15 5.0 L76.15 4.0 76.15 3.0 76.9 2.75 77.15 2.0 77.9 1.75 78.15 1.0 79.15 1.0 Q79.15 1.5 79.4 1.75 L80.15 2.0 80.15 3.0 Q80.15 3.5 80.4 3.75 L81.15 4.0 81.4 4.75 82.15 5.0 82.15 6.0 Q82.15 7.0 82.55 7.8 L83.15 8.0 Q83.15 8.5 83.4 8.75 L84.15 9.0 M65.15 60.5 Q67.45 60.5 65.15 60.0 L65.15 60.5 M44.15 10.5 Q46.45 10.5 44.15 10.0 L44.15 10.5" fill="#bdd6bd" fill-rule="evenodd" stroke="none"/>
  </g>
</svg>
