<?xml version="1.0" encoding="UTF-8" standalone="no"?>
<svg xmlns:xlink="http://www.w3.org/1999/xlink" height="75.0px" width="76.05px" xmlns="http://www.w3.org/2000/svg">
  <g transform="matrix(1.0, 0.0, 0.0, 1.0, 0.0, 0.0)">
    <path d="M43.0 24.0 L44.1 24.8 45.0 25.0 46.0 25.0 46.75 24.75 47.0 24.0 48.0 24.0 48.0 25.0 Q48.5 25.5 49.0 25.5 L49.0 25.0 50.0 25.0 51.0 25.0 51.25 25.75 52.0 26.0 Q52.0 26.5 52.25 26.75 L53.0 27.0 53.0 28.0 52.0 28.0 52.0 29.0 52.0 30.0 Q52.0 30.5 52.25 30.75 L53.0 31.0 54.0 31.0 54.0 32.0 54.0 33.0 54.0 35.0 54.0 36.0 54.0 37.0 53.0 37.0 52.8 36.4 51.0 36.0 51.0 37.0 51.0 38.0 50.0 38.0 49.0 38.0 49.0 39.0 49.0 40.0 48.0 40.0 48.0 41.0 48.0 42.0 47.0 42.0 47.0 43.0 46.0 43.0 45.0 43.0 44.0 43.0 44.0 44.0 43.0 44.0 43.0 45.0 42.75 45.75 42.0 46.0 42.0 47.0 41.0 47.0 41.0 48.0 40.0 48.0 39.0 48.0 39.0 49.0 38.1 49.2 Q37.5 49.5 37.0 50.0 L36.0 50.0 36.0 51.0 36.0 52.0 35.0 52.0 34.0 52.0 34.0 53.0 33.0 53.0 33.0 54.0 32.0 54.0 31.0 54.0 31.0 55.0 30.0 55.0 30.0 56.0 30.0 57.0 30.0 58.0 30.25 58.75 31.0 59.0 31.0 60.0 30.0 60.0 30.25 60.75 31.0 61.0 30.8 61.9 30.0 63.0 30.0 64.0 30.0 65.0 29.0 65.0 Q29.0 66.0 29.4 66.8 29.5 67.0 30.0 67.0 L30.0 68.0 29.0 68.0 29.0 69.0 28.0 69.0 28.0 70.0 28.0 71.0 27.0 71.0 26.0 71.0 26.0 72.0 25.0 72.0 25.0 73.0 24.0 73.0 24.0 74.0 24.0 75.0 23.25 74.75 22.0 73.0 21.75 72.25 21.0 72.0 21.0 71.0 21.0 70.0 20.75 69.25 Q20.5 69.0 20.0 69.0 L20.0 68.0 19.8 67.1 19.0 66.0 18.8 65.1 18.0 64.0 17.8 63.1 17.0 62.0 17.0 61.0 16.75 60.25 16.0 60.0 15.85 59.05 14.0 55.0 13.75 54.25 13.0 54.0 13.0 53.0 13.0 52.0 12.8 51.1 12.0 50.0 12.0 49.0 12.0 48.0 12.0 46.0 12.0 45.0 11.75 44.25 Q11.5 44.0 11.0 44.0 L11.0 43.0 11.0 42.0 11.8 40.9 12.0 40.0 12.1 39.05 Q12.65 36.9 11.0 37.0 L10.8 36.4 9.0 36.0 9.0 37.0 9.0 38.0 9.0 39.0 8.8 39.6 Q8.0 40.0 7.0 40.0 L6.0 40.0 6.0 41.0 5.0 41.0 4.75 40.25 4.0 40.0 3.75 39.25 3.0 39.0 2.75 38.25 Q2.5 38.0 2.0 38.0 L2.0 37.0 3.0 37.0 3.75 36.75 4.0 36.0 4.6 35.8 Q5.65 33.9 4.0 34.0 L3.0 34.0 3.0 35.0 2.0 35.0 1.75 34.25 1.0 34.0 0.0 34.0 0.0 33.0 0.0 32.0 0.0 31.0 1.0 31.0 Q0.9 32.65 2.8 31.6 L3.0 31.0 4.0 31.0 5.0 31.0 6.0 31.0 6.6 30.8 Q7.65 28.9 6.0 29.0 L6.0 28.0 5.75 27.25 Q5.5 27.0 5.0 27.0 L4.75 26.25 4.0 26.0 4.0 25.0 3.75 24.25 3.0 24.0 3.0 23.0 3.0 22.0 3.75 21.75 4.0 21.0 5.0 21.0 Q5.3 22.7 7.8 21.6 L8.0 21.0 8.75 20.75 9.0 20.0 9.75 19.75 10.0 19.0 10.75 18.75 11.0 18.0 11.75 17.75 12.0 17.0 12.0 16.0 13.0 16.0 13.75 15.75 14.0 15.0 14.0 14.0 14.75 13.75 15.0 13.0 15.75 12.75 16.0 12.0 Q17.65 12.15 17.1 9.95 L17.0 9.0 17.75 8.75 18.0 8.0 17.75 7.25 Q17.5 7.0 17.0 7.0 L16.75 6.25 16.0 6.0 15.0 6.0 15.0 5.0 15.0 4.0 14.8 3.1 14.0 2.0 14.0 1.0 15.0 1.0 16.0 1.0 Q16.0 1.5 16.25 1.75 L17.0 2.0 18.0 2.0 19.0 2.0 19.75 1.75 20.0 1.0 21.0 1.0 22.0 1.0 22.75 0.75 23.0 0.0 24.0 0.0 24.25 0.75 25.0 1.0 Q25.0 1.5 25.25 1.75 L26.0 2.0 26.0 3.0 26.0 4.0 Q26.0 4.5 26.25 4.75 L27.0 5.0 27.0 6.0 26.0 6.0 26.0 7.0 25.0 7.0 25.0 8.0 Q25.0 8.5 25.25 8.75 L26.0 9.0 Q26.0 10.0 26.4 10.8 26.5 11.0 27.0 11.0 L28.0 11.0 Q28.0 11.5 28.25 11.75 L29.0 12.0 Q29.0 12.5 29.25 12.75 L30.0 13.0 30.25 13.75 31.0 14.0 Q31.0 14.5 31.25 14.75 L32.0 15.0 32.0 16.0 31.0 16.0 30.0 16.0 30.0 17.0 30.0 18.0 30.25 18.75 31.0 19.0 32.0 19.0 Q32.0 19.5 32.25 19.75 L33.0 20.0 34.0 20.0 Q34.0 20.5 34.25 20.75 L35.0 21.0 Q35.5 21.5 36.1 21.8 L37.0 22.0 38.0 22.0 42.05 23.85 43.0 24.0" fill="#deb5d6" fill-rule="evenodd" stroke="none"/>
    <path d="M70.05 18.05 L71.05 18.05 72.05 18.05 72.8 17.8 73.05 17.05 74.05 17.05 74.05 18.05 Q74.05 19.05 74.45 19.85 L75.05 20.05 76.05 20.05 76.05 21.05 75.05 21.05 75.05 22.05 74.05 22.05 73.05 22.05 72.05 22.05 72.05 23.05 71.05 23.05 71.05 24.05 70.05 24.05 70.05 26.05 70.05 27.05 69.05 27.05 69.05 29.05 69.05 30.05 69.05 31.05 69.05 32.05 68.05 32.05 67.05 32.05 66.05 32.05 66.05 33.05 65.05 33.05 64.05 33.05 63.05 33.05 63.05 32.05 63.8 31.8 64.05 31.05 64.05 30.05 64.05 29.05 63.8 28.3 Q63.55 28.05 63.05 28.05 L62.8 27.3 62.05 27.05 62.05 28.05 61.05 28.05 60.05 28.05 59.05 28.05 58.05 28.05 57.8 27.3 Q57.55 27.05 57.05 27.05 L57.05 26.05 57.05 25.05 61.95 24.55 62.05 24.05 63.05 24.05 63.55 24.05 Q63.55 23.55 63.05 23.05 L63.05 22.05 63.8 21.8 64.05 21.05 65.05 21.05 65.8 20.8 66.05 20.05 67.05 20.05 67.8 19.8 68.05 19.05 68.8 18.8 69.05 18.05 70.05 18.05" fill="#deb5d6" fill-rule="evenodd" stroke="none"/>
  </g>
</svg>
