<?xml version="1.0" encoding="UTF-8" standalone="no"?>
<svg xmlns:xlink="http://www.w3.org/1999/xlink" height="30.0px" width="32.0px" xmlns="http://www.w3.org/2000/svg">
  <g transform="matrix(1.0, 0.0, 0.0, 1.0, 0.0, 0.0)">
    <path d="M31.0 4.0 L30.0 4.0 30.0 5.0 30.0 6.0 29.0 6.0 28.0 6.0 28.0 7.0 27.0 7.0 26.0 7.0 Q26.0 7.5 26.25 7.75 L27.0 8.0 27.0 9.0 27.0 10.0 26.0 10.0 Q26.0 10.5 26.25 10.75 L27.0 11.0 27.0 12.0 26.8 12.6 Q26.0 13.0 25.0 13.0 L24.0 13.0 23.0 13.0 23.0 14.0 22.0 14.0 21.0 14.0 20.0 14.0 20.0 15.0 19.0 15.0 18.0 15.0 18.25 15.75 19.0 16.0 19.0 17.0 18.0 17.0 18.0 18.0 17.0 18.0 17.0 19.0 16.0 19.0 16.0 20.0 16.0 21.0 15.0 21.0 14.0 21.0 13.0 21.0 13.0 22.0 12.0 22.0 12.0 23.0 12.0 24.0 11.0 24.0 11.0 25.0 11.0 26.0 11.0 27.0 10.0 27.0 10.0 28.0 9.0 28.0 8.0 28.0 8.0 29.0 8.0 30.0 7.0 30.0 5.0 30.0 4.0 30.0 3.75 29.25 3.0 29.0 2.0 29.0 1.75 28.25 1.0 28.0 1.0 29.0 0.0 29.0 0.0 28.0 0.0 27.0 0.75 26.75 1.0 26.0 1.75 25.75 2.0 25.0 2.75 24.75 3.0 24.0 3.0 23.0 4.0 23.0 5.0 23.0 5.75 22.75 6.0 22.0 7.0 22.0 7.75 21.75 8.0 21.0 8.75 20.75 9.0 20.0 9.0 19.0 10.0 19.0 Q11.0 19.0 11.8 18.6 L12.0 18.0 12.0 17.0 12.0 16.0 12.75 15.75 13.0 15.0 14.0 15.0 14.75 14.75 15.0 14.0 15.0 13.0 15.0 12.0 16.0 12.0 16.0 13.0 Q16.5 13.5 17.0 13.5 L17.0 13.0 17.75 12.75 18.0 12.0 19.0 12.0 Q19.5 12.5 20.0 12.5 L20.0 12.0 21.0 12.0 21.25 12.75 22.0 13.0 23.0 13.0 23.0 12.0 23.0 11.0 23.0 10.0 23.5 10.0 23.0 9.0 22.0 9.0 21.75 8.25 21.0 8.0 20.0 8.0 20.0 7.0 20.75 6.75 21.0 6.0 21.75 5.75 22.0 5.0 22.0 4.0 22.0 3.0 22.0 1.0 22.0 0.0 23.0 0.0 Q23.0 0.5 23.25 0.75 L24.0 1.0 24.25 1.75 25.0 2.0 Q25.0 2.5 25.25 2.75 L26.0 3.0 27.0 3.0 29.0 3.0 30.0 3.0 31.0 3.0 32.0 3.0 32.0 4.0 31.0 4.0 M5.0 28.0 L5.0 28.5 Q7.3 28.5 5.0 28.0 M3.0 26.0 L3.0 26.5 Q5.3 26.5 3.0 26.0 M6.0 26.0 L6.0 26.5 Q8.3 26.5 6.0 26.0 M8.0 25.0 L8.0 25.5 Q10.3 25.5 8.0 25.0 M11.0 20.0 L11.0 20.5 Q13.3 20.5 11.0 20.0 M13.0 16.0 L13.0 16.5 Q15.3 16.5 13.0 16.0 M14.0 18.0 L14.0 18.5 Q16.3 18.5 14.0 18.0 M16.0 16.0 L16.0 16.5 Q18.3 16.5 16.0 16.0 M9.0 22.0 L9.0 22.5 Q11.3 22.5 9.0 22.0 M7.0 23.0 L7.0 23.5 Q9.3 23.5 7.0 23.0 M4.0 24.0 L4.0 24.5 Q6.3 24.5 4.0 24.0 M24.0 6.5 Q26.3 6.5 24.0 6.0 L24.0 6.5 M24.0 11.5 Q26.3 11.5 24.0 11.0 L24.0 11.5 M22.0 7.0 L22.0 7.5 Q24.3 7.5 22.0 7.0 M24.0 4.5 Q26.3 4.5 24.0 4.0 L24.0 4.5 M23.0 2.0 L23.0 2.5 Q25.3 2.5 23.0 2.0 M27.0 4.0 L27.0 4.5 Q29.3 4.5 27.0 4.0" fill="#ffdea5" fill-rule="evenodd" stroke="none"/>
  </g>
</svg>
